<?xml version="1.0" standalone="no"?>
<!DOCTYPE svg PUBLIC "-//W3C//DTD SVG 20010904//EN"
 "http://www.w3.org/TR/2001/REC-SVG-20010904/DTD/svg10.dtd">
<svg version="1.0" xmlns="http://www.w3.org/2000/svg"
 width="700.000000pt" height="700.000000pt" viewBox="0 0 700.000000 700.000000"
 preserveAspectRatio="xMidYMid meet">
<metadata>
Created by potrace 1.11, written by Peter Selinger 2001-2013
</metadata>
<g transform="translate(0.000000,700.000000) scale(0.100000,-0.100000)"
fill="#000000" stroke="none">
<path d="M3468 5936 c-1 -2 -37 -6 -78 -10 -41 -3 -86 -8 -100 -10 -14 -3 -47
-7 -75 -11 -54 -6 -268 -58 -307 -74 -12 -6 -65 -27 -117 -47 -294 -116 -557
-317 -719 -547 -90 -128 -175 -332 -218 -527 -20 -88 -28 -409 -13 -505 11
-72 33 -185 43 -220 21 -79 35 -113 71 -187 83 -165 163 -271 276 -364 40 -33
77 -64 83 -69 34 -32 185 -124 281 -170 187 -91 307 -133 670 -236 329 -94
510 -174 635 -282 24 -21 53 -51 62 -65 60 -90 50 -271 -21 -386 -52 -83 -177
-162 -286 -181 -126 -21 -171 -26 -264 -26 -141 1 -198 8 -309 36 -130 34
-227 77 -332 146 -186 122 -312 169 -442 163 -95 -5 -161 -29 -227 -84 -64
-53 -95 -98 -309 -437 l-121 -192 47 -39 c118 -97 371 -244 551 -319 197 -82
467 -161 601 -177 25 -3 81 -12 125 -21 136 -26 193 -30 415 -30 340 1 523 24
750 94 392 121 700 309 890 543 82 102 112 149 173 273 98 198 141 405 141
685 0 150 -6 208 -34 328 -39 168 -103 309 -184 407 -76 92 -100 116 -176 173
-41 31 -77 60 -80 63 -10 11 -149 99 -211 132 -108 59 -345 157 -529 220 -774
262 -858 301 -925 432 -27 52 -30 68 -30 149 0 107 19 158 86 231 101 109 245
154 489 149 153 -2 208 -9 355 -44 85 -20 137 -38 245 -88 157 -71 253 -102
333 -106 133 -6 208 17 273 83 20 20 112 150 206 289 l169 254 -53 49 c-233
220 -648 421 -1018 496 -8 1 -35 5 -60 9 -25 3 -48 8 -51 10 -3 1 -50 10 -105
20 -69 12 -171 18 -336 20 -130 1 -238 1 -240 0z"/>
</g>
</svg>
