<?xml version="1.0" encoding="utf-8"?>
<!-- Generator: Adobe Illustrator 25.1.0, SVG Export Plug-In . SVG Version: 6.00 Build 0)  -->
<svg version="1.1" xmlns="http://www.w3.org/2000/svg" xmlns:xlink="http://www.w3.org/1999/xlink" x="0px" y="0px"
	 viewBox="0 0 800 800" style="enable-background:new 0 0 800 800;" xml:space="preserve">
<style type="text/css">
	.st0{fill:#FFFFFF;}
	.st1{display:none;clip-path:url(#SVGID_2_);fill:url(#SVGID_3_);}
	.st2{clip-path:url(#SVGID_2_);}
	.st3{clip-path:url(#SVGID_5_);fill:#FFFFFF;}
	.st4{clip-path:url(#SVGID_5_);fill:#FEFEFE;}
	.st5{clip-path:url(#SVGID_5_);fill:#FDFDFD;}
	.st6{clip-path:url(#SVGID_5_);fill:#FCFCFC;}
	.st7{clip-path:url(#SVGID_5_);fill:#FBFBFB;}
	.st8{clip-path:url(#SVGID_5_);fill:#FAFAFA;}
	.st9{clip-path:url(#SVGID_5_);fill:#FAF9F9;}
	.st10{clip-path:url(#SVGID_5_);fill:#F9F9F9;}
	.st11{clip-path:url(#SVGID_5_);fill:#F9F8F8;}
	.st12{clip-path:url(#SVGID_5_);fill:#F8F8F8;}
	.st13{clip-path:url(#SVGID_5_);fill:#F7F7F7;}
	.st14{clip-path:url(#SVGID_5_);fill:#F6F6F6;}
	.st15{clip-path:url(#SVGID_5_);fill:#F6F5F6;}
	.st16{clip-path:url(#SVGID_5_);fill:#F5F5F5;}
	.st17{clip-path:url(#SVGID_5_);fill:#F5F4F4;}
	.st18{clip-path:url(#SVGID_5_);fill:#F4F4F4;}
	.st19{clip-path:url(#SVGID_5_);fill:#F3F3F3;}
	.st20{clip-path:url(#SVGID_5_);fill:#F2F2F2;}
	.st21{clip-path:url(#SVGID_5_);fill:#F2F1F1;}
	.st22{clip-path:url(#SVGID_5_);fill:#F1F1F1;}
	.st23{clip-path:url(#SVGID_5_);fill:#F1F0F0;}
	.st24{clip-path:url(#SVGID_5_);fill:#F0F0F0;}
	.st25{clip-path:url(#SVGID_5_);fill:#F0EFEF;}
	.st26{clip-path:url(#SVGID_5_);fill:#EFEFEF;}
	.st27{clip-path:url(#SVGID_5_);fill:#EFEEEE;}
	.st28{clip-path:url(#SVGID_5_);fill:#EEEEEE;}
	.st29{clip-path:url(#SVGID_5_);fill:#EDEDED;}
	.st30{clip-path:url(#SVGID_5_);fill:#ECECEC;}
	.st31{clip-path:url(#SVGID_5_);fill:#ECEBEB;}
	.st32{clip-path:url(#SVGID_5_);fill:#EBEBEB;}
	.st33{clip-path:url(#SVGID_5_);fill:#EAEAEA;}
	.st34{clip-path:url(#SVGID_5_);fill:#EAE9EA;}
	.st35{clip-path:url(#SVGID_5_);fill:#E9E9E9;}
	.st36{clip-path:url(#SVGID_5_);fill:#E9E8E8;}
	.st37{clip-path:url(#SVGID_5_);fill:#E8E7E8;}
	.st38{clip-path:url(#SVGID_5_);fill:#E7E7E7;}
	.st39{clip-path:url(#SVGID_5_);fill:#E6E6E6;}
	.st40{clip-path:url(#SVGID_5_);fill:#E6E5E5;}
	.st41{clip-path:url(#SVGID_5_);fill:#E5E5E5;}
	.st42{clip-path:url(#SVGID_5_);fill:#E4E4E4;}
	.st43{clip-path:url(#SVGID_5_);fill:#E4E3E3;}
	.st44{clip-path:url(#SVGID_5_);fill:#E3E2E2;}
	.st45{clip-path:url(#SVGID_5_);fill:#E2E1E2;}
	.st46{clip-path:url(#SVGID_5_);fill:#E1E1E1;}
	.st47{clip-path:url(#SVGID_5_);fill:#E0E0E0;}
	.st48{clip-path:url(#SVGID_5_);fill:#DFDFDF;}
	.st49{clip-path:url(#SVGID_5_);fill:#DFDEDE;}
	.st50{clip-path:url(#SVGID_5_);fill:#DEDDDD;}
	.st51{clip-path:url(#SVGID_5_);fill:#DDDCDC;}
	.st52{clip-path:url(#SVGID_5_);fill:#DCDBDB;}
	.st53{clip-path:url(#SVGID_5_);fill:#DBDADB;}
	.st54{clip-path:url(#SVGID_5_);fill:#DAD9DA;}
	.st55{clip-path:url(#SVGID_5_);fill:#D9D8D9;}
	.st56{clip-path:url(#SVGID_5_);fill:#D8D7D8;}
	.st57{clip-path:url(#SVGID_5_);fill:#D7D6D7;}
	.st58{clip-path:url(#SVGID_5_);fill:#D6D5D6;}
	.st59{clip-path:url(#SVGID_5_);fill:#D5D4D5;}
	.st60{clip-path:url(#SVGID_5_);fill:#D4D3D4;}
	.st61{clip-path:url(#SVGID_5_);fill:#D3D2D2;}
	.st62{clip-path:url(#SVGID_5_);fill:#D2D1D1;}
	.st63{clip-path:url(#SVGID_5_);fill:#D1D0D0;}
	.st64{clip-path:url(#SVGID_5_);fill:#D0CFCF;}
	.st65{clip-path:url(#SVGID_5_);fill:#CFCECE;}
	.st66{clip-path:url(#SVGID_5_);fill:#CDCDCD;}
	.st67{clip-path:url(#SVGID_5_);fill:#CCCBCC;}
	.st68{clip-path:url(#SVGID_5_);fill:#CBCACA;}
	.st69{clip-path:url(#SVGID_5_);fill:#CAC9C9;}
	.st70{clip-path:url(#SVGID_5_);fill:#C9C8C8;}
	.st71{clip-path:url(#SVGID_5_);fill:#C7C6C7;}
	.st72{clip-path:url(#SVGID_5_);fill:#C6C5C5;}
	.st73{clip-path:url(#SVGID_5_);fill:#C5C4C4;}
	.st74{clip-path:url(#SVGID_5_);fill:#C4C2C3;}
	.st75{clip-path:url(#SVGID_5_);fill:#C2C1C1;}
	.st76{clip-path:url(#SVGID_5_);fill:#C1C0C0;}
	.st77{clip-path:url(#SVGID_5_);fill:#BFBEBF;}
	.st78{clip-path:url(#SVGID_5_);fill:#BEBDBD;}
	.st79{clip-path:url(#SVGID_5_);fill:#BDBBBC;}
	.st80{clip-path:url(#SVGID_5_);fill:#BBBABA;}
	.st81{clip-path:url(#SVGID_5_);fill:#BAB9B9;}
	.st82{clip-path:url(#SVGID_5_);fill:#B8B7B7;}
	.st83{clip-path:url(#SVGID_5_);fill:#B7B5B6;}
	.st84{clip-path:url(#SVGID_5_);fill:#B5B4B4;}
	.st85{clip-path:url(#SVGID_5_);fill:#B4B2B3;}
	.st86{clip-path:url(#SVGID_5_);fill:#B2B1B1;}
	.st87{clip-path:url(#SVGID_5_);fill:#B1AFAF;}
	.st88{clip-path:url(#SVGID_5_);fill:#AFADAE;}
	.st89{clip-path:url(#SVGID_5_);fill:#ADACAC;}
	.st90{clip-path:url(#SVGID_5_);fill:#ACAAAB;}
	.st91{clip-path:url(#SVGID_5_);fill:#AAA8A9;}
	.st92{clip-path:url(#SVGID_5_);fill:#A8A7A7;}
	.st93{clip-path:url(#SVGID_5_);fill:#A7A5A5;}
	.st94{clip-path:url(#SVGID_5_);fill:#A5A3A4;}
	.st95{clip-path:url(#SVGID_5_);fill:#A3A1A2;}
	.st96{clip-path:url(#SVGID_5_);fill:#A19FA0;}
	.st97{clip-path:url(#SVGID_5_);fill:#9F9E9E;}
	.st98{clip-path:url(#SVGID_5_);fill:#9D9C9C;}
	.st99{clip-path:url(#SVGID_5_);fill:#9C9A9A;}
	.st100{clip-path:url(#SVGID_5_);fill:#9A9898;}
	.st101{clip-path:url(#SVGID_5_);fill:#989696;}
	.st102{clip-path:url(#SVGID_5_);fill:#969494;}
	.st103{clip-path:url(#SVGID_5_);fill:#949292;}
	.st104{clip-path:url(#SVGID_5_);fill:#929090;}
	.st105{clip-path:url(#SVGID_5_);fill:#908E8E;}
	.st106{clip-path:url(#SVGID_5_);fill:#8E8C8C;}
	.st107{clip-path:url(#SVGID_5_);fill:#8C898A;}
	.st108{clip-path:url(#SVGID_5_);fill:#898788;}
	.st109{clip-path:url(#SVGID_5_);fill:#878586;}
	.st110{clip-path:url(#SVGID_5_);fill:#858383;}
	.st111{clip-path:url(#SVGID_5_);fill:#838181;}
	.st112{clip-path:url(#SVGID_5_);fill:#817E7F;}
	.st113{clip-path:url(#SVGID_5_);fill:#7E7C7D;}
	.st114{clip-path:url(#SVGID_5_);fill:#7C7A7A;}
	.st115{clip-path:url(#SVGID_5_);fill:#7A7778;}
	.st116{clip-path:url(#SVGID_5_);fill:#787576;}
	.st117{clip-path:url(#SVGID_5_);fill:#757373;}
	.st118{clip-path:url(#SVGID_5_);fill:#737071;}
	.st119{clip-path:url(#SVGID_5_);fill:#706E6E;}
	.st120{clip-path:url(#SVGID_5_);fill:#6E6B6C;}
	.st121{clip-path:url(#SVGID_5_);fill:#6B6969;}
	.st122{clip-path:url(#SVGID_5_);fill:#696667;}
	.st123{clip-path:url(#SVGID_5_);fill:#666464;}
	.st124{clip-path:url(#SVGID_5_);fill:#646162;}
	.st125{clip-path:url(#SVGID_5_);fill:#615E5F;}
	.st126{clip-path:url(#SVGID_5_);fill:#5F5C5C;}
	.st127{clip-path:url(#SVGID_5_);fill:#5C595A;}
	.st128{clip-path:url(#SVGID_5_);fill:#595657;}
	.st129{clip-path:url(#SVGID_5_);fill:#565354;}
	.st130{clip-path:url(#SVGID_5_);fill:#545151;}
	.st131{clip-path:url(#SVGID_5_);fill:#514E4E;}
	.st132{clip-path:url(#SVGID_5_);fill:#4E4B4C;}
	.st133{clip-path:url(#SVGID_5_);fill:#4B4849;}
	.st134{clip-path:url(#SVGID_5_);fill:#484546;}
	.st135{clip-path:url(#SVGID_5_);fill:#454243;}
	.st136{clip-path:url(#SVGID_5_);fill:#423F40;}
	.st137{clip-path:url(#SVGID_5_);fill:#3F3C3D;}
	.st138{clip-path:url(#SVGID_5_);fill:#3C393A;}
	.st139{clip-path:url(#SVGID_5_);fill:#393637;}
	.st140{clip-path:url(#SVGID_5_);fill:#363334;}
	.st141{clip-path:url(#SVGID_5_);fill:#332F30;}
	.st142{clip-path:url(#SVGID_5_);fill:#302C2D;}
	.st143{clip-path:url(#SVGID_5_);fill:#2D292A;}
	.st144{clip-path:url(#SVGID_5_);fill:#2A2627;}
	.st145{clip-path:url(#SVGID_5_);fill:#262223;}
	.st146{clip-path:url(#SVGID_5_);fill:#231F20;}
	.st147{fill:url(#SVGID_6_);}
	.st148{fill:url(#SVGID_7_);}
	.st149{fill:url(#SVGID_8_);}
	.st150{opacity:0.09;}
	.st151{fill:#666666;}
	.st152{fill:url(#SVGID_9_);}
	.st153{fill:url(#SVGID_10_);}
	.st154{fill:url(#SVGID_11_);}
	.st155{fill:#0071BC;}
	.st156{fill:#29ABE2;}
	.st157{fill:url(#SVGID_12_);}
	.st158{fill:url(#SVGID_13_);}
	.st159{fill:url(#SVGID_14_);}
	.st160{fill:url(#SVGID_15_);}
	.st161{fill:url(#SVGID_16_);}
	.st162{opacity:0.06;fill:#FFFFFF;}
	.st163{opacity:0.03;fill:#FFFFFF;}
	.st164{fill:url(#SVGID_17_);}
	.st165{opacity:0.15;fill:#FFFFFF;}
	.st166{fill:#C4B29C;}
</style>
<g id="Ebene_2">
</g>
<g id="Layer_1">
	<g>
		<rect class="st0" width="800" height="800"/>
		<g>
			<g>
				<defs>
					<rect id="SVGID_1_" width="800" height="800"/>
				</defs>
				<clipPath id="SVGID_2_">
					<use xlink:href="#SVGID_1_"  style="overflow:visible;"/>
				</clipPath>
				<radialGradient id="SVGID_3_" cx="459.0004" cy="-13" r="749.5396" gradientUnits="userSpaceOnUse">
					<stop  offset="0" style="stop-color:#FFFFFF"/>
					<stop  offset="0.6776" style="stop-color:#FDFDFD"/>
					<stop  offset="0.9214" style="stop-color:#F6F6F6"/>
					<stop  offset="1" style="stop-color:#F2F2F2"/>
				</radialGradient>
				<rect class="st1" width="805.07" height="800"/>
				<g class="st2">
					<g>
						<g>
							<defs>
								<ellipse id="SVGID_4_" cx="415.94" cy="542.69" rx="443.42" ry="134.2"/>
							</defs>
							<clipPath id="SVGID_5_">
								<use xlink:href="#SVGID_4_"  style="overflow:visible;"/>
							</clipPath>
							<rect x="-27.48" y="408.5" class="st3" width="886.83" height="268.4"/>
							<path class="st3" d="M718.69,547.15c-0.84,56.81-137.06,100.88-304.26,98.42c-167.2-2.46-302.07-50.51-301.23-107.33
								c0.84-56.81,137.06-100.88,304.26-98.42C584.66,442.28,719.52,490.33,718.69,547.15z"/>
							
								<ellipse transform="matrix(0.0147 -0.9999 0.9999 0.0147 -132.8152 950.6073)" class="st3" cx="415.94" cy="542.7" rx="102.58" ry="301.88"/>
							
								<ellipse transform="matrix(0.0147 -0.9999 0.9999 0.0147 -132.8158 950.6065)" class="st3" cx="415.94" cy="542.7" rx="102.27" ry="300.98"/>
							
								<ellipse transform="matrix(0.0147 -0.9999 0.9999 0.0147 -132.8153 950.6072)" class="st3" cx="415.94" cy="542.7" rx="101.97" ry="300.09"/>
							<path class="st3" d="M715.09,547.1c-0.83,56.14-135.43,99.68-300.65,97.25c-165.22-2.43-298.49-49.91-297.66-106.05
								c0.83-56.14,135.43-99.68,300.65-97.25C582.65,443.48,715.92,490.96,715.09,547.1z"/>
							
								<ellipse transform="matrix(0.0147 -0.9999 0.9999 0.0147 -132.8154 950.6069)" class="st3" cx="415.94" cy="542.7" rx="101.36" ry="298.29"/>
							
								<ellipse transform="matrix(0.0147 -0.9999 0.9999 0.0147 -132.8149 950.6078)" class="st3" cx="415.94" cy="542.7" rx="101.05" ry="297.39"/>
							
								<ellipse transform="matrix(0.0147 -0.9999 0.9999 0.0147 -132.8155 950.6069)" class="st3" cx="415.94" cy="542.7" rx="100.75" ry="296.49"/>
							
								<ellipse transform="matrix(0.0147 -0.9999 0.9999 0.0147 -132.815 950.6076)" class="st3" cx="415.94" cy="542.7" rx="100.44" ry="295.6"/>
							<path class="st3" d="M710.61,547.03c-0.81,55.3-133.4,98.18-296.14,95.79c-162.74-2.39-294.01-49.16-293.19-104.46
								c0.81-55.3,133.4-98.18,296.14-95.79C580.15,444.96,711.42,491.73,710.61,547.03z"/>
							
								<ellipse transform="matrix(0.0147 -0.9999 0.9999 0.0147 -132.8147 950.6079)" class="st3" cx="415.94" cy="542.7" rx="99.83" ry="293.8"/>
							
								<ellipse transform="matrix(0.0147 -0.9999 0.9999 0.0147 -132.8157 950.6067)" class="st3" cx="415.94" cy="542.7" rx="99.53" ry="292.9"/>
							
								<ellipse transform="matrix(0.0147 -0.9999 0.9999 0.0147 -132.8152 950.6073)" class="st3" cx="415.94" cy="542.7" rx="99.22" ry="292"/>
							<path class="st3" d="M707.01,546.98c-0.8,54.62-131.77,96.99-292.53,94.62c-160.76-2.36-290.42-48.56-289.62-103.19
								c0.8-54.62,131.77-96.99,292.53-94.62C578.15,446.16,707.82,492.35,707.01,546.98z"/>
							
								<ellipse transform="matrix(0.0147 -0.9999 0.9999 0.0147 -132.8153 950.6071)" class="st3" cx="415.94" cy="542.7" rx="98.61" ry="290.21"/>
							
								<ellipse transform="matrix(0.0147 -0.9999 0.9999 0.0147 -132.8155 950.6069)" class="st3" cx="415.94" cy="542.7" rx="98.31" ry="289.31"/>
							
								<ellipse transform="matrix(0.0147 -0.9999 0.9999 0.0147 -132.8149 950.6077)" class="st3" cx="415.94" cy="542.7" rx="98" ry="288.41"/>
							
								<ellipse transform="matrix(0.0147 -0.9999 0.9999 0.0147 -132.8156 950.6068)" class="st3" cx="415.94" cy="542.7" rx="97.7" ry="287.51"/>
							<path class="st3" d="M702.53,546.91c-0.79,53.78-129.74,95.49-288.02,93.16c-158.28-2.33-285.94-47.81-285.15-101.59
								c0.79-53.78,129.74-95.49,288.02-93.16C575.65,447.64,703.32,493.13,702.53,546.91z"/>
							
								<ellipse transform="matrix(0.0147 -0.9999 0.9999 0.0147 -132.816 950.6061)" class="st3" cx="415.94" cy="542.7" rx="97.08" ry="285.72"/>
							
								<ellipse transform="matrix(0.0147 -0.9999 0.9999 0.0147 -132.8154 950.6071)" class="st3" cx="415.94" cy="542.7" rx="96.78" ry="284.82"/>
							
								<ellipse transform="matrix(0.0147 -0.9999 0.9999 0.0147 -132.8163 950.6058)" class="st3" cx="415.94" cy="542.7" rx="96.47" ry="283.92"/>
							
								<ellipse transform="matrix(0.0147 -0.9999 0.9999 0.0147 -132.8153 950.6071)" class="st3" cx="415.94" cy="542.7" rx="96.17" ry="283.02"/>
							
								<ellipse transform="matrix(0.0147 -0.9999 0.9999 0.0147 -132.816 950.6062)" class="st3" cx="415.94" cy="542.7" rx="95.86" ry="282.13"/>
							
								<ellipse transform="matrix(0.0147 -0.9999 0.9999 0.0147 -132.8153 950.6072)" class="st3" cx="415.94" cy="542.7" rx="95.56" ry="281.23"/>
							
								<ellipse transform="matrix(0.0147 -0.9999 0.9999 0.0147 -132.8145 950.6082)" class="st3" cx="415.94" cy="542.7" rx="95.25" ry="280.33"/>
							
								<ellipse transform="matrix(0.0147 -0.9999 0.9999 0.0147 -132.816 950.6063)" class="st3" cx="415.94" cy="542.7" rx="94.95" ry="279.43"/>
							
								<ellipse transform="matrix(0.0147 -0.9999 0.9999 0.0147 -132.815 950.6074)" class="st3" cx="415.94" cy="542.7" rx="94.64" ry="278.53"/>
							
								<ellipse transform="matrix(0.0147 -0.9999 0.9999 0.0147 -132.8157 950.6065)" class="st3" cx="415.94" cy="542.7" rx="94.34" ry="277.64"/>
							
								<ellipse transform="matrix(0.0147 -0.9999 0.9999 0.0147 -132.815 950.6075)" class="st3" cx="415.94" cy="542.7" rx="94.03" ry="276.74"/>
							<path class="st3" d="M691.75,546.75c-0.76,51.76-124.86,91.9-277.19,89.66c-152.33-2.24-275.19-46.02-274.43-97.78
								c0.76-51.76,124.86-91.9,277.19-89.66C569.64,451.22,692.51,494.99,691.75,546.75z"/>
							
								<ellipse transform="matrix(0.0147 -0.9999 0.9999 0.0147 -132.8148 950.6079)" class="st3" cx="415.94" cy="542.7" rx="93.42" ry="274.94"/>
							
								<ellipse transform="matrix(0.0147 -0.9999 0.9999 0.0147 -132.8154 950.6071)" class="st3" cx="415.94" cy="542.7" rx="93.12" ry="274.05"/>
							
								<ellipse transform="matrix(0.0147 -0.9999 0.9999 0.0147 -132.8149 950.6075)" class="st3" cx="415.94" cy="542.7" rx="92.81" ry="273.15"/>
							
								<ellipse transform="matrix(0.0147 -0.9999 0.9999 0.0147 -132.8159 950.6064)" class="st3" cx="415.94" cy="542.7" rx="92.51" ry="272.25"/>
							
								<ellipse transform="matrix(0.0147 -0.9999 0.9999 0.0147 -132.815 950.6075)" class="st3" cx="415.94" cy="542.7" rx="92.2" ry="271.35"/>
							
								<ellipse transform="matrix(0.0147 -0.9999 0.9999 0.0147 -132.8159 950.6063)" class="st3" cx="415.94" cy="542.7" rx="91.9" ry="270.45"/>
							
								<ellipse transform="matrix(0.0147 -0.9999 0.9999 0.0147 -132.8151 950.6074)" class="st4" cx="415.94" cy="542.7" rx="91.59" ry="269.56"/>
							
								<ellipse transform="matrix(0.0147 -0.9999 0.9999 0.0147 -132.8158 950.6065)" class="st4" cx="415.94" cy="542.7" rx="91.29" ry="268.66"/>
							
								<ellipse transform="matrix(0.0147 -0.9999 0.9999 0.0147 -132.8151 950.6075)" class="st4" cx="415.94" cy="542.7" rx="90.98" ry="267.76"/>
							<path class="st4" d="M682.77,546.62c-0.74,50.07-120.8,88.91-268.17,86.74c-147.37-2.17-266.24-44.52-265.5-94.59
								c0.74-50.07,120.8-88.91,268.17-86.74C564.64,454.2,683.51,496.55,682.77,546.62z"/>
							
								<ellipse transform="matrix(0.0147 -0.9999 0.9999 0.0147 -132.8156 950.6067)" class="st4" cx="415.94" cy="542.7" rx="90.37" ry="265.96"/>
							<path class="st4" d="M680.98,546.59c-0.73,49.74-119.99,88.31-266.36,86.16c-146.38-2.15-264.44-44.22-263.71-93.96
								c0.73-49.74,119.99-88.31,266.36-86.16C563.64,454.79,681.71,496.86,680.98,546.59z"/>
							
								<ellipse transform="matrix(0.0147 -0.9999 0.9999 0.0147 -132.8155 950.6069)" class="st4" cx="415.94" cy="542.7" rx="89.76" ry="264.17"/>
							
								<ellipse transform="matrix(0.0147 -0.9999 0.9999 0.0147 -132.8149 950.6077)" class="st4" cx="415.94" cy="542.7" rx="89.46" ry="263.27"/>
							
								<ellipse transform="matrix(0.0147 -0.9999 0.9999 0.0147 -132.8156 950.6067)" class="st4" cx="415.94" cy="542.7" rx="89.15" ry="262.37"/>
							
								<ellipse transform="matrix(0.0147 -0.9999 0.9999 0.0147 -132.8143 950.6085)" class="st4" cx="415.94" cy="542.7" rx="88.85" ry="261.47"/>
							
								<ellipse transform="matrix(0.0147 -0.9999 0.9999 0.0147 -132.8156 950.6067)" class="st4" cx="415.94" cy="542.7" rx="88.54" ry="260.58"/>
							
								<ellipse transform="matrix(0.0147 -0.9999 0.9999 0.0147 -132.8145 950.6082)" class="st4" cx="415.94" cy="542.7" rx="88.24" ry="259.68"/>
							
								<ellipse transform="matrix(0.0147 -0.9999 0.9999 0.0147 -132.8158 950.6066)" class="st4" cx="415.94" cy="542.7" rx="87.93" ry="258.78"/>
							<path class="st4" d="M673.79,546.49c-0.71,48.39-116.73,85.92-259.14,83.82c-142.41-2.09-257.28-43.02-256.57-91.41
								c0.71-48.39,116.73-85.92,259.14-83.82C559.64,457.17,674.51,498.1,673.79,546.49z"/>
							
								<ellipse transform="matrix(0.0147 -0.9999 0.9999 0.0147 -132.8158 950.6066)" class="st5" cx="415.94" cy="542.7" rx="87.32" ry="256.98"/>
							
								<ellipse transform="matrix(0.0147 -0.9999 0.9999 0.0147 -132.8147 950.6079)" class="st5" cx="415.94" cy="542.7" rx="87.02" ry="256.09"/>
							
								<ellipse transform="matrix(0.0147 -0.9999 0.9999 0.0147 -132.8155 950.6069)" class="st5" cx="415.94" cy="542.7" rx="86.71" ry="255.19"/>
							
								<ellipse transform="matrix(0.0147 -0.9999 0.9999 0.0147 -132.8154 950.6071)" class="st5" cx="415.94" cy="542.7" rx="86.41" ry="254.29"/>
							<path class="st5" d="M669.3,546.42c-0.7,47.55-114.7,84.42-254.63,82.36c-139.93-2.06-252.8-42.27-252.1-89.82
								c0.7-47.55,114.7-84.42,254.63-82.36C557.14,458.66,670,498.88,669.3,546.42z"/>
							
								<ellipse transform="matrix(0.0147 -0.9999 0.9999 0.0147 -132.8152 950.6071)" class="st5" cx="415.94" cy="542.7" rx="85.8" ry="252.49"/>
							
								<ellipse transform="matrix(0.0147 -0.9999 0.9999 0.0147 -132.8163 950.6059)" class="st5" cx="415.94" cy="542.7" rx="85.49" ry="251.6"/>
							
								<ellipse transform="matrix(0.0147 -0.9999 0.9999 0.0147 -132.8152 950.6072)" class="st5" cx="415.94" cy="542.7" rx="85.19" ry="250.7"/>
							
								<ellipse transform="matrix(0.0147 -0.9999 0.9999 0.0147 -132.8163 950.6058)" class="st6" cx="415.94" cy="542.7" rx="84.88" ry="249.8"/>
							
								<ellipse transform="matrix(0.0147 -0.9999 0.9999 0.0147 -132.8152 950.6073)" class="st6" cx="415.94" cy="542.7" rx="84.57" ry="248.9"/>
							
								<ellipse transform="matrix(0.0147 -0.9999 0.9999 0.0147 -132.8161 950.606)" class="st6" cx="415.94" cy="542.7" rx="84.27" ry="248.01"/>
							
								<ellipse transform="matrix(0.0147 -0.9999 0.9999 0.0147 -132.8154 950.6071)" class="st6" cx="415.94" cy="542.7" rx="83.97" ry="247.11"/>
							<path class="st6" d="M662.12,546.32c-0.68,46.2-111.45,82.03-247.41,80.03s-245.63-41.07-244.95-87.27
								c0.68-46.2,111.45-82.03,247.41-80.03S662.8,500.12,662.12,546.32z"/>
							
								<ellipse transform="matrix(0.0147 -0.9999 0.9999 0.0147 -132.8154 950.607)" class="st6" cx="415.94" cy="542.7" rx="83.35" ry="245.31"/>
							<path class="st7" d="M660.33,546.29c-0.67,45.86-110.64,81.43-245.61,79.45c-134.97-1.99-243.84-40.77-243.17-86.63
								c0.67-45.86,110.64-81.43,245.61-79.45C552.13,461.64,661,500.43,660.33,546.29z"/>
							<path class="st7" d="M659.43,546.28c-0.67,45.69-110.23,81.13-244.71,79.15c-134.48-1.98-242.94-40.62-242.27-86.32
								c0.67-45.69,110.23-81.13,244.71-79.15C551.63,461.94,660.1,500.58,659.43,546.28z"/>
							<path class="st7" d="M658.53,546.26c-0.67,45.53-109.82,80.83-243.8,78.86c-133.98-1.97-242.05-40.47-241.38-86
								c0.67-45.53,109.82-80.83,243.8-78.86C551.13,462.24,659.2,500.74,658.53,546.26z"/>
							
								<ellipse transform="matrix(0.0147 -0.9999 0.9999 0.0147 -132.8159 950.6063)" class="st7" cx="415.94" cy="542.7" rx="82.13" ry="241.72"/>
							
								<ellipse transform="matrix(0.0147 -0.9999 0.9999 0.0147 -132.8151 950.6074)" class="st7" cx="415.94" cy="542.7" rx="81.83" ry="240.82"/>
							<path class="st8" d="M655.84,546.22c-0.66,45.02-108.6,79.93-241.1,77.99c-132.49-1.95-239.36-40.02-238.7-85.04
								c0.66-45.02,108.6-79.93,241.1-77.99C549.63,463.13,656.5,501.21,655.84,546.22z"/>
							
								<ellipse transform="matrix(0.0147 -0.9999 0.9999 0.0147 -132.8148 950.6078)" class="st8" cx="415.94" cy="542.7" rx="81.22" ry="239.03"/>
							
								<ellipse transform="matrix(0.0147 -0.9999 0.9999 0.0147 -132.8159 950.6063)" class="st8" cx="415.94" cy="542.7" rx="80.91" ry="238.13"/>
							
								<ellipse transform="matrix(0.0147 -0.9999 0.9999 0.0147 -132.815 950.6076)" class="st8" cx="415.94" cy="542.7" rx="80.61" ry="237.23"/>
							
								<ellipse transform="matrix(0.0147 -0.9999 0.9999 0.0147 -132.8161 950.6061)" class="st9" cx="415.94" cy="542.7" rx="80.3" ry="236.33"/>
							
								<ellipse transform="matrix(0.0147 -0.9999 0.9999 0.0147 -132.8155 950.6069)" class="st10" cx="415.94" cy="542.7" rx="80" ry="235.43"/>
							
								<ellipse transform="matrix(0.0147 -0.9999 0.9999 0.0147 -132.8158 950.6064)" class="st10" cx="415.94" cy="542.7" rx="79.69" ry="234.54"/>
							
								<ellipse transform="matrix(0.0147 -0.9999 0.9999 0.0147 -132.8149 950.6077)" class="st10" cx="415.94" cy="542.7" rx="79.39" ry="233.64"/>
							
								<ellipse transform="matrix(0.0147 -0.9999 0.9999 0.0147 -132.8158 950.6064)" class="st11" cx="415.94" cy="542.7" rx="79.08" ry="232.74"/>
							
								<ellipse transform="matrix(0.0147 -0.9999 0.9999 0.0147 -132.8151 950.6074)" class="st12" cx="415.94" cy="542.7" rx="78.78" ry="231.84"/>
							
								<ellipse transform="matrix(0.0147 -0.9999 0.9999 0.0147 -132.816 950.6063)" class="st12" cx="415.94" cy="542.7" rx="78.47" ry="230.94"/>
							<path class="st12" d="M645.96,546.08c-0.64,43.17-104.13,76.64-231.17,74.78c-127.04-1.87-229.51-38.38-228.87-81.54
								c0.63-43.17,104.13-76.64,231.17-74.78C544.13,466.41,646.6,502.91,645.96,546.08z"/>
							
								<ellipse transform="matrix(0.0147 -0.9999 0.9999 0.0147 -132.8166 950.6053)" class="st13" cx="415.94" cy="542.7" rx="77.86" ry="229.15"/>
							
								<ellipse transform="matrix(0.0147 -0.9999 0.9999 0.0147 -132.8156 950.6068)" class="st13" cx="415.94" cy="542.7" rx="77.56" ry="228.25"/>
							
								<ellipse transform="matrix(0.0147 -0.9999 0.9999 0.0147 -132.8148 950.608)" class="st13" cx="415.94" cy="542.7" rx="77.25" ry="227.35"/>
							<path class="st14" d="M642.37,546.03c-0.62,42.49-102.51,75.45-227.56,73.61c-125.05-1.84-225.92-37.78-225.3-80.27
								c0.62-42.49,102.51-75.45,227.56-73.61C542.12,467.6,642.99,503.53,642.37,546.03z"/>
							
								<ellipse transform="matrix(0.0147 -0.9999 0.9999 0.0147 -132.8145 950.6082)" class="st14" cx="415.94" cy="542.7" rx="76.64" ry="225.56"/>
							<path class="st15" d="M640.57,546c-0.62,42.16-101.69,74.85-225.76,73.02c-124.06-1.83-224.13-37.48-223.51-79.63
								c0.62-42.16,101.7-74.85,225.76-73.02C541.12,468.19,641.19,503.84,640.57,546z"/>
							<path class="st16" d="M639.68,545.99c-0.62,41.99-101.29,74.55-224.85,72.73c-123.57-1.82-223.24-37.33-222.62-79.31
								c0.62-41.99,101.29-74.55,224.85-72.73C540.62,468.49,640.29,504,639.68,545.99z"/>
							
								<ellipse transform="matrix(0.0147 -0.9999 0.9999 0.0147 -132.8163 950.6058)" class="st16" cx="415.94" cy="542.7" rx="75.73" ry="222.86"/>
							
								<ellipse transform="matrix(0.0147 -0.9999 0.9999 0.0147 -132.8147 950.608)" class="st17" cx="415.94" cy="542.7" rx="75.42" ry="221.96"/>
							
								<ellipse transform="matrix(0.0147 -0.9999 0.9999 0.0147 -132.8156 950.6068)" class="st18" cx="415.94" cy="542.7" rx="75.12" ry="221.07"/>
							
								<ellipse transform="matrix(0.0147 -0.9999 0.9999 0.0147 -132.8148 950.6078)" class="st18" cx="415.94" cy="542.7" rx="74.81" ry="220.17"/>
							
								<ellipse transform="matrix(0.0147 -0.9999 0.9999 0.0147 -132.8156 950.6068)" class="st19" cx="415.94" cy="542.7" rx="74.51" ry="219.27"/>
							
								<ellipse transform="matrix(0.0147 -0.9999 0.9999 0.0147 -132.8146 950.6081)" class="st19" cx="415.94" cy="542.7" rx="74.2" ry="218.37"/>
							
								<ellipse transform="matrix(0.0147 -0.9999 0.9999 0.0147 -132.8156 950.6067)" class="st20" cx="415.94" cy="542.7" rx="73.9" ry="217.47"/>
							<path class="st20" d="M632.49,545.88c-0.6,40.64-98.04,72.16-217.64,70.4c-119.6-1.76-216.07-36.13-215.47-76.77
								c0.6-40.64,98.04-72.16,217.64-70.4C536.62,470.87,633.09,505.24,632.49,545.88z"/>
							
								<ellipse transform="matrix(0.0147 -0.9999 0.9999 0.0147 -132.8165 950.6055)" class="st21" cx="415.94" cy="542.7" rx="73.29" ry="215.68"/>
							<path class="st22" d="M630.7,545.85c-0.59,40.3-97.22,71.56-215.83,69.81c-118.61-1.75-214.28-35.83-213.68-76.13
								c0.59-40.3,97.22-71.56,215.83-69.81C535.62,471.47,631.29,505.55,630.7,545.85z"/>
							<path class="st23" d="M629.8,545.84c-0.59,40.13-96.82,71.26-214.93,69.52c-118.11-1.74-213.38-35.68-212.79-75.81
								c0.59-40.13,96.82-71.26,214.93-69.52C535.12,471.76,630.39,505.71,629.8,545.84z"/>
							
								<ellipse transform="matrix(0.0147 -0.9999 0.9999 0.0147 -132.8152 950.6072)" class="st24" cx="415.94" cy="542.7" rx="72.37" ry="212.98"/>
							<path class="st25" d="M628,545.82c-0.59,39.8-96,70.66-213.12,68.94c-117.12-1.72-211.59-35.38-211-75.18
								c0.59-39.8,96-70.66,213.12-68.94C534.12,472.36,628.59,506.02,628,545.82z"/>
							<path class="st26" d="M627.11,545.8c-0.58,39.63-95.6,70.36-212.22,68.65c-116.62-1.72-210.69-35.23-210.11-74.86
								c0.58-39.63,95.6-70.36,212.22-68.65C533.62,472.66,627.69,506.17,627.11,545.8z"/>
							<path class="st27" d="M626.21,545.79c-0.58,39.46-95.19,70.06-211.32,68.35c-116.13-1.71-209.8-35.08-209.22-74.54
								c0.58-39.46,95.19-70.06,211.32-68.35C533.12,472.96,626.79,506.33,626.21,545.79z"/>
							
								<ellipse transform="matrix(0.0147 -0.9999 0.9999 0.0147 -132.8159 950.6063)" class="st28" cx="415.94" cy="542.7" rx="71.15" ry="209.39"/>
							
								<ellipse transform="matrix(0.0147 -0.9999 0.9999 0.0147 -132.8148 950.6077)" class="st29" cx="415.94" cy="542.7" rx="70.84" ry="208.5"/>
							
								<ellipse transform="matrix(0.0147 -0.9999 0.9999 0.0147 -132.8152 950.6072)" class="st29" cx="415.94" cy="542.7" rx="70.54" ry="207.6"/>
							<path class="st30" d="M622.62,545.74c-0.57,38.79-93.57,68.87-207.71,67.19c-114.14-1.68-206.21-34.48-205.64-73.27
								c0.57-38.79,93.57-68.87,207.71-67.19C531.12,474.15,623.19,506.95,622.62,545.74z"/>
							
								<ellipse transform="matrix(0.0147 -0.9999 0.9999 0.0147 -132.8154 950.6071)" class="st31" cx="415.94" cy="542.7" rx="69.93" ry="205.8"/>
							
								<ellipse transform="matrix(0.0147 -0.9999 0.9999 0.0147 -132.8141 950.6086)" class="st32" cx="415.94" cy="542.7" rx="69.62" ry="204.9"/>
							
								<ellipse transform="matrix(0.0147 -0.9999 0.9999 0.0147 -132.8161 950.6061)" class="st33" cx="415.94" cy="542.7" rx="69.32" ry="204.01"/>
							<path class="st34" d="M619.03,545.68c-0.56,38.11-91.94,67.67-204.1,66.02c-112.16-1.65-202.63-33.88-202.07-71.99
								c0.56-38.11,91.94-67.67,204.1-66.02C529.12,475.34,619.59,507.57,619.03,545.68z"/>
							
								<ellipse transform="matrix(0.0147 -0.9999 0.9999 0.0147 -132.816 950.6062)" class="st35" cx="415.94" cy="542.7" rx="68.71" ry="202.21"/>
							<path class="st36" d="M617.23,545.66c-0.56,37.77-91.13,67.07-202.3,65.44c-111.17-1.64-200.84-33.58-200.28-71.36
								c0.56-37.77,91.13-67.07,202.3-65.44C528.12,475.93,617.79,507.88,617.23,545.66z"/>
							<path class="st37" d="M616.33,545.64c-0.55,37.61-90.72,66.77-201.39,65.14c-110.67-1.63-199.94-33.43-199.39-71.04
								c0.55-37.61,90.72-66.77,201.39-65.14C527.61,476.23,616.88,508.04,616.33,545.64z"/>
							
								<ellipse transform="matrix(0.0147 -0.9999 0.9999 0.0147 -132.8149 950.6076)" class="st38" cx="415.94" cy="542.7" rx="67.79" ry="199.52"/>
							<path class="st39" d="M614.54,545.62c-0.55,37.27-89.91,66.17-199.59,64.56c-109.68-1.61-198.15-33.13-197.6-70.4
								c0.55-37.27,89.91-66.17,199.59-64.56C526.61,476.83,615.08,508.35,614.54,545.62z"/>
							<path class="st40" d="M613.64,545.6c-0.54,37.1-89.5,65.87-198.69,64.27c-109.19-1.61-197.26-32.98-196.71-70.08
								s89.5-65.87,198.69-64.27C526.11,477.12,614.18,508.5,613.64,545.6z"/>
							<path class="st41" d="M612.74,545.59c-0.54,36.93-89.09,65.57-197.78,63.98c-108.69-1.6-196.36-32.83-195.82-69.77
								c0.54-36.93,89.09-65.57,197.78-63.98C525.61,477.42,613.28,508.66,612.74,545.59z"/>
							
								<ellipse transform="matrix(0.0147 -0.9999 0.9999 0.0147 -132.8154 950.6069)" class="st42" cx="415.94" cy="542.7" rx="66.57" ry="195.92"/>
							
								<ellipse transform="matrix(0.0147 -0.9999 0.9999 0.0147 -132.8169 950.6051)" class="st43" cx="415.94" cy="542.7" rx="66.27" ry="195.03"/>
							
								<ellipse transform="matrix(0.0147 -0.9999 0.9999 0.0147 -132.8149 950.6077)" class="st44" cx="415.94" cy="542.7" rx="65.96" ry="194.13"/>
							
								<ellipse transform="matrix(0.0147 -0.9999 0.9999 0.0147 -132.8162 950.6059)" class="st45" cx="415.94" cy="542.7" rx="65.66" ry="193.23"/>
							
								<ellipse transform="matrix(0.0147 -0.9999 0.9999 0.0147 -132.8149 950.6077)" class="st46" cx="415.94" cy="542.7" rx="65.35" ry="192.33"/>
							
								<ellipse transform="matrix(0.0147 -0.9999 0.9999 0.0147 -132.8143 950.6085)" class="st47" cx="415.94" cy="542.7" rx="65.05" ry="191.43"/>
							
								<ellipse transform="matrix(0.0147 -0.9999 0.9999 0.0147 -132.8156 950.6068)" class="st48" cx="415.94" cy="542.7" rx="64.74" ry="190.54"/>
							
								<ellipse transform="matrix(0.0147 -0.9999 0.9999 0.0147 -132.8145 950.6083)" class="st49" cx="415.94" cy="542.7" rx="64.44" ry="189.64"/>
							<path class="st50" d="M604.66,545.47c-0.52,35.42-85.44,62.88-189.66,61.35c-104.23-1.53-188.3-31.49-187.78-66.9
								c0.52-35.41,85.44-62.88,189.66-61.35C521.11,480.1,605.18,510.06,604.66,545.47z"/>
							<path class="st51" d="M603.76,545.46c-0.52,35.25-85.03,62.58-188.76,61.06c-103.73-1.53-187.4-31.34-186.88-66.58
								c0.52-35.25,85.03-62.58,188.76-61.06C520.61,480.4,604.28,510.21,603.76,545.46z"/>
							<path class="st52" d="M602.86,545.45c-0.52,35.08-84.62,62.28-187.86,60.77c-103.24-1.52-186.51-31.19-185.99-66.27
								c0.52-35.08,84.62-62.28,187.86-60.77C520.11,480.7,603.38,510.37,602.86,545.45z"/>
							
								<ellipse transform="matrix(0.0147 -0.9999 0.9999 0.0147 -132.8144 950.6084)" class="st53" cx="415.94" cy="542.7" rx="63.22" ry="186.05"/>
							<path class="st54" d="M601.07,545.42c-0.51,34.74-83.81,61.69-186.05,60.18c-102.24-1.5-184.71-30.89-184.2-65.63
								c0.51-34.74,83.81-61.69,186.05-60.18C519.11,481.29,601.58,510.68,601.07,545.42z"/>
							
								<ellipse transform="matrix(0.0147 -0.9999 0.9999 0.0147 -132.8154 950.6071)" class="st55" cx="415.94" cy="542.7" rx="62.61" ry="184.25"/>
							<path class="st56" d="M599.27,545.39c-0.51,34.4-83,61.09-184.25,59.6C313.77,603.5,232.1,574.4,232.61,540
								c0.51-34.4,83-61.09,184.25-59.6C518.11,481.89,599.78,510.99,599.27,545.39z"/>
							<path class="st57" d="M598.38,545.38c-0.5,34.24-82.59,60.79-183.35,59.31C314.27,603.2,233,574.25,233.5,540.01
								c0.5-34.24,82.59-60.79,183.35-59.31C517.61,482.19,598.88,511.14,598.38,545.38z"/>
							
								<ellipse transform="matrix(0.0147 -0.9999 0.9999 0.0147 -132.8166 950.6054)" class="st58" cx="415.94" cy="542.7" rx="61.69" ry="181.56"/>
							<path class="st59" d="M596.58,545.35c-0.5,33.9-81.78,60.19-181.54,58.72c-99.76-1.47-180.23-30.14-179.74-64.04
								c0.5-33.9,81.78-60.19,181.54-58.72C516.61,482.78,597.08,511.45,596.58,545.35z"/>
							
								<ellipse transform="matrix(0.0147 -0.9999 0.9999 0.0147 -132.8155 950.6068)" class="st60" cx="415.94" cy="542.7" rx="61.08" ry="179.76"/>
							
								<ellipse transform="matrix(0.0147 -0.9999 0.9999 0.0147 -132.8153 950.6072)" class="st61" cx="415.94" cy="542.7" rx="60.78" ry="178.86"/>
							<path class="st62" d="M593.89,545.31c-0.49,33.39-80.56,59.29-178.84,57.85c-98.28-1.45-177.55-29.69-177.06-63.08
								c0.49-33.39,80.56-59.29,178.84-57.85C515.11,483.68,594.38,511.92,593.89,545.31z"/>
							
								<ellipse transform="matrix(0.0147 -0.9999 0.9999 0.0147 -132.8153 950.6071)" class="st63" cx="415.94" cy="542.7" rx="60.17" ry="177.07"/>
							<path class="st64" d="M592.09,545.29c-0.49,33.06-79.75,58.69-177.03,57.26c-97.28-1.43-175.76-29.39-175.27-62.45
								c0.49-33.06,79.75-58.69,177.03-57.26C514.11,484.27,592.58,512.23,592.09,545.29z"/>
							
								<ellipse transform="matrix(0.0147 -0.9999 0.9999 0.0147 -132.815 950.6075)" class="st65" cx="415.94" cy="542.7" rx="59.56" ry="175.27"/>
							<path class="st66" d="M590.29,545.26c-0.48,32.72-78.93,58.1-175.23,56.68c-96.29-1.42-173.96-29.09-173.48-61.81
								c0.48-32.72,78.93-58.1,175.23-56.68C513.1,484.87,590.78,512.54,590.29,545.26z"/>
							
								<ellipse transform="matrix(0.0147 -0.9999 0.9999 0.0147 -132.8151 950.6074)" class="st67" cx="415.94" cy="542.7" rx="58.95" ry="173.48"/>
							
								<ellipse transform="matrix(0.0147 -0.9999 0.9999 0.0147 -132.8149 950.6077)" class="st68" cx="415.94" cy="542.7" rx="58.64" ry="172.58"/>
							<path class="st69" d="M587.6,545.22c-0.47,32.21-77.71,57.2-172.52,55.8c-94.81-1.39-171.28-28.64-170.8-60.85
								c0.47-32.21,77.71-57.2,172.52-55.8C511.6,485.76,588.07,513.01,587.6,545.22z"/>
							
								<ellipse transform="matrix(0.0147 -0.9999 0.9999 0.0147 -132.8145 950.6082)" class="st70" cx="415.94" cy="542.7" rx="58.03" ry="170.78"/>
							<path class="st71" d="M585.8,545.19c-0.47,31.88-76.9,56.6-170.71,55.22c-93.81-1.38-169.49-28.34-169.02-60.22
								c0.47-31.88,76.9-56.6,170.71-55.22C510.6,486.36,586.27,513.32,585.8,545.19z"/>
							
								<ellipse transform="matrix(0.0147 -0.9999 0.9999 0.0147 -132.8148 950.6079)" class="st72" cx="415.94" cy="542.7" rx="57.42" ry="168.99"/>
							
								<ellipse transform="matrix(0.0147 -0.9999 0.9999 0.0147 -132.8162 950.606)" class="st73" cx="415.94" cy="542.7" rx="57.11" ry="168.09"/>
							<path class="st74" d="M583.11,545.15c-0.46,31.37-75.68,55.7-168.01,54.34c-92.33-1.36-166.8-27.89-166.34-59.26
								c0.46-31.37,75.68-55.7,168.01-54.34C509.1,487.25,583.57,513.78,583.11,545.15z"/>
							
								<ellipse transform="matrix(0.0147 -0.9999 0.9999 0.0147 -132.8159 950.6063)" class="st75" cx="415.94" cy="542.7" rx="56.5" ry="166.29"/>
							<path class="st76" d="M581.32,545.13c-0.46,31.04-74.87,55.1-166.2,53.76c-91.33-1.34-165.01-27.59-164.55-58.63
								c0.46-31.04,74.87-55.1,166.2-53.76C508.1,487.85,581.77,514.09,581.32,545.13z"/>
							
								<ellipse transform="matrix(0.0147 -0.9999 0.9999 0.0147 -132.816 950.6061)" class="st77" cx="415.94" cy="542.7" rx="55.89" ry="164.5"/>
							<path class="st78" d="M579.52,545.1c-0.45,30.7-74.05,54.51-164.4,53.18c-90.34-1.33-163.21-27.29-162.76-57.99
								c0.45-30.7,74.06-54.51,164.4-53.18C507.1,488.44,579.97,514.4,579.52,545.1z"/>
							
								<ellipse transform="matrix(0.0147 -0.9999 0.9999 0.0147 -132.8162 950.6059)" class="st79" cx="415.94" cy="542.7" rx="55.28" ry="162.7"/>
							
								<ellipse transform="matrix(0.0147 -0.9999 0.9999 0.0147 -132.8146 950.6081)" class="st80" cx="415.94" cy="542.7" rx="54.98" ry="161.8"/>
							<path class="st81" d="M576.83,545.06c-0.44,30.19-72.84,53.61-161.69,52.3c-88.86-1.31-160.53-26.84-160.08-57.04
								c0.44-30.19,72.84-53.61,161.69-52.3C505.6,489.33,577.27,514.87,576.83,545.06z"/>
							
								<ellipse transform="matrix(0.0147 -0.9999 0.9999 0.0147 -132.8156 950.6068)" class="st82" cx="415.94" cy="542.7" rx="54.37" ry="160.01"/>
							<path class="st83" d="M575.03,545.04c-0.44,29.85-72.02,53.01-159.89,51.72c-87.86-1.29-158.74-26.54-158.3-56.4
								c0.44-29.85,72.02-53.01,159.89-51.72C504.6,489.93,575.47,515.18,575.03,545.04z"/>
							<path class="st84" d="M574.13,545.02c-0.44,29.69-71.62,52.71-158.98,51.43c-87.37-1.29-157.84-26.39-157.4-56.08
								c0.44-29.69,71.62-52.71,158.98-51.43C504.1,490.23,574.57,515.34,574.13,545.02z"/>
							<path class="st85" d="M573.24,545.01c-0.43,29.52-71.21,52.41-158.08,51.13c-86.87-1.28-156.94-26.24-156.51-55.76
								c0.43-29.52,71.21-52.41,158.08-51.13C503.6,490.53,573.67,515.49,573.24,545.01z"/>
							<path class="st86" d="M572.34,545c-0.43,29.35-70.8,52.11-157.18,50.84c-86.38-1.27-156.05-26.09-155.62-55.44
								c0.43-29.35,70.8-52.11,157.18-50.84C503.1,490.82,572.77,515.65,572.34,545z"/>
							
								<ellipse transform="matrix(0.0147 -0.9999 0.9999 0.0147 -132.8141 950.6086)" class="st87" cx="415.94" cy="542.7" rx="52.84" ry="155.52"/>
							<path class="st88" d="M570.54,544.97c-0.43,29.01-69.99,51.51-155.37,50.26c-85.38-1.26-154.26-25.79-153.83-54.81
								c0.43-29.01,69.99-51.51,155.37-50.26C502.1,491.42,570.97,515.96,570.54,544.97z"/>
							<path class="st89" d="M569.64,544.96c-0.42,28.84-69.58,51.22-154.47,49.97c-84.89-1.25-153.36-25.64-152.94-54.49
								c0.42-28.84,69.58-51.22,154.47-49.97S570.07,516.11,569.64,544.96z"/>
							
								<ellipse transform="matrix(0.0147 -0.9999 0.9999 0.0147 -132.8156 950.6068)" class="st90" cx="415.94" cy="542.7" rx="51.93" ry="152.82"/>
							<path class="st91" d="M567.85,544.93c-0.42,28.51-68.77,50.62-152.67,49.38c-83.9-1.23-151.57-25.34-151.15-53.85
								c0.42-28.51,68.77-50.62,152.67-49.38C500.6,492.31,568.27,516.42,567.85,544.93z"/>
							
								<ellipse transform="matrix(0.0147 -0.9999 0.9999 0.0147 -132.8157 950.6066)" class="st92" cx="415.94" cy="542.7" rx="51.32" ry="151.03"/>
							<path class="st93" d="M566.05,544.9c-0.41,28.17-67.96,50.02-150.86,48.8c-82.91-1.22-149.78-25.04-149.36-53.21
								c0.41-28.17,67.96-50.02,150.86-48.8C499.59,492.91,566.47,516.73,566.05,544.9z"/>
							
								<ellipse transform="matrix(0.0147 -0.9999 0.9999 0.0147 -132.8156 950.6068)" class="st94" cx="415.94" cy="542.7" rx="50.71" ry="149.23"/>
							<path class="st95" d="M564.26,544.88c-0.41,27.83-67.15,49.42-149.06,48.21c-81.91-1.21-147.99-24.75-147.58-52.58
								c0.41-27.83,67.14-49.42,149.06-48.21C498.59,493.5,564.67,517.04,564.26,544.88z"/>
							<path class="st96" d="M563.36,544.86c-0.41,27.66-66.74,49.12-148.16,47.92c-81.42-1.2-147.09-24.6-146.68-52.26
								c0.41-27.67,66.74-49.12,148.16-47.92C498.09,493.8,563.77,517.2,563.36,544.86z"/>
							
								<ellipse transform="matrix(0.0147 -0.9999 0.9999 0.0147 -132.8152 950.6072)" class="st97" cx="415.94" cy="542.7" rx="49.79" ry="146.54"/>
							<path class="st98" d="M561.56,544.84c-0.4,27.33-65.93,48.52-146.35,47.34c-80.43-1.18-145.3-24.3-144.9-51.62
								c0.4-27.33,65.93-48.52,146.35-47.34C497.09,494.4,561.96,517.51,561.56,544.84z"/>
							
								<ellipse transform="matrix(0.0147 -0.9999 0.9999 0.0147 -132.815 950.6076)" class="st99" cx="415.94" cy="542.7" rx="49.18" ry="144.74"/>
							<path class="st100" d="M559.77,544.81c-0.4,26.99-65.11,47.92-144.55,46.75c-79.43-1.17-143.51-24-143.11-50.99
								c0.4-26.99,65.11-47.92,144.55-46.75C496.09,494.99,560.16,517.82,559.77,544.81z"/>
							<path class="st101" d="M558.87,544.8c-0.39,26.82-64.71,47.62-143.64,46.46c-78.94-1.16-142.61-23.85-142.22-50.67
								c0.39-26.82,64.71-47.62,143.64-46.46C495.59,495.29,559.26,517.98,558.87,544.8z"/>
							<path class="st102" d="M557.97,544.79c-0.39,26.65-64.3,47.33-142.74,46.17c-78.44-1.15-141.71-23.7-141.32-50.35
								c0.39-26.65,64.3-47.33,142.74-46.17C495.09,495.59,558.36,518.13,557.97,544.79z"/>
							<path class="st103" d="M557.07,544.77c-0.39,26.49-63.89,47.03-141.84,45.88c-77.95-1.15-140.82-23.55-140.43-50.03
								c0.39-26.49,63.89-47.03,141.84-45.88C494.59,495.89,557.46,518.29,557.07,544.77z"/>
							<path class="st104" d="M556.18,544.76c-0.39,26.32-63.49,46.73-140.94,45.59c-77.45-1.14-139.92-23.4-139.54-49.71
								c0.39-26.32,63.49-46.73,140.94-45.59C494.09,496.18,556.56,518.44,556.18,544.76z"/>
							<path class="st105" d="M555.28,544.75c-0.38,26.15-63.08,46.43-140.04,45.3c-76.95-1.13-139.03-23.25-138.64-49.4
								c0.38-26.15,63.08-46.43,140.03-45.3C493.59,496.48,555.66,518.6,555.28,544.75z"/>
							<path class="st106" d="M554.38,544.73c-0.38,25.98-62.67,46.13-139.13,45c-76.46-1.12-138.13-23.1-137.75-49.08
								c0.38-25.98,62.67-46.13,139.13-45C493.09,496.78,554.76,518.75,554.38,544.73z"/>
							<path class="st107" d="M553.48,544.72c-0.38,25.81-62.27,45.83-138.23,44.71c-75.96-1.12-137.23-22.95-136.86-48.76
								c0.38-25.81,62.27-45.83,138.23-44.71C492.59,497.08,553.86,518.91,553.48,544.72z"/>
							<path class="st108" d="M552.59,544.71c-0.38,25.64-61.86,45.53-137.33,44.42c-75.47-1.11-136.34-22.8-135.96-48.44
								c0.38-25.64,61.86-45.53,137.33-44.42C492.09,497.38,552.96,519.06,552.59,544.71z"/>
							
								<ellipse transform="matrix(0.0147 -0.9999 0.9999 0.0147 -132.8153 950.6071)" class="st109" cx="415.94" cy="542.7" rx="46.13" ry="135.76"/>
							<path class="st110" d="M550.79,544.68c-0.37,25.31-61.05,44.93-135.52,43.84c-74.48-1.1-134.55-22.5-134.18-47.8
								c0.37-25.31,61.05-44.93,135.52-43.84C491.09,497.97,551.16,519.37,550.79,544.68z"/>
							<path class="st111" d="M549.89,544.67c-0.37,25.14-60.64,44.63-134.62,43.54c-73.98-1.09-133.65-22.35-133.28-47.49
								c0.37-25.14,60.64-44.63,134.62-43.54C490.59,498.27,550.26,519.53,549.89,544.67z"/>
							<path class="st112" d="M548.99,544.65c-0.37,24.97-60.24,44.33-133.72,43.25c-73.48-1.08-132.76-22.2-132.39-47.17
								c0.37-24.97,60.24-44.33,133.72-43.25C490.09,498.57,549.36,519.68,548.99,544.65z"/>
							
								<ellipse transform="matrix(0.0147 -0.9999 0.9999 0.0147 -132.816 950.6062)" class="st113" cx="415.94" cy="542.7" rx="44.91" ry="132.17"/>
							
								<ellipse transform="matrix(0.0147 -0.9999 0.9999 0.0147 -132.8147 950.6079)" class="st114" cx="415.94" cy="542.7" rx="44.61" ry="131.27"/>
							
								<ellipse transform="matrix(0.0147 -0.9999 0.9999 0.0147 -132.8164 950.6057)" class="st115" cx="415.94" cy="542.7" rx="44.3" ry="130.37"/>
							
								<ellipse transform="matrix(0.0147 -0.9999 0.9999 0.0147 -132.8146 950.6081)" class="st116" cx="415.94" cy="542.7" rx="43.99" ry="129.48"/>
							<path class="st117" d="M544.5,544.59c-0.35,24.13-58.2,42.84-129.21,41.79c-71-1.05-128.28-21.45-127.92-45.58
								c0.36-24.13,58.2-42.84,129.21-41.79C487.59,500.05,544.86,520.46,544.5,544.59z"/>
							<path class="st118" d="M543.61,544.57c-0.35,23.96-57.8,42.54-128.3,41.5c-70.51-1.04-127.38-21.3-127.03-45.26
								c0.35-23.96,57.8-42.54,128.3-41.5C487.09,500.35,543.96,520.62,543.61,544.57z"/>
							<path class="st119" d="M542.71,544.56c-0.35,23.79-57.39,42.24-127.4,41.21c-70.01-1.03-126.48-21.15-126.13-44.94
								c0.35-23.79,57.39-42.24,127.4-41.21C486.59,500.65,543.06,520.77,542.71,544.56z"/>
							<path class="st120" d="M541.81,544.55c-0.35,23.62-56.98,41.94-126.5,40.92c-69.52-1.02-125.59-21-125.24-44.62
								c0.35-23.62,56.98-41.94,126.5-40.92C486.08,500.95,542.16,520.93,541.81,544.55z"/>
							
								<ellipse transform="matrix(0.0147 -0.9999 0.9999 0.0147 -132.8165 950.6055)" class="st121" cx="415.94" cy="542.7" rx="42.47" ry="124.99"/>
							<path class="st122" d="M540.01,544.52c-0.34,23.28-56.17,41.34-124.7,40.34c-68.52-1.01-123.8-20.7-123.45-43.99
								c0.34-23.28,56.17-41.34,124.7-40.33C485.08,501.54,540.36,521.24,540.01,544.52z"/>
							<path class="st123" d="M539.12,544.51c-0.34,23.12-55.76,41.04-123.79,40.04c-68.03-1-122.9-20.55-122.56-43.67
								c0.34-23.12,55.76-41.04,123.79-40.04C484.58,501.84,539.46,521.39,539.12,544.51z"/>
							
								<ellipse transform="matrix(0.0147 -0.9999 0.9999 0.0147 -132.8156 950.6068)" class="st124" cx="415.94" cy="542.7" rx="41.55" ry="122.29"/>
							<path class="st125" d="M537.32,544.48c-0.34,22.78-54.95,40.45-121.99,39.46c-67.04-0.99-121.11-20.25-120.78-43.03
								c0.34-22.78,54.95-40.45,121.99-39.46C483.58,502.44,537.66,521.7,537.32,544.48z"/>
							<path class="st126" d="M536.42,544.47c-0.33,22.61-54.54,40.15-121.09,39.17c-66.54-0.98-120.21-20.1-119.88-42.71
								c0.33-22.61,54.54-40.15,121.09-39.17C483.08,502.73,536.76,521.86,536.42,544.47z"/>
							
								<ellipse transform="matrix(0.0147 -0.9999 0.9999 0.0147 -132.8138 950.6091)" class="st127" cx="415.94" cy="542.7" rx="40.64" ry="119.6"/>
							
								<ellipse transform="matrix(0.0147 -0.9999 0.9999 0.0147 -132.8156 950.6067)" class="st128" cx="415.94" cy="542.7" rx="40.33" ry="118.7"/>
							<path class="st129" d="M533.73,544.43c-0.33,22.11-53.33,39.25-118.38,38.29c-65.05-0.96-117.53-19.65-117.2-41.76
								c0.33-22.11,53.33-39.25,118.38-38.29S534.05,522.32,533.73,544.43z"/>
							
								<ellipse transform="matrix(0.0147 -0.9999 0.9999 0.0147 -132.8156 950.6068)" class="st130" cx="415.94" cy="542.7" rx="39.72" ry="116.91"/>
							<path class="st131" d="M531.93,544.4c-0.32,21.77-52.51,38.65-116.57,37.71c-64.06-0.94-115.73-19.35-115.41-41.12
								c0.32-21.77,52.51-38.65,116.57-37.71C480.58,504.22,532.25,522.63,531.93,544.4z"/>
							<path class="st132" d="M531.04,544.39c-0.32,21.6-52.11,38.35-115.67,37.42c-63.57-0.93-114.84-19.2-114.52-40.8
								c0.32-21.6,52.11-38.35,115.67-37.42C480.08,504.52,531.35,522.79,531.04,544.39z"/>
							
								<ellipse transform="matrix(0.0147 -0.9999 0.9999 0.0147 -132.8149 950.6076)" class="st133" cx="415.94" cy="542.7" rx="38.81" ry="114.21"/>
							<path class="st134" d="M529.24,544.36c-0.31,21.26-51.29,37.75-113.87,36.83c-62.57-0.92-113.05-18.9-112.73-40.17
								c0.31-21.26,51.29-37.75,113.87-36.83C479.08,505.12,529.55,523.1,529.24,544.36z"/>
							<path class="st135" d="M528.34,544.35c-0.31,21.09-50.89,37.45-112.96,36.54c-62.08-0.91-112.15-18.75-111.84-39.85
								c0.31-21.09,50.89-37.45,112.96-36.54C478.58,505.42,528.65,523.25,528.34,544.35z"/>
							<path class="st136" d="M527.44,544.34c-0.31,20.92-50.48,37.15-112.06,36.25c-61.58-0.91-111.26-18.6-110.95-39.53
								c0.31-20.92,50.48-37.15,112.06-36.25C478.08,505.71,527.75,523.41,527.44,544.34z"/>
							<path class="st137" d="M526.55,544.32c-0.31,20.76-50.07,36.86-111.16,35.96c-61.09-0.9-110.36-18.45-110.05-39.21
								c0.31-20.76,50.07-36.86,111.16-35.96C477.58,506.01,526.85,523.57,526.55,544.32z"/>
							
								<ellipse transform="matrix(0.0147 -0.9999 0.9999 0.0147 -132.8171 950.6047)" class="st138" cx="415.94" cy="542.7" rx="37.28" ry="109.72"/>
							<path class="st139" d="M524.75,544.3c-0.3,20.42-49.26,36.26-109.36,35.37c-60.1-0.88-108.57-18.15-108.27-38.57
								c0.3-20.42,49.26-36.26,109.36-35.37C476.58,506.61,525.05,523.88,524.75,544.3z"/>
							
								<ellipse transform="matrix(0.0147 -0.9999 0.9999 0.0147 -132.8172 950.6046)" class="st140" cx="415.94" cy="542.7" rx="36.67" ry="107.93"/>
							<path class="st141" d="M522.96,544.27c-0.29,20.08-48.45,35.66-107.55,34.79c-59.1-0.87-106.78-17.85-106.48-37.94
								c0.3-20.08,48.45-35.66,107.55-34.79C475.58,507.2,523.25,524.19,522.96,544.27z"/>
							<path class="st142" d="M522.06,544.26c-0.29,19.91-48.04,35.36-106.65,34.5c-58.61-0.86-105.88-17.7-105.59-37.62
								c0.29-19.91,48.04-35.36,106.65-34.5C475.08,507.5,522.35,524.34,522.06,544.26z"/>
							<path class="st143" d="M521.16,544.24c-0.29,19.75-47.63,35.06-105.75,34.2c-58.11-0.85-104.98-17.55-104.69-37.3
								c0.29-19.75,47.63-35.06,105.75-34.21C474.58,507.8,521.45,524.5,521.16,544.24z"/>
							<path class="st144" d="M520.26,544.23c-0.29,19.58-47.23,34.76-104.84,33.91c-57.62-0.85-104.09-17.41-103.8-36.98
								c0.29-19.58,47.23-34.76,104.84-33.91C474.08,508.09,520.55,524.65,520.26,544.23z"/>
							<path class="st145" d="M519.36,544.22c-0.29,19.41-46.82,34.46-103.94,33.62c-57.12-0.84-103.19-17.25-102.91-36.66
								c0.29-19.41,46.82-34.46,103.94-33.62C473.58,508.39,519.65,524.81,519.36,544.22z"/>
							<path class="st146" d="M518.47,544.2c-0.28,19.24-46.41,34.16-103.04,33.33c-56.62-0.83-102.3-17.11-102.01-36.35
								c0.28-19.24,46.42-34.16,103.04-33.33C473.08,508.69,518.75,524.96,518.47,544.2z"/>
						</g>
					</g>
					<g>
						<radialGradient id="SVGID_6_" cx="420.3593" cy="500.5273" r="109.048" gradientUnits="userSpaceOnUse">
							<stop  offset="0" style="stop-color:#998675"/>
							<stop  offset="0.9879" style="stop-color:#736357"/>
						</radialGradient>
						<path class="st147" d="M556.05,500.55c0,40.43-60.77,73.27-135.69,73.27c-74.94,0-135.69-32.84-135.69-73.27
							c0-40.47,60.75-73.31,135.69-73.31C495.28,427.24,556.05,460.08,556.05,500.55z"/>
						<radialGradient id="SVGID_7_" cx="130.5171" cy="438.5514" r="327.5138" gradientUnits="userSpaceOnUse">
							<stop  offset="0" style="stop-color:#998675"/>
							<stop  offset="0.9879" style="stop-color:#736357"/>
						</radialGradient>
						<path class="st148" d="M420.05,224.1c-146.38,0-265.09,48.24-265.09,107.79c0,59.51,118.71,107.75,265.09,107.75
							c146.39,0,265.08-48.25,265.08-107.75C685.13,272.33,566.44,224.1,420.05,224.1z M421.35,419.77
							c-131.07,0-237.35-41.8-237.35-93.4c0-51.58,106.28-93.41,237.35-93.41c131.1,0,237.38,41.83,237.38,93.41
							C658.72,377.98,552.45,419.77,421.35,419.77z"/>
						<radialGradient id="SVGID_8_" cx="324.6248" cy="542.6276" r="312.0098" gradientUnits="userSpaceOnUse">
							<stop  offset="0.0424" style="stop-color:#998675"/>
							<stop  offset="1" style="stop-color:#C7B299"/>
						</radialGradient>
						<path class="st149" d="M420.36,232.48c-131.78,0-238.62,42.29-238.62,94.44c0,52.18,106.84,94.44,238.62,94.44
							c131.78,0,238.63-42.26,238.63-94.44C658.98,274.78,552.14,232.48,420.36,232.48z"/>
						<g class="st150">
							<polygon class="st151" points="510.33,230.51 510.33,230.51 294.42,436.26 296.61,447.24 306.36,451.03 536.47,235.02 
															"/>
							<polygon class="st151" points="506.54,230.51 506.54,230.51 290.64,436.26 292.83,447.24 302.58,451.03 532.69,235.02 
															"/>
							<polygon class="st151" points="506.54,232.24 506.54,232.24 290.64,438 292.83,448.98 302.58,452.76 532.69,236.76 							
								"/>
							<polygon class="st151" points="506.54,234.39 506.54,234.39 290.64,440.14 292.83,451.13 302.58,454.91 532.69,238.91 
															"/>
							<polygon class="st151" points="502.71,232.24 502.71,232.24 286.81,437.99 289,448.98 298.75,452.76 528.87,236.76 							
								"/>
							<path class="st151" d="M578.45,245.45c-0.02,0,0,0-29.25-7.72l0,0L351.54,432.45l2.19,11.01l9.72,3.82L578.45,245.45
								L578.45,245.45z"/>
							<path class="st151" d="M572.58,245.45c-0.01,0,0,0-29.25-7.72l0,0L345.67,432.45l2.19,11.01l9.72,3.82L572.58,245.45
								L572.58,245.45z"/>
							<path class="st151" d="M575.88,250.82c-0.01,0,0,0-29.25-7.71l0,0L348.97,437.82l2.2,11.01l9.72,3.81L575.88,250.82
								L575.88,250.82z"/>
							<path class="st151" d="M570.35,247.6c-0.01,0,0,0-29.26-7.72l0,0L343.44,434.6l2.2,11.01l9.72,3.81L570.35,247.6
								L570.35,247.6z"/>
						</g>
						<g>
							<g>
								<g>
									
										<linearGradient id="SVGID_9_" gradientUnits="userSpaceOnUse" x1="-284.1973" y1="-504.3749" x2="-753.5469" y2="-1533.1931" gradientTransform="matrix(0.358 -0.0714 0.0714 0.358 756.5662 646.2434)">
										<stop  offset="0" style="stop-color:#F7EFDE"/>
										<stop  offset="1" style="stop-color:#B05B4C"/>
									</linearGradient>
									<polygon class="st152" points="640.19,105.44 643.8,123.53 296.61,449.42 294.42,438.44 									"/>
									
										<linearGradient id="SVGID_10_" gradientUnits="userSpaceOnUse" x1="-1246.7361" y1="-631.8768" x2="-968.797" y2="-1063.8176" gradientTransform="matrix(0.358 -0.0714 0.0714 0.358 755.2059 647.5451)">
										<stop  offset="0" style="stop-color:#F7EFDE"/>
										<stop  offset="1" style="stop-color:#B05B4C"/>
									</linearGradient>
									<polygon class="st153" points="296.61,449.42 286.86,445.64 284.67,434.66 294.42,438.44 									"/>
									
										<linearGradient id="SVGID_11_" gradientUnits="userSpaceOnUse" x1="343.0389" y1="294.5485" x2="-307.5995" y2="-307.7068" gradientTransform="matrix(0.9524 -0.1898 0.1898 0.9524 26.8829 22.1708)">
										<stop  offset="0" style="stop-color:#F7EFDE"/>
										<stop  offset="1" style="stop-color:#B05B4C"/>
									</linearGradient>
									<polygon class="st154" points="640.19,105.44 294.42,438.44 284.67,434.66 622.61,98.59 									"/>
								</g>
								<g>
									<polygon class="st155" points="588.08,155.51 549.2,192.95 549.42,193.03 552.61,209.01 591.49,172.5 588.11,155.5 
																			"/>
									<path class="st156" d="M588.08,155.51c-0.1-0.04-9.82-3.85-16.39-6.44l-37.33,37.13l14.84,6.76L588.08,155.51z"/>
								</g>
							</g>
							<g>
								<g>
									
										<linearGradient id="SVGID_12_" gradientUnits="userSpaceOnUse" x1="-134.1558" y1="-484.5736" x2="-603.6005" y2="-1513.6003" gradientTransform="matrix(0.358 -0.0714 0.0714 0.358 758.5321 646.1125)">
										<stop  offset="0" style="stop-color:#F7EFDE"/>
										<stop  offset="1" style="stop-color:#B05B4C"/>
									</linearGradient>
									<polygon class="st157" points="697.29,101.69 700.89,119.76 353.71,445.68 351.51,434.67 									"/>
									
										<linearGradient id="SVGID_13_" gradientUnits="userSpaceOnUse" x1="-1096.5515" y1="-612.2755" x2="-818.7291" y2="-1044.0347" gradientTransform="matrix(0.358 -0.0714 0.0714 0.358 757.1737 647.4138)">
										<stop  offset="0" style="stop-color:#F7EFDE"/>
										<stop  offset="1" style="stop-color:#B05B4C"/>
									</linearGradient>
									<polygon class="st158" points="353.71,445.68 343.99,441.86 341.79,430.85 351.51,434.67 									"/>
									
										<linearGradient id="SVGID_14_" gradientUnits="userSpaceOnUse" x1="366.1663" y1="269.5402" x2="-284.5114" y2="-332.7515" gradientTransform="matrix(0.9524 -0.1898 0.1898 0.9524 26.8829 22.1708)">
										<stop  offset="0" style="stop-color:#F7EFDE"/>
										<stop  offset="1" style="stop-color:#B05B4C"/>
									</linearGradient>
									<polygon class="st159" points="697.29,101.69 351.51,434.67 341.79,430.85 679.65,94.73 									"/>
								</g>
								<g>
									<polygon class="st155" points="645.09,151.66 606.28,189.15 606.47,189.22 609.66,205.21 648.56,168.72 645.15,151.68 
																			"/>
									<path class="st156" d="M645.09,151.66c0,0-9.65-3.8-16.3-6.38l-37.35,37.11l14.83,6.75L645.09,151.66z"/>
								</g>
							</g>
						</g>
						<radialGradient id="SVGID_15_" cx="127.4333" cy="437.6179" r="327.5161" gradientUnits="userSpaceOnUse">
							<stop  offset="0" style="stop-color:#998675"/>
							<stop  offset="0.9879" style="stop-color:#736357"/>
						</radialGradient>
						<path class="st160" d="M651.75,353.82c-25.56,40.74-122.08,64.99-233.49,64.99c-111.39,0-204.69-25.51-230.26-66.25
							l-2.24-4.69v33.61c45.43,32.84,128.57,58.15,231.19,57.19c110.23-1.04,204.75-27.36,244.72-66.28v-24.53L651.75,353.82z"/>
						<linearGradient id="SVGID_16_" gradientUnits="userSpaceOnUse" x1="665.7414" y1="493.776" x2="184.7928" y2="336.3975">
							<stop  offset="0" style="stop-color:#998675"/>
							<stop  offset="1" style="stop-color:#C7B299"/>
						</linearGradient>
						<path class="st161" d="M419.82,438.63c-130.72,0-239.35-38.47-261.11-89.08h-0.05c38.76,116.49,141.12,199.74,261.4,199.74
							c120.23,0,222.58-83.26,261.38-199.74h-0.52C659.16,400.16,550.54,438.63,419.82,438.63z"/>
						<path class="st162" d="M194.21,396.85c0,0,33.09,24.48,75.99,34c0,0-2.45,51.8,45.35,78.76
							C315.55,509.61,242.01,498.58,194.21,396.85z"/>
						<path class="st162" d="M199.72,398.53c0,0,33.1,24.48,75.99,34c0,0-2.45,51.8,45.35,78.77
							C321.06,511.29,247.52,500.26,199.72,398.53z"/>
						<path class="st163" d="M204.62,405.88c0,0,33.09,24.49,75.99,34c0,0-2.45,51.8,45.35,78.77
							C325.97,518.65,252.43,507.62,204.62,405.88z"/>
						<linearGradient id="SVGID_17_" gradientUnits="userSpaceOnUse" x1="645.0938" y1="295.1221" x2="645.0938" y2="295.1221">
							<stop  offset="0" style="stop-color:#F7EFDE"/>
							<stop  offset="1" style="stop-color:#B05B4C"/>
						</linearGradient>
						<path class="st164" d="M645.09,295.12"/>
						<path class="st165" d="M653.82,307.32c1.02,1.86,1.87,3.81,2.64,5.79c0.76,1.98,1.43,4.01,1.92,6.09
							c0.5,2.07,0.85,4.19,0.99,6.34c0.13,2.15,0.05,4.34-0.46,6.47l0.02-0.12c-0.43,4.77-1.99,9.2-3.95,13.43
							c-2.02,4.21-4.62,8.1-7.56,11.71c-2.92,3.62-6.28,6.85-9.84,9.81c-3.55,2.96-7.39,5.56-11.37,7.88
							c3.78-2.63,7.39-5.48,10.82-8.53c3.42-3.05,6.55-6.4,9.41-9.95c2.84-3.57,5.3-7.43,7.27-11.53c1.96-4.06,3.54-8.46,3.99-12.87
							l0.01-0.09l0.01-0.03c0.96-3.99,0.7-8.26-0.12-12.36C656.77,315.26,655.49,311.21,653.82,307.32z"/>
					</g>
				</g>
			</g>
			<g>
				<path class="st166" d="M289.7,647.07c0.72-0.67,1.46-1.3,2.23-1.87c0.77-0.58,1.59-1.06,2.47-1.46c0.88-0.4,1.82-0.71,2.84-0.94
					c1.02-0.23,2.13-0.34,3.33-0.34c2.04,0,3.85,0.35,5.42,1.06c1.57,0.71,2.9,1.69,3.98,2.95c1.08,1.26,1.9,2.76,2.45,4.5
					c0.55,1.74,0.83,3.63,0.83,5.67v23.72h-11.16v-23.72c0-1.82-0.42-3.25-1.26-4.27c-0.84-1.02-2.08-1.53-3.71-1.53
					c-1.22,0-2.37,0.26-3.44,0.77c-1.07,0.52-2.11,1.22-3.11,2.11v26.64H279.4v-37.33h6.91c1.39,0,2.3,0.62,2.74,1.87L289.7,647.07z
					"/>
				<path class="st166" d="M337.65,642.46c2.83,0,5.41,0.44,7.74,1.33c2.33,0.89,4.33,2.16,5.99,3.82c1.67,1.66,2.96,3.67,3.89,6.03
					c0.92,2.36,1.39,5.02,1.39,7.97c0,2.98-0.46,5.66-1.39,8.05c-0.92,2.39-2.22,4.42-3.89,6.08c-1.67,1.67-3.67,2.95-5.99,3.85
					c-2.33,0.9-4.91,1.35-7.74,1.35c-2.86,0-5.45-0.45-7.79-1.35c-2.34-0.9-4.36-2.18-6.05-3.85s-3-3.7-3.92-6.08
					c-0.92-2.39-1.39-5.07-1.39-8.05c0-2.95,0.46-5.61,1.39-7.97c0.92-2.36,2.23-4.37,3.92-6.03s3.71-2.93,6.05-3.82
					C332.2,642.91,334.8,642.46,337.65,642.46z M337.65,672.67c2.57,0,4.46-0.91,5.67-2.72c1.21-1.81,1.82-4.57,1.82-8.26
					c0-3.7-0.61-6.44-1.82-8.24c-1.21-1.8-3.1-2.7-5.67-2.7c-2.64,0-4.57,0.9-5.8,2.7s-1.84,4.55-1.84,8.24
					c0,3.7,0.61,6.45,1.84,8.26C333.08,671.76,335.01,672.67,337.65,672.67z"/>
				<path class="st166" d="M391.47,632.81c0,0.89-0.18,1.72-0.54,2.5c-0.36,0.78-0.85,1.46-1.48,2.05c-0.62,0.59-1.35,1.06-2.18,1.4
					s-1.71,0.52-2.65,0.52c-0.91,0-1.76-0.17-2.56-0.52c-0.79-0.35-1.49-0.82-2.11-1.4c-0.61-0.59-1.09-1.27-1.44-2.05
					c-0.35-0.78-0.52-1.61-0.52-2.5c0-0.91,0.17-1.76,0.52-2.56c0.35-0.79,0.83-1.49,1.44-2.09c0.61-0.6,1.31-1.07,2.11-1.4
					c0.79-0.34,1.64-0.5,2.56-0.5c0.94,0,1.82,0.17,2.65,0.5s1.55,0.8,2.18,1.4c0.62,0.6,1.12,1.3,1.48,2.09
					C391.29,631.05,391.47,631.9,391.47,632.81z M390.32,643.04v37.33h-11.16v-37.33H390.32z"/>
				<path class="st166" d="M398.13,680.37v-37.33h6.91c1.39,0,2.3,0.62,2.74,1.87l0.61,2.02c0.62-0.65,1.27-1.24,1.94-1.78
					s1.4-1.01,2.18-1.4c0.78-0.4,1.62-0.71,2.52-0.94c0.9-0.23,1.89-0.34,2.97-0.34c2.26,0,4.12,0.58,5.6,1.75
					c1.48,1.16,2.6,2.72,3.37,4.66c0.62-1.15,1.39-2.14,2.29-2.95c0.9-0.82,1.87-1.48,2.92-1.98s2.15-0.88,3.31-1.12
					s2.32-0.36,3.47-0.36c2.14,0,4.03,0.32,5.69,0.95c1.66,0.64,3.04,1.56,4.16,2.77c1.12,1.21,1.96,2.7,2.54,4.46
					c0.58,1.76,0.86,3.76,0.86,5.99v23.72h-11.16v-23.72c0-3.86-1.66-5.8-4.97-5.8c-1.51,0-2.77,0.5-3.76,1.49
					c-1,1-1.49,2.43-1.49,4.3v23.72h-11.16v-23.72c0-2.14-0.42-3.64-1.26-4.5c-0.84-0.86-2.08-1.3-3.71-1.3
					c-1.01,0-1.96,0.23-2.86,0.68c-0.9,0.46-1.75,1.07-2.54,1.84v27H398.13z"/>
				<path class="st166" d="M458.57,648.22c2.26-1.99,4.76-3.47,7.51-4.45c2.75-0.97,5.69-1.46,8.84-1.46c2.26,0,4.29,0.37,6.1,1.1
					c1.81,0.73,3.35,1.75,4.61,3.06c1.26,1.31,2.23,2.86,2.9,4.66c0.67,1.8,1.01,3.77,1.01,5.9v23.33h-5.11
					c-1.06,0-1.85-0.14-2.39-0.43s-0.99-0.89-1.35-1.8l-0.79-2.05c-0.94,0.79-1.84,1.49-2.7,2.09c-0.86,0.6-1.76,1.11-2.68,1.53
					s-1.91,0.73-2.95,0.94s-2.2,0.31-3.47,0.31c-1.7,0-3.25-0.22-4.64-0.67c-1.39-0.44-2.57-1.1-3.55-1.96
					c-0.97-0.86-1.72-1.94-2.25-3.22c-0.53-1.28-0.79-2.77-0.79-4.45c0-1.34,0.33-2.71,1.01-4.09c0.67-1.38,1.84-2.64,3.49-3.78
					c1.66-1.14,3.89-2.09,6.7-2.86c2.81-0.77,6.35-1.2,10.62-1.3v-1.58c0-2.18-0.45-3.76-1.35-4.73c-0.9-0.97-2.18-1.46-3.83-1.46
					c-1.32,0-2.4,0.14-3.24,0.43c-0.84,0.29-1.59,0.61-2.25,0.97c-0.66,0.36-1.3,0.68-1.93,0.97c-0.62,0.29-1.37,0.43-2.23,0.43
					c-0.77,0-1.42-0.19-1.94-0.58s-0.96-0.84-1.3-1.37L458.57,648.22z M478.66,665.18c-2.23,0.1-4.07,0.29-5.51,0.58
					c-1.44,0.29-2.58,0.65-3.42,1.08c-0.84,0.43-1.42,0.92-1.75,1.48s-0.49,1.15-0.49,1.8c0,1.27,0.35,2.17,1.04,2.68
					c0.7,0.52,1.72,0.77,3.06,0.77c1.44,0,2.7-0.25,3.78-0.76c1.08-0.5,2.17-1.32,3.28-2.45V665.18z"/>
				<path class="st166" d="M530.54,644.19v4.07c0,0.62-0.17,1.12-0.52,1.48c-0.35,0.36-0.94,0.64-1.78,0.83l-2.7,0.61
					c0.14,0.53,0.26,1.07,0.34,1.62c0.08,0.55,0.13,1.13,0.13,1.73c0,1.87-0.39,3.55-1.17,5.04c-0.78,1.49-1.85,2.75-3.2,3.8
					c-1.36,1.04-2.96,1.85-4.81,2.41c-1.85,0.56-3.83,0.85-5.94,0.85c-0.58,0-1.14-0.02-1.69-0.05s-1.09-0.1-1.62-0.2
					c-0.82,0.5-1.22,1.07-1.22,1.69s0.34,1.07,1.01,1.35c0.67,0.28,1.56,0.47,2.66,0.58c1.1,0.11,2.36,0.18,3.76,0.22
					c1.4,0.04,2.84,0.12,4.3,0.25c1.46,0.13,2.9,0.35,4.3,0.67c1.4,0.31,2.66,0.82,3.76,1.51c1.1,0.7,1.99,1.63,2.66,2.79
					c0.67,1.17,1.01,2.65,1.01,4.45c0,1.68-0.41,3.32-1.22,4.93c-0.82,1.61-2.02,3.04-3.6,4.28s-3.53,2.25-5.83,3.01
					c-2.3,0.76-4.94,1.13-7.92,1.13c-2.93,0-5.45-0.28-7.58-0.83c-2.12-0.55-3.89-1.28-5.29-2.18c-1.4-0.9-2.44-1.94-3.11-3.11
					c-0.67-1.18-1.01-2.4-1.01-3.67c0-1.66,0.48-3.04,1.44-4.14s2.3-1.99,4.03-2.66c-0.91-0.55-1.63-1.26-2.16-2.12
					s-0.79-1.98-0.79-3.35c0-0.55,0.1-1.13,0.29-1.75s0.5-1.21,0.92-1.8s0.94-1.15,1.57-1.67c0.62-0.53,1.37-1,2.23-1.4
					c-1.94-1.03-3.48-2.39-4.61-4.09c-1.13-1.69-1.69-3.67-1.69-5.92c0-1.87,0.4-3.56,1.19-5.06c0.79-1.5,1.88-2.77,3.26-3.82
					c1.38-1.04,3.01-1.85,4.88-2.41c1.87-0.56,3.9-0.85,6.08-0.85c3.17,0,5.98,0.6,8.42,1.8H530.54z M519.52,681.74
					c0-0.89-0.4-1.53-1.19-1.93c-0.79-0.4-1.82-0.68-3.1-0.85c-1.27-0.17-2.69-0.27-4.27-0.31s-3.14-0.13-4.7-0.27
					c-0.7,0.48-1.27,1.01-1.71,1.6s-0.67,1.25-0.67,2c0,0.53,0.11,1.01,0.34,1.44c0.23,0.43,0.63,0.8,1.21,1.12
					c0.58,0.31,1.35,0.56,2.32,0.74c0.97,0.18,2.2,0.27,3.69,0.27c1.61,0,2.93-0.1,3.96-0.29c1.03-0.19,1.85-0.46,2.47-0.79
					s1.04-0.74,1.28-1.21C519.4,682.8,519.52,682.29,519.52,681.74z M510.88,659.74c1.85,0,3.19-0.46,4.01-1.39s1.24-2.12,1.24-3.58
					c0-1.51-0.41-2.7-1.24-3.56s-2.17-1.3-4.01-1.3c-1.85,0-3.19,0.43-4.01,1.3s-1.24,2.05-1.24,3.56c0,0.72,0.1,1.38,0.31,1.98
					c0.2,0.6,0.52,1.12,0.95,1.57s0.98,0.79,1.64,1.04S509.97,659.74,510.88,659.74z"/>
				<path class="st166" d="M543.68,663.7c0.36,3.12,1.31,5.38,2.84,6.79s3.52,2.11,5.94,2.11c1.3,0,2.41-0.16,3.35-0.47
					c0.94-0.31,1.77-0.66,2.5-1.04s1.4-0.73,2.02-1.04c0.61-0.31,1.25-0.47,1.93-0.47c0.89,0,1.56,0.32,2.02,0.97l3.24,4
					c-1.15,1.32-2.39,2.39-3.73,3.22s-2.7,1.48-4.1,1.94s-2.81,0.79-4.21,0.97c-1.4,0.18-2.74,0.27-4.01,0.27
					c-2.62,0-5.07-0.43-7.36-1.28s-4.3-2.12-6.01-3.8c-1.72-1.68-3.07-3.77-4.07-6.26s-1.49-5.4-1.49-8.71
					c0-2.5,0.43-4.86,1.28-7.09c0.85-2.23,2.08-4.19,3.67-5.87c1.6-1.68,3.53-3.01,5.8-4c2.27-0.98,4.83-1.48,7.69-1.48
					c2.47,0,4.73,0.38,6.79,1.15c2.05,0.77,3.82,1.88,5.29,3.35c1.48,1.46,2.63,3.26,3.46,5.38c0.83,2.12,1.24,4.53,1.24,7.22
					c0,0.84-0.04,1.52-0.11,2.05c-0.07,0.53-0.2,0.95-0.4,1.26c-0.19,0.31-0.45,0.53-0.77,0.65c-0.32,0.12-0.74,0.18-1.24,0.18
					H543.68z M557.72,657.22c0-0.89-0.11-1.75-0.34-2.59c-0.23-0.84-0.6-1.59-1.12-2.25c-0.52-0.66-1.19-1.19-2.03-1.6
					s-1.86-0.61-3.06-0.61c-2.11,0-3.77,0.61-4.97,1.82c-1.2,1.21-1.99,2.96-2.38,5.24H557.72z"/>
			</g>
		</g>
	</g>
</g>
</svg>
