<?xml version="1.0" encoding="utf-8"?>
<!-- Generator: Adobe Illustrator 25.0.0, SVG Export Plug-In . SVG Version: 6.00 Build 0)  -->
<svg version="1.1" xmlns="http://www.w3.org/2000/svg" xmlns:xlink="http://www.w3.org/1999/xlink" x="0px" y="0px"
	 viewBox="0 0 3138.68 2250" style="enable-background:new 0 0 3138.68 2250;" xml:space="preserve">
<style type="text/css">
	.st0{opacity:0.5;fill:url(#SVGID_1_);}
	.st1{opacity:0.5;fill:#9BD6E8;}
	.st2{fill:#63ACC2;}
	.st3{clip-path:url(#SVGID_3_);fill:#D5EBFE;}
	.st4{clip-path:url(#SVGID_3_);}
	.st5{fill:#303C60;}
	.st6{fill:#F09959;}
	.st7{fill:#6791C9;}
	.st8{fill:#75A1DE;}
	.st9{opacity:0.5;fill:#6791C9;}
	.st10{fill:#E38540;}
	.st11{fill:#F5CE5C;}
	.st12{fill:#4381DB;}
	.st13{fill:#2E5B9A;}
	.st14{fill:#9CBEED;}
	.st15{fill:#FFFFFF;}
	.st16{fill:#232E4F;}
	.st17{fill:#1B243D;}
	.st18{fill:#FFD24F;}
	.st19{fill:#EDC055;}
	.st20{fill:#2A66C6;}
	.st21{fill:#0F2D5C;}
	.st22{fill:#9EC8FF;}
	.st23{clip-path:url(#SVGID_5_);fill:#D5EBFE;}
	.st24{clip-path:url(#SVGID_5_);}
	.st25{fill:#D54A41;}
	.st26{fill:#58556E;}
	.st27{fill:#7EC1D6;}
	.st28{fill:#8DDAF2;}
	.st29{fill:#3E6BAB;}
	.st30{fill:#F37168;}
	.st31{fill:#FFCB30;}
	.st32{fill:#4578BF;}
	.st33{clip-path:url(#SVGID_7_);fill:#D5EBFE;}
	.st34{clip-path:url(#SVGID_7_);}
	.st35{fill:#255096;}
	.st36{fill:#FFC34E;}
	.st37{fill:#A1A654;}
	.st38{fill:#C1C765;}
	.st39{clip-path:url(#SVGID_9_);fill:#D5EBFE;}
	.st40{clip-path:url(#SVGID_9_);}
	.st41{fill:#A8CEFF;}
	.st42{fill:#93BBF0;}
	.st43{clip-path:url(#SVGID_11_);fill:#D5EBFE;}
	.st44{clip-path:url(#SVGID_11_);}
	.st45{fill:#FB8627;}
	.st46{fill:url(#SVGID_12_);}
	.st47{fill:url(#SVGID_13_);}
	.st48{fill:url(#SVGID_14_);}
	.st49{fill:url(#SVGID_15_);}
	.st50{clip-path:url(#SVGID_17_);fill:#C6E0F7;}
	.st51{clip-path:url(#SVGID_17_);}
	.st52{fill:#2E2D3D;}
	.st53{fill:#BDCCD4;}
	.st54{clip-path:url(#SVGID_19_);fill:#C6E0F7;}
	.st55{clip-path:url(#SVGID_19_);}
	.st56{fill:#3A384D;}
	.st57{clip-path:url(#SVGID_21_);fill:#C6E0F7;}
	.st58{clip-path:url(#SVGID_21_);}
	.st59{fill:#7A4E34;}
	.st60{fill:#9BD6E8;}
</style>
<g id="Layer_1">
	<linearGradient id="SVGID_1_" gradientUnits="userSpaceOnUse" x1="498.09" y1="2315.5774" x2="2492.6033" y2="321.0641">
		<stop  offset="0" style="stop-color:#4659C1"/>
		<stop  offset="1" style="stop-color:#3AD0DE"/>
	</linearGradient>
	<path class="st0" d="M2850.38,2003.89c281.04-268.28,348.18-816.02,87.87-1196.86c-216.97-317.42-616.61-643.94-1120.2-739.12
		c-503.6-95.18-944.79-95.07-1135.59,30.67c-156.14,102.9-83.56,246.21-34.59,367.99c65.37,162.57,75,291.65-193.91,527.82
		C146.98,1264,63.89,1365.2,48.5,1625.89C35.99,1837.91,213,2123.1,445.27,2163.97c323.36,56.89,443.38-93.38,759.74-194.68
		c253.78-81.27,429.8-43.27,659.89,112.48C2094.99,2237.52,2437.96,2397.59,2850.38,2003.89z"/>
</g>
<g id="Слой_1">
	<g>
		<path class="st1" d="M2782.86,1899.62c-299.34-0.75-968.09,12.09-1493.64,39.38c-525.55,27.29-80.72,88.45,281.24,62.41
			c361.96-26.03,615.16,56.88,1058.18,28.88S3130.16,1900.49,2782.86,1899.62z"/>
		<g>
			<g>
				<g>
					<path class="st2" d="M164.08,1043.47c-1.08,0-2.08-0.71-2.4-1.79l-7.08-23.98c-0.35-1.18,0.21-2.43,1.32-2.96l22.55-10.8
						c1.24-0.6,2.74-0.07,3.33,1.17c0.6,1.25,0.07,2.74-1.17,3.33l-20.62,9.88l6.48,21.93c0.39,1.32-0.37,2.71-1.69,3.11
						C164.55,1043.44,164.32,1043.47,164.08,1043.47z"/>
				</g>
				<g>
					<path class="st2" d="M323.32,1582.58c-1.08,0-2.08-0.71-2.4-1.79l-13.27-44.93c-0.39-1.32,0.37-2.71,1.69-3.11
						c1.32-0.39,2.71,0.37,3.11,1.69l13.27,44.93c0.39,1.32-0.37,2.71-1.69,3.11C323.79,1582.55,323.55,1582.58,323.32,1582.58z
						 M296.78,1492.73c-1.08,0-2.08-0.71-2.4-1.79l-13.27-44.93c-0.39-1.32,0.37-2.71,1.69-3.11c1.32-0.4,2.71,0.37,3.11,1.69
						l13.27,44.93c0.39,1.32-0.37,2.71-1.69,3.11C297.25,1492.7,297.01,1492.73,296.78,1492.73z M270.24,1402.88
						c-1.08,0-2.08-0.71-2.4-1.79l-13.27-44.93c-0.39-1.32,0.37-2.71,1.69-3.11c1.32-0.39,2.71,0.37,3.11,1.69l13.27,44.93
						c0.39,1.32-0.37,2.71-1.69,3.11C270.71,1402.85,270.47,1402.88,270.24,1402.88z M243.7,1313.03c-1.08,0-2.08-0.71-2.4-1.79
						l-13.27-44.93c-0.39-1.32,0.37-2.71,1.69-3.11c1.32-0.4,2.71,0.37,3.11,1.69l13.27,44.93c0.39,1.32-0.37,2.71-1.69,3.11
						C244.17,1312.99,243.93,1313.03,243.7,1313.03z M217.16,1223.17c-1.08,0-2.08-0.71-2.4-1.79l-13.27-44.93
						c-0.39-1.32,0.37-2.71,1.69-3.11c1.32-0.4,2.71,0.37,3.11,1.69l13.27,44.93c0.39,1.32-0.37,2.71-1.69,3.11
						C217.63,1223.14,217.39,1223.17,217.16,1223.17z M190.62,1133.32c-1.08,0-2.08-0.71-2.4-1.79l-13.27-44.93
						c-0.39-1.32,0.37-2.71,1.69-3.11c1.32-0.39,2.71,0.37,3.11,1.69l13.27,44.93c0.39,1.32-0.37,2.71-1.69,3.11
						C191.09,1133.29,190.85,1133.32,190.62,1133.32z"/>
				</g>
				<g>
					<path class="st2" d="M343.67,1651.49c-0.38,0-0.77-0.09-1.12-0.26c-0.62-0.31-1.08-0.86-1.28-1.53l-7.08-23.98
						c-0.39-1.32,0.37-2.71,1.69-3.11c1.32-0.39,2.71,0.37,3.11,1.69l6.33,21.41l20.94-7.75c1.29-0.48,2.73,0.18,3.21,1.48
						c0.48,1.29-0.18,2.73-1.48,3.21l-23.45,8.68C344.26,1651.43,343.96,1651.49,343.67,1651.49z"/>
				</g>
				<g>
					<path class="st2" d="M413.33,1625.71c-1.02,0-1.97-0.62-2.34-1.63c-0.48-1.29,0.18-2.73,1.48-3.21l46.21-17.1
						c1.29-0.48,2.73,0.18,3.21,1.48c0.48,1.29-0.18,2.73-1.48,3.21l-46.21,17.1C413.91,1625.66,413.61,1625.71,413.33,1625.71z
						 M505.74,1591.52c-1.02,0-1.97-0.62-2.34-1.63c-0.48-1.29,0.18-2.73,1.48-3.21l46.21-17.1c1.3-0.48,2.73,0.18,3.21,1.48
						c0.48,1.29-0.18,2.73-1.48,3.21l-46.21,17.1C506.33,1591.47,506.03,1591.52,505.74,1591.52z M598.16,1557.33
						c-1.02,0-1.97-0.62-2.34-1.63c-0.48-1.29,0.18-2.73,1.48-3.21l46.21-17.1c1.29-0.48,2.73,0.18,3.21,1.48
						c0.48,1.29-0.18,2.73-1.48,3.21l-46.21,17.1C598.74,1557.28,598.45,1557.33,598.16,1557.33z M690.58,1523.13
						c-1.02,0-1.97-0.62-2.34-1.63c-0.48-1.29,0.18-2.73,1.48-3.21l46.21-17.1c1.3-0.48,2.73,0.18,3.21,1.48
						c0.48,1.29-0.18,2.73-1.48,3.21l-46.21,17.1C691.16,1523.08,690.87,1523.13,690.58,1523.13z M783,1488.94
						c-1.02,0-1.97-0.62-2.34-1.63c-0.48-1.29,0.18-2.73,1.48-3.21l46.21-17.1c1.29-0.48,2.73,0.18,3.21,1.48
						c0.48,1.29-0.18,2.73-1.48,3.21l-46.21,17.1C783.58,1488.89,783.29,1488.94,783,1488.94z M875.42,1454.75
						c-1.02,0-1.97-0.62-2.34-1.63c-0.48-1.29,0.18-2.73,1.48-3.21l46.21-17.1c1.29-0.48,2.73,0.18,3.21,1.48
						c0.48,1.29-0.18,2.73-1.48,3.21l-46.21,17.1C876,1454.7,875.71,1454.75,875.42,1454.75z M967.84,1420.55
						c-1.02,0-1.97-0.62-2.34-1.63c-0.48-1.29,0.18-2.73,1.48-3.21l46.21-17.1c1.29-0.48,2.73,0.18,3.21,1.48
						c0.48,1.29-0.18,2.73-1.48,3.21l-46.21,17.1C968.42,1420.5,968.12,1420.55,967.84,1420.55z M1060.26,1386.36
						c-1.02,0-1.97-0.62-2.34-1.63c-0.48-1.29,0.18-2.73,1.48-3.21l46.21-17.1c1.29-0.48,2.73,0.18,3.21,1.48
						c0.48,1.29-0.18,2.73-1.48,3.21l-46.21,17.1C1060.84,1386.31,1060.54,1386.36,1060.26,1386.36z M1152.67,1352.17
						c-1.02,0-1.97-0.62-2.34-1.63c-0.48-1.29,0.18-2.73,1.48-3.21l46.21-17.1c1.3-0.48,2.73,0.18,3.21,1.48
						c0.48,1.29-0.18,2.73-1.48,3.21l-46.21,17.1C1153.26,1352.12,1152.96,1352.17,1152.67,1352.17z M1245.09,1317.97
						c-1.02,0-1.97-0.62-2.34-1.63c-0.48-1.29,0.18-2.73,1.48-3.21l46.21-17.1c1.29-0.48,2.73,0.18,3.21,1.48s-0.18,2.73-1.48,3.21
						l-46.21,17.1C1245.67,1317.92,1245.38,1317.97,1245.09,1317.97z"/>
				</g>
				<g>
					<path class="st2" d="M1382.46,1287.86c-0.43,0-0.87-0.11-1.27-0.35l-20.47-12.15l-22.33,8.26c-1.29,0.48-2.73-0.18-3.21-1.48
						s0.18-2.73,1.48-3.21l23.45-8.67c0.7-0.26,1.49-0.19,2.14,0.2l21.5,12.76c1.19,0.7,1.58,2.24,0.87,3.43
						C1384.14,1287.43,1383.31,1287.86,1382.46,1287.86z"/>
				</g>
				<g>
					<path class="st2" d="M2092.26,1709.15c-0.43,0-0.87-0.11-1.27-0.35l-44.36-26.33c-1.19-0.7-1.58-2.24-0.87-3.43
						c0.71-1.19,2.24-1.58,3.43-0.87l44.36,26.33c1.19,0.7,1.58,2.24,0.87,3.43C2093.94,1708.72,2093.11,1709.15,2092.26,1709.15z
						 M2003.53,1656.49c-0.43,0-0.87-0.11-1.27-0.35l-44.36-26.33c-1.19-0.7-1.58-2.24-0.87-3.43s2.24-1.58,3.43-0.87l44.36,26.33
						c1.19,0.7,1.58,2.24,0.87,3.43C2005.22,1656.05,2004.38,1656.49,2003.53,1656.49z M1914.81,1603.83
						c-0.43,0-0.87-0.11-1.27-0.35l-44.36-26.33c-1.19-0.7-1.58-2.24-0.87-3.43c0.71-1.19,2.24-1.58,3.43-0.87l44.36,26.33
						c1.19,0.7,1.58,2.24,0.87,3.43C1916.49,1603.39,1915.66,1603.83,1914.81,1603.83z M1826.08,1551.17
						c-0.43,0-0.87-0.11-1.27-0.35l-44.36-26.33c-1.19-0.7-1.58-2.24-0.87-3.43c0.71-1.19,2.24-1.58,3.43-0.87l44.36,26.33
						c1.19,0.7,1.58,2.24,0.87,3.43C1827.77,1550.73,1826.93,1551.17,1826.08,1551.17z M1737.36,1498.51
						c-0.43,0-0.87-0.11-1.27-0.35l-44.36-26.33c-1.19-0.7-1.58-2.24-0.87-3.43c0.71-1.19,2.24-1.58,3.43-0.87l44.36,26.33
						c1.19,0.7,1.58,2.24,0.87,3.43C1739.04,1498.07,1738.21,1498.51,1737.36,1498.51z M1648.63,1445.85
						c-0.43,0-0.87-0.11-1.27-0.35l-44.36-26.33c-1.19-0.7-1.58-2.24-0.87-3.43c0.71-1.19,2.24-1.58,3.43-0.87l44.36,26.33
						c1.19,0.7,1.58,2.24,0.87,3.43C1650.32,1445.41,1649.48,1445.85,1648.63,1445.85z M1559.91,1393.19
						c-0.43,0-0.87-0.11-1.27-0.35l-44.36-26.33c-1.19-0.7-1.58-2.24-0.87-3.43c0.7-1.19,2.24-1.58,3.43-0.87l44.36,26.33
						c1.19,0.7,1.58,2.24,0.87,3.43C1561.59,1392.75,1560.76,1393.19,1559.91,1393.19z M1471.18,1340.53
						c-0.43,0-0.87-0.11-1.27-0.35l-44.36-26.33c-1.19-0.7-1.58-2.24-0.87-3.43c0.71-1.19,2.24-1.58,3.43-0.87l44.36,26.33
						c1.19,0.7,1.58,2.24,0.87,3.43C1472.87,1340.09,1472.03,1340.53,1471.18,1340.53z"/>
				</g>
				<g>
					<path class="st2" d="M2158.12,1748.24c-0.44,0-0.88-0.12-1.28-0.35l-21.5-12.76c-1.19-0.7-1.58-2.24-0.87-3.43
						c0.71-1.19,2.24-1.58,3.43-0.87l20.16,11.97l19.64-12.8c1.16-0.75,2.7-0.43,3.46,0.73c0.75,1.16,0.43,2.71-0.73,3.46
						l-20.94,13.65C2159.07,1748.11,2158.59,1748.24,2158.12,1748.24z"/>
				</g>
				<g>
					<path class="st2" d="M2223.45,1705.67c-0.82,0-1.62-0.4-2.1-1.13c-0.75-1.16-0.43-2.71,0.73-3.46l44.38-28.92
						c1.16-0.75,2.7-0.43,3.46,0.73c0.75,1.16,0.43,2.71-0.73,3.46l-44.38,28.92C2224.39,1705.54,2223.92,1705.67,2223.45,1705.67z
						 M2312.21,1647.83c-0.82,0-1.62-0.4-2.1-1.13c-0.75-1.16-0.43-2.71,0.73-3.46l44.38-28.92c1.16-0.75,2.71-0.43,3.46,0.73
						c0.75,1.16,0.43,2.71-0.73,3.46l-44.38,28.92C2313.15,1647.7,2312.68,1647.83,2312.21,1647.83z M2400.97,1589.98
						c-0.82,0-1.62-0.4-2.1-1.13c-0.75-1.16-0.43-2.71,0.73-3.46l44.38-28.92c1.16-0.75,2.71-0.43,3.46,0.73
						c0.75,1.16,0.43,2.71-0.73,3.46l-44.38,28.92C2401.92,1589.85,2401.44,1589.98,2400.97,1589.98z M2489.74,1532.14
						c-0.82,0-1.62-0.4-2.1-1.13c-0.75-1.16-0.43-2.71,0.73-3.46l44.38-28.92c1.16-0.75,2.7-0.43,3.46,0.73
						c0.75,1.16,0.43,2.71-0.73,3.46l-44.38,28.92C2490.68,1532.01,2490.21,1532.14,2489.74,1532.14z M2578.5,1474.29
						c-0.82,0-1.62-0.4-2.1-1.13c-0.75-1.16-0.43-2.71,0.73-3.46l44.38-28.92c1.16-0.75,2.71-0.43,3.46,0.73
						c0.75,1.16,0.43,2.71-0.73,3.46l-44.38,28.92C2579.44,1474.16,2578.97,1474.29,2578.5,1474.29z M2667.26,1416.45
						c-0.82,0-1.62-0.4-2.1-1.13c-0.75-1.16-0.43-2.71,0.73-3.46l44.38-28.92c1.16-0.75,2.71-0.43,3.46,0.73
						c0.75,1.16,0.43,2.71-0.73,3.46l-44.38,28.92C2668.21,1416.32,2667.73,1416.45,2667.26,1416.45z M2756.03,1358.61
						c-0.82,0-1.62-0.4-2.1-1.13c-0.75-1.16-0.43-2.71,0.73-3.46l44.38-28.92c1.16-0.75,2.71-0.43,3.46,0.73
						c0.75,1.16,0.43,2.71-0.73,3.46l-44.38,28.92C2756.97,1358.47,2756.5,1358.61,2756.03,1358.61z"/>
				</g>
				<g>
					<path class="st2" d="M2844.79,1300.76c-0.82,0-1.62-0.4-2.1-1.13c-0.75-1.16-0.43-2.71,0.73-3.46l20.03-13.06l4.13-23.55
						c0.24-1.36,1.53-2.26,2.89-2.03c1.36,0.24,2.27,1.53,2.03,2.89l-4.32,24.62c-0.12,0.68-0.52,1.28-1.1,1.66l-20.94,13.65
						C2845.73,1300.63,2845.26,1300.76,2844.79,1300.76z"/>
				</g>
				<g>
					<path class="st2" d="M2878.9,1212.01c-0.14,0-0.29-0.01-0.43-0.04c-1.36-0.24-2.27-1.53-2.03-2.89l8.84-50.47
						c0.24-1.36,1.54-2.26,2.89-2.03c1.36,0.24,2.27,1.53,2.03,2.89l-8.84,50.47C2881.14,1211.16,2880.09,1212.01,2878.9,1212.01z
						 M2896.58,1111.07c-0.14,0-0.29-0.01-0.43-0.04c-1.36-0.24-2.27-1.53-2.03-2.89l8.84-50.47c0.24-1.36,1.54-2.27,2.89-2.03
						c1.36,0.24,2.27,1.53,2.03,2.89l-8.84,50.47C2898.83,1110.21,2897.78,1111.07,2896.58,1111.07z M2914.28,1010.12
						c-0.14,0-0.29-0.01-0.43-0.04c-1.36-0.24-2.27-1.53-2.03-2.89l8.84-50.47c0.24-1.36,1.54-2.26,2.89-2.03
						c1.36,0.24,2.27,1.53,2.03,2.89l-8.84,50.47C2916.52,1009.27,2915.47,1010.12,2914.28,1010.12z M2931.96,909.17
						c-0.14,0-0.29-0.01-0.43-0.04c-1.36-0.24-2.27-1.53-2.03-2.89l8.84-50.47c0.24-1.36,1.54-2.27,2.89-2.03
						c1.36,0.24,2.27,1.53,2.03,2.89l-8.84,50.47C2934.21,908.32,2933.16,909.17,2931.96,909.17z M2949.65,808.23
						c-0.14,0-0.29-0.01-0.43-0.04c-1.36-0.24-2.27-1.53-2.03-2.89l8.84-50.47c0.24-1.36,1.54-2.27,2.89-2.03
						c1.36,0.24,2.27,1.53,2.03,2.89l-8.84,50.47C2951.9,807.37,2950.85,808.23,2949.65,808.23z"/>
				</g>
				<g>
					<path class="st2" d="M2967.34,707.28c-0.14,0-0.29-0.01-0.43-0.04c-1.36-0.24-2.27-1.53-2.03-2.89l3.84-21.92l-22.18-1.75
						c-1.38-0.11-2.4-1.31-2.29-2.69c0.11-1.38,1.3-2.41,2.69-2.3l24.92,1.97c0.7,0.06,1.35,0.4,1.78,0.96
						c0.43,0.56,0.61,1.27,0.49,1.96l-4.31,24.62C2969.59,706.43,2968.54,707.28,2967.34,707.28z"/>
				</g>
				<g>
					<path class="st2" d="M224.93,986.94c-0.93,0-1.83-0.52-2.26-1.42c-0.6-1.25-0.07-2.74,1.17-3.33l45.38-21.75
						c1.24-0.6,2.74-0.07,3.33,1.17c0.6,1.25,0.07,2.74-1.17,3.33l-45.38,21.75C225.66,986.87,225.29,986.94,224.93,986.94z
						 M315.69,943.45c-0.93,0-1.83-0.52-2.26-1.42c-0.6-1.25-0.07-2.74,1.17-3.34L360,916.95c1.25-0.6,2.74-0.07,3.33,1.17
						c0.6,1.25,0.07,2.74-1.17,3.34l-45.38,21.75C316.43,943.37,316.06,943.45,315.69,943.45z M406.46,899.96
						c-0.93,0-1.83-0.52-2.26-1.42c-0.6-1.25-0.07-2.74,1.17-3.34l45.38-21.75c1.25-0.6,2.74-0.07,3.33,1.17
						c0.6,1.24,0.07,2.74-1.17,3.33l-45.38,21.75C407.19,899.88,406.82,899.96,406.46,899.96z M497.23,856.47
						c-0.93,0-1.83-0.52-2.26-1.42c-0.6-1.25-0.07-2.74,1.17-3.33l45.38-21.75c1.25-0.6,2.74-0.07,3.33,1.17
						c0.6,1.25,0.07,2.74-1.17,3.34l-45.38,21.75C497.96,856.39,497.59,856.47,497.23,856.47z M587.99,812.98
						c-0.93,0-1.83-0.52-2.26-1.42c-0.6-1.25-0.07-2.74,1.17-3.33l45.38-21.75c1.25-0.6,2.74-0.07,3.34,1.17
						c0.6,1.25,0.07,2.74-1.17,3.33l-45.38,21.75C588.72,812.9,588.35,812.98,587.99,812.98z M678.76,769.48
						c-0.93,0-1.83-0.52-2.26-1.42c-0.6-1.24-0.07-2.74,1.17-3.33l45.38-21.75c1.24-0.59,2.74-0.07,3.33,1.17
						c0.6,1.25,0.07,2.74-1.17,3.34l-45.38,21.75C679.49,769.4,679.12,769.48,678.76,769.48z M769.52,725.99
						c-0.93,0-1.83-0.52-2.26-1.42c-0.6-1.25-0.07-2.74,1.17-3.33l30.03-14.39c0.12-0.06,0.25-0.11,0.38-0.15l16.34-4.77
						c1.33-0.39,2.71,0.37,3.1,1.7c0.39,1.33-0.37,2.71-1.7,3.1l-16.14,4.71l-29.85,14.3C770.25,725.91,769.89,725.99,769.52,725.99
						z M864.2,692.72c-1.08,0-2.08-0.71-2.4-1.8c-0.39-1.33,0.37-2.71,1.7-3.1l48.31-14.11c1.33-0.39,2.71,0.37,3.1,1.7
						c0.39,1.33-0.37,2.71-1.7,3.1l-48.31,14.11C864.67,692.69,864.43,692.72,864.2,692.72z M2896.57,676.73
						c-0.07,0-0.13,0-0.2-0.01l-50.17-3.96c-1.38-0.11-2.4-1.31-2.29-2.69c0.11-1.38,1.31-2.41,2.69-2.3l50.17,3.96
						c1.38,0.11,2.4,1.31,2.29,2.69C2898.96,675.73,2897.86,676.73,2896.57,676.73z M2796.23,668.8c-0.07,0-0.13,0-0.2-0.01
						l-50.17-3.96c-1.38-0.11-2.4-1.31-2.3-2.69c0.11-1.38,1.32-2.41,2.69-2.3l50.17,3.96c1.38,0.11,2.4,1.31,2.29,2.69
						C2798.62,667.81,2797.53,668.8,2796.23,668.8z M960.81,664.51c-1.08,0-2.08-0.71-2.4-1.8c-0.39-1.33,0.37-2.71,1.7-3.1
						l48.31-14.11c1.33-0.39,2.71,0.37,3.1,1.7c0.39,1.33-0.37,2.71-1.7,3.1l-48.31,14.11
						C961.28,664.48,961.04,664.51,960.81,664.51z M2695.9,660.87c-0.07,0-0.13,0-0.2-0.01l-50.17-3.96
						c-1.38-0.11-2.4-1.31-2.29-2.69c0.11-1.38,1.3-2.41,2.69-2.3l50.17,3.96c1.38,0.11,2.4,1.31,2.29,2.69
						C2698.28,659.88,2697.19,660.87,2695.9,660.87z M2595.56,652.95c-0.07,0-0.13,0-0.2-0.01l-50.17-3.96
						c-1.38-0.11-2.4-1.31-2.29-2.69c0.11-1.38,1.31-2.4,2.69-2.3l50.17,3.96c1.38,0.11,2.4,1.31,2.29,2.69
						C2597.95,651.95,2596.85,652.95,2595.56,652.95z M2495.23,645.02c-0.07,0-0.13,0-0.2-0.01l-50.17-3.96
						c-1.38-0.11-2.4-1.31-2.29-2.69c0.11-1.38,1.31-2.4,2.69-2.3l50.17,3.96c1.38,0.11,2.4,1.31,2.29,2.69
						C2497.61,644.03,2496.52,645.02,2495.23,645.02z M2394.89,637.09c-0.07,0-0.13,0-0.2-0.01l-50.17-3.96
						c-1.38-0.11-2.4-1.31-2.29-2.69c0.11-1.38,1.34-2.4,2.69-2.29l50.17,3.96c1.38,0.11,2.4,1.31,2.29,2.69
						C2397.28,636.1,2396.18,637.09,2394.89,637.09z M1057.42,636.3c-1.08,0-2.08-0.71-2.4-1.8c-0.39-1.33,0.37-2.71,1.7-3.1
						l48.31-14.11c1.33-0.38,2.71,0.37,3.1,1.7c0.39,1.33-0.37,2.71-1.7,3.1l-48.31,14.11
						C1057.89,636.26,1057.66,636.3,1057.42,636.3z M2294.56,629.17c-0.07,0-0.13,0-0.2-0.01l-50.17-3.96
						c-1.38-0.11-2.4-1.31-2.29-2.69c0.11-1.38,1.31-2.41,2.69-2.3l50.17,3.96c1.38,0.11,2.4,1.31,2.29,2.69
						C2296.94,628.17,2295.85,629.17,2294.56,629.17z M2194.29,620.59c-0.1,0-0.2-0.01-0.29-0.02l-49.98-5.89
						c-1.37-0.16-2.35-1.4-2.19-2.78c0.16-1.37,1.42-2.35,2.78-2.19l49.98,5.89c1.37,0.16,2.35,1.4,2.19,2.78
						C2196.62,619.65,2195.54,620.59,2194.29,620.59z M2094.33,608.81c-0.1,0-0.2-0.01-0.3-0.02l-49.98-5.89
						c-1.37-0.16-2.35-1.4-2.19-2.78c0.16-1.37,1.42-2.35,2.77-2.19l49.98,5.89c1.37,0.16,2.35,1.4,2.19,2.78
						C2096.66,607.88,2095.58,608.81,2094.33,608.81z M1154.04,608.08c-1.08,0-2.08-0.71-2.4-1.8c-0.39-1.33,0.37-2.71,1.7-3.1
						l48.31-14.11c1.32-0.39,2.71,0.37,3.1,1.7c0.39,1.33-0.37,2.71-1.7,3.1l-48.31,14.11
						C1154.5,608.05,1154.27,608.08,1154.04,608.08z M1994.37,597.03c-0.1,0-0.2-0.01-0.3-0.02l-49.98-5.89
						c-1.37-0.16-2.35-1.4-2.19-2.78c0.16-1.37,1.4-2.35,2.78-2.19l49.98,5.89c1.37,0.16,2.35,1.4,2.19,2.78
						C1996.7,596.1,1995.62,597.03,1994.37,597.03z M1894.42,585.25c-0.1,0-0.2-0.01-0.3-0.02l-49.98-5.89
						c-1.37-0.16-2.35-1.4-2.19-2.78c0.16-1.37,1.4-2.35,2.78-2.19l49.98,5.89c1.37,0.16,2.35,1.4,2.19,2.78
						C1896.75,584.32,1895.67,585.25,1894.42,585.25z M1250.65,579.87c-1.08,0-2.08-0.71-2.4-1.8c-0.39-1.33,0.37-2.71,1.7-3.1
						l48.31-14.11c1.33-0.39,2.71,0.37,3.1,1.7c0.39,1.33-0.37,2.71-1.7,3.1l-48.31,14.11
						C1251.12,579.84,1250.88,579.87,1250.65,579.87z M1794.46,573.48c-0.1,0-0.2-0.01-0.3-0.02l-49.98-5.89
						c-1.37-0.16-2.35-1.4-2.19-2.78c0.16-1.37,1.4-2.35,2.78-2.19l49.98,5.89c1.37,0.16,2.35,1.4,2.19,2.78
						C1796.79,572.54,1795.71,573.48,1794.46,573.48z M1694.51,561.7c-0.1,0-0.2-0.01-0.3-0.02l-49.98-5.89
						c-1.37-0.16-2.35-1.4-2.19-2.78c0.16-1.37,1.4-2.35,2.78-2.19l49.98,5.89c1.37,0.16,2.35,1.4,2.19,2.78
						C1696.84,560.76,1695.76,561.7,1694.51,561.7z M1347.26,551.65c-1.08,0-2.08-0.71-2.4-1.8c-0.39-1.33,0.37-2.71,1.7-3.1
						l48.31-14.11c1.33-0.39,2.71,0.37,3.1,1.7c0.39,1.33-0.37,2.71-1.7,3.1l-48.31,14.11
						C1347.73,551.62,1347.49,551.65,1347.26,551.65z M1594.55,549.92c-0.1,0-0.2-0.01-0.29-0.02l-49.98-5.89
						c-1.37-0.16-2.35-1.4-2.19-2.78c0.16-1.37,1.41-2.35,2.78-2.19l49.98,5.89c1.37,0.16,2.35,1.4,2.19,2.78
						C1596.88,548.98,1595.8,549.92,1594.55,549.92z M1494.59,538.14c-0.1,0-0.2-0.01-0.29-0.02l-49.98-5.89
						c-1.37-0.16-2.35-1.4-2.19-2.78c0.16-1.37,1.42-2.35,2.77-2.19l49.98,5.89c1.37,0.16,2.35,1.4,2.19,2.78
						C1496.92,537.21,1495.84,538.14,1494.59,538.14z"/>
				</g>
			</g>
			<g>
				<g>
					<path class="st2" d="M201.92,1029.06c-0.17,0-0.35-0.02-0.52-0.06l-24.46-5.19c-1.35-0.29-2.21-1.61-1.93-2.96
						c0.29-1.35,1.61-2.21,2.96-1.93l24.46,5.19c1.35,0.29,2.21,1.61,1.93,2.96C204.12,1028.25,203.08,1029.06,201.92,1029.06z"/>
				</g>
				<g>
					<path class="st2" d="M1287.18,1259.44c-0.17,0-0.35-0.02-0.52-0.06l-49.33-10.47c-1.35-0.29-2.21-1.61-1.93-2.96
						c0.29-1.35,1.61-2.21,2.96-1.93l49.33,10.47c1.35,0.29,2.21,1.61,1.93,2.96C1289.37,1258.63,1288.33,1259.44,1287.18,1259.44z
						 M1188.52,1238.5c-0.17,0-0.35-0.02-0.52-0.05l-49.33-10.47c-1.35-0.29-2.21-1.61-1.93-2.96c0.29-1.35,1.61-2.21,2.96-1.93
						l49.33,10.47c1.35,0.29,2.21,1.61,1.93,2.96C1190.71,1237.69,1189.67,1238.5,1188.52,1238.5z M1089.86,1217.55
						c-0.17,0-0.35-0.02-0.52-0.06l-49.33-10.47c-1.35-0.29-2.21-1.61-1.93-2.96c0.29-1.35,1.61-2.21,2.96-1.93l49.33,10.47
						c1.35,0.29,2.21,1.61,1.93,2.96C1092.05,1216.75,1091.01,1217.55,1089.86,1217.55z M991.2,1196.61c-0.17,0-0.35-0.02-0.52-0.05
						l-49.33-10.47c-1.35-0.29-2.21-1.61-1.93-2.96c0.29-1.35,1.61-2.21,2.96-1.93l49.33,10.47c1.35,0.29,2.21,1.61,1.93,2.96
						C993.39,1195.8,992.35,1196.61,991.2,1196.61z M892.54,1175.67c-0.17,0-0.35-0.02-0.52-0.06l-49.33-10.47
						c-1.35-0.29-2.21-1.61-1.93-2.96c0.29-1.35,1.61-2.21,2.96-1.93l49.33,10.47c1.35,0.29,2.21,1.61,1.93,2.96
						C894.73,1174.86,893.69,1175.67,892.54,1175.67z M793.88,1154.72c-0.17,0-0.35-0.02-0.52-0.06l-49.33-10.47
						c-1.35-0.29-2.21-1.61-1.93-2.96c0.29-1.35,1.6-2.21,2.96-1.93l49.33,10.47c1.35,0.29,2.21,1.61,1.93,2.96
						C796.07,1153.92,795.04,1154.72,793.88,1154.72z M695.22,1133.78c-0.17,0-0.35-0.02-0.52-0.06l-49.33-10.47
						c-1.35-0.29-2.21-1.61-1.93-2.96c0.29-1.35,1.61-2.21,2.96-1.93l49.33,10.47c1.35,0.29,2.21,1.61,1.93,2.96
						C697.41,1132.97,696.38,1133.78,695.22,1133.78z M596.56,1112.83c-0.17,0-0.35-0.02-0.52-0.06l-49.33-10.47
						c-1.35-0.29-2.21-1.61-1.93-2.96c0.29-1.35,1.61-2.21,2.96-1.93l49.33,10.47c1.35,0.29,2.21,1.61,1.93,2.96
						C598.75,1112.03,597.72,1112.83,596.56,1112.83z M497.9,1091.89c-0.17,0-0.35-0.02-0.52-0.05l-49.33-10.47
						c-1.35-0.29-2.21-1.61-1.93-2.96c0.29-1.35,1.61-2.21,2.96-1.93l49.33,10.47c1.35,0.29,2.21,1.61,1.93,2.96
						C500.09,1091.08,499.06,1091.89,497.9,1091.89z M399.24,1070.95c-0.17,0-0.35-0.02-0.52-0.06l-49.33-10.47
						c-1.35-0.29-2.21-1.61-1.93-2.96c0.29-1.35,1.61-2.21,2.96-1.93l49.33,10.47c1.35,0.29,2.21,1.61,1.93,2.96
						C401.43,1070.14,400.4,1070.95,399.24,1070.95z M300.58,1050c-0.17,0-0.35-0.02-0.52-0.05l-49.33-10.47
						c-1.35-0.29-2.21-1.61-1.93-2.96c0.29-1.35,1.61-2.21,2.96-1.93l49.33,10.47c1.35,0.29,2.21,1.61,1.93,2.96
						C302.77,1049.19,301.74,1050,300.58,1050z"/>
				</g>
				<g>
					<path class="st2" d="M1360.96,1275.1c-0.17,0-0.35-0.02-0.52-0.05l-24.46-5.19c-1.35-0.29-2.21-1.61-1.93-2.96
						c0.29-1.35,1.61-2.21,2.96-1.93l21.76,4.62l2.49-22.1c0.15-1.37,1.4-2.36,2.76-2.21c1.37,0.15,2.36,1.39,2.2,2.76l-2.8,24.84
						c-0.08,0.7-0.45,1.34-1.02,1.75C1361.99,1274.94,1361.48,1275.1,1360.96,1275.1z"/>
				</g>
				<g>
					<path class="st2" d="M1369.58,1198.58c-0.09,0-0.19,0-0.28-0.02c-1.37-0.15-2.36-1.39-2.21-2.76l5.82-51.68
						c0.15-1.37,1.39-2.36,2.76-2.21c1.37,0.15,2.36,1.39,2.21,2.76l-5.82,51.68C1371.92,1197.64,1370.84,1198.58,1369.58,1198.58z
						 M1381.22,1095.22c-0.09,0-0.19,0-0.28-0.02c-1.37-0.15-2.36-1.39-2.2-2.76l5.82-51.68c0.15-1.37,1.4-2.36,2.76-2.21
						c1.37,0.15,2.36,1.39,2.2,2.76l-5.82,51.68C1383.56,1094.28,1382.48,1095.22,1381.22,1095.22z M1392.86,991.86
						c-0.09,0-0.19,0-0.28-0.02c-1.37-0.15-2.36-1.39-2.21-2.76l5.82-51.68c0.15-1.37,1.4-2.36,2.76-2.21
						c1.37,0.15,2.36,1.39,2.21,2.76l-5.82,51.68C1395.2,990.92,1394.12,991.86,1392.86,991.86z M1404.5,888.5
						c-0.09,0-0.19,0-0.28-0.02c-1.37-0.15-2.36-1.39-2.21-2.76l5.82-51.68c0.15-1.37,1.38-2.36,2.76-2.2
						c1.37,0.15,2.36,1.39,2.2,2.76l-5.82,51.68C1406.84,887.56,1405.75,888.5,1404.5,888.5z M1416.14,785.14
						c-0.09,0-0.19,0-0.28-0.02c-1.37-0.15-2.36-1.39-2.21-2.76l5.82-51.68c0.16-1.37,1.39-2.36,2.76-2.2
						c1.37,0.15,2.36,1.39,2.2,2.76l-5.82,51.68C1418.48,784.2,1417.39,785.14,1416.14,785.14z M1427.78,681.78
						c-0.09,0-0.19-0.01-0.28-0.02c-1.37-0.15-2.36-1.39-2.2-2.76l5.82-51.68c0.15-1.37,1.4-2.36,2.76-2.2
						c1.37,0.15,2.36,1.39,2.21,2.76l-5.82,51.68C1430.12,680.84,1429.03,681.78,1427.78,681.78z"/>
				</g>
				<g>
					<path class="st2" d="M1439.42,578.42c-0.09,0-0.19,0-0.28-0.02c-1.37-0.15-2.36-1.39-2.2-2.76l2.8-24.84
						c0.15-1.37,1.4-2.35,2.76-2.2c1.37,0.15,2.36,1.39,2.2,2.76l-2.8,24.84C1441.75,577.47,1440.67,578.42,1439.42,578.42z"/>
				</g>
			</g>
			<g>
				<g>
					<path class="st2" d="M386.88,1673.26c-0.04,0-0.08,0-0.12,0l-24.97-1.16c-1.38-0.06-2.45-1.23-2.38-2.61
						c0.06-1.38,1.26-2.45,2.61-2.38l24.97,1.16c1.38,0.06,2.45,1.23,2.38,2.61C389.31,1672.21,388.2,1673.26,386.88,1673.26z"/>
				</g>
				<g>
					<path class="st2" d="M1919.09,1744.7c-0.04,0-0.08,0-0.12,0l-51.07-2.38c-1.38-0.06-2.45-1.23-2.38-2.61
						c0.06-1.38,1.26-2.44,2.61-2.38l51.07,2.38c1.38,0.06,2.45,1.23,2.38,2.61C1921.52,1743.65,1920.41,1744.7,1919.09,1744.7z
						 M1816.94,1739.93c-0.04,0-0.08,0-0.12,0l-51.07-2.38c-1.38-0.06-2.45-1.23-2.38-2.61c0.06-1.38,1.25-2.43,2.61-2.38
						l51.07,2.38c1.38,0.06,2.45,1.23,2.38,2.61C1819.37,1738.89,1818.27,1739.93,1816.94,1739.93z M1714.79,1735.17
						c-0.04,0-0.08,0-0.12,0l-51.07-2.38c-1.38-0.06-2.45-1.23-2.38-2.61c0.06-1.38,1.27-2.45,2.61-2.38l51.07,2.38
						c1.38,0.06,2.45,1.23,2.38,2.61C1717.22,1734.13,1716.12,1735.17,1714.79,1735.17z M1612.64,1730.41c-0.04,0-0.08,0-0.12,0
						l-51.07-2.38c-1.38-0.06-2.45-1.23-2.38-2.61c0.06-1.38,1.26-2.43,2.61-2.38l51.07,2.38c1.38,0.06,2.45,1.23,2.38,2.61
						C1615.08,1729.37,1613.97,1730.41,1612.64,1730.41z M1510.5,1725.65c-0.04,0-0.08,0-0.12,0l-51.07-2.38
						c-1.38-0.06-2.45-1.23-2.38-2.61c0.07-1.38,1.21-2.45,2.61-2.38l51.07,2.38c1.38,0.06,2.45,1.23,2.38,2.61
						C1512.93,1724.6,1511.82,1725.65,1510.5,1725.65z M1408.35,1720.88c-0.04,0-0.08,0-0.12,0l-51.07-2.38
						c-1.38-0.06-2.45-1.23-2.38-2.61s1.2-2.44,2.61-2.38l51.07,2.38c1.38,0.06,2.45,1.23,2.38,2.61
						C1410.78,1719.84,1409.68,1720.88,1408.35,1720.88z M1306.2,1716.12c-0.04,0-0.08,0-0.12,0l-51.07-2.38
						c-1.38-0.06-2.45-1.23-2.38-2.61c0.06-1.38,1.23-2.46,2.61-2.38l51.07,2.38c1.38,0.06,2.45,1.23,2.38,2.61
						C1308.64,1715.08,1307.53,1716.12,1306.2,1716.12z M1204.06,1711.36c-0.04,0-0.08,0-0.12,0l-51.07-2.38
						c-1.38-0.06-2.45-1.23-2.38-2.61c0.07-1.38,1.22-2.44,2.61-2.38l51.07,2.38c1.38,0.06,2.45,1.23,2.38,2.61
						C1206.49,1710.32,1205.38,1711.36,1204.06,1711.36z M1101.91,1706.6c-0.04,0-0.08,0-0.12,0l-51.07-2.38
						c-1.38-0.06-2.45-1.23-2.38-2.61s1.24-2.43,2.61-2.38l51.07,2.38c1.38,0.06,2.45,1.23,2.38,2.61
						C1104.34,1705.55,1103.24,1706.6,1101.91,1706.6z M999.76,1701.83c-0.04,0-0.08,0-0.12,0l-51.07-2.38
						c-1.38-0.06-2.45-1.23-2.38-2.61c0.06-1.38,1.26-2.45,2.61-2.38l51.07,2.38c1.38,0.06,2.45,1.23,2.38,2.61
						C1002.19,1700.79,1001.09,1701.83,999.76,1701.83z M897.61,1697.07c-0.04,0-0.08,0-0.12,0l-51.07-2.38
						c-1.38-0.06-2.45-1.23-2.38-2.61c0.07-1.38,1.22-2.43,2.61-2.38l51.07,2.38c1.38,0.06,2.45,1.23,2.38,2.61
						C900.05,1696.03,898.94,1697.07,897.61,1697.07z M795.47,1692.31c-0.04,0-0.08,0-0.12,0l-51.07-2.38
						c-1.38-0.06-2.45-1.23-2.38-2.61s1.24-2.45,2.61-2.38l51.07,2.38c1.38,0.06,2.45,1.23,2.38,2.61
						C797.9,1691.26,796.79,1692.31,795.47,1692.31z M693.32,1687.55c-0.04,0-0.08,0-0.12,0l-51.07-2.38
						c-1.38-0.06-2.45-1.23-2.38-2.61c0.06-1.38,1.26-2.44,2.61-2.38l51.07,2.38c1.38,0.06,2.45,1.23,2.38,2.61
						C695.75,1686.5,694.65,1687.55,693.32,1687.55z M591.17,1682.78c-0.04,0-0.08,0-0.12,0l-51.07-2.38
						c-1.38-0.06-2.45-1.23-2.38-2.61c0.06-1.38,1.22-2.46,2.61-2.38l51.07,2.38c1.38,0.06,2.45,1.23,2.38,2.61
						C593.6,1681.74,592.5,1682.78,591.17,1682.78z M489.02,1678.02c-0.04,0-0.08,0-0.12,0l-51.07-2.38
						c-1.38-0.06-2.45-1.23-2.38-2.61c0.06-1.38,1.22-2.44,2.61-2.38l51.07,2.38c1.38,0.06,2.45,1.23,2.38,2.61
						C491.46,1676.98,490.35,1678.02,489.02,1678.02z"/>
				</g>
				<g>
					<path class="st2" d="M1995.13,1748.24c-0.04,0-0.08,0-0.12,0l-24.97-1.17c-1.38-0.06-2.45-1.23-2.38-2.61s1.27-2.43,2.61-2.38
						l24.97,1.17c1.38,0.06,2.45,1.23,2.38,2.61C1997.57,1747.2,1996.46,1748.24,1995.13,1748.24z"/>
				</g>
			</g>
			<g>
				<g>
					<path class="st2" d="M2916.54,1373.33c-0.59,0-1.18-0.21-1.66-0.63l-18.68-16.62c-1.03-0.92-1.12-2.5-0.21-3.53
						c0.92-1.03,2.5-1.13,3.53-0.21l18.68,16.62c1.03,0.92,1.12,2.5,0.21,3.53C2917.91,1373.05,2917.23,1373.33,2916.54,1373.33z"/>
				</g>
				<g>
					<path class="st2" d="M2860.6,1323.56c-0.59,0-1.18-0.21-1.66-0.63l-37.27-33.16c-1.03-0.92-1.12-2.5-0.21-3.53
						c0.92-1.03,2.5-1.12,3.53-0.21l37.27,33.16c1.03,0.92,1.12,2.5,0.21,3.53C2861.97,1323.27,2861.29,1323.56,2860.6,1323.56z
						 M2786.07,1257.24c-0.59,0-1.18-0.21-1.66-0.63l-37.27-33.16c-1.03-0.92-1.12-2.5-0.21-3.53c0.92-1.03,2.5-1.12,3.53-0.21
						l37.27,33.16c1.03,0.92,1.12,2.5,0.21,3.53C2787.44,1256.96,2786.75,1257.24,2786.07,1257.24z M2711.53,1190.93
						c-0.59,0-1.18-0.21-1.66-0.63l-37.27-33.16c-1.03-0.92-1.12-2.5-0.21-3.53c0.92-1.03,2.5-1.12,3.53-0.21l37.27,33.16
						c1.03,0.92,1.12,2.5,0.21,3.53C2712.91,1190.64,2712.22,1190.93,2711.53,1190.93z M2637,1124.61c-0.59,0-1.18-0.21-1.66-0.63
						l-37.27-33.16c-1.03-0.92-1.12-2.5-0.21-3.53c0.92-1.03,2.5-1.12,3.53-0.21l37.27,33.16c1.03,0.92,1.12,2.5,0.21,3.53
						C2638.38,1124.33,2637.69,1124.61,2637,1124.61z M2562.47,1058.3c-0.59,0-1.18-0.21-1.66-0.63l-37.27-33.16
						c-1.03-0.92-1.12-2.5-0.21-3.53c0.92-1.03,2.5-1.12,3.53-0.21l37.27,33.16c1.03,0.92,1.12,2.5,0.21,3.53
						C2563.85,1058.01,2563.16,1058.3,2562.47,1058.3z M2487.94,991.98c-0.59,0-1.18-0.21-1.66-0.63l-37.27-33.16
						c-1.03-0.92-1.12-2.5-0.21-3.53c0.92-1.03,2.5-1.12,3.53-0.21l37.27,33.16c1.03,0.92,1.12,2.5,0.21,3.53
						C2489.31,991.7,2488.63,991.98,2487.94,991.98z M2413.41,925.67c-0.59,0-1.18-0.21-1.66-0.63l-37.27-33.16
						c-1.03-0.92-1.12-2.5-0.21-3.53c0.92-1.03,2.5-1.12,3.53-0.21l37.27,33.16c1.03,0.92,1.12,2.5,0.21,3.53
						C2414.78,925.39,2414.1,925.67,2413.41,925.67z M2338.88,859.35c-0.59,0-1.18-0.21-1.66-0.63l-37.27-33.16
						c-1.03-0.92-1.12-2.5-0.21-3.53c0.92-1.03,2.5-1.12,3.53-0.21l37.27,33.16c1.03,0.92,1.12,2.5,0.21,3.53
						C2340.25,859.07,2339.57,859.35,2338.88,859.35z"/>
				</g>
				<g>
					<path class="st2" d="M2264.35,793.04c-0.59,0-1.18-0.21-1.66-0.63l-17.3-15.39L2225.57,789c-1.18,0.71-2.72,0.34-3.43-0.85
						c-0.71-1.18-0.34-2.72,0.84-3.43l21.39-12.94c0.94-0.57,2.14-0.46,2.96,0.27l18.68,16.62c1.03,0.92,1.12,2.5,0.21,3.53
						C2265.72,792.76,2265.03,793.04,2264.35,793.04z"/>
				</g>
				<g>
					<path class="st2" d="M1483.88,1237.28c-0.85,0-1.67-0.43-2.14-1.21c-0.71-1.18-0.34-2.72,0.84-3.43l41.13-24.88
						c1.18-0.72,2.72-0.34,3.43,0.84c0.71,1.18,0.34,2.72-0.84,3.43l-41.13,24.88C1484.77,1237.16,1484.32,1237.28,1483.88,1237.28z
						 M1566.15,1187.51c-0.85,0-1.67-0.43-2.14-1.21c-0.71-1.18-0.34-2.72,0.84-3.43l41.13-24.88c1.18-0.71,2.72-0.34,3.43,0.84
						c0.71,1.18,0.34,2.72-0.84,3.43l-41.13,24.88C1567.04,1187.39,1566.59,1187.51,1566.15,1187.51z M1648.42,1137.74
						c-0.85,0-1.67-0.43-2.14-1.21c-0.71-1.18-0.34-2.72,0.84-3.43l41.13-24.88c1.18-0.71,2.72-0.34,3.43,0.84
						c0.71,1.18,0.34,2.72-0.84,3.43l-41.13,24.88C1649.3,1137.63,1648.86,1137.74,1648.42,1137.74z M1730.68,1087.97
						c-0.85,0-1.67-0.43-2.14-1.21c-0.71-1.18-0.34-2.72,0.84-3.43l41.13-24.88c1.18-0.71,2.72-0.34,3.43,0.84
						c0.71,1.18,0.34,2.72-0.84,3.43l-41.13,24.88C1731.57,1087.86,1731.12,1087.97,1730.68,1087.97z M1812.95,1038.21
						c-0.85,0-1.67-0.43-2.14-1.21c-0.71-1.18-0.34-2.72,0.84-3.43l41.13-24.88c1.18-0.71,2.72-0.34,3.43,0.84
						c0.71,1.18,0.34,2.72-0.84,3.43l-41.13,24.88C1813.84,1038.09,1813.39,1038.21,1812.95,1038.21z M1895.22,988.44
						c-0.85,0-1.67-0.43-2.14-1.21c-0.71-1.18-0.34-2.72,0.84-3.43l41.13-24.88c1.18-0.71,2.72-0.34,3.43,0.84
						c0.71,1.18,0.34,2.72-0.84,3.43l-41.13,24.88C1896.1,988.32,1895.66,988.44,1895.22,988.44z M1977.48,938.67
						c-0.85,0-1.67-0.43-2.14-1.21c-0.71-1.18-0.34-2.72,0.84-3.43l41.13-24.88c1.18-0.71,2.72-0.34,3.43,0.84
						c0.71,1.18,0.34,2.72-0.84,3.43l-41.13,24.88C1978.37,938.55,1977.92,938.67,1977.48,938.67z M2059.75,888.9
						c-0.85,0-1.67-0.43-2.14-1.21c-0.71-1.18-0.34-2.72,0.84-3.43l41.13-24.88c1.18-0.71,2.72-0.34,3.43,0.85
						c0.71,1.18,0.34,2.72-0.84,3.43l-41.13,24.88C2060.64,888.78,2060.19,888.9,2059.75,888.9z M2142.02,839.13
						c-0.85,0-1.67-0.43-2.14-1.21c-0.71-1.18-0.34-2.72,0.84-3.43l41.13-24.88c1.18-0.71,2.72-0.34,3.43,0.85
						c0.71,1.18,0.34,2.72-0.84,3.43l-41.13,24.88C2142.9,839.01,2142.46,839.13,2142.02,839.13z"/>
				</g>
				<g>
					<path class="st2" d="M1421.36,1275.1c-0.85,0-1.67-0.43-2.14-1.21c-0.71-1.18-0.34-2.72,0.84-3.43l21.39-12.94
						c1.18-0.71,2.72-0.34,3.43,0.84c0.71,1.18,0.34,2.72-0.84,3.43l-21.39,12.94C1422.25,1274.99,1421.8,1275.1,1421.36,1275.1z"/>
				</g>
			</g>
			<g>
				<g>
					<path class="st2" d="M2917.93,734.09c-0.6,0-1.2-0.21-1.68-0.65c-1.02-0.93-1.1-2.51-0.17-3.53l16.81-18.5
						c0.93-1.02,2.51-1.1,3.53-0.17c1.02,0.93,1.1,2.51,0.17,3.53l-16.81,18.5C2919.29,733.82,2918.61,734.09,2917.93,734.09z"/>
				</g>
				<g>
					<path class="st2" d="M2158.59,1569.91c-0.6,0-1.2-0.21-1.68-0.65c-1.02-0.93-1.1-2.51-0.17-3.53l34.52-37.99
						c0.93-1.02,2.51-1.1,3.53-0.17c1.02,0.93,1.1,2.51,0.17,3.53l-34.52,37.99C2159.95,1569.64,2159.27,1569.91,2158.59,1569.91z
						 M2227.62,1493.93c-0.6,0-1.2-0.21-1.68-0.65c-1.02-0.93-1.1-2.51-0.17-3.53l34.52-37.99c0.93-1.02,2.51-1.1,3.53-0.17
						c1.02,0.93,1.1,2.51,0.17,3.53l-34.52,37.99C2228.98,1493.65,2228.3,1493.93,2227.62,1493.93z M2296.65,1417.95
						c-0.6,0-1.2-0.21-1.68-0.65c-1.02-0.93-1.1-2.51-0.17-3.53l34.52-37.99c0.93-1.02,2.51-1.1,3.53-0.17
						c1.02,0.93,1.1,2.51,0.17,3.53l-34.52,37.99C2298.01,1417.67,2297.33,1417.95,2296.65,1417.95z M2365.68,1341.96
						c-0.6,0-1.2-0.21-1.68-0.65c-1.02-0.93-1.1-2.51-0.17-3.53l34.52-37.99c0.93-1.02,2.51-1.1,3.53-0.17
						c1.02,0.93,1.1,2.51,0.17,3.53l-34.52,37.99C2367.04,1341.69,2366.36,1341.96,2365.68,1341.96z M2434.71,1265.98
						c-0.6,0-1.2-0.21-1.68-0.65c-1.02-0.93-1.1-2.51-0.17-3.53l34.51-37.99c0.93-1.02,2.51-1.1,3.53-0.17
						c1.02,0.93,1.1,2.51,0.17,3.53l-34.51,37.99C2436.07,1265.7,2435.39,1265.98,2434.71,1265.98z M2503.74,1190
						c-0.6,0-1.2-0.21-1.68-0.65c-1.02-0.93-1.1-2.51-0.17-3.53l34.52-37.99c0.93-1.02,2.51-1.1,3.53-0.17
						c1.02,0.93,1.1,2.51,0.17,3.53l-34.52,37.99C2505.1,1189.72,2504.42,1190,2503.74,1190z M2572.77,1114.01
						c-0.6,0-1.2-0.21-1.68-0.65c-1.02-0.93-1.1-2.51-0.17-3.53l34.52-37.99c0.93-1.02,2.51-1.1,3.53-0.17
						c1.02,0.93,1.1,2.51,0.17,3.53l-34.52,37.99C2574.13,1113.74,2573.46,1114.01,2572.77,1114.01z M2641.8,1038.03
						c-0.6,0-1.2-0.21-1.68-0.65c-1.02-0.93-1.1-2.51-0.17-3.53l34.52-37.99c0.93-1.02,2.51-1.1,3.53-0.17
						c1.02,0.93,1.1,2.51,0.17,3.53l-34.52,37.99C2643.16,1037.75,2642.49,1038.03,2641.8,1038.03z M2710.84,962.04
						c-0.6,0-1.2-0.21-1.68-0.65c-1.02-0.93-1.1-2.51-0.17-3.53l34.52-37.99c0.93-1.02,2.51-1.1,3.53-0.17
						c1.02,0.93,1.1,2.51,0.17,3.53l-34.52,37.99C2712.19,961.77,2711.52,962.04,2710.84,962.04z M2779.87,886.06
						c-0.6,0-1.2-0.21-1.68-0.65c-1.02-0.93-1.1-2.51-0.17-3.53l34.51-37.99c0.93-1.02,2.51-1.1,3.53-0.17
						c1.02,0.93,1.1,2.51,0.17,3.53l-34.51,37.99C2781.23,885.79,2780.55,886.06,2779.87,886.06z M2848.9,810.08
						c-0.6,0-1.2-0.21-1.68-0.65c-1.02-0.93-1.1-2.51-0.17-3.53l34.52-37.99c0.93-1.02,2.51-1.1,3.53-0.17
						c1.02,0.93,1.1,2.51,0.17,3.53l-34.52,37.99C2850.26,809.8,2849.58,810.08,2848.9,810.08z"/>
				</g>
				<g>
					<path class="st2" d="M2107.26,1626.41c-0.6,0-1.2-0.21-1.68-0.65c-1.02-0.93-1.1-2.51-0.17-3.53l16.81-18.5
						c0.93-1.02,2.51-1.1,3.53-0.17c1.02,0.93,1.1,2.51,0.17,3.53l-16.81,18.5C2108.62,1626.13,2107.94,1626.41,2107.26,1626.41z"/>
				</g>
			</g>
		</g>
		<g>
			<defs>
				
					<ellipse id="SVGID_2_" transform="matrix(0.7071 -0.7071 0.7071 0.7071 -474.6351 1340.6337)" cx="1380.97" cy="1243.25" rx="320.17" ry="320.17"/>
			</defs>
			<clipPath id="SVGID_3_">
				<use xlink:href="#SVGID_2_"  style="overflow:visible;"/>
			</clipPath>
			
				<ellipse transform="matrix(0.7071 -0.7071 0.7071 0.7071 -474.6351 1340.6337)" class="st3" cx="1380.97" cy="1243.25" rx="320.17" ry="320.17"/>
			<g class="st4">
				<path class="st5" d="M1329.24,985.35c48.63-43.32,84.35-17.48,110.95,11.4c21.2,23.02,24.16,28.12,41.67,51.97
					c2.6,3.54,4.6,7.47,4.68,11.86c0.49,26.36,13.98,137.84-1.01,176.3c-17.48,44.84-233.04,65.35-233.04,65.35L1329.24,985.35z"/>
				<g>
					<path class="st5" d="M1467.29,1262.62c-1.29,0-2.37-1.01-2.43-2.31c-0.07-1.34,0.97-2.49,2.31-2.56
						c6.33-0.32,11.48-3.17,15.76-8.71c24.12-31.25,10.53-135.72-1.3-192.53c-0.27-1.32,0.57-2.61,1.89-2.88
						c1.31-0.28,2.61,0.57,2.88,1.89c2.59,12.42,11.24,56.49,13.94,102.4c2.78,47.19-1.78,78.85-13.55,94.09
						c-5.12,6.64-11.64,10.21-19.37,10.6C1467.38,1262.62,1467.33,1262.62,1467.29,1262.62z"/>
				</g>
				<path class="st5" d="M1347.48,972.43c-93.47,51.67-36.48,226.46-155.02,288.77c-32.84,17.26-133.75,104.87-67.63,220.38
					c43.25,75.56,172.5,59.27,215.06-7.6S1347.48,972.43,1347.48,972.43z"/>
				<g>
					<path class="st5" d="M1098.74,1370.02c-0.11,0-0.21-0.01-0.32-0.02c-1.33-0.18-2.27-1.4-2.09-2.74
						c0.08-0.62,2.12-15.36,11.46-34.89c8.6-18,25.3-43.55,56.02-63.1c54.81-34.88,91.19-67.75,134.22-229.84
						c0.34-1.3,1.68-2.07,2.98-1.73c1.3,0.34,2.08,1.68,1.73,2.98c-20.81,78.38-41.44,131.38-64.94,166.78
						c-21.83,32.89-44.29,48.69-71.38,65.92c-56.9,36.21-65.18,93.94-65.26,94.52C1100.99,1369.13,1099.94,1370.02,1098.74,1370.02z
						"/>
				</g>
				<g>
					<path class="st5" d="M1100.78,1324.76c-0.45,0-0.9-0.12-1.3-0.38c-1.14-0.72-1.48-2.22-0.76-3.36
						c13.57-21.48,30.86-39.1,51.38-52.37c76.97-49.78,89.71-78.41,153.32-242.39c0.49-1.25,1.9-1.88,3.15-1.39
						c1.25,0.49,1.88,1.9,1.39,3.15c-31.81,82.03-50.83,130.09-71.63,164.17c-22.35,36.62-47.57,57.26-83.58,80.55
						c-19.92,12.88-36.71,30-49.9,50.88C1102.38,1324.36,1101.59,1324.76,1100.78,1324.76z"/>
				</g>
				<path class="st6" d="M1344.25,1081.5c-32.18,66.84-27.23,127.49-27.23,127.49s3.71,23.52,18.57,28.47
					c14.85,4.95,35.9-9.9,34.66-29.71c-1.24-19.8,4.95-68.08,12.38-85.41C1390.05,1105.02,1344.25,1081.5,1344.25,1081.5z"/>
				<path class="st7" d="M1174.22,1545.91c2.03,18.24-2.53,16.72,13.68,19.76c16.21,3.04,45.09-8.11,45.09-8.11l-32.42-60.29
					L1174.22,1545.91z"/>
				<path class="st6" d="M1320.9,1173.09c-9.12,29.64-77.51,6.84-101.44,13.68c-23.94,6.84-44.45,107.14-47.87,197.19
					c-3.42,90.05,1.14,161.85,10.26,173.25c9.12,11.4,159.58,15.96,173.25,11.4s-113.98-61.55-113.98-61.55
					s-7.98-104.86,2.28-158.44c10.26-53.57,102.58-124.24,102.58-124.24L1320.9,1173.09z"/>
				<path class="st6" d="M1352.82,1182.21c23.94,36.47,86.63,31.92,108.28,61.55c21.66,29.63,67.25,192.63,67.25,192.63
					l47.87-165.27c0,0,38.82-6.52,26.22,20.52c-22.42,48.09-30.78,203.24-55.1,225.28c-27.04,24.51-53.95,4.56-69.14-38.34
					c-14.69-41.5-51.29-131.08-77.51-165.27c-26.22-34.2-54.71-88.91-54.71-88.91L1352.82,1182.21z"/>
				<path class="st8" d="M1249.1,1186.77c47.87,55.85,141.34,53.57,161.86,46.73c20.52-6.84,20.52-6.84,20.52-6.84
					s15.96-5.7,29.64,10.26c13.68,15.96,46.73,116.26,52.43,139.06c5.7,22.8,14.82,60.41,14.82,60.41s-24.45,29.35-24.45,58.99
					s10.39,29.89,10.39,29.89s-30.38-6.81-37.22-25.05s-68.39-183.51-68.39-183.51l-169.83,3.42l2.28,186.93
					c0,0-14.82-13.68-35.33,0s-27.36,45.59-23.94,50.15c3.42,4.56-6.84,4.56-6.84,1.14c0-3.42-19.38-86.63-5.7-223.41
					c13.68-136.78,39.89-151.6,54.71-152.74C1238.84,1181.07,1249.1,1186.77,1249.1,1186.77z"/>
				<g>
					<path class="st7" d="M1507.33,1522.91c0.32,0.11,0.51,0.11,0.51,0.11S1507.65,1522.98,1507.33,1522.91z"/>
					<path class="st7" d="M1513.9,1440.54c-9.88,3.04-26.6,38-26.6,38s-38-82.83-49.4-197.58l-13.56,77.85
						c18.72,50.27,48.11,129.15,52.71,141.42c6.26,16.68,31.48,23.64,34.94,24.41c-0.95-0.32-3.04-1.58-4.77-6.59
						c-1-0.91-6.71-3.58-7.77-4.56c-9.12-8.36-5.32-28.12,0.76-50.15C1506.3,1441.3,1523.78,1437.5,1513.9,1440.54z"/>
				</g>
				<path class="st7" d="M1247.01,1319.96l-18.84-86.12c-20.52,28.88-22.8,127.67-14.44,195.3c6.86,55.47,17.11,69.86,24.16,75.64
					c2.08,1.23,3.23,2.28,3.23,2.28l-2.28-186.93L1247.01,1319.96z"/>
				<path class="st8" d="M1192.46,1233.08c34.96,94.23,17.48,113.23,63.48,223.83c25.69,61.77,75.23,108.28,75.23,108.28
					s39.89,10.26,90.05,6.84c50.15-3.42,86.87-6.87,86.87-6.87s-52.67-31.89-54.95-53.54c-2.28-21.66-12.17-107.56,0.75-168.35
					c10.09-47.47-31.52-94.95-31.52-94.95l-69.53-3.42L1192.46,1233.08z"/>
				<path class="st9" d="M1254.01,1377.46c-6.08-22.04,25.84,6.84,78.27,12.16c52.43,5.32,110.95-3.04,82.07,6.08
					c-28.88,9.12-107.91-4.56-93.47,24.32c16.99,33.98,37.06,66.87,66.11,86.63c19,12.92,64.59,25.08,20.52,18.24
					c-44.08-6.84-91.19-58.51-111.71-91.95C1275.29,1399.5,1255.37,1382.38,1254.01,1377.46z"/>
				<path class="st10" d="M1370.12,1199.07c0.46-22.75,6.01-61.57,12.5-76.73c5.32-12.42-16.68-28.01-29.58-35.85l-10.91-0.47
					c-1.66,3.62-3.22,7.23-4.68,10.8c-11.52,75.65,22.96,106.91,39.41,113.2c7.1,2.72,15.06,3.02,21.86,2.4
					C1388.57,1208.82,1378.67,1204.71,1370.12,1199.07z"/>
				<g>
					<path class="st11" d="M1349.24,1232.83c-3.96,0-8.08-0.48-12.16-1.47c-9.53-2.32-32.28-11.16-37.57-42.89
						c-0.13-0.75,0.38-1.46,1.13-1.59c0.75-0.12,1.46,0.38,1.59,1.13c5.02,30.11,26.5,38.46,35.5,40.66
						c13.97,3.41,28.8,0.26,34.48-7.32c4.55-6.07,1.81-19.01,1.78-19.14c-0.16-0.75,0.31-1.48,1.06-1.64
						c0.75-0.16,1.48,0.31,1.64,1.06c0.13,0.58,3.03,14.32-2.27,21.39C1369.73,1229.27,1360.06,1232.83,1349.24,1232.83z"/>
				</g>
				<path class="st6" d="M1456.5,1111.23c-7.73,40.83-25.59,73.77-55.81,67.56c-30.22-6.21-61.99-49.33-53.63-90.04
					c8.36-40.7,39.64-68.67,69.86-62.46C1447.14,1032.5,1466.8,1056.83,1456.5,1111.23z"/>
				<path class="st6" d="M1564.06,1312.87c0,0-55.85,150.08-58.51,165.66c-2.66,15.58,2.66,25.46,4.18,25.46
					c1.52,0,49.02-81.31,49.02-81.31L1564.06,1312.87z"/>
				<path class="st6" d="M1566.34,1306.29c4.56-15.2-2.53-34.45-2.53-34.45l20.26,2.53L1566.34,1306.29z"/>
				<g>
					<path class="st12" d="M1588.61,1280.36h-56.54c-3.43,0-5.9-3.31-4.92-6.6l35.69-119.68c0.65-2.17,2.65-3.66,4.91-3.66h56.54
						c3.43,0,5.9,3.31,4.92,6.6l-35.69,119.68C1592.87,1278.87,1590.87,1280.36,1588.61,1280.36z"/>
					<path class="st13" d="M1595.7,1280.36h-56.54c-3.43,0-5.9-3.31-4.92-6.6l35.7-119.68c0.65-2.17,2.65-3.66,4.92-3.66h56.54
						c3.43,0,5.9,3.31,4.92,6.6l-35.69,119.68C1599.97,1278.87,1597.97,1280.36,1595.7,1280.36z"/>
					<path class="st14" d="M1554.76,1193.61c-6.03,21.72-10.09,39.56-9.06,39.84c1.02,0.28,6.74-17.09,12.77-38.81
						c6.03-21.72,10.09-39.56,9.06-39.84C1566.5,1154.52,1560.79,1171.89,1554.76,1193.61z"/>
				</g>
				<path class="st6" d="M1593.19,1315.91c1.67-19.74,18.77-38.24,25.27-44.14c1.98-1.79,3.09-4.34,3.07-7.01
					c-0.09-9.84-0.53-33.06-2.57-35.78c-2.59-3.45-9.07-47.92-12.09-46.19c-3.02,1.73,0.86,40.58,0.86,40.58s-7.34-3.45-11.23-5.18
					c-3.88-1.73-19.86,15.97-19.86,15.97s-7.49,18.92,12.99,10.82c24.32-9.63,6.08,17.22-10.13,34.45
					c-13.36,14.19-1.99,17.33-1.99,17.33l10.79-0.43L1593.19,1315.91z"/>
				<g>
					<path class="st11" d="M1587.05,1331.56c-1.8,0-3.84-0.28-5.88-0.92c-5.29-1.65-14.52-6.96-16.96-24.04
						c-0.11-0.75,0.42-1.46,1.17-1.56c0.75-0.11,1.45,0.42,1.56,1.17c2.04,14.29,8.91,19.6,14.32,21.54
						c4.5,1.62,8.34,0.96,9.37,0.44c0.08-0.45,0.39-0.85,0.84-1.03c0.71-0.28,1.51,0.06,1.8,0.77c0.27,0.68,0.11,1.44-0.42,2.02
						C1591.94,1330.93,1589.76,1331.56,1587.05,1331.56z"/>
				</g>
				<g>
					<path class="st11" d="M1584.91,1326.67c-1.67,0-3.42-0.12-5.08-0.37c-9.83-1.43-16.41-6.42-18.07-13.7
						c-0.17-0.74,0.3-1.48,1.04-1.65c0.74-0.17,1.48,0.3,1.65,1.04c1.51,6.63,7.45,9.55,12.17,10.83
						c7.05,1.92,13.89,0.88,14.77-0.05c0.37-0.67,1.2-0.87,1.86-0.5c0.67,0.37,0.88,1.25,0.51,1.91
						C1592.8,1325.9,1589.07,1326.67,1584.91,1326.67z"/>
				</g>
				<g>
					<path class="st15" d="M1421.82,1132.7c-0.63,0-1.26-0.05-1.89-0.14c-9.71-1.49-15.58-13.97-13.37-28.41
						c2.21-14.44,11.56-24.58,21.26-23.11c9.71,1.49,15.58,13.97,13.37,28.41C1439.11,1122.94,1430.82,1132.7,1421.82,1132.7z
						 M1425.97,1085.77c-6.43,0-12.95,8.38-14.6,19.11c-1.74,11.35,2.52,21.82,9.29,22.86c6.78,1.04,13.96-7.68,15.7-19.03
						c1.74-11.35-2.52-21.82-9.29-22.86C1426.71,1085.79,1426.34,1085.77,1425.97,1085.77z"/>
				</g>
				<g>
					<path class="st15" d="M1453.46,1132.71c-0.33,0-0.65-0.02-0.97-0.07c-6.47-0.99-9.87-11.48-7.89-24.4
						c1.98-12.92,8.36-21.91,14.83-20.92c6.48,0.99,9.87,11.48,7.89,24.4c-0.89,5.82-2.79,11.16-5.33,15.04
						S1456.45,1132.71,1453.46,1132.71z M1458.47,1090.92c-3.62,0-8.57,7.07-10.23,17.87c-1.72,11.21,1.16,19.64,4.8,20.2
						c1.78,0.27,3.9-1.28,5.86-4.26c2.26-3.44,3.96-8.27,4.77-13.58c1.72-11.21-1.15-19.64-4.8-20.2
						C1458.74,1090.93,1458.61,1090.92,1458.47,1090.92z"/>
				</g>
				<g>
					<path class="st15" d="M1411.32,1094.93c-0.22,0-0.45-0.03-0.67-0.09l-74.47-21.28c-1.29-0.37-2.04-1.72-1.67-3.01
						c0.37-1.29,1.72-2.04,3.01-1.67l74.47,21.28c1.29,0.37,2.04,1.72,1.67,3.01C1413.35,1094.23,1412.38,1094.93,1411.32,1094.93z"
						/>
				</g>
				<path class="st5" d="M1464.51,1048.42c-115.25,67.89-121.59,22.29-121.59,22.29l6.84-64.85l68.39,3.8L1464.51,1048.42z"/>
				<path class="st6" d="M1351.84,1085.78c2.68,11.48-0.98,22.14-8.18,23.83c-7.2,1.68-15.21-6.26-17.89-17.73
					c-2.68-11.48,0.98-22.14,8.18-23.83C1341.15,1066.36,1349.16,1074.3,1351.84,1085.78z"/>
				<path class="st11" d="M1343.94,1100.85c0,2.51-2.03,4.54-4.54,4.54c-2.51,0-4.54-2.03-4.54-4.54s2.03-4.54,4.54-4.54
					C1341.91,1096.31,1343.94,1098.34,1343.94,1100.85z"/>
				<path class="st6" d="M1377.12,1533.75c0,0,31.16-13.68,40.28-7.6c9.12,6.08,35.46,33.94,35.46,33.94L1377.12,1533.75z"/>
				<path class="st13" d="M1451.14,1562.58c-0.59,0.74-1.48,1.05-1.97,0.68l-64.11-47.73c-3.45-2.57-5.1-6.5-3.43-8.58
					c1.66-2.08,5.86-1.34,9.12,1.47l60.63,52.08C1451.84,1560.91,1451.73,1561.84,1451.14,1562.58z"/>
				<path class="st6" d="M1282.89,1527.93c0,0,51.67,20.52,57.75,20.52s40.02-22.8,51.42-19.76c11.4,3.04,67.13,31.16,65.61,33.44
					c-1.52,2.28-17.48,7.6-64.59,6.08c-47.12-1.52-123.87-8.36-123.87-8.36L1282.89,1527.93z"/>
			</g>
		</g>
		<g>
			<path class="st16" d="M2109.98,1890c0,0-270.97-188.21-385.59-79.69c-91.52,86.65,70.94,188.45,278.77,161.08
				c146.29-19.27,162.87,8.72,188.49,8.11c190.67-14.61,447.59-71.66,322.56-161.28c-170.32-122.09-285.53,7.34-344.88,39.56
				C2109.98,1890,2109.98,1890,2109.98,1890z"/>
			<path class="st17" d="M2460.32,1813.7c-71.22-14.7-342.53,85.92-342.53,85.92s-236.27-71.22-292.79-78
				c-56.52-6.78-82.52,14.7-82.52,14.7s26.67-30.05,57.65-32.78c30.98-2.73,75.74-10.17,75.74-10.17s452.18-21.48,512.1-7.91
				S2460.32,1813.7,2460.32,1813.7z"/>
			<path class="st18" d="M2076.07,1447.45c-10.75,1.7-177.78,74.55-179.83,105.08c-2.05,30.52,45.76,278.13,138.23,310.35
				c92.47,32.22,195.9,0,195.9,0s108.52-267.9,76.3-318.77s-178.04-96.65-178.04-96.65H2076.07z"/>
			<path class="st18" d="M1953.31,1505.12c-159.58,85.51-198.76,239.89-156.56,273.92c29.57,23.84,141.08,76.58,237.73,73.19
				c96.65-3.39,187.42,5.71,187.42,5.71s165.8-33.74,198.86-83.42s-58.67-211.09-140.93-257.74
				C2197.57,1470.12,1953.31,1505.12,1953.31,1505.12z"/>
			<path class="st6" d="M2105.46,1544.1c-22.07,0-40.13-18.06-40.13-40.13v-135.08c0-22.07,18.06-40.13,40.13-40.13
				c22.07,0,40.13,18.06,40.13,40.13v135.08C2145.59,1526.04,2127.53,1544.1,2105.46,1544.1z"/>
			<path class="st10" d="M2105.46,1328.76c-22.07,0-40.13,18.06-40.13,40.13v110.45c23.66,19.77,46.57,9.41,80.26-16.7v-93.75
				C2145.59,1346.82,2127.53,1328.76,2105.46,1328.76z"/>
			<path class="st6" d="M2193.54,1374.35c-6.59,13.46-17.31,20.93-23.92,16.68s-6.64-18.62-0.04-32.08s17.3-20.93,23.92-16.68
				C2200.12,1346.52,2200.14,1360.89,2193.54,1374.35z"/>
			<path class="st6" d="M2038.27,1359.95c7.63,12.25,9.09,27.05,3.27,33.06c-5.82,6.01-16.72,0.95-24.35-11.3
				c-7.63-12.25-9.09-27.05-3.27-33.06C2019.74,1342.64,2030.64,1347.7,2038.27,1359.95z"/>
			<ellipse class="st6" cx="2107.26" cy="1373.48" rx="69.02" ry="88.87"/>
			<path class="st19" d="M2257.76,1593.45c45.22,24.12,84.62,115.5,84.62,115.5s-101.74,15.83-122.84,31.65
				c-21.1,15.83,3.01-6.03,15.07-49.74S2257.76,1593.45,2257.76,1593.45z"/>
			<path class="st19" d="M1942.95,1586.86c10.55,48.23,61.04,182.89,61.04,182.89s-46.77-53.27-96.47-56.28
				c-49.7-3.01-68.14-3.77-67.83,8.29c0.06,2.38,8.29-53.51,46.73-88.17C1924.86,1598.92,1942.95,1586.86,1942.95,1586.86z"/>
			<path class="st20" d="M2246.05,1890.51h-273.04c-11,0-20.39-7.95-22.21-18.8l-32.92-196.49c-2.3-13.73,8.29-26.24,22.21-26.24
				h338.88c13.92,0,24.51,12.51,22.21,26.24l-32.92,196.49C2266.45,1882.57,2257.05,1890.51,2246.05,1890.51z"/>
			<path class="st2" d="M2246.05,1890.51h-273.04c-11,0-20.39-7.66-22.21-18.12l-32.92-189.4c-2.3-13.24,8.29-25.29,22.21-25.29
				h338.88c13.92,0,24.51,12.06,22.21,25.29l-32.92,189.4C2266.45,1882.85,2257.05,1890.51,2246.05,1890.51z"/>
			<path class="st17" d="M2145.59,1967.92c-1.63-0.28-176.34-44.01-215.34-11.79c-39,32.22,130.56,32.76,161.08,25.71
				S2145.59,1967.92,2145.59,1967.92z"/>
			<path class="st17" d="M2184.59,1975.76c0,0,37.3-28.11,86.48-23.02s91.56,15.81,49.17,29.1
				c-42.39,13.29-86.47,14.99-106.82,13.29C2193.07,1993.43,2184.59,1975.76,2184.59,1975.76z"/>
			<path class="st21" d="M2085.24,1248.21c-44.83,13.6-29.23,139.81,22.03,135.65c51.26-4.16,53.34-58.73,49.7-94.07
				C2153.32,1254.44,2131.49,1234.17,2085.24,1248.21z"/>
			<path class="st21" d="M2069.12,1341.76c-12.47-11.95-29.63,25.67-22.87,42.2s-2.69,26.15,6.45,43.95s-16.84-11.31-20.48-32.62
				c-3.64-21.31-5.72-58.21-10.91-74.84c-5.2-16.63,0.26-45.47,23.42-51.46c23.16-5.98,28.55-16.63,37.39-17.15
				c8.84-0.52,50.94,3.64,71.73,15.07s32.22,28.59,30.67,54.57c-1.56,25.99-8.32,92.52-14.55,103.43
				c-6.24,10.91-9.46,8.33-7.59,2.08s8.63-43.67,3.43-57.18c-5.2-13.51-2.6-46.78-16.11-49.38c-13.51-2.6-10.4,20.45-26.51,22.18
				S2069.12,1341.76,2069.12,1341.76z"/>
		</g>
		<g>
			<path class="st22" d="M1823.4,1060.5h-246.19c-7.85,0-14.19-6.42-14.09-14.27l1.3-102.28c0.1-7.85,6.6-14.27,14.45-14.27h246.19
				c7.85,0,14.19,6.42,14.09,14.27l-1.29,102.28C1837.76,1054.08,1831.25,1060.5,1823.4,1060.5z"/>
			<path class="st15" d="M1811.3,1049.8h-221.71c-6.8,0-12.29-5.56-12.21-12.36l1.07-84.7c0.09-6.8,5.72-12.36,12.52-12.36h221.71
				c6.8,0,12.29,5.56,12.21,12.36l-1.07,84.7C1823.73,1044.23,1818.1,1049.8,1811.3,1049.8z"/>
			<path class="st22" d="M1672.83,1054.55c-1.48,53.92-27.06,70.57-27.06,70.57s11.49-30.92,2.96-45.99
				c-8.53-15.06-22.72-21.41-22.72-21.41L1672.83,1054.55z"/>
			<path class="st22" d="M1801.25,970.51h-142.92c-2.34,0-4.24-1.92-4.21-4.26l0-0.2c0.03-2.34,1.97-4.26,4.32-4.26h142.92
				c2.34,0,4.24,1.92,4.21,4.26l0,0.2C1805.54,968.59,1803.6,970.51,1801.25,970.51z"/>
			<path class="st22" d="M1801.02,988.74H1658.1c-2.34,0-4.24-1.92-4.21-4.26l0-0.2c0.03-2.34,1.97-4.26,4.32-4.26h142.92
				c2.34,0,4.24,1.92,4.21,4.26l0,0.2C1805.31,986.83,1803.37,988.74,1801.02,988.74z"/>
			<path class="st22" d="M1800.76,1009.36h-142.92c-2.34,0-4.24-1.92-4.21-4.26l0-0.2c0.03-2.34,1.97-4.26,4.32-4.26h142.92
				c2.34,0,4.24,1.92,4.21,4.26l0,0.2C1805.05,1007.44,1803.11,1009.36,1800.76,1009.36z"/>
			<path class="st22" d="M1641.2,985.18c-0.2,15.55-10.65,28.15-23.35,28.15c-12.7,0-22.83-12.6-22.64-28.15
				c0.2-15.55,10.65-28.15,23.35-28.15C1631.26,957.03,1641.4,969.63,1641.2,985.18z"/>
		</g>
		<g>
			<path class="st22" d="M2029.15,1246.78H1779.8c-7.95,0-14.37-6.5-14.27-14.45l1.31-103.59c0.1-7.95,6.69-14.46,14.64-14.46
				h249.35c7.95,0,14.37,6.5,14.27,14.46l-1.31,103.59C2043.69,1240.28,2037.1,1246.78,2029.15,1246.78z"/>
			<path class="st15" d="M2016.89,1235.94h-224.55c-6.89,0-12.45-5.63-12.36-12.52l1.09-85.78c0.09-6.89,5.79-12.52,12.68-12.52
				h224.55c6.89,0,12.45,5.63,12.36,12.52l-1.09,85.78C2029.48,1230.31,2023.77,1235.94,2016.89,1235.94z"/>
			<path class="st22" d="M1910.64,1240.76c0.11,54.61,25.59,71.47,25.59,71.47s-10.85-31.32-1.82-46.58
				c9.03-15.26,23.56-21.68,23.56-21.68L1910.64,1240.76z"/>
			<path class="st22" d="M1930.27,1162.86h-122.14c-2.19,0-3.95-1.79-3.92-3.98l0.01-0.88c0.03-2.19,1.84-3.98,4.03-3.98h122.14
				c2.19,0,3.95,1.79,3.92,3.98l-0.01,0.88C1934.27,1161.08,1932.46,1162.86,1930.27,1162.86z"/>
			<path class="st22" d="M1930.04,1181.33h-122.14c-2.19,0-3.95-1.79-3.92-3.97l0.01-0.88c0.03-2.19,1.84-3.98,4.03-3.98h122.14
				c2.19,0,3.95,1.79,3.92,3.98l-0.01,0.88C1934.04,1179.54,1932.22,1181.33,1930.04,1181.33z"/>
			<path class="st22" d="M1929.77,1202.21h-122.14c-2.19,0-3.95-1.79-3.93-3.97l0.01-0.88c0.03-2.19,1.84-3.97,4.03-3.97h122.14
				c2.19,0,3.95,1.79,3.92,3.97l-0.01,0.88C1933.77,1200.42,1931.96,1202.21,1929.77,1202.21z"/>
			<path class="st22" d="M1989.07,1209.44h-17.67c-7.95,0-14.37-6.5-14.27-14.45l0.46-36.14c0.1-7.95,6.69-14.46,14.64-14.46h17.67
				c7.95,0,14.37,6.5,14.27,14.46l-0.46,36.14C2003.61,1202.94,1997.02,1209.44,1989.07,1209.44z"/>
		</g>
		<g>
			<defs>
				<circle id="SVGID_4_" cx="774.33" cy="680.16" r="380"/>
			</defs>
			<clipPath id="SVGID_5_">
				<use xlink:href="#SVGID_4_"  style="overflow:visible;"/>
			</clipPath>
			<circle class="st23" cx="774.33" cy="680.16" r="380"/>
			<g class="st24">
				<path class="st25" d="M598.72,620.21c50.27,36.3,158.25,52.13,192.69,53.99c34.44,1.86-19.12,96.81-19.12,96.81
					s-92.59,11.17-136.34,0C592.2,759.84,598.72,620.21,598.72,620.21z"/>
				<path class="st5" d="M512.46,1561.65c0.62,24.82,14.77,39.59,37.86,56.78c24.2,18.02,25.44,20-8.07,24.43
					c-33.51,4.43-42.82-10.77-65.16-17.29s-8.07-22.34-9.31-37.24c-1.24-14.89-3.36-39.1-3.36-39.1L512.46,1561.65z"/>
				<path class="st5" d="M707.94,1549.23c0,0,14.89,17.24,34.75,34.38c19.86,17.13,70.13,22.97,45.92,29.36
					c-24.2,6.39-51.32,2.94-76.24,6.53c-24.92,3.59-46.64,0.12-48.5-6.53c-1.86-6.64,0-53.81,0-53.81L707.94,1549.23z"/>
				<path class="st26" d="M776.53,463.16c31.15-29.58,88.42,8.13,93.82,33.2c13.89,64.49,20.04,131.17,3.14,157.37
					c-16.9,26.2-156.11,33.61-165.59,33.38c-12.74-0.31-20.17-43.5,4.76-71.81c24.93-28.31,36.03-79.34,40.6-105.49
					C758.75,478.37,771.54,467.89,776.53,463.16z"/>
				<g>
					<path class="st26" d="M887.16,637.79c-0.07,0-0.14,0-0.21-0.01c-0.82-0.11-1.39-0.87-1.28-1.69
						c7.3-52.7-2.46-112.99-24.31-150.03c-0.42-0.71-0.18-1.63,0.53-2.05c0.71-0.42,1.63-0.18,2.05,0.53
						c22.16,37.58,32.08,98.65,24.69,151.97C888.54,637.25,887.9,637.79,887.16,637.79z"/>
				</g>
				<g>
					<path class="st26" d="M896.16,603.29c-0.03,0-0.06,0-0.09,0c-0.83-0.05-1.46-0.76-1.4-1.59
						c2.98-47.72-20.79-107.53-42.45-125.23c-0.64-0.52-0.74-1.47-0.21-2.11c0.53-0.64,1.47-0.74,2.11-0.21
						c22.21,18.14,46.58,79.17,43.55,127.75C897.6,602.68,896.94,603.29,896.16,603.29z"/>
				</g>
				<path class="st27" d="M712.19,651.65c-10.61,75.14-20.85,216.64-51.57,251.08c-30.72,34.44-47.82,116.58-47.82,116.58
					s99.28-54.21,139.91-187.51c12.75-41.82-18.36-139.45-25.9-148.76C719.27,673.73,712.19,651.65,712.19,651.65z"/>
				<g>
					<path class="st6" d="M927.32,858.05c-6.13,7.45-22.57,43.55-30.91,43.55c-28.39,0-30.49,11.13-45.89,19.29
						c-19.78,10.47-15.59,26.53-14.2,27.46c1.4,0.93,43.49-6.44,57.62-15.65c11.73-7.64,20.07-11.81,25.79-20.19
						c5.72-8.38,38.11-32.58,38.11-32.58L927.32,858.05z"/>
					<path class="st28" d="M898.6,635.13c28.72,17.35,34,33.49,62.24,82.51c28.24,49.03,33.2,66.71,44.37,84.4
						c11.17,17.69,14.89,38.17-8.69,60.51c-22.53,21.34-33.04,30.05-45.41,26.72c-8.33-2.25-14.91-26.51-26.49-22.11
						c-11.58,4.4,8.9-29.74,19.45-39.36c5.75-5.24,8.07-4.84,6.21-7.23c-1.86-2.39-37.24-28.77-66.71-66.93
						C854.09,715.47,898.6,635.13,898.6,635.13z"/>
					<g>
						<path class="st27" d="M988.76,818.49c-13.98-6.28-31.44-5.38-44.27-2.95c3.3,2.77,5.38,4.5,5.79,5.03
							c1.86,2.39-0.46,1.99-6.21,7.23c-2.04,1.86-4.44,4.63-6.92,7.86c9.78-5.18,20.48-9.84,29.26-11.12
							c22.34-3.26,23.74,2.79,35.37,10.24C1013.43,842.22,1011.57,828.73,988.76,818.49z"/>
						<path class="st27" d="M927.48,661.1c-7.69-10.51-15.89-18.12-28.88-25.97c0,0-44.51,80.34-15.03,118.51
							c9.36,12.12,19.31,23.04,28.59,32.39C912.77,760.31,915.47,702.83,927.48,661.1z"/>
					</g>
					<path class="st28" d="M789.29,608.57c-38.48,8.69-69.53,20.04-77.47,42.36c-3.86,10.83,18.46,189.59,40.8,209.45
						c43.12,38.33,114.19,2.48,114.19,2.48s32.27-80.37,45.07-215.28c3.33-12.17-73.62-36.06-86.03-38.55
						C813.45,606.55,789.29,608.57,789.29,608.57z"/>
					<path class="st6" d="M802.25,1556.83c0,0-52.72,72.97-21.07,70.39c31.65-2.58,52.32-35.16,52.32-35.16s10.98,36.95,42.63,35.23
						c31.65-1.72,13.8-21.08,0-43.67c-13.03-21.34-13.73-43.73-13.73-43.73L802.25,1556.83z"/>
					<path class="st6" d="M806.77,643.48c-13.06,0-23.74-10.68-23.74-23.74v-88.43c0-13.06,10.68-23.74,23.74-23.74
						c13.06,0,23.74,10.68,23.74,23.74v88.43C830.51,632.8,819.83,643.48,806.77,643.48z"/>
					<path class="st10" d="M806.77,507.57c-13.06,0-23.74,10.68-23.74,23.74v40.04c15.38,22.06,33.36,35.69,47.48,43.8v-83.83
						C830.51,518.25,819.83,507.57,806.77,507.57z"/>
					<path class="st6" d="M867.21,519.45c7.42,31.63-5.21,61.65-28.22,67.05c-23.01,5.4-47.67-15.87-55.09-47.5
						c-7.42-31.63,5.21-61.65,28.22-67.05C835.13,466.55,859.79,487.82,867.21,519.45z"/>
					<path class="st6" d="M757.97,849.73c0,0-74,55.85-50.27,238.76c23.74,182.91,48.87,177.33,50.27,265.29
						c1.4,87.96,39.1,209.44,61.44,233.18c22.34,23.74,77.2-103.51,77.2-216.46c0-66,0.03-97.7,15.39-201.03
						c15.36-103.32,12.13-254.12-49.31-319.74S757.97,849.73,757.97,849.73z"/>
					<path class="st10" d="M817.9,1258.79c-0.06-43.28-14.39-135.28-11.13-262.45l-94.39,125.8
						c22.25,148.93,44.28,149.45,45.58,231.64c1.06,66.65,22.96,152.54,43.23,200.57c13.17,4.73,22.02,10.28,24.36,17.25
						c3.13,9.33,5.21,14.5,6.45,16c0.44-0.29,0.89-0.6,1.34-0.94c1.08-7.79-4.57-47.54-10.76-105.38
						C812.14,1383.5,817.97,1302.08,817.9,1258.79z"/>
					<path class="st28" d="M724.72,784.4c12.31,72.31,4.92,82.09-12.33,142.13c-17.25,60.04-17.48,219.21-17.48,219.21
						s46.78,19.55,137.3,11.17s103.09-18.15,103.09-18.15S925,983.77,911.99,937.7c-13-46.08-33.34-77.59-34.34-107.21
						C876.65,800.86,724.72,784.4,724.72,784.4z"/>
					<path class="st29" d="M781.17,1627.22c31.65-2.58,52.32-35.16,52.32-35.16s10.98,36.95,42.63,35.23
						c27.18-1.48,17.85-15.96,5.94-34.34c-1.08,4.13-4.45,7.99-13.38,7.65c-18.7-0.72-36.26-23.43-36.26-23.43
						s-32.63,25.13-44.73,23.34c-12.1-1.79,5.89-30.89,5.9-30.91C780.12,1590.39,757.97,1629.11,781.17,1627.22z"/>
				</g>
				<path class="st26" d="M561.07,560.68c-14.7-20.65-29.47-76.86-16.34-82.6c13.13-5.74,9.85-14.77,22.97-31.59
					c13.13-16.82,66.05-23.38,81.64,4.92c15.59,28.31,22.27,31.18,22.83,46.36c0.56,15.18-36.78,52.92-36.78,52.92L561.07,560.68z"
					/>
				<path class="st6" d="M907.83,890.41c-4.29,6.42-8.38,11.19-11.41,11.19c-28.39,0-30.49,11.13-45.89,19.29
					c-19.78,10.47-15.59,26.53-14.2,27.46c1.4,0.93,43.49-6.44,57.62-15.65c11.73-7.64,20.07-11.81,25.79-20.19
					c1.09-1.6,3.17-3.78,5.79-6.26C919.16,901.53,913.24,896.21,907.83,890.41z"/>
				<path class="st6" d="M570.79,488.02c0,0-9.31,114.6-29.79,127.12c-20.48,12.52-59.58,59.06-53.99,159.6
					c5.58,100.54,13.03,143.9,20.48,182.73c7.45,38.83,147.08,15.17,161.97,0c14.89-15.17,31.65-153.87,0-224.15
					c-31.65-70.28-67.02-110-70.75-127.38c-3.72-17.38,20.48-87.19,20.48-87.19L570.79,488.02z"/>
				<path class="st10" d="M598.34,602.17c-0.47-21.91,20.86-83.43,20.86-83.43l-48.41-30.72c0,0-2.03,24.98-6.28,52.89
					C570.79,579.71,583.36,594.61,598.34,602.17z"/>
				<path class="st6" d="M659.17,520.21c4.66,33.66-6.93,60.02-31.17,63.38c-24.24,3.36-51.94-17.55-56.6-51.22
					c-4.66-33.66,11.2-63.68,35.44-67.04C631.08,461.98,654.51,486.55,659.17,520.21z"/>
				<path class="st6" d="M924.92,649.07c14.25,8.86,25.12,31.03,18.88,49.03c-6.24,18-14.88-5.1-24.38-18.31
					C909.92,666.57,914.26,642.44,924.92,649.07z"/>
				<path class="st29" d="M671.4,889.96c-9.77,117.56,23.28,382.85,23.51,442.88c0.23,60.04,24.21,224.21,24.21,224.21
					s-39.1,11.23-54.45,12.54c-15.36,1.3-59.72-148.79-66.28-228.37c-6.57-79.59-48.08-220.83-48.08-220.83l14.22-242.31
					L671.4,889.96z"/>
				<path class="st13" d="M671.4,889.96l-106.88-11.88l-14.22,242.31c0,0,41.51,141.24,48.08,220.83c0.09,1.04,0.18,2.09,0.28,3.16
					c0.8-122.67,36.46-175.91,74.15-305.79C669.56,981.54,668.23,928.01,671.4,889.96z"/>
				<path class="st29" d="M667.21,929.32c-50.27,170.34-96.34,330.91-127.06,437.03c-30.72,106.12-21.49,215.2-21.49,215.2
					l-51.66,4.12c0,0-58.1-174.91-19.01-269.58c39.1-94.67,20.5-151.71,27.93-240.16c8.38-99.78,22.46-172.69,22.46-172.69
					L667.21,929.32z"/>
				<path class="st30" d="M669.47,733.31c-17-37.75-35.06-66.67-48.73-88.06c-6.03-0.84-13.67-1.6-22.34-1.78
					c-14.41-0.29-39.49-18.77-54.45-30.91c-0.95,1.08-1.93,1.95-2.94,2.57c-20.48,12.52-59.58,59.06-53.99,159.6
					c5.58,100.54-15.51,134.87-8.07,173.69c7.45,38.83,175.63,24.2,190.52,9.04C684.36,942.29,701.12,803.6,669.47,733.31z"/>
				<path class="st30" d="M538.52,591.04l-15.12,39.87l95.8,38.94l11.06-9.5c0,0-14.79-21.53-11.06-34.57
					c3.72-13.03,8.07-16.76,0-19.86c-8.07-3.1-36.76-8.07-54.68-14.89C546.59,584.21,541.64,582.83,538.52,591.04z"/>
				<path class="st25" d="M687.46,852.29c-1.9-29.93-7.95-96.69-17.99-118.98c-3.7-8.21-7.45-15.98-11.19-23.37l-12.08-5.25
					c0,0-67.02-53.51-110.78-43.53c-43.75,9.98-45.61,172.97-20.48,190.83c25.13,17.87,35.36-29.9,128.31-15.07
					C658.38,839.34,675.06,853.47,687.46,852.29z"/>
				<path class="st29" d="M844.12,900.37c2.05,1.51,4.96,1.07,6.47-0.98l197.47-268.21c1.51-2.05,1.07-4.96-0.98-6.47
					c-2.05-1.51-4.96-1.07-6.47,0.98L843.14,893.9C841.63,895.95,842.07,898.86,844.12,900.37z"/>
				<path class="st13" d="M1059.4,635.13h-32.92c-5.48,0-9.97-4.49-9.97-9.97c0-5.48,4.49-9.97,9.97-9.97h32.92
					c5.48,0,9.97,4.49,9.97,9.97C1069.37,630.64,1064.89,635.13,1059.4,635.13z"/>
				<path class="st26" d="M1049.68,536.72l31.71,5.35c5.99,1.01,9.41,7.41,6.91,12.95l-30.74,68.19c-1.98,4.38-6.97,6.53-11.51,4.94
					l-27.92-9.76c-5.05-1.77-7.56-7.43-5.48-12.36l26.94-63.78C1041.27,538.3,1045.44,536.01,1049.68,536.72z"/>
				<path class="st29" d="M1047.75,542.18l26.24,4.71c4.96,0.89,7.78,6.53,5.72,11.41l-25.43,60.08c-1.63,3.86-5.77,5.75-9.53,4.35
					l-23.1-8.6c-4.18-1.56-6.26-6.55-4.54-10.89l22.29-56.19C1040.79,543.57,1044.25,541.55,1047.75,542.18z"/>
				<g>
					<g>
						<path class="st31" d="M1027.56,536.04c-0.23,0-0.47-0.06-0.69-0.17l-35.12-18.33c-0.73-0.38-1.02-1.29-0.64-2.02
							c0.38-0.73,1.29-1.02,2.02-0.64l35.12,18.33c0.73,0.38,1.02,1.29,0.64,2.02C1028.63,535.74,1028.1,536.04,1027.56,536.04z"/>
					</g>
					<g>
						<path class="st31" d="M1034.07,528.66c-0.46,0-0.92-0.21-1.21-0.61l-24.77-33.72c-0.49-0.67-0.35-1.61,0.32-2.1
							c0.67-0.49,1.61-0.35,2.1,0.32l24.77,33.72c0.49,0.67,0.35,1.61-0.32,2.1C1034.69,528.56,1034.38,528.66,1034.07,528.66z"/>
					</g>
					<g>
						<path class="st31" d="M982.11,573.27c-0.64,0-1.23-0.41-1.43-1.04c-0.25-0.79,0.18-1.63,0.97-1.88l42.94-13.71
							c0.79-0.26,1.63,0.18,1.88,0.97c0.25,0.79-0.18,1.63-0.97,1.89l-42.94,13.71C982.41,573.24,982.26,573.27,982.11,573.27z"/>
					</g>
					<g>
						<path class="st31" d="M1027.25,548.84c-0.07,0-0.14,0-0.21-0.02c-32.7-4.68-50.59-7.51-53.18-8.42
							c-0.78-0.27-1.19-1.13-0.92-1.91c0.28-0.78,1.13-1.19,1.91-0.92c1.35,0.48,9.99,2.18,52.61,8.28c0.82,0.12,1.39,0.88,1.27,1.7
							C1028.63,548.3,1027.99,548.84,1027.25,548.84z"/>
					</g>
				</g>
				<g>
					<path class="st32" d="M1017.12,603.25c-1.72,4.34,0.36,9.33,4.54,10.89l2.8,1.04l39.73-20.2l15.52-36.68
						c0.72-1.7,0.83-3.48,0.49-5.13l-60.87,44.53L1017.12,603.25z"/>
					<path class="st32" d="M1025.53,615.59l19.22,7.16c3.76,1.4,7.89-0.49,9.53-4.35l6.66-15.74
						C1049.53,606.59,1034.41,612.23,1025.53,615.59z"/>
				</g>
				<path class="st6" d="M854.44,775.98l53.06-2.42c0,0,27.14-33.73,38.11-26.86c10.97,6.87,29.96-5.37,29.85,6.87
					c-0.12,12.24-15.52,44.06-33.93,47.32c-18.41,3.26-60.52,0-60.52,0L854.44,775.98z"/>
				<path class="st30" d="M550.84,651.65c31.08,2.18,136.85,95.1,184.94,129.8c66.08-10.75,145.22-9.94,145.22-9.94
					s16.45,31.01,15.41,33.45c-1.04,2.45-107.21,39.3-169.94,36.72c-62.73-2.59-91.64-22.27-139.51-27.98
					c-31.17-3.72-46.33,9.22-63.56-8.73c-17.23-17.95-23.31-110.08-13.9-128.65C518.93,657.74,537.51,650.71,550.84,651.65z"/>
				<path class="st26" d="M561.07,560.68c16.44-8.12,8.27-23.92,9.71-34.39c1.43-10.47-3.14-18.86,0.79-18.15
					c3.93,0.71,3.05,40.19,8,39.94c4.95-0.26,3.11-29.79,8.34-30.62c5.23-0.82,7.28-8.17,3.18-21.11
					c-4.1-12.94-0.82-24.43,10.26-14.17c11.08,10.26,35.69,34.05,50.05,30.77c14.36-3.28,13.54-18.05,12.31-19.69
					c-1.23-1.64-38.15-43.08-38.15-43.08l-73.02,41.85l-2.05,38.15L561.07,560.68z"/>
				<path class="st6" d="M574.18,515.89c0.98,9.92,1.32,24.96,2.18,27.12c-6.51,2.65-14.83-2.68-18.6-11.91
					c-3.77-9.23-3.42-21.34,3.17-23.79C565.03,505.79,573.03,504.34,574.18,515.89z"/>
				<path class="st26" d="M863.21,493.61c-10.36,33.51-68.07,33.98-70.86,43.29c-2.79,9.31-3.48,45.47-11.92,68.5
					c-13.5,36.79-19.55,48.95-38.34,54.53c-18.79,5.59-26.7-25.55-26.7-25.55s33.68-44.43,35.54-45.36
					c1.86-0.93,19.59-114.5,19.59-114.5s45.11-8.27,47.44-9.49c2.33-1.21,34.91,13.21,34.91,13.21L863.21,493.61z"/>
			</g>
		</g>
		<g>
			<defs>
				
					<ellipse id="SVGID_6_" transform="matrix(0.7071 -0.7071 0.7071 0.7071 191.5824 1759.2101)" cx="2219.35" cy="648.34" rx="351.03" ry="351.03"/>
			</defs>
			<clipPath id="SVGID_7_">
				<use xlink:href="#SVGID_6_"  style="overflow:visible;"/>
			</clipPath>
			
				<ellipse transform="matrix(0.7071 -0.7071 0.7071 0.7071 191.5824 1759.2101)" class="st33" cx="2219.35" cy="648.34" rx="351.03" ry="351.03"/>
			<g class="st34">
				<path class="st35" d="M2161.32,662.87c0,0-12.29,11.44-27.66,4.05c-15.36-7.4-71.46-47.04-69.75-56.71
					c1.71-9.67,27.92-11.99,27.92-11.99S2173.04,662.42,2161.32,662.87z"/>
				<path class="st36" d="M2146.54,661.38c10.52-1.68-24.09-29.21-35.41-40.59c-11.32-11.38-18.62-16.69-18.62-16.69
					s-19.35,2.35-19.35,6.11c0,3.75,55.48,48.06,55.48,48.06S2141.79,662.14,2146.54,661.38z"/>
				<path class="st6" d="M2214.46,710.9c0,0-20.2-34.14-29.88-43.25c-9.67-9.1-42.34-26.75-47.29-26.86
					c-8.47-0.19,29.08,25.15,29.08,25.15s-5.12,33-0.57,44.95c4.55,11.95,52.35,27.88,52.35,27.88L2214.46,710.9z"/>
				<path class="st37" d="M2252.02,746.74c0,0-33-49.51-40.4-46.09c-7.4,3.41-27.31,46.09-27.31,46.09s58.04,60.32,58.04,48.94
					C2242.35,784.29,2252.02,746.74,2252.02,746.74z"/>
				<path class="st6" d="M2343.29,481.6c0,0,34.14,120.64,56.9,170.71c22.76,50.08,34.14,143.4,29.59,307.28
					c-4.55,163.88,27.31,159.33-20.49,179.82c-47.8,20.49-218.51-13.66-241.27-66.01c-22.76-52.35,15.24-265.49,71.7-343.7
					c55.74-77.22,80.8-104.7,80.8-122.91c0-18.21-22.03-95.6-22.03-95.6L2343.29,481.6z"/>
				<path class="st38" d="M2168.03,1073.4c-22.76-52.35,15.24-265.49,71.7-343.7c25.96-35.96,45.26-61.13,58.48-79.6
					c27.03-16.13,56.87-31.16,85.5-39.89c5.73,16.14,11.39,30.9,16.49,42.11c22.76,50.08,34.14,143.4,29.59,307.28
					c-4.55,163.88,27.31,159.33-20.49,179.82C2361.5,1159.9,2190.79,1125.76,2168.03,1073.4z"/>
				<path class="st38" d="M2403.99,588.58c-0.57-9.37-122.15,38.69-122.91,47.8c-0.76,9.1-7.93,43.07-18,61.37
					c-10.07,18.3,169.27,120.51,162.67,70.75C2419.15,718.73,2405.5,613.62,2403.99,588.58z"/>
				<path class="st10" d="M2320.42,608.82c0.07-0.69,0.1-1.37,0.1-2.03c0-18.21-22.03-95.6-22.03-95.6l44.79-29.59
					c0,0,7.93,28.01,18.69,62.63C2348.07,585.79,2335.04,599.96,2320.42,608.82z"/>
				<path class="st6" d="M2217.69,540.67c9.47,42.9,39.09,73.41,73.34,65.02c25.12-6.15,63.72-41.28,51.34-92.53
					c-10.31-42.7-45.05-71.51-79.48-63.92C2228.46,456.83,2208.22,497.77,2217.69,540.67z"/>
				<path class="st6" d="M2178.81,819.94c-31.08-53.67-34.55-103.81-56.57-119.46c-30.97-22.02-56.42-71.28-45.2-73.22
					c11.22-1.94,56.63,39.66,56.63,39.66s-11.82-16.17-9-17.52c2.82-1.35,25.7,15.25,29.25,34.87
					c3.55,19.61,47.49,109.77,84.35,138.64C2275.13,851.78,2209.89,873.61,2178.81,819.94z"/>
				<path class="st37" d="M2380.15,684.7c55.07,13.71,29.88,180.02-16.55,278.65c-46.43,98.63-133.68,13.42-166.3-10.74
					c-12.39-9.17-20.55-18.47-25.91-26.48c10.47-58.86,28.43-122,50.59-166.43C2273.95,820.71,2298.67,664.41,2380.15,684.7z"/>
				<path class="st38" d="M2363.6,672.76c69.25,6.94,31.33,179.82-19.31,249.62c-50.64,69.8-122.72,2.28-145.48-37.94
					c-22.76-40.21-68.85-108.59-68.85-153.07c0-8.35,17.07-10.05,37.56-8.54c19.29,1.43,106.44,121.4,106.44,121.4
					S2303.05,666.69,2363.6,672.76z"/>
				<path class="st21" d="M2196.54,451.21c-42.34,17.83-16.98,74.22,5.35,76.33c22.33,2.11,48.14-39.05,61.4-40.45
					c13.26-1.4-2.68,23.02,9.13,28.61c11.8,5.58,22.82,14.85,26.25,29.51c3.44,14.65,12.87,46.55-2.54,47.94
					c-15.4,1.4-32.15-15.35-42.61-16.05c-10.47-0.7-19.56,2.33-19.56,2.33s26.58,36.74,46.09,38.84
					c19.51,2.09,40.81-26.43,55.98-50.55c15.17-24.11,8.72-40.18,8.72-40.18s15.52,17.46,25.28,16.07
					c9.77-1.4-14.65-15.35-15.35-56.52c-0.7-41.17-18.84-62.8-41.17-62.8s-19.54-11.36-53.64-10.47
					C2229.16,414.64,2206.47,447.03,2196.54,451.21z"/>
				<path class="st6" d="M2289.65,535.33c-0.99,10.63,4.47,19.83,12.19,20.54s14.78-7.32,15.76-17.95
					c0.99-10.63-4.47-19.83-12.19-20.54C2297.69,516.66,2290.64,524.7,2289.65,535.33z"/>
			</g>
		</g>
		<g>
			<defs>
				
					<ellipse id="SVGID_8_" transform="matrix(0.7071 -0.7071 0.7071 0.7071 -56.3718 2409.1152)" cx="2879.87" cy="1272.6" rx="251.24" ry="251.24"/>
			</defs>
			<clipPath id="SVGID_9_">
				<use xlink:href="#SVGID_8_"  style="overflow:visible;"/>
			</clipPath>
			
				<ellipse transform="matrix(0.7071 -0.7071 0.7071 0.7071 -56.3718 2409.1152)" class="st39" cx="2879.87" cy="1272.6" rx="251.24" ry="251.24"/>
			<g class="st40">
				<path class="st5" d="M2840.31,1152.89c-19.15,38.29-3.3,82.38,34.36,97.96c37.91,15.68,79.35,6.77,98.5-31.51
					c19.15-38.29,4.93-84.2-31.76-102.55S2859.45,1114.61,2840.31,1152.89z"/>
				<g>
					<path class="st5" d="M2943.5,1255.91c-1.91,0-3.01-0.29-3.15-0.33c-1.29-0.37-2.04-1.72-1.68-3.01
						c0.37-1.29,1.72-2.05,3.01-1.68c0.06,0.01,8.86,2.08,22.06-9.63c14.9-13.22,25.32-43.24,9.88-87.87
						c-0.44-1.27,0.23-2.66,1.51-3.1c1.27-0.44,2.66,0.23,3.1,1.51c20.41,59.02-3.45,86.19-11.25,93.11
						C2956.29,1254.39,2947.82,1255.91,2943.5,1255.91z"/>
				</g>
				<g>
					<path class="st41" d="M2884.97,1301.88c-21.79,4.88-49.3,65.44-62.78,104.23c-13.59,39.13-36.62,87.67-51.71,102.75
						s-114.18,50.04-114.18,50.04s244.86,0.47,239.85-0.01C2891.13,1558.42,2884.97,1301.88,2884.97,1301.88z"/>
					<path class="st42" d="M2754.97,1539.46c13.41-1.91,61.76,4.31,41.18-4.31s-17.71-19.63-17.71-19.63s29.21,24.42,34.47,3.07
						c4.54-18.41,6.28-83.41,23.51-148.56c14.24-32.3,32.88-64.62,48.55-68.13c0,0,0.55,22.94,1.46,55.1
						c-6.01,71.18-16.22,175.75-18.81,202.11c-32.46,0.05-86.78,0-132.22-0.06l-30.22-1.44
						C2705.18,1557.6,2741.56,1541.37,2754.97,1539.46z"/>
					<path class="st41" d="M2965.08,1288.46c0,0,69.32,38.73,85.48,46.97s-45.27,250.01-58.93,260.37
						c-13.66,10.36-133.93,1.78-147.63-11.27c-13.69-13.05,10.51-53.12-1.34-133.33s36.14-149.47,42.31-149.31
						c6.17,0.16,46.41-13.42,46.41-13.42H2965.08z"/>
					<path class="st42" d="M2991.63,1595.8c-13.66,10.36-99.73,10.59-136.36-0.81c-4.14-1.29-22.91-8.77-23.35-15.8
						c4.42-0.83,21.97,1.28,29.1-0.36c24.78-5.69,38.42-36.39,38.42-36.39s13.64-4.91,44.17-17.83
						c30.52-12.93,17.95-52.07,18.67-69.3c0.72-17.24,30.16-73.61,85.46-116.34l5.07,2.27
						C3056.76,1380.53,3004.27,1586.21,2991.63,1595.8z"/>
					<path class="st6" d="M2922.54,1535.62c-43.57,8.14-54.28,18.14-78.03,21.97c-26.92,4.34-23.72,10.29-3.73,10.29
						s70.25,0.78,87.49-3.05S2922.54,1535.62,2922.54,1535.62z"/>
					<path class="st41" d="M3056,1339.97c33.39,106.76,80.73,227.91,73.19,227.91c-7.54,0-199.28,7.75-206.82,1.29
						c-7.54-6.46-5.39-31.23-4.31-34.46s109.01-22.39,109.01-22.39s-14.21-27.7-19.6-81.83
						C3002.08,1376.37,3049.67,1319.72,3056,1339.97z"/>
				</g>
				<path class="st6" d="M2939.7,1195.69l26.9,98.29c0,0-45.45,70.95-57.95,64.64c-12.5-6.3,6.99-57.67,6.99-64.64
					s-19.48-78.99-19.48-78.99L2939.7,1195.69z"/>
				<path class="st10" d="M2914.7,1299c0.58-2.33,0.93-4.07,0.93-5.01c0-6.98-19.48-78.99-19.48-78.99l43.55-19.3l8.9,32.53
					C2940.82,1261.82,2926.79,1284.2,2914.7,1299z"/>
				<path class="st6" d="M2839.05,1194.06c-5.12,28.5-1.75,66.36,23.56,75.99s55.8-8.79,68.1-41.13
					c12.3-32.34,1.75-66.36-23.56-75.99S2845.17,1160.01,2839.05,1194.06z"/>
				<path class="st6" d="M2924.71,1210.1c-3.55,9.96-0.47,20.16,6.88,22.78c7.35,2.62,16.18-3.34,19.73-13.3
					c3.55-9.96,0.47-20.16-6.88-22.78C2937.09,1194.18,2928.26,1200.14,2924.71,1210.1z"/>
				<path class="st5" d="M2838.75,1158.26c8.62,66.89,89.88,58.27,89.88,58.27s16.76-22.03,24.3-10.48
					c7.54,11.56-10.46-67.81-57.09-70.31C2880.52,1134.91,2838.75,1158.26,2838.75,1158.26z"/>
				<ellipse class="st5" cx="2965.36" cy="1129.98" rx="44.01" ry="41.29"/>
			</g>
		</g>
		<g>
			<defs>
				
					<ellipse id="SVGID_10_" transform="matrix(0.7071 -0.7071 0.7071 0.7071 -1047.6182 718.6429)" cx="343.67" cy="1623.91" rx="315.09" ry="315.09"/>
			</defs>
			<clipPath id="SVGID_11_">
				<use xlink:href="#SVGID_10_"  style="overflow:visible;"/>
			</clipPath>
			
				<ellipse transform="matrix(0.7071 -0.7071 0.7071 0.7071 -1047.6182 718.6429)" class="st43" cx="343.67" cy="1623.91" rx="315.09" ry="315.09"/>
			<g class="st44">
				<g>
					<path class="st35" d="M496.82,1598.53c0,0,9.88,9.2,22.22,3.25c12.35-5.94,57.42-37.8,56.05-45.57
						c-1.37-7.77-22.43-9.63-22.43-9.63S487.4,1598.16,496.82,1598.53z"/>
					<path class="st36" d="M508.69,1597.33c-8.45-1.35,19.36-23.47,28.45-32.62c9.09-9.14,14.96-13.41,14.96-13.41
						s15.55,1.89,15.55,4.91s-44.58,38.62-44.58,38.62S512.51,1597.94,508.69,1597.33z"/>
					<path class="st6" d="M454.12,1637.12c0,0,16.23-27.43,24-34.75c7.77-7.32,34.02-21.5,38-21.58
						c6.81-0.15-23.37,20.21-23.37,20.21s4.12,26.52,0.46,36.12c-3.66,9.6-42.06,22.4-42.06,22.4L454.12,1637.12z"/>
					<path class="st45" d="M423.94,1665.91c0,0,26.52-39.78,32.46-37.04c5.94,2.74,21.95,37.04,21.95,37.04
						s-46.64,48.47-46.64,39.32S423.94,1665.91,423.94,1665.91z"/>
					<path class="st6" d="M350.6,1452.88c0,0-27.43,96.93-45.72,137.17c-18.29,40.24-27.43,115.22-23.78,246.9
						c3.66,131.68-21.95,128.02,16.46,144.48c38.41,16.46,175.58-10.97,193.86-53.04c18.29-42.06-12.25-213.32-57.61-276.17
						c-44.79-62.04-64.93-84.13-64.93-98.76c0-14.63,17.7-76.81,17.7-76.81L350.6,1452.88z"/>
					
						<linearGradient id="SVGID_12_" gradientUnits="userSpaceOnUse" x1="2673.9424" y1="1485.382" x2="2134.8962" y2="2124.5569" gradientTransform="matrix(1 0 0 1 -2051.6167 0)">
						<stop  offset="0" style="stop-color:#FFC34E"/>
						<stop  offset="1" style="stop-color:#FB8627"/>
					</linearGradient>
					<path class="st46" d="M491.43,1928.39c18.29-42.06-12.25-213.32-57.61-276.17c-20.86-28.89-36.37-49.12-46.99-63.96
						c-21.71-12.96-45.69-25.04-68.7-32.05c-4.6,12.97-9.16,24.83-13.25,33.83c-18.29,40.24-27.43,115.22-23.78,246.9
						c3.66,131.68-21.95,128.02,16.46,144.48C335.97,1997.89,473.14,1970.46,491.43,1928.39z"/>
					
						<linearGradient id="SVGID_13_" gradientUnits="userSpaceOnUse" x1="2568.6621" y1="1396.595" x2="2029.6171" y2="2035.7686" gradientTransform="matrix(1 0 0 1 -2051.6167 0)">
						<stop  offset="0" style="stop-color:#FFC34E"/>
						<stop  offset="1" style="stop-color:#FB8627"/>
					</linearGradient>
					<path class="st47" d="M301.83,1538.83c0.46-7.53,98.15,31.09,98.76,38.41s6.37,34.61,14.46,49.31
						c8.09,14.7-136.01,96.83-130.71,56.84C289.65,1643.41,300.61,1558.95,301.83,1538.83z"/>
					<path class="st10" d="M368.98,1555.1c-0.05-0.55-0.08-1.1-0.08-1.63c0-14.63,17.7-76.81,17.7-76.81l-35.99-23.78
						c0,0-6.37,22.5-15.02,50.32C346.77,1536.59,357.23,1547.98,368.98,1555.1z"/>
					<path class="st6" d="M441.17,1500.18c-6.65,30.13-27.46,51.56-51.51,45.66c-17.64-4.32-44.76-28.99-36.06-64.99
						c7.24-29.99,31.64-50.23,55.83-44.89C433.61,1441.29,447.82,1470.05,441.17,1500.18z"/>
					<path class="st6" d="M482.76,1724.73c24.97-43.13,27.76-83.41,45.46-95.99c24.89-17.7,45.33-57.27,36.32-58.83
						c-9.01-1.56-45.5,31.87-45.5,31.87s9.5-13,7.23-14.08c-2.27-1.08-20.65,12.26-23.5,28.02c-2.85,15.76-38.16,88.2-67.78,111.4
						C405.37,1750.32,457.79,1767.86,482.76,1724.73z"/>
					
						<linearGradient id="SVGID_14_" gradientUnits="userSpaceOnUse" x1="2693.9094" y1="1280.5643" x2="2323.573" y2="1943.0541" gradientTransform="matrix(1 0 0 1 -2051.6167 0)">
						<stop  offset="0" style="stop-color:#FFC34E"/>
						<stop  offset="1" style="stop-color:#FB8627"/>
					</linearGradient>
					<path class="st48" d="M320.99,1616.07c-44.25,11.02-24.01,144.65,13.3,223.9c37.3,79.25,107.41,10.78,133.63-8.63
						c9.95-7.37,16.51-14.84,20.82-21.28c-8.41-47.29-22.84-98.02-40.65-133.73C406.32,1725.35,386.46,1599.77,320.99,1616.07z"/>
					
						<linearGradient id="SVGID_15_" gradientUnits="userSpaceOnUse" x1="2661.9617" y1="1437.9586" x2="2086.6355" y2="2120.1526" gradientTransform="matrix(1 0 0 1 -2051.6167 0)">
						<stop  offset="0" style="stop-color:#FFC34E"/>
						<stop  offset="1" style="stop-color:#FB8627"/>
					</linearGradient>
					<path class="st49" d="M334.28,1606.47c-55.65,5.58-25.18,144.48,15.51,200.57c40.69,56.09,98.6,1.83,116.89-30.48
						c18.29-32.31,55.32-87.25,55.32-123c0-6.71-13.72-8.08-30.18-6.86c-15.5,1.15-85.52,97.54-85.52,97.54
						S382.94,1601.6,334.28,1606.47z"/>
				</g>
				<path class="st21" d="M419.01,1406.64c58.08,3.97,50.67,93.99,50.67,93.99s-47.9,1.39-62.19-2.76
					c-14.28-4.15-28.83-15.33-28.83-15.33s-8.79,34.09-32.79,36c-24.01,1.9-24.01,1.9-24.01,1.9s-15.84-64.73-3.31-93.91
					C344.51,1366.02,396.36,1396.31,419.01,1406.64z"/>
				<path class="st6" d="M355.65,1493.81c3.44,8.85,11.57,13.94,18.17,11.38c6.6-2.56,9.16-11.81,5.72-20.66
					s-11.57-13.94-18.17-11.38C354.77,1475.71,352.21,1484.96,355.65,1493.81z"/>
				<path class="st21" d="M326.96,1483.45c0-1.89-2.59-2.42-3.33-0.68c-5.24,12.23-16.23,33.45-29.94,34.95
					c-19.34,2.11-157.28,13.36-111.37,119.81c29.01,67.26,50.01,94.1,21.49,119c-26.24,22.91-60.86,1.34-69.5-4.44
					c-1.05-0.7-2.47-0.09-2.68,1.15c-2.43,14.82-10.5,85.81,58.27,84.79c76.78-1.14,113.44-70.53,82.16-134.21
					c-31.28-63.68,30.7-79.96,33.23-115.74c2.44-34.46,0.61-51.86,0.12-55.69c-0.07-0.53,0.11-1.05,0.48-1.43l20.59-21.09
					c0.32-0.32,0.49-0.76,0.49-1.21V1483.45z"/>
				<g>
					<path class="st21" d="M175.03,1763.82c-15.63,0-40.21-6.38-41.32-6.67c-1.23-0.32-2-1.53-1.78-2.78
						c0.22-1.25,1.36-2.12,2.62-2.01c0.33,0.03,33.36,2.86,46.27-7.32c16.31-12.85,7.2-33.86-7.89-68.66
						c-6.37-14.7-13.6-31.36-20.23-50.63c-12.58-36.52,0.93-61.63,14.48-76.25c28.44-30.7,83.86-43.92,131.77-31.41
						c1.3,0.34,2.08,1.67,1.74,2.97c-0.34,1.3-1.67,2.08-2.97,1.74c-1.12-0.29-2.24-0.57-3.37-0.83
						c-60.95,1.03-100.27,15.17-116.88,42.04c-14.53,23.51-11.54,57.01,8.89,99.56c19.94,41.53,25.29,70.74,15.9,86.82
						c-4.66,7.98-12.99,12.59-24.1,13.33C177.16,1763.79,176.12,1763.82,175.03,1763.82z M157.1,1757.12
						c7.35,1.23,15.09,2.11,20.72,1.74c9.56-0.64,16.36-4.31,20.22-10.93c5.86-10.04,7.82-32.45-16.09-82.25
						c-21.2-44.15-24.11-79.21-8.65-104.23c15.01-24.29,46.98-38.72,95.21-43.04c-37.97-1.76-76.1,11-97.78,34.4
						c-18.13,19.58-22.78,44.25-13.45,71.36c6.57,19.09,13.76,35.66,20.1,50.28c15.47,35.68,25.69,59.25,6.44,74.43
						C177.3,1754.02,166.79,1756.24,157.1,1757.12z"/>
				</g>
			</g>
		</g>
		<g>
			<defs>
				<circle id="SVGID_16_" cx="1442.21" cy="527.16" r="153"/>
			</defs>
			<clipPath id="SVGID_17_">
				<use xlink:href="#SVGID_16_"  style="overflow:visible;"/>
			</clipPath>
			<circle class="st50" cx="1442.21" cy="527.16" r="153"/>
			<g class="st51">
				<path class="st52" d="M1394.87,513.04c-0.38-1.14-9.89-55.72-11.03-76.95c-1.14-21.23,34.12-24.26,34.12-24.26
					s28.81-15.54,49.66-7.58c20.85,7.96,35.04,21.35,44.51,38.03c9.48,16.68-8.34,68.66-8.34,68.66L1394.87,513.04z"/>
				<path class="st15" d="M1329.52,688.41c-0.13-0.9,2.43-22.38,2.53-23.25c4.8-45.23,60.56-57.95,116.2-57.95
					c65.37,0,109.72,11.96,116.79,58.97c0.21,1.38,3.98,22.91,3.79,24.36C1447.67,692.2,1329.52,688.41,1329.52,688.41z"/>
				<path class="st6" d="M1459.46,642.32c-6.48,9.56-11.23,9.96-18.26,0c-5.59-7.92-24.26-25.98-24.26-35.11l7.66-91.03
					c0-9.13,7.47-16.6,16.6-16.6h18.26c9.13,0,16.6,7.47,16.6,16.6l3.56,91.03C1479.62,616.34,1465.27,633.74,1459.46,642.32z"/>
				<path class="st10" d="M1459.46,499.59h-18.26c-9.13,0-16.6,7.47-16.6,16.6l-6.65,80.75c20.5,6.53,48.18-6.74,60.42-21.35
					l-2.32-59.4C1476.06,507.05,1468.59,499.59,1459.46,499.59z"/>
				<path class="st53" d="M1387.68,613.85l29.27,54.1c0,0,15.67-12.89,17.18-10.36c1.52,2.53-2.78,34.42-2.78,34.42
					s34.87,0.47,36.39-1.04c1.52-1.52-7.08-34.64-3.54-34.64c3.54,0,14.18,9.6,14.18,9.6l32.68-52.08l-7.18-1.75l-53.54,28.81
					l-57.27-28.18L1387.68,613.85z"/>
				<polygon class="st25" points="1421.15,638.77 1442.89,653.36 1436.16,692.07 1465.47,690.43 1458.15,655.22 1476.16,638.77 
					1467.7,630.8 1429.62,630.8 				"/>
				<path class="st15" d="M1418.47,587.33l-26.88,25.58c0,0,27.39,48.71,28.91,48.71c1.52,0,23.24-26.86,23.24-26.86l13.91-0.24
					l21.98,23.06l25.54-45.18l-26.04-27.6c0,0-22.24,42.96-26.28,43.97c-4.04,1.01-4.07,1.52-7.34-1.01
					C1442.22,625.24,1418.47,587.33,1418.47,587.33z"/>
				<ellipse class="st6" cx="1450.34" cy="500.51" rx="55.18" ry="75.19"/>
				<path class="st6" d="M1400.8,499.35c5.16,10.87,3.47,22.47-3.77,25.91c-7.25,3.44-17.3-2.58-22.46-13.45
					c-5.16-10.87-3.47-22.47,3.77-25.91C1385.58,482.46,1395.64,488.48,1400.8,499.35z"/>
				<path class="st6" d="M1497.38,499.35c-5.16,10.87-3.47,22.47,3.77,25.91c7.25,3.44,17.3-2.58,22.46-13.45
					c5.16-10.87,3.47-22.47-3.77-25.91C1512.6,482.46,1502.54,488.48,1497.38,499.35z"/>
				<path class="st15" d="M1474.82,531.36c0,0-10.96,17.75-24.48,17.75c-13.52,0-24.48-17.75-24.48-17.75H1474.82z"/>
				<path class="st52" d="M1417.96,449.36c22.74-15.92,32.98-13.27,50.03,12.89c17.06,26.15,37.53,26.62,37.53,26.62l2.65-27.12
					c0,0-25.41-49.15-59.52-42.71c-34.11,6.44-53.51,37.15-53.51,37.15s-1.66,57.55,3.1,59.51c4.76,1.96,5.31-18.57,8.72-22.74
					c3.41-4.17-3.41-23.88,1.14-32.98C1412.65,450.87,1417.96,449.36,1417.96,449.36z"/>
				<path class="st52" d="M1491.12,478.92c7.94,8.69,4.93,43.21,9.1,42.83c4.17-0.38,5.69-32.98,4.55-36.39
					C1503.63,481.96,1491.12,478.92,1491.12,478.92z"/>
			</g>
		</g>
		<g>
			<defs>
				<circle id="SVGID_18_" cx="157" cy="1016.99" r="153"/>
			</defs>
			<clipPath id="SVGID_19_">
				<use xlink:href="#SVGID_18_"  style="overflow:visible;"/>
			</clipPath>
			<circle class="st54" cx="157" cy="1016.99" r="153"/>
			<g class="st55">
				<path class="st29" d="M35.89,1159.27c18.51-39.81,49.83-52.57,101.27-52.57c61.24,0,101.81,37.81,110.82,70.12
					C138.3,1178.32,35.89,1159.27,35.89,1159.27z"/>
				<path class="st56" d="M115.77,913.06c-25.93,7.28-24.79,21.85-33.43,35.37c-8.64,13.52-27.42,22.54-29.67,31.55
					c-2.25,9.01,5.78,27.79-3.76,38.31c-9.54,10.52-12.77,15.78-9.01,26.29c3.76,10.52,12.02,27.04,12.77,29.3
					c0.75,2.25,11.27,18.03,24.04,20.28c12.77,2.25,36.81,6.01,48.83,11.27c12.02,5.26,50.66-6.73,72.12-5.98
					c21.45,0.75,36.06-15.05,34.56-25.57c-1.5-10.52,15.82-31.55,15.78-49.58c-0.05-19.36-22.54-33.8-28.55-46.58
					c-6.01-12.77,0.75-35.31-21.79-48.66c-14.24-8.44-24.04-7.69-35.31-11.44C151.07,913.87,132.29,908.42,115.77,913.06z"/>
				<path class="st6" d="M147.32,1138.49c-5.86,8.66-10.16,9.01-16.53,0c-5.06-7.17-15.02-23.45-15.02-31.71v-82.47
					c0-8.26,6.76-15.02,15.02-15.02h16.53c8.26,0,15.02,6.76,15.02,15.02v82.47C162.34,1115.04,152.58,1130.72,147.32,1138.49z"/>
				<path class="st10" d="M147.32,1009.28h-16.53c-8.26,0-15.02,6.76-15.02,15.02v73.58c18.56,5.91,35.49-5.84,46.58-19.07v-54.51
					C162.34,1016.04,155.58,1009.28,147.32,1009.28z"/>
				<ellipse class="st6" cx="139.05" cy="1010.11" rx="49.96" ry="68.07"/>
				<path class="st56" d="M162.34,955.94c-31.55,53.34-78.13,48.08-78.13,48.08s1.13-70.61,38.12-74.37
					c37-3.76,58.78,11.09,66.29,35.59c7.51,24.5,0,40.65,0,40.65s-12.02-9.39-18.03-24.41
					C164.59,966.46,162.34,955.94,162.34,955.94z"/>
				<path class="st6" d="M94.21,1009.06c4.67,9.84,3.14,20.34-3.42,23.45c-6.56,3.11-15.66-2.33-20.33-12.17
					c-4.67-9.84-3.14-20.34,3.42-23.45C80.44,993.78,89.54,999.23,94.21,1009.06z"/>
				<path class="st6" d="M181.64,1009.06c-4.67,9.84-3.14,20.34,3.42,23.45c6.56,3.11,15.66-2.33,20.33-12.17
					c4.67-9.84,3.14-20.34-3.42-23.45C195.42,993.78,186.31,999.23,181.64,1009.06z"/>
				<path class="st15" d="M157.83,1047.03c0,0-8.41,10.9-18.78,10.9c-10.37,0-18.78-10.9-18.78-10.9H157.83z"/>
			</g>
		</g>
		<g>
			<defs>
				
					<ellipse id="SVGID_20_" transform="matrix(0.7071 -0.7071 0.7071 0.7071 395.7019 2297.8958)" cx="2971.66" cy="671.29" rx="163.03" ry="163.03"/>
			</defs>
			<clipPath id="SVGID_21_">
				<use xlink:href="#SVGID_20_"  style="overflow:visible;"/>
			</clipPath>
			
				<ellipse transform="matrix(0.7071 -0.7071 0.7071 0.7071 395.7019 2297.8958)" class="st57" cx="2971.66" cy="671.29" rx="163.03" ry="163.03"/>
			<g class="st58">
				<path class="st59" d="M2886.81,647.15c0,44.8,26.97,117.08,90.6,114.76c63.63-2.32,77.7-71.22,80.16-90.66
					C3060.04,651.8,2886.81,647.15,2886.81,647.15z"/>
				<path class="st25" d="M2860.3,821.57c21.01-45.2,56.57-59.67,114.96-59.67c69.52,0,105.62,25.19,115.86,61.85
					c-40.91,0.56-79.85,41.23-113.7,40.92C2908.23,864.04,2860.3,821.57,2860.3,821.57z"/>
				<path class="st6" d="M2986.79,797.98c-6.66,9.83-11.54,10.23-18.76,0c-5.74-8.14-17.05-26.62-17.05-36v-93.62
					c0-9.38,7.67-17.06,17.05-17.06h18.76c9.38,0,17.06,7.67,17.06,17.06v93.62C3003.85,771.35,2992.76,789.16,2986.79,797.98z"/>
				<path class="st10" d="M2986.79,651.3h-18.76c-9.38,0-17.05,7.67-17.05,17.06v83.53c21.06,6.71,40.29-6.62,52.87-21.65v-61.88
					C3003.85,658.98,2996.17,651.3,2986.79,651.3z"/>
				<path class="st6" d="M3034.12,652.25c0,42.67-25.39,77.27-56.71,77.27c-31.32,0-56.71-34.6-56.71-77.27
					c0-42.68,25.39-77.27,56.71-77.27C3008.73,574.98,3034.12,609.57,3034.12,652.25z"/>
				<path class="st59" d="M3008.58,593.52c-6.74,23.76-21.51,23.49-42.1,31.29c-20.59,7.8-30.43,15.66-37.17,30.86
					c-8.59,19.38,3.9,75.9,3.9,75.9s-52.14-39.02-46.11-100.38c6.03-61.36,42.21-85.12,76.26-85.12c34.05,0,47,20.75,47,20.75
					s18.14,0.08,35.29,20.39c23.05,27.31,15.96,93.64,0,117.4c-15.96,23.76-26.6,31.21-26.25,30.15c0.36-1.06,14.9-55.64,7.09-89.38
					C3018.69,611.63,3008.58,593.52,3008.58,593.52z"/>
				<path class="st15" d="M2998.73,694.16c0,0-9.54,12.37-21.32,12.37c-11.77,0-21.32-12.37-21.32-12.37H2998.73z"/>
			</g>
		</g>
		<g>
			<path class="st60" d="M774.33,1064.16c-51.84,0-102.13-10.15-149.47-30.18c-45.73-19.34-86.79-47.03-122.06-82.29
				c-35.26-35.26-62.95-76.33-82.29-122.06c-20.02-47.34-30.18-97.63-30.18-149.47c0-51.84,10.15-102.13,30.18-149.47
				c19.34-45.73,47.03-86.79,82.29-122.06c35.26-35.26,76.33-62.95,122.06-82.29c47.34-20.02,97.63-30.18,149.47-30.18
				c51.84,0,102.13,10.15,149.47,30.18c45.73,19.34,86.79,47.03,122.06,82.29c35.26,35.26,62.95,76.33,82.29,122.06
				c20.02,47.34,30.18,97.63,30.18,149.47c0,51.84-10.15,102.13-30.18,149.47c-19.34,45.73-47.03,86.79-82.29,122.06
				c-35.26,35.26-76.33,62.95-122.06,82.29C876.46,1054,826.17,1064.16,774.33,1064.16z M774.33,304.16
				c-207.33,0-376,168.67-376,376s168.67,376,376,376s376-168.67,376-376S981.66,304.16,774.33,304.16z"/>
		</g>
		<g>
			<path class="st60" d="M2219.35,1003.37c-47.93,0-94.42-9.39-138.19-27.9c-42.28-17.88-80.24-43.48-112.85-76.08
				c-32.6-32.6-58.2-70.57-76.08-112.85c-18.51-43.77-27.9-90.27-27.9-138.19c0-47.93,9.39-94.42,27.9-138.19
				c17.88-42.28,43.48-80.24,76.08-112.85c32.6-32.6,70.57-58.2,112.85-76.08c43.77-18.51,90.27-27.9,138.19-27.9
				s94.42,9.39,138.19,27.9c42.28,17.88,80.24,43.48,112.85,76.08c32.6,32.6,58.2,70.57,76.08,112.85
				c18.51,43.77,27.9,90.27,27.9,138.19c0,47.93-9.39,94.42-27.9,138.19c-17.88,42.28-43.48,80.24-76.08,112.85
				c-32.6,32.6-70.57,58.2-112.85,76.08C2313.77,993.98,2267.27,1003.37,2219.35,1003.37z M2219.35,301.32
				c-191.35,0-347.03,155.67-347.03,347.03S2028,995.37,2219.35,995.37s347.03-155.68,347.03-347.03S2410.7,301.32,2219.35,301.32z"
				/>
		</g>
		<g>
			<path class="st60" d="M2879.87,1527.84c-68.18,0-132.27-26.55-180.48-74.76c-48.21-48.21-74.76-112.3-74.76-180.48
				s26.55-132.27,74.76-180.48c48.21-48.21,112.31-74.76,180.48-74.76s132.27,26.55,180.48,74.76
				c48.21,48.21,74.76,112.31,74.76,180.48s-26.55,132.27-74.76,180.48S2948.05,1527.84,2879.87,1527.84z M2879.87,1025.36
				c-136.33,0-247.24,110.91-247.24,247.24c0,136.33,110.91,247.24,247.24,247.24c136.33,0,247.24-110.91,247.24-247.24
				C3127.11,1136.28,3016.2,1025.36,2879.87,1025.36z"/>
		</g>
		<g>
			<path class="st60" d="M343.67,1943c-85.23,0-165.37-33.19-225.63-93.46c-60.27-60.27-93.46-140.4-93.46-225.63
				s33.19-165.36,93.46-225.63c60.27-60.27,140.4-93.46,225.63-93.46s165.36,33.19,225.63,93.46
				c60.27,60.27,93.46,140.4,93.46,225.63s-33.19,165.37-93.46,225.63C509.03,1909.81,428.9,1943,343.67,1943z M343.67,1312.81
				c-171.54,0-311.09,139.56-311.09,311.09S172.13,1935,343.67,1935s311.09-139.56,311.09-311.09S515.21,1312.81,343.67,1312.81z"/>
		</g>
		<g>
			<path class="st60" d="M1442.21,684.16c-86.57,0-157-70.43-157-157s70.43-157,157-157c86.57,0,157,70.43,157,157
				S1528.78,684.16,1442.21,684.16z M1442.21,378.16c-82.16,0-149,66.84-149,149s66.84,149,149,149c82.16,0,149-66.84,149-149
				S1524.37,378.16,1442.21,378.16z"/>
		</g>
		<g>
			<path class="st60" d="M157,1173.99c-86.57,0-157-70.43-157-157s70.43-157,157-157s157,70.43,157,157S243.57,1173.99,157,1173.99z
				 M157,867.99c-82.16,0-149,66.84-149,149s66.84,149,149,149s149-66.84,149-149S239.16,867.99,157,867.99z"/>
		</g>
		<g>
			<path class="st60" d="M2971.66,838.32c-92.1,0-167.03-74.93-167.03-167.03c0-92.1,74.93-167.03,167.03-167.03
				c92.1,0,167.03,74.93,167.03,167.03C3138.68,763.39,3063.75,838.32,2971.66,838.32z M2971.66,512.27
				c-87.69,0-159.03,71.34-159.03,159.03s71.34,159.03,159.03,159.03c87.69,0,159.03-71.34,159.03-159.03
				S3059.34,512.27,2971.66,512.27z"/>
		</g>
		<g>
			
				<ellipse transform="matrix(0.145 -0.9894 0.9894 0.145 1271.2932 2424.1699)" class="st30" cx="2038.25" cy="476.53" rx="74.55" ry="74.55"/>
			<path class="st15" d="M2037.52,450.32c0,0-26.03-22.96-44.46-0.9c-25.29,30.28,44.46,68.79,44.46,68.79s71-39.75,46.17-70.38
				C2064.9,424.68,2037.52,450.32,2037.52,450.32z"/>
		</g>
		<g>
			
				<ellipse transform="matrix(0.2411 -0.9705 0.9705 0.2411 295.2339 3425.2207)" class="st30" cx="2337.63" cy="1523.84" rx="74.55" ry="74.55"/>
			<path class="st15" d="M2336.9,1497.64c0,0-26.03-22.96-44.46-0.9c-25.29,30.28,44.46,68.79,44.46,68.79s71-39.75,46.17-70.38
				C2364.29,1471.99,2336.9,1497.64,2336.9,1497.64z"/>
		</g>
		<g>
			
				<ellipse transform="matrix(0.3844 -0.9232 0.9232 0.3844 -963.2717 1421.4501)" class="st30" cx="584.22" cy="1433.02" rx="74.55" ry="74.55"/>
			<path class="st15" d="M583.49,1406.81c0,0-26.03-22.96-44.46-0.9c-25.29,30.28,44.46,68.79,44.46,68.79s71-39.75,46.16-70.38
				C610.87,1381.17,583.49,1406.81,583.49,1406.81z"/>
		</g>
		<g>
			<path class="st30" d="M554.05,1228.4c0,24.51-19.87,44.37-44.37,44.37c-24.51,0-44.37-19.87-44.37-44.37
				c0-24.51,19.87-44.38,44.37-44.38C534.18,1184.03,554.05,1203.89,554.05,1228.4z"/>
			<path class="st15" d="M509.24,1212.8c0,0-15.5-13.67-26.46-0.54c-15.06,18.02,26.46,40.95,26.46,40.95s42.27-23.66,27.48-41.89
				C525.54,1197.54,509.24,1212.8,509.24,1212.8z"/>
		</g>
		<g>
			<path class="st30" d="M1957.98,300.16c0,29.09-23.58,52.66-52.67,52.66c-29.08,0-52.66-23.58-52.66-52.66
				c0-29.09,23.58-52.66,52.66-52.66C1934.4,247.49,1957.98,271.07,1957.98,300.16z"/>
			<path class="st15" d="M1904.8,281.64c0,0-18.39-16.22-31.41-0.64c-17.87,21.39,31.41,48.6,31.41,48.6s50.16-28.08,32.61-49.72
				C1924.15,263.53,1904.8,281.64,1904.8,281.64z"/>
		</g>
		<g>
			<path class="st30" d="M2495.62,1243.72c0,29.09-23.58,52.67-52.66,52.67s-52.66-23.58-52.66-52.67
				c0-29.08,23.58-52.66,52.66-52.66S2495.62,1214.64,2495.62,1243.72z"/>
			<path class="st15" d="M2442.45,1225.21c0,0-18.39-16.22-31.41-0.64c-17.87,21.39,31.41,48.6,31.41,48.6s50.16-28.08,32.61-49.72
				C2461.79,1207.09,2442.45,1225.21,2442.45,1225.21z"/>
		</g>
		<g>
			
				<ellipse transform="matrix(0.9996 -0.0294 0.0294 0.9996 -16.2838 39.0988)" class="st29" cx="1322.66" cy="573.8" rx="74.55" ry="74.55"/>
			<path class="st15" d="M1320.99,524.69c9.67-1.33,18,22.67,17.33,30.33c-0.67,7.67,18-1,27,5.67c9,6.67,6.33,41.33,0,43.67
				c-6.33,2.33-31.88,2.67-40.11-1.67c-8.23-4.33-13.78-3.52-13.78-3.52l-4.24-36.26c0,0,5.13-1.54,10.79-6.54
				S1320.99,524.69,1320.99,524.69z M1277.99,609.69c2.33,2,28.67,8.33,30-5c1.33-13.33-5.33-41.67-5.33-41.67
				s-18.32-0.92-24.67,2.32C1275.55,566.6,1275.66,607.69,1277.99,609.69z"/>
		</g>
		<g>
			
				<ellipse transform="matrix(0.381 -0.9246 0.9246 0.381 -1171.0946 1666.222)" class="st29" cx="658.76" cy="1707.67" rx="74.55" ry="74.55"/>
			<path class="st15" d="M657.1,1658.56c9.67-1.33,18,22.67,17.33,30.33c-0.67,7.67,18-1,27,5.67c9,6.67,6.33,41.33,0,43.67
				s-31.88,2.67-40.11-1.67c-8.23-4.33-13.78-3.52-13.78-3.52l-4.24-36.26c0,0,5.13-1.54,10.79-6.54
				C659.76,1685.23,657.1,1658.56,657.1,1658.56z M614.1,1743.56c2.33,2,28.67,8.33,30-5c1.33-13.33-5.33-41.67-5.33-41.67
				s-18.32-0.92-24.67,2.32C611.65,1700.47,611.76,1741.56,614.1,1743.56z"/>
		</g>
		<g>
			<path class="st29" d="M2754.99,1125.12c0,37.74-30.59,68.33-68.33,68.33s-68.33-30.59-68.33-68.33
				c0-37.74,30.59-68.33,68.33-68.33S2754.99,1087.38,2754.99,1125.12z"/>
			<path class="st15" d="M2685.13,1080.11c8.86-1.22,16.5,20.78,15.89,27.81c-0.61,7.03,16.5-0.92,24.75,5.19
				c8.25,6.11,5.8,37.89,0,40.03c-5.81,2.14-29.22,2.44-36.76-1.53c-7.54-3.97-12.63-3.23-12.63-3.23l-3.89-33.24
				c0,0,4.7-1.42,9.89-6C2687.57,1104.55,2685.13,1080.11,2685.13,1080.11z M2645.71,1158.02c2.14,1.83,26.28,7.64,27.5-4.58
				c1.22-12.22-4.89-38.19-4.89-38.19s-16.8-0.85-22.61,2.13C2643.47,1118.52,2643.57,1156.19,2645.71,1158.02z"/>
		</g>
		<g>
			
				<ellipse transform="matrix(0.1961 -0.9806 0.9806 0.1961 24.2792 1794.58)" class="st29" cx="1106.66" cy="882.48" rx="57.87" ry="57.87"/>
			<path class="st15" d="M1105.36,844.37c7.5-1.03,13.97,17.6,13.46,23.55c-0.52,5.95,13.97-0.78,20.96,4.4
				c6.99,5.17,4.92,32.08,0,33.9c-4.92,1.81-24.75,2.07-31.13-1.29c-6.39-3.36-10.7-2.74-10.7-2.74l-3.29-28.15
				c0,0,3.98-1.2,8.38-5.08C1107.43,865.07,1105.36,844.37,1105.36,844.37z M1071.98,910.35c1.81,1.55,22.25,6.47,23.29-3.88
				c1.04-10.35-4.14-32.34-4.14-32.34s-14.22-0.72-19.15,1.8C1070.09,876.89,1070.17,908.79,1071.98,910.35z"/>
		</g>
		<g>
			
				<ellipse transform="matrix(0.7071 -0.7071 0.7071 0.7071 -585.7352 466.6658)" class="st38" cx="270.45" cy="940.38" rx="74.55" ry="74.55"/>
			<path class="st15" d="M234.89,979.88c-11.01-65.87,39.41-67.49,39.41-67.49v-19.52l39.95,39.95l-38.49,38.49v-22.33
				c0,0-19.35,0.81-26.67,11.38C241.77,970.94,234.89,979.88,234.89,979.88z"/>
		</g>
		<g>
			
				<ellipse transform="matrix(0.7071 -0.7071 0.7071 0.7071 -762.8489 1555.2295)" class="st38" cx="1495.9" cy="1698.45" rx="74.55" ry="74.55"/>
			<path class="st15" d="M1460.34,1737.96c-11.01-65.87,39.41-67.49,39.41-67.49v-19.52l39.95,39.95l-38.49,38.49v-22.33
				c0,0-19.35,0.81-26.67,11.38C1467.23,1729.01,1460.34,1737.96,1460.34,1737.96z"/>
		</g>
		<g>
			<circle class="st60" cx="1181.77" cy="356.98" r="20"/>
			<circle class="st60" cx="1181.77" cy="446.98" r="20"/>
			
				<ellipse transform="matrix(0.3827 -0.9239 0.9239 0.3827 310.4345 1271.6188)" class="st60" cx="1106.77" cy="403.51" rx="20" ry="20"/>
			<g>
				<path class="st60" d="M1181.77,450.98c-0.68,0-1.37-0.17-2-0.54l-75-43.47c-1.22-0.7-1.97-2-1.99-3.4
					c-0.02-1.41,0.7-2.72,1.89-3.46l75-46.53c1.88-1.16,4.34-0.59,5.51,1.29c1.16,1.88,0.59,4.34-1.29,5.51l-69.33,43.01
					l69.23,40.13c1.91,1.11,2.56,3.56,1.46,5.47C1184.49,450.27,1183.15,450.98,1181.77,450.98z"/>
			</g>
		</g>
		<g>
			<circle class="st60" cx="3111.11" cy="884.67" r="20"/>
			<circle class="st60" cx="3111.11" cy="974.67" r="20"/>
			<circle class="st60" cx="3036.11" cy="931.2" r="20"/>
			<g>
				<path class="st60" d="M3111.11,978.67c-0.68,0-1.37-0.17-2-0.54l-75-43.47c-1.22-0.71-1.97-2-1.99-3.4
					c-0.02-1.4,0.7-2.72,1.89-3.46l75-46.53c1.88-1.16,4.34-0.59,5.51,1.29c1.16,1.88,0.59,4.34-1.29,5.51l-69.33,43.01l69.23,40.13
					c1.91,1.11,2.56,3.56,1.46,5.47C3113.83,977.96,3112.49,978.67,3111.11,978.67z"/>
			</g>
		</g>
		<g>
			<path class="st22" d="M2669.45,349.08h-31.58c-6.67,0-12.08,5.41-12.08,12.08v26.01c0,6.67,5.41,12.08,12.08,12.08h31.58
				c6.67,0,12.08-5.41,12.08-12.08v-26.01C2681.53,354.48,2676.12,349.08,2669.45,349.08z"/>
			<path class="st22" d="M2770.78,349.08h-31.58c-6.67,0-12.08,5.41-12.08,12.08v26.01c0,6.67,5.41,12.08,12.08,12.08h31.58
				c6.67,0,12.08-5.41,12.08-12.08v-26.01C2782.86,354.48,2777.45,349.08,2770.78,349.08z"/>
			<path class="st22" d="M2872.11,349.08h-31.58c-6.67,0-12.08,5.41-12.08,12.08v26.01c0,6.67,5.41,12.08,12.08,12.08h31.58
				c6.67,0,12.08-5.41,12.08-12.08v-26.01C2884.19,354.48,2878.78,349.08,2872.11,349.08z"/>
		</g>
	</g>
</g>
</svg>
