<?xml version="1.0" encoding="utf-8"?>
<!-- Generator: Adobe Illustrator 25.0.0, SVG Export Plug-In . SVG Version: 6.00 Build 0)  -->
<svg version="1.1" xmlns="http://www.w3.org/2000/svg" xmlns:xlink="http://www.w3.org/1999/xlink" x="0px" y="0px"
	 viewBox="0 0 2120.7 2024.69" style="enable-background:new 0 0 2120.7 2024.69;" xml:space="preserve">
<style type="text/css">
	.st0{fill:url(#SVGID_1_);}
	.st1{opacity:0.25;}
	.st2{fill:url(#SVGID_2_);}
	.st3{fill:url(#SVGID_3_);}
	.st4{fill:url(#SVGID_4_);}
	.st5{fill:#A6D9F1;}
	.st6{fill:#B77446;}
	.st7{fill:#365DA4;}
	.st8{fill:#285493;}
	.st9{fill:#AA443E;}
	.st10{fill:#D9935C;}
	.st11{fill:#80BDCC;}
	.st12{fill:#5F9AA8;}
	.st13{fill:#A86337;}
	.st14{fill:#CA5F00;}
	.st15{fill:#E69D43;}
	.st16{fill:#CC7C46;}
	.st17{fill:#FFFFFF;}
	.st18{opacity:0.4;fill:#CA5F00;}
	.st19{clip-path:url(#SVGID_6_);fill:#D5E7F7;}
	.st20{clip-path:url(#SVGID_6_);fill:#C4D9ED;}
	.st21{clip-path:url(#SVGID_6_);}
	.st22{fill:#415DA5;}
	.st23{fill:#355493;}
	.st24{fill:#163560;}
	.st25{fill:#EBBA56;}
	.st26{fill:#E7A329;}
	.st27{fill:#E58638;}
	.st28{fill:#9E3A38;}
	.st29{fill:#DB772C;}
	.st30{fill:#D5E7F7;}
	.st31{fill:#C4D9ED;}
	.st32{fill:#3B76CA;}
	.st33{fill:#699DEE;}
	.st34{fill:#CFF1FF;}
	.st35{fill:#E49963;}
	.st36{fill:#B74B42;}
	.st37{fill:#D68D5D;}
	.st38{fill:#C45446;}
	.st39{fill:#E37970;}
	.st40{fill:#D6716B;}
	.st41{fill:#B84C42;}
	.st42{fill:#283250;}
</style>
<g id="_x3C_Layer_x3E_">
	<linearGradient id="SVGID_1_" gradientUnits="userSpaceOnUse" x1="2870.0576" y1="875.246" x2="2870.0576" y2="875.246">
		<stop  offset="0" style="stop-color:#F31E61"/>
		<stop  offset="1" style="stop-color:#7094FB"/>
	</linearGradient>
	<path class="st0" d="M2870.06,875.25"/>
</g>
<g id="Слой_2">
	<g>
		<g class="st1">
			<linearGradient id="SVGID_2_" gradientUnits="userSpaceOnUse" x1="974.8126" y1="1881.25" x2="974.8126" y2="0">
				<stop  offset="0" style="stop-color:#7094FB"/>
				<stop  offset="1" style="stop-color:#F31E61"/>
			</linearGradient>
			<path class="st2" d="M1366.53,1879.98c437.04-13.87,619.28-462.81,577.21-970.59C1611.19-501.89,473.21,150.61,473.21,150.61
				C363.92,220.05,281.13,304.78,216.4,382.3c-260.29,311.7-293.26,838.54-58.03,1108.41
				C393.61,1760.57,862.87,1895.96,1366.53,1879.98z"/>
		</g>
		<g class="st1">
			<linearGradient id="SVGID_3_" gradientUnits="userSpaceOnUse" x1="1166.92" y1="2024.6918" x2="1166.92" y2="137.2487">
				<stop  offset="0" style="stop-color:#7094FB"/>
				<stop  offset="1" style="stop-color:#F31E61"/>
			</linearGradient>
			<path class="st3" d="M866.56,1964.93c369.73,157.43,881.98-19.14,1069.78-262.64c179.92-233.3,223.77-1014.36,28.78-1256.87
				C1587.52,3.1,914.41,162.71,879.7,176.38C456.61,343.03,151.05,728.73,265.39,1244.82
				C365.34,1695.96,649.33,1872.44,866.56,1964.93z"/>
		</g>
		<g class="st1">
			<linearGradient id="SVGID_4_" gradientUnits="userSpaceOnUse" x1="309.6302" y1="1748.363" x2="1926.3904" y2="391.7402">
				<stop  offset="0" style="stop-color:#F31E61"/>
				<stop  offset="1" style="stop-color:#7094FB"/>
			</linearGradient>
			<path class="st4" d="M2040.52,1207.78c2.2-6.13,4.44-12.49,4.44-12.49c101.21-275.26,77.48-441.05,60.64-511.26
				c-16.84-70.21-38.25-121.1-44.07-129.12c-20.37-36.54-138.51-135.96-256.16-187.63C1406.51,192.06,443.61,315.2,164.34,861.66
				c-226.35,442.89,58.53,966.08,506.27,1132.58c0,0,151.6,30.45,283.67,0C1091.33,1963.44,1741.68,1881.25,2040.52,1207.78z"/>
		</g>
		<g>
			<path class="st5" d="M1573.85,1546.37c0,0,143.48-3.41,204.79-90.24c111.07-157.31,61.02-295.26-136.73-284.99
				c-221.21,11.49-253.78-400.46-636.82-165.68c-83.17,50.98-382.84-72.45-367.52,76.99c4.94,48.17-40.5,56.68-190.65,112.65
				c-140.17,52.25-55.3,352.39,71.19,353.51C644.6,1549.72,1573.85,1546.37,1573.85,1546.37z"/>
			<g>
				<path class="st6" d="M518.04,1541.84c0.43,5.27,7.87,5.28,16.32,4.23c8.44-1.04,6.21,1.11,18.05,1.19
					c11.83,0.08,15.88-3.86,16.44-5.56c0.5-1.5-5.21-2.72-11.32-4.16c-0.77-0.18-1.54-0.37-2.31-0.55
					c-6.89-1.7-12.84-5.42-17.39-11.26c-5.13-6.58-9.82-36.52-9.82-36.52l-18.49,3.45c0,0,10.76,25.67,11.87,34.09
					c0.5,3.78-2.19,6.3-2.82,9.6C518.23,1538.14,517.89,1539.98,518.04,1541.84z"/>
				<path class="st7" d="M533.75,1546.87c8.44-1.04,6.82,0.32,18.66,0.4c11.83,0.08,15.88-3.86,16.44-5.56
					c0.5-1.5-5.21-2.72-11.32-4.16l-0.07,0.11c0,0-7.59,4.15-17.34,3.24c-7.95-0.74-16.08-3.99-21.56-4.55
					c-0.34,1.8-0.67,3.64-0.52,5.49C518.47,1547.12,525.31,1547.91,533.75,1546.87z"/>
				<g>
					<path class="st7" d="M534.58,1510.49c0,0-4.84,3.2-9.4,4.03c-6.83,1.24-10-0.14-10-0.14s-32.86-82.5-30.98-110.37
						c0.05-0.67,0.07-1.38,0.08-2.14c0.05-4.84-0.64-11.28-1.84-18.7c-0.44-2.72-0.95-5.57-1.52-8.52
						c-1.32-6.87-2.95-14.29-4.74-21.85c-0.79-3.33-1.61-6.69-2.45-10.04c-8.26-32.98-18.35-65.49-18.35-65.49
						s59.29-19.37,62.64-1.27c1.29,6.95,5.57,34.74,3.64,77.25c-1.56,34.21-0.55,60.9,2.41,91.87
						C526.67,1472.33,531.11,1495.73,534.58,1510.49z"/>
				</g>
				<path class="st8" d="M484.28,1401.88c0.05-4.84-0.64-11.28-1.84-18.7c-0.44-2.72-0.95-5.57-1.52-8.52
					c-1.32-6.87-2.95-14.29-4.74-21.85c-0.79-3.33-1.61-6.69-2.45-10.04c1.17-10.06,2.12-16.97,2.12-16.97
					S500.46,1359.24,484.28,1401.88z"/>
				<path class="st6" d="M443.25,1541.84c0.43,5.27,7.87,5.28,16.32,4.23c8.44-1.04,6.21,1.11,18.05,1.19
					c11.83,0.08,15.88-3.86,16.44-5.56c0.5-1.5-5.21-2.72-11.32-4.16c-0.77-0.18-1.54-0.37-2.31-0.55
					c-6.89-1.7-11.48-6.81-17.39-11.26c-5.6-4.21-1.68-24.66-1.68-24.66l-17.39-6.21c0,0,2.62,20.56,2.62,31.88
					c0,3.81-2.19,6.3-2.82,9.6C443.43,1538.14,443.09,1539.98,443.25,1541.84z"/>
				<path class="st7" d="M458.64,1546.92c8.44-1.04,7.14,0.26,18.97,0.34c11.83,0.08,15.88-3.86,16.44-5.56
					c0.5-1.5-5.21-2.72-11.32-4.16l-0.07,0.11c0,0-7.59,4.15-17.34,3.24c-7.95-0.74-16.08-3.99-21.56-4.55
					c-0.34,1.8-0.67,3.64-0.52,5.49C443.67,1547.12,450.2,1547.97,458.64,1546.92z"/>
				<path class="st7" d="M491.09,1270.83c0,0-19.29,96.14-22.55,148.46c-3.26,52.32-7.33,95.64-7.33,95.64s-4.21,1.52-9.04,1.24
					c-5.1-0.29-9.14-1.86-9.14-1.86s-19.12-78.72-12.79-110.24c6.33-31.51,1.06-60.58-1.98-86.71
					c-4.36-37.48,12.41-54.9,24.12-66.77C464.23,1238.57,491.09,1270.83,491.09,1270.83z"/>
				<path class="st9" d="M504.76,1094.74c1.92-15.65-2.97-40.7-34.21-36.7c-31.24,4-41.08,34.7-34.78,48.36
					c6.3,13.65-9.07,16.94-13.9,31.62c-4.14,12.61-5.59,28.27-12.3,35.3c-21.63,22.66,20.76,57.5,46.32,50.15
					c46.55-13.38,52.54-15.38,50.89-51.95c-0.85-18.74-15.43-26-6.17-31.42C522.97,1127.01,500.42,1130.16,504.76,1094.74z"/>
				<path class="st10" d="M495.3,1145.01l-9.24,13.86l-18.62-0.92l-8.6-22.23c0,0,2.65-0.5,3.89-28.22l23.24,7.09
					c0,0-1.24,7.23,0.41,15.1C487.53,1135.17,490.04,1141.03,495.3,1145.01z"/>
				<path class="st10" d="M497.89,1135.23c-1.2,0-23.09-7.32-54.34,5.41c0,0,14.84,84.9,8.46,101.1c-6.37,16.2-8.8,30.58-8.8,30.58
					l69.15,0.86c0,0-0.97-55.61,2.22-75.3C517.78,1178.2,497.89,1135.23,497.89,1135.23z"/>
				<path class="st11" d="M612.74,1192.35c-0.21-2.42-0.97-2.97-0.97-2.97c-22.11,3.25-36.76,3.06-43.94,4.46
					c-5.64,1.09-7.94,1.25-8.91-0.12c-30.54-42.94-52.16-56.43-52.16-56.43s-2.31-1.37-11.32-2.61c0,0-1.3,16.33-9.69,17.72
					c-14.52,2.39-25.37-10.91-28.78-16.26c0,0-17.51,4.22-22.4,9.79c-3.51,4.01-3.06,13.6-2.01,19.62c0.33,1.91,0.72,3.47,1.06,4.37
					c1.03,2.73,4.93,22.75,6.72,30.72c0.04,0.2,0.08,0.39,0.12,0.56c0.12,0.53,0.23,1,0.33,1.39c0,0.01,0,0.02,0.01,0.03
					c0.1,0.43,0.19,0.76,0.26,0.97c0.04,0.13,0.08,0.26,0.12,0.39c0,0.01,0,0.02,0.01,0.03c2.57,8.2,4.12,16.55,3.21,26.8
					c-0.11,1.2-0.38,2.66-0.79,4.29c-2.32,11.91-11.97,35.38-13.98,46.16c1.16,2.43,3.77,4.36,6.96,5.9c4.15,2,9.26,3.34,13.32,4.27
					c3.15,0.72,7.99,1.54,13.57,2.16c2.96,0.33,6.13,0.61,9.36,0.8c0.46,0.03,0.91,0.05,1.36,0.08c20.83,1.03,44.16,0.52,47.2-9.38
					c1.46-4.75-4.35-33.32-5.13-41.81c-1.35-14.91,0.85-35.33,1.85-51.15c17.1,18.84,34.74,25.61,34.74,25.61
					c4.22-0.2,9.09-0.99,14.18-2.13c5.47-1.22,11.19-2.84,16.67-4.58c15.48-4.9,30.04-11.76,30.04-11.76
					S613.2,1197.69,612.74,1192.35z"/>
				<path class="st12" d="M488.98,1262.55c-3.95,13.38-6.24,24.4-16.15,31.85c-3.23-0.19-6.4-0.47-9.36-0.8
					c-5.58-0.63-10.42-1.44-13.57-2.16c-4.07-0.93-9.17-2.27-13.32-4.27c-3.18-1.54-5.8-3.46-6.96-5.9
					c2-10.78,11.65-34.25,13.98-46.16c0.23-1.16,0.39-2.21,0.46-3.12c0.86-10.66-0.52-19.43-2.87-27.97c0-0.01-0.01-0.02-0.01-0.03
					c-0.13-0.45-0.26-0.91-0.38-1.36c0-0.01,0-0.02-0.01-0.03c-0.08-0.29-0.19-0.77-0.33-1.39c-0.04-0.17-0.08-0.36-0.12-0.56
					c-1.59-7.55-5.75-31.25-6.81-34.34c-0.34-0.98-0.71-2.65-1.04-4.72l8.33-8.01c0,0,47.77,20.4,58.29,48.53
					C509.62,1230.24,494.64,1243.35,488.98,1262.55z"/>
				<path class="st12" d="M583.69,1211.03c-10.57,3.35-22.08,6.29-30.84,6.71c0,0-17.54-6.49-34.74-25.61
					c-0.72-3.25-1.77-9.08,2.17-7.51c5.52,2.21,25.95,28.43,33.67,28.98C559.49,1214,575.21,1212.13,583.69,1211.03z"/>
				<path class="st11" d="M545.97,1203.57c0,0-23.55,11.83-43.96,16.72c-5.87,1.41-11.53,2.41-16.36,2.63
					c0,0-21.95-6.75-38.71-30.22c-32.36-45.33-7.38-50.22-7.38-50.22s21.62,13.49,52.16,56.43c1.07,1.5,3.75,1.16,10.7-0.24
					c7.42-1.5,22.19-1.32,42.57-4.31c0,0,0.34,0.76,0.55,3.17C545.99,1202.87,545.97,1203.57,545.97,1203.57z"/>
				<path class="st13" d="M613.73,1199.27c0,0-14.56,6.86-30.04,11.76c-5.48,1.74-11.2,3.36-16.67,4.58
					c-2.19-9.76-0.68-17.36,0.81-21.77c7.18-1.4,22.52-1.49,44.63-4.74L613.73,1199.27z"/>
				<path class="st13" d="M606.95,1190.48c0,0,5.59-1.09,10.25-3.42s17.09-3.88,19.73-1.4c2.64,2.49-2.8,12.58-14.14,12.89
					c-11.34,0.31-14.6,2.17-14.6,2.17L606.95,1190.48z"/>
				<g>
					<path class="st14" d="M627.11,1156.09l-63.22,12.29c-2.77,0.54-5.03,3.24-5.03,6.01v43.69c0,2.77,2.26,4.59,5.03,4.05
						l63.22-12.29c2.77-0.54,5.03-3.24,5.03-6.01v-43.69C632.14,1157.37,629.88,1155.55,627.11,1156.09z"/>
					<path class="st15" d="M629.63,1156.09l-63.22,12.29c-2.77,0.54-5.03,3.24-5.03,6.01v43.69c0,2.77,2.26,4.59,5.03,4.05
						l63.22-12.29c2.77-0.54,5.03-3.24,5.03-6.01v-43.69C634.66,1157.37,632.39,1155.55,629.63,1156.09z"/>
					<path class="st14" d="M567.45,1171.79c-1.14,0.22-2.07,1.33-2.07,2.47c0,1.14,0.92,1.89,2.07,1.67
						c1.14-0.22,2.07-1.33,2.07-2.47C569.52,1172.31,568.6,1171.57,567.45,1171.79z"/>
				</g>
				<path class="st6" d="M574.5,1189.03c-2.82-2.65-16.09-0.99-21.06,1.49c-2.91,1.45-6.16,2.45-8.35,3.03
					c0-0.02-0.01-0.03-0.01-0.03c-20.39,2.99-35.26,3.64-42.68,5.14c2.32,5.01,4.07,12.76-0.41,21.62
					c19.5-4.67,42.34-15.1,44.36-16.03c2.29-0.58,6.34-1.27,13.05-1.46C571.52,1202.46,577.32,1191.69,574.5,1189.03z"/>
				<path class="st16" d="M486.38,1129.68c-9.61-0.78-23.65-22.19-23.65-22.19l23.24,7.09
					C485.97,1114.59,484.74,1121.82,486.38,1129.68z"/>
				<path class="st10" d="M492.06,1116.16c0,0-27.83,5.59-31.04-11.79c-3.21-17.38-8.97-28.37,8.66-32.67
					c17.63-4.3,22.32,1.69,24.8,7.23C496.97,1084.47,499.21,1114.26,492.06,1116.16z"/>
				<path class="st9" d="M494.83,1068.58c-13.73-13.53-26.38-6.76-24.36-4.04c-4.76,0.15-10.69,1.46-14.94,6.23
					c-8.23,9.26,7.13,38.19,7.13,38.19s-2.11-17.78,7.04-27.78c3.63-3.97,5.74-7.28,6.97-9.85c1.92,1.64,4.04,3.03,6.3,3.83
					c8.85,3.11,13.72,17.35,13.72,17.35C499.85,1085.87,500.75,1074.41,494.83,1068.58z"/>
				<path class="st17" d="M483.39,1107.61c0,0,0.74,2.06,5.98,1.13c0,0,4.4-0.79,3.99-3.1
					C493.37,1105.63,488.88,1104.47,483.39,1107.61z"/>
			</g>
			<g>
				<g>
					<path class="st14" d="M1034.92,823.53H693c-10.72,0-19.49,8.77-19.49,19.49v683.76c0,10.72,8.77,19.49,19.49,19.49h341.92
						c10.72,0,19.49-8.77,19.49-19.49V843.02C1054.41,832.3,1045.64,823.53,1034.92,823.53z"/>
					<path class="st15" d="M1071.84,823.53H729.92c-10.72,0-19.49,8.77-19.49,19.49v683.76c0,10.72,8.77,19.49,19.49,19.49h341.92
						c10.72,0,19.49-8.77,19.49-19.49V843.02C1091.33,832.3,1082.56,823.53,1071.84,823.53z"/>
					<g>
						<path class="st18" d="M956.7,850.89h-99.02c-2.12,0-3.85,1.73-3.85,3.85l0,0c0,2.12,1.73,3.85,3.85,3.85h99.02
							c2.12,0,3.85-1.73,3.85-3.85l0,0C960.55,852.62,958.82,850.89,956.7,850.89z"/>
						<path class="st18" d="M840.1,850.89c-2.12,0-3.85,1.73-3.85,3.85l0,0c0,2.12,1.73,3.85,3.85,3.85c2.12,0,3.85-1.73,3.85-3.85
							l0,0C843.95,852.62,842.22,850.89,840.1,850.89z"/>
					</g>
					<path class="st18" d="M905.59,1481.49c-13.72,0-24.85,11.12-24.85,24.85c0,13.72,11.12,24.85,24.85,24.85
						c13.72,0,24.85-11.12,24.85-24.85C930.44,1492.62,919.32,1481.49,905.59,1481.49z"/>
				</g>
				<g>
					<g>
						<defs>
							<rect id="SVGID_5_" x="742.13" y="880.84" width="316.69" height="584.59"/>
						</defs>
						<use xlink:href="#SVGID_5_"  style="overflow:visible;fill:#A6D9F1;"/>
						<clipPath id="SVGID_6_">
							<use xlink:href="#SVGID_5_"  style="overflow:visible;"/>
						</clipPath>
						<rect x="742.13" y="880.84" class="st19" width="316.69" height="80.36"/>
						
							<ellipse transform="matrix(0.2298 -0.9732 0.9732 0.2298 -291.9071 1471.6141)" class="st20" cx="783.78" cy="920.23" rx="25.52" ry="25.52"/>
						<path class="st20" d="M979.89,919.3H831.56c-4.93,0-8.97-4.04-8.97-8.97l0,0c0-4.93,4.04-8.97,8.97-8.97h148.33
							c4.93,0,8.97,4.04,8.97,8.97l0,0C988.86,915.27,984.82,919.3,979.89,919.3z"/>
						<path class="st20" d="M916.77,940.92h-89.24c-2.97,0-5.4-2.43-5.4-5.4l0,0c0-2.97,2.43-5.4,5.4-5.4h89.24
							c2.97,0,5.4,2.43,5.4,5.4l0,0C922.17,938.49,919.74,940.92,916.77,940.92z"/>
						<g class="st21">
							<path class="st10" d="M1015.06,1178.44c0,0-2.77-13.37,1.66-16.96c4.42-3.59,17.82-16.01,20.33-14.59
								c2.51,1.42,6.62,9.85,5.27,14.79c-1.34,4.94-18.23,22.81-18.23,22.81L1015.06,1178.44z"/>
							<g>
								<path class="st22" d="M927.06,1360.02c-1.41,27.46-6.2,66.63-9.75,106.23h-60.05c-1.29-10.62-3.17-20.96-5.24-31.07
									c-3.36-16.37-7.23-32.11-9.95-47.34c-5.46-30.66-4.44-54.62,0.29-73.22c4.06-15.97,10.85-27.97,18.62-36.88
									c17.03-19.5,64.43,18.61,64.43,18.61S928.46,1332.72,927.06,1360.02z"/>
							</g>
							<path class="st23" d="M899.79,1368.74c0,0-0.01,0.2-0.04,0.57c-0.43,5.63-4.21,51.76-16.08,96.93h-26.41
								c-1.29-10.62-3.17-20.96-5.24-31.07c4.5-26.48,8.78-47.52,8.78-47.52L899.79,1368.74z"/>
							<path class="st22" d="M903.31,1357.58c-0.65,2.6-1.91,6.72-3.56,11.74c-6.77,20.58-20.06,56.35-23.84,65.29
								c-4.43,10.46-8.6,21.04-12.54,31.65h-65.71c1.36-25.49,1.69-78.42,2.92-92.52c4.94-56.66,15.66-62.18,15.66-62.18l26.14,3.07
								l60.9,7.15C903.27,1321.77,913.27,1317.45,903.31,1357.58z"/>
							<path class="st24" d="M914.31,1050.94c2.94-24.01-4.56-62.43-52.48-56.29c-47.92,6.14-63.02,53.23-53.36,74.17
								c9.66,20.94-13.91,25.99-21.31,48.51c-6.36,19.34-8.57,43.36-18.86,54.14c-33.17,34.75,31.85,88.2,71.05,76.93
								c71.4-20.53,80.59-23.59,78.06-79.69c-1.3-28.74-23.66-39.88-9.46-48.2C942.24,1100.43,907.65,1105.27,914.31,1050.94z"/>
							<path class="st10" d="M899.81,1128.01l-14.22,21.3l-28.51-1.39l-13.19-34.13c0,0,2.46-0.45,4.47-20.73
								c0.49-5.33,0.98-12,1.43-20.4c0,0-0.04-0.04,0-0.08c0-0.7,0.04-1.39,0.08-2.09l3.69,1.11l31.95,9.75c0,0-0.16,1.07-0.37,2.91
								c-0.37,4.06-0.74,11.84,0.94,20.16C887.8,1112.86,891.65,1121.87,899.81,1128.01z"/>
							<path class="st10" d="M899.9,1112.58c-1.83,0-32.95-6.33-85.51,7.11c0,0,28.78,131.87,19.01,156.72
								c-9.78,24.85-13.49,46.91-13.49,46.91l106.07,1.32c0,0-1.48-85.31,3.41-115.5C934.27,1178.95,899.9,1112.58,899.9,1112.58z"
								/>
							<path class="st25" d="M1014.52,1165.13c0,0-33.88,45.97-39.86,45.51c-6.43-0.53-22.57-57.64-34.78-78.7
								c-8.56-14.7-38.04-19.09-39.96-19.36c0,0,0,0-0.01,0v0c-0.06-0.01-0.09-0.01-0.09-0.01l0.07,0.29
								c-0.25,2.72-2.66,24.53-14.73,26.52c-22.26,3.67-40.2-16.72-45.44-24.93c0,0-25.57,6.45-33.07,15.01
								c-7.11,8.1,2.62,68.11,4.78,73.86c1.87,4.94,3.63,9.76,5.17,14.6c4.06,12.78,6.55,25.76,5.12,41.75
								c-1.55,17.46-17.86,57.34-14.33,65.84c3.7,8.92,8.83,13.44,20.07,16.02c7.75,1.79,18.39,2.65,33.46,3.4
								c31.96,1.59,66.2-2.43,70.86-17.62c2.24-7.29,1.37-35.5,0.19-48.53c-1.55-17.12-0.05-38.97,1.44-59.04
								c0.07,0.11,0.14,0.22,0.22,0.33c0,0,0,0.04,0.04,0.04c3.44,5.29,7.41,10.94,11.47,16.22c6.15,7.91,12.54,14.83,17.99,18.03
								c1.35,0.78,2.62,1.31,3.81,1.6c3.61,0.86,10.69,0.86,17.58-3.07c1.11-0.61,2.25-1.39,3.36-2.25
								c20.07-15.94,37.94-65.71,37.94-65.71C1027.71,1173.32,1014.52,1165.13,1014.52,1165.13z"/>
							<path class="st26" d="M807.37,1325.51c3.7,8.92,8.83,13.44,20.07,16.02c15.02-2.89,24.93-30.53,30.03-44.13
								c5.88-15.68-18.31-89.2-26.77-88.46c-6.28,0.54-12.28,9.27-12.49,14.51c4.06,12.78,4.91,20.24,3.48,36.22
								C820.15,1277.13,803.84,1317.01,807.37,1325.51z"/>
							<path class="st26" d="M984.49,1252.88c-6.88,3.93-13.97,3.93-17.58,3.07c-1.19-0.29-2.46-0.82-3.81-1.6
								c-5.45-3.19-11.84-10.12-17.99-18.03c-4.06-5.28-8.03-10.94-11.47-16.22c0.78-2.87,3.6-4.22,12.74,5.16
								c15.36,15.77,18.19,26.34,27.94,27.16C977.69,1252.72,981.09,1252.88,984.49,1252.88z"/>
							<path class="st16" d="M886.08,1104.42c-10.12,2.79-34.82-29.78-36.3-31.75c-0.04-0.04-0.08-0.08-0.08-0.08h0.08l3.77-0.98
								l31.95,9.75c0,0-0.16,1.07-0.37,2.91C884.77,1088.32,884.4,1096.1,886.08,1104.42z"/>
							<path class="st10" d="M894.82,1083.79c0,0-42.68,8.57-47.61-18.09c-4.93-26.66-13.76-43.51,13.29-50.11
								c27.04-6.6,34.23,2.59,38.04,11.09C902.35,1035.17,905.8,1080.87,894.82,1083.79z"/>
							<path class="st24" d="M899.08,1010.81c-21.06-20.75-39.48-8.59-34.9-3.04c-7.59-0.13-18.01,1.46-25.23,9.58
								c-12.62,14.2,10.43,62.34,10.43,62.34s-2.74-31.03,11.3-46.38c6.69-7.31,10.02-13.19,11.67-17.35
								c2.64,2.1,5.51,3.87,8.53,4.93c13.58,4.77,21.04,26.62,21.04,26.62C906.78,1037.32,908.15,1019.75,899.08,1010.81z"/>
							<path class="st10" d="M848.98,1283.05l9.51,4.58c4.21,1.24,5.85,2.38,8.38,2.1c6.1-0.68,18.42-0.3,26.93,11.6
								c0,0,4.31,7.06-1.81,7.79c-6.11,0.73-3.94-0.37-12.52,0.83c-8.58,1.2-17.23-6.9-19.92-9.83l-9.96-3.65L848.98,1283.05z"/>
							<path class="st25" d="M839.7,1114.45c0,0-25.23,1-36.93,11.88c-13.23,12.31-36.95,86.97-36.95,133.86
								c0,0-0.48,25.83,89.38,43.23c0,0,4.3-3.57,5.92-7.01c2.86-6.1,2.86-10.29,2.86-10.29s-52.69-29.88-54.58-39.29
								C806.87,1234.27,842.94,1185.38,839.7,1114.45z"/>
						</g>
					</g>
					<g>
						<path class="st9" d="M1122.8,1115.01c0,0-74.4-14.85-163.38-13.65l-5.15-24.25l-5.65-26.57c0,0,92.96-22.55,153.86-65.61
							L1122.8,1115.01z"/>
						<path class="st27" d="M1122.8,1115.01L1122.8,1115.01c6.58-0.75,11.14-6.79,9.98-13.23l-20.04-111.06
							c-0.97-5.38-4.88-7.09-10.25-5.78L1122.8,1115.01z"/>
						<path class="st28" d="M1036.42,1103.97c51.06,3.99,86.38,11.04,86.38,11.04s-84.64-40.65-168.53-37.89l5.15,24.25
							c15.77-0.21,31.08,0.08,45.6,0.7c-0.03,0.45-0.04,0.9-0.02,1.35l2.2,76.46c0.25,8.63,7.51,15.49,16.14,15.24l0,0
							c8.63-0.25,15.49-7.51,15.24-16.14L1036.42,1103.97z"/>
						<path class="st27" d="M983.93,1101.43l-24.07,0.19c0.35,0.07-22.44,0.65-26.3-20.33c-0.43-1.46-0.63-2.87-0.66-4.5
							c-1.42-25.58,12.73-27.84,12.73-27.84l32.09-6.73l3.73,35.78c0,0,0,0-0.02,0.12L983.93,1101.43z"/>
						<path class="st29" d="M983.93,1101.43l-24.07,0.19c0.35,0.07-22.44,0.65-26.3-20.33c14.87-7.47,47.89-3.29,47.89-3.29
							s0,0-0.02,0.12L983.93,1101.43z"/>
					</g>
				</g>
				<g>
					<rect x="742.13" y="1373.22" class="st30" width="316.69" height="92.25"/>
					<g>
						<path class="st31" d="M1034.75,1400.13h-269.6c-3,0-5.46-2.46-5.46-5.45l0,0c0-3,2.46-5.46,5.46-5.46h269.6
							c3,0,5.46,2.45,5.46,5.46l0,0C1040.2,1397.68,1037.75,1400.13,1034.75,1400.13z"/>
						<path class="st31" d="M1034.75,1420.14h-269.6c-3,0-5.46-2.46-5.46-5.46l0,0c0-3,2.46-5.46,5.46-5.46h269.6
							c3,0,5.46,2.46,5.46,5.46l0,0C1040.2,1417.68,1037.75,1420.14,1034.75,1420.14z"/>
						<path class="st31" d="M1034.75,1441.05h-269.6c-3,0-5.46-2.46-5.46-5.46l0,0c0-3,2.46-5.46,5.46-5.46h269.6
							c3,0,5.46,2.45,5.46,5.46l0,0C1040.2,1438.59,1037.75,1441.05,1034.75,1441.05z"/>
					</g>
				</g>
			</g>
			<g>
				<path class="st32" d="M1789.34,1547.98h-395.5c-11.74,0-21.34-9.6-21.34-21.34v-205.96c0-11.74,9.6-21.34,21.34-21.34h395.5
					c11.74,0,21.34,9.6,21.34,21.34v205.96C1810.68,1538.38,1801.08,1547.98,1789.34,1547.98z"/>
				<path class="st33" d="M1768.81,1547.98h-395.5c-11.74,0-21.34-9.6-21.34-21.34v-205.96c0-11.74,9.6-21.34,21.34-21.34h395.5
					c11.74,0,21.34,9.6,21.34,21.34v205.96C1790.15,1538.38,1780.55,1547.98,1768.81,1547.98z"/>
				<rect x="1364.53" y="1310.89" class="st5" width="377.16" height="225.52"/>
				<path class="st32" d="M1767.27,1451.52L1767.27,1451.52c-5.49,0-9.98-4.49-9.98-9.98v-35.77c0-5.49,4.49-9.98,9.98-9.98l0,0
					c5.49,0,9.98,4.49,9.98,9.98v35.76C1777.25,1447.03,1772.76,1451.52,1767.27,1451.52z"/>
				<polygon class="st34" points="1741.68,1310.89 1741.68,1536.41 1480.7,1536.41 1651.63,1310.89 				"/>
				<polygon class="st34" points="1605.46,1310.89 1418.86,1536.41 1393.79,1536.41 1584.74,1310.89 				"/>
				<polygon class="st34" points="1421.43,1310.89 1364.53,1373.7 1364.53,1310.89 				"/>
			</g>
			<g>
				<path class="st35" d="M1558.59,1419.97c0,1.85-0.92,3.13-2.47,3.98c-0.01,0-0.01,0.01-0.02,0.01c-2.87,1.58-7.91,1.74-13.39,1.5
					c-0.7-0.03-1.33-0.05-1.9-0.05c-0.15,0-0.3,0-0.44,0c-0.11,0-0.23,0-0.34,0c-5.42,0.13-4.85,1.76-15.16,2.64
					c-11.75,1-16.08-2.59-16.78-4.23c-0.58-1.39,4.46-2.97,10.09-4.77c0.27-0.09,0.54-0.18,0.82-0.26c0.75-0.24,1.5-0.49,2.25-0.73
					c6.71-2.23,13.31-4.88,14.96-11.67c1.75-7.2-3.51-27.3-3.51-27.3l18.62-2.01c0,0,1.8,21.01,2.97,27.56
					c0.63,3.49,2.22,6.27,3.14,9.27c0.07,0.21,0.13,0.42,0.19,0.63C1558.12,1416.32,1558.6,1418.12,1558.59,1419.97z"/>
				<path class="st28" d="M1558.59,1419.97c0,1.85-0.92,3.13-2.47,3.98c-0.01,0-0.01,0.01-0.02,0.01
					c-3.06,1.41-8.01,1.62-13.38,1.47c-0.7-0.02-1.33-0.02-1.91-0.01c-0.15,0-0.3,0-0.44,0c-0.11,0-0.23,0-0.34,0
					c-5.42,0.13-4.85,1.76-15.16,2.64c-11.75,1-16.08-2.59-16.78-4.23c-0.58-1.39,4.46-2.97,10.09-4.77
					c1.58,0.61,9.12,3.23,18.03,1.54c7.84-1.48,15.63-5.38,21.23-6.68c0.07,0.21,0.13,0.42,0.19,0.63
					C1558.12,1416.32,1558.6,1418.12,1558.59,1419.97z"/>
				<path class="st35" d="M1437.75,1396.2c-1.03,5.17-8.41,4.31-16.64,2.3c-8.24-2.01-6.28,0.38-18-0.92
					c-11.72-1.3-15.27-5.67-15.63-7.41c-0.32-1.55,5.47-2.09,11.68-2.81c0.78-0.09,1.57-0.18,2.35-0.28
					c7.01-0.88,12.15-5.41,18.52-9.12c6.03-3.52,15.04-17.87,15.04-17.87l16.08,1.27c0,0-8.44,12.81-11.7,18.38
					c-1.92,3.28-1.82,7.61-1.58,10.95C1438,1392.52,1438.12,1394.38,1437.75,1396.2z"/>
				<path class="st28" d="M1421.11,1398.5c-8.24-2.01-6.28,0.38-18-0.92c-11.72-1.3-15.27-5.67-15.63-7.41
					c-0.32-1.55,5.47-2.09,11.68-2.81l0.06,0.12c0,0,7.03,4.98,16.79,5.22c7.95,0.19,16.38-2.09,21.87-2
					c0.12,1.82,0.24,3.68-0.12,5.5C1436.72,1401.38,1429.35,1400.51,1421.11,1398.5z"/>
				<path class="st35" d="M1473.52,1160.09c0,0-3.83-9.38-8.04-9.77c-4.21-0.38-17.62-2.49-18.58-0.57c-0.96,1.92,0,8.81,2.87,11.3
					c2.87,2.49,20.68,6.51,20.68,6.51L1473.52,1160.09z"/>
				<path class="st28" d="M1499.36,1293.41l34.65,93.24c0,0,5.32,0.52,10.43-0.95c4.7-1.35,10.08-4.91,10.08-4.91
					s-8.59-89.53-24.35-108.15C1514.4,1254.02,1499.36,1293.41,1499.36,1293.41z"/>
				<path class="st36" d="M1636.4,1255.69c0,0-99.56-33.66-121.76-26.5c-22.2,7.16-88.87,139.79-88.87,139.79s1.5,2,5.61,3.54
					c3.82,1.43,13.07,1.34,13.07,1.34s60.16-51.57,67.33-66.61c7.16-15.04,10.03-29.37,17.19-27.93
					c7.16,1.43,92.39,35.09,111.73,15.04c19.34-20.05,14.28-46.11,14.28-46.11L1636.4,1255.69z"/>
				<path class="st24" d="M1575.56,1099.09c-1.59-3.28-3.37-9.11-4.24-19.51c0.13,1.03,1.93,14.14,6.97,21.56
					c20.7,13.59,60.39,58.98,59.6,67.58c0,0,13.98-23.71,14.22-23.85c0,0,25.79-32.79-4.77-51.57c-15.53-9.55-15.45-21.8-14.8-32.44
					c0.65-10.64-4.24-56.46-35.35-44.47c0,0-4.99-2.22-7.23-1.89c0,0,1.83,0.35,2.76,1.31c-3.61-0.21-8.76,0.05-13.07,2.5
					C1568.23,1024.8,1558.03,1082.95,1575.56,1099.09z"/>
				<path class="st35" d="M1579.51,1101.82c-0.1,0.05,10,5.29,17.59,3.21c7.15-1.95,11.82-11.21,11.72-11.24
					c-3.03-0.6-3.9-4.76-3.83-22.63l-1.37,0.27l-23,4.56c0,0,0.52,7.24,0.54,14.06C1581.17,1095.78,1580.82,1101.21,1579.51,1101.82
					z"/>
				<path class="st37" d="M1580.62,1075.99c0,0,0.52,7.24,0.54,14.06c12.87-0.36,19.68-12.11,22.47-18.61L1580.62,1075.99z"/>
				<path class="st24" d="M1606,1068.93c0,0,6.75-10.66,8.37-19.77c1.16-6.51-2.16-30.63-26.4-27.15c0,0-7.04,0.69-13.66,5.16
					c-5.26,3.55-12.86,11.23-4.36,32.28l2.21,7.11L1606,1068.93z"/>
				<path class="st35" d="M1576.32,1082.45c0,0,30.46,0.5,30.48-18.47c0.02-18.97,3.97-31.68-15.48-32.81
					c-19.45-1.12-23.23,6.11-24.78,12.44C1564.99,1049.94,1568.4,1081.83,1576.32,1082.45z"/>
				<path class="st24" d="M1577.44,1030.71c0,0,8.34,22.26,21.14,25.55c12.8,3.29,18.35-0.14,18.35-0.14s-9.82-7.8-11.85-21.41
					C1605.08,1034.71,1583.73,1020.11,1577.44,1030.71z"/>
				<path class="st24" d="M1579.51,1032.51c0,0-6.23,4.97-7.75,9.8c-1.52,4.83-2.2,14.78-5.1,14.44c0,0-6.28-15.13,0.78-23.69
					C1574.93,1023.99,1579.51,1032.51,1579.51,1032.51z"/>
				<path class="st33" d="M1647.33,1183.76c3-12.6-7.22-37.04-17.88-57.28c-9.68-18.34-19.73-33.22-20.63-32.69
					c-25.53,15.15-27.83,2.55-27.83,2.55s-23.19,3.08-29.75,14.38c-9.08,15.63-18.97,62.53-28.69,61.84
					c-4.46-0.32-49.35-17.19-49.35-17.19s-7.48,7-6.05,15.6c0,0,22.16,14.84,40.9,24.31c9.91,5.01,18.87,8.51,23.08,7.52
					c8.54-2.01,21.87-21.8,29.08-33.45c0.02-0.03,0.03-0.05,0.05-0.08c9.2,52.06-3.31,63.92,3.02,69.41
					c6.69,5.8,16.24-2.76,37.25,6.35c13.78,5.98,32.91,14.62,45.78,16.13c6.75,0.79,11.79-0.38,13.43-4.94
					C1664.52,1242.96,1641.6,1207.77,1647.33,1183.76z"/>
				<path class="st17" d="M1583.09,1070.95c0,0-0.57,2.41-6.56,2.04c0,0-5.03-0.31-4.88-2.96
					C1571.64,1070.03,1576.53,1068.14,1583.09,1070.95z"/>
				<path class="st32" d="M1659.75,1256.21c-1.64,4.56-6.68,5.74-13.43,4.94c-8.91-3.88-47.4-18.79-46.97-28.9
					c0.64-14.96,7.4-15.44,2.63-33.9c-3.83-14.83,31.73-42.39,37.4-48.39c10.67,20.24,10.96,21.19,7.96,33.79
					C1641.6,1207.77,1664.52,1242.96,1659.75,1256.21z"/>
				<path class="st32" d="M1560.22,1169.36c-7.21,11.65-20.54,31.44-29.08,33.45c-4.21,0.99-13.17-2.51-23.08-7.52
					c7.23,1.87,14.26,1.81,21.09,1.16c7.4-0.72,9.55-9.79,21.25-23.4C1557.99,1164.22,1559.85,1166.44,1560.22,1169.36z"/>
				<g>
					<path class="st38" d="M1585.03,1196.27c-0.96-0.59-2.83-0.36-4.19-0.08v-1.96c0-0.43-0.03-0.86-0.08-1.28h-20.32
						c-0.05,0.42-0.08,0.85-0.08,1.28v3.99c0,5.63,4.61,10.24,10.24,10.24c3.05,0,5.8-1.35,7.68-3.49l0,0c0,0,4.83-1.19,6.35-2.99
						S1586.64,1197.27,1585.03,1196.27z M1583.95,1199.96c-0.51,1.33-2.82,2.04-3.96,2.32c0.45-1.05,0.74-2.18,0.82-3.37
						c0.7-0.96,1.81-1.52,2.62-1.38C1584.16,1197.66,1584.6,1198.28,1583.95,1199.96z"/>
					<path class="st39" d="M1562.02,1194.23v3.99c0,5.63,4.61,10.25,10.24,10.25c0.47,0,0.93-0.03,1.38-0.1
						c-4.99-0.67-8.86-4.98-8.86-10.15v-3.99c0-0.43,0.03-0.86,0.08-1.28h-2.75C1562.05,1193.37,1562.02,1193.8,1562.02,1194.23z"/>
					<rect x="1566.41" y="1207.57" class="st38" width="8.36" height="1.25"/>
				</g>
				<path class="st35" d="M1595.88,1198c0,0-6.45-5.01-12.53-3.82c-6.09,1.19-9.07,5.37-8.83,7.28c0.24,1.91,3.46,7.28,8.12,7.76
					c4.66,0.48,17.91-2.87,17.91-2.87L1595.88,1198z"/>
				<path class="st33" d="M1608.82,1093.8c0,0,24.82,1.53,33.42,13.51c12.1,16.87,41.13,91.92,27.38,101.51
					c-15.49,10.8-75.53-0.32-75.53-0.32s-1.83-8.55,0.72-12.69c2.55-4.14,43.93-10.82,45.84-12.73
					c1.91-1.91-23.88-37.25-23.88-42.98C1616.77,1134.37,1608.82,1093.8,1608.82,1093.8z"/>
			</g>
			<g>
				<path class="st5" d="M1487.9,1014.34h-11.53c-32.01,0-58.21-26.19-58.21-58.21v0c0-32.01,26.19-58.21,58.21-58.21h11.53
					c32.01,0,58.21,26.19,58.21,58.21v0C1546.1,988.14,1519.91,1014.34,1487.9,1014.34z"/>
				<g>
					<polygon class="st15" points="1430.55,931.66 1519.02,924.02 1472.81,954.04 					"/>
					<polygon class="st14" points="1475.84,1001.61 1519.02,924.02 1472.72,953.9 					"/>
				</g>
			</g>
			<g>
				<path class="st14" d="M1469.06,1139.9l-15.28-4.09c-0.53-0.14-0.98-0.02-1.31,0.26l-0.02-0.01l-2.14,1.29l1.71,33.69l14.68,3.93
					l1.08-0.09l2.47-1.51l0-0.01c0.34-0.23,0.57-0.62,0.57-1.12v-30.12C1470.82,1141.17,1470.03,1140.16,1469.06,1139.9z"/>
				<path class="st15" d="M1466.7,1174.99l-15.28-4.09c-0.97-0.26-1.76-1.26-1.76-2.23v-30.12c0-0.97,0.79-1.55,1.76-1.29
					l15.28,4.09c0.97,0.26,1.76,1.26,1.76,2.23v30.12C1468.45,1174.67,1467.66,1175.25,1466.7,1174.99z"/>
				<path class="st14" d="M1455.43,1141.95l-3.56-1.07c-0.53-0.16-0.96-0.73-0.94-1.27l0,0c0.02-0.54,0.46-0.84,1-0.69l3.56,1.06
					c0.53,0.16,0.96,0.73,0.94,1.27l0,0C1456.41,1141.8,1455.96,1142.11,1455.43,1141.95z"/>
			</g>
			<g>
				<path class="st5" d="M1532.28,1075.94c0-1.35,1.1-2.45,2.45-2.45c1.35,0,2.45,1.1,2.45,2.45c0,1.35-1.1,2.45-2.45,2.45
					C1533.38,1078.39,1532.28,1077.3,1532.28,1075.94z"/>
				<path class="st5" d="M1505.87,1066.39c0-2.57,2.08-4.65,4.65-4.65c2.57,0,4.65,2.08,4.65,4.65c0,2.57-2.08,4.65-4.65,4.65
					C1507.95,1071.04,1505.87,1068.96,1505.87,1066.39z"/>
				<path class="st5" d="M1480.07,1042.48c0-4.07,3.3-7.38,7.38-7.38c4.07,0,7.38,3.3,7.38,7.38s-3.3,7.38-7.38,7.38
					C1483.37,1049.86,1480.07,1046.55,1480.07,1042.48z"/>
			</g>
			<g>
				<path class="st5" d="M1259.66,913.49H1271c31.5,0,57.27-25.77,57.27-57.27v0c0-31.5-25.77-57.27-57.27-57.27h-11.34
					c-31.5,0-57.27,25.77-57.27,57.27v0C1202.39,887.72,1228.16,913.49,1259.66,913.49z"/>
				<path class="st15" d="M1295.43,825.2h-60.19c-9.4,0-17.08,7.69-17.08,17.08v14.75c0,8.85,6.85,16.11,15.5,16.92l-7.28,21.17
					l38.05-21.01h31.01c9.4,0,17.08-7.69,17.08-17.08v-14.75C1312.51,832.89,1304.82,825.2,1295.43,825.2z"/>
				<path class="st14" d="M1297.51,847.36h-66.13c-2,0-3.64-1.64-3.64-3.64l0,0c0-2,1.64-3.64,3.64-3.64h66.13
					c2,0,3.64,1.64,3.64,3.64l0,0C1301.15,845.72,1299.51,847.36,1297.51,847.36z"/>
				<path class="st14" d="M1297.51,859.16h-66.13c-2,0-3.64-1.64-3.64-3.64v0c0-2,1.64-3.64,3.64-3.64h66.13
					c2,0,3.64,1.64,3.64,3.64l0,0C1301.15,857.52,1299.51,859.16,1297.51,859.16z"/>
			</g>
			<g>
				<path class="st5" d="M1309.18,995.48c-0.99-1.04-2.64-1.09-3.68-0.1c-1.04,0.99-1.09,2.64-0.1,3.68
					c0.99,1.04,2.64,1.09,3.68,0.1C1310.12,998.17,1310.16,996.52,1309.18,995.48z"/>
				<path class="st5" d="M1322.56,968.83c-1.87-1.98-5-2.06-6.97-0.19c-1.98,1.87-2.06,5-0.19,6.97c1.87,1.98,5,2.06,6.97,0.19
					C1324.35,973.93,1324.43,970.81,1322.56,968.83z"/>
				<path class="st5" d="M1324.98,931.57c-2.97-3.14-7.93-3.27-11.07-0.3c-3.14,2.97-3.27,7.93-0.3,11.07
					c2.97,3.14,7.93,3.27,11.07,0.3C1327.82,939.67,1327.96,934.71,1324.98,931.57z"/>
			</g>
			<g>
				<path class="st5" d="M607.46,863.67h-79.6c-20.94,0-38.07,17.13-38.07,38.07v65.57c0,20.94,17.13,38.07,38.07,38.07h79.6
					c20.94,0,38.07-17.13,38.07-38.07v-65.57C645.54,880.8,628.4,863.67,607.46,863.67z"/>
				<path class="st40" d="M609.05,933.36c-4.33,11.4-41.41,41.35-41.41,41.35s-12.09-9.82-23.28-20.4
					c-8.38-7.83-16.21-16.07-18.06-20.95c-4.4-11.33,0.28-27.54,16.48-30.29c16.14-2.75,24.86,14.15,24.86,14.15
					s8.72-16.9,24.93-14.15c2.82,0.48,5.29,1.37,7.42,2.61C610.08,911.32,612.62,924.02,609.05,933.36z"/>
				<path class="st9" d="M609.05,933.36c-4.33,11.4-41.41,41.35-41.41,41.35s-12.09-9.82-23.28-20.4
					c44.16-12.36,53.64-37.91,55.63-48.62C610.08,911.32,612.62,924.02,609.05,933.36z"/>
			</g>
			<g>
				<path class="st5" d="M560.41,1075.37c-1.22,0.52-1.78,1.92-1.27,3.14c0.52,1.22,1.92,1.78,3.14,1.27
					c1.22-0.52,1.78-1.92,1.27-3.14C563.04,1075.42,561.63,1074.85,560.41,1075.37z"/>
				<path class="st5" d="M577.68,1055.59c-2.3,0.98-3.38,3.64-2.4,5.94c0.98,2.3,3.64,3.38,5.94,2.4c2.3-0.98,3.38-3.64,2.4-5.94
					C582.64,1055.69,579.98,1054.61,577.68,1055.59z"/>
				<path class="st5" d="M597.67,1026.69c-1.55-3.66-5.78-5.36-9.44-3.81c-3.66,1.55-5.36,5.78-3.81,9.44
					c1.55,3.66,5.78,5.36,9.44,3.81C597.52,1034.57,599.22,1030.35,597.67,1026.69z"/>
			</g>
			<g>
				<path class="st10" d="M1358.68,1238.06l3.52,5.71c1.83,2.1,2.32,3.28,3.77,3.99c3.5,1.72,9.96,6.14,10.45,15.42
					c0,0-0.11,5.25-3.63,3.55c-3.52-1.7-1.98-1.54-6.99-3.84c-5-2.29-6.86-9.59-7.3-12.07l-4.08-5.36L1358.68,1238.06z"/>
				<g>
					<path class="st10" d="M1135.67,1154.48c0,0-3.73-9.15-7.84-9.52c-4.11-0.37-17.18-2.43-18.11-0.56c-0.93,1.87,0,8.59,2.8,11.02
						s20.17,6.35,20.17,6.35L1135.67,1154.48z"/>
					<path class="st10" d="M1254.65,1536.15c0.35,1.99,0.7,4.04,0.51,6.09c-0.19,2.05-3.22,4.04-3.23,4.04
						c-1.96,0.86-4.63,0.97-7.78,0.86c-0.92-0.03-1.9-0.07-2.89-0.15c-1.39-0.12-2.81-0.06-4.28-0.25c-0.78-0.1-1.47-0.19-2.1-0.24
						c-0.16-0.01-0.33-0.03-0.49-0.04c-0.13-0.01-0.26-0.01-0.37-0.03c-3.57-0.23-4.86,0.32-7.71,0.8h-16.86
						c-7.44-1.29-10.25-4.29-10.72-5.77c-0.51-1.6,5.25-2.84,11.68-4.26c0.31-0.07,0.62-0.14,0.94-0.21
						c0.86-0.19,1.72-0.39,2.57-0.58c7.67-1.79,15.27-4.06,17.78-11.42c2.67-7.8,2.04-30.95,2.04-30.95h23.28
						c0,0-6.11,25.57-5.47,32.94c0.35,3.94,2.23,5.06,2.96,8.46C1254.56,1535.67,1254.61,1535.91,1254.65,1536.15z"/>
					<g>
						<path class="st11" d="M1282.25,1291.64c-1.97,11.03-4.77,22.43-7.2,34.28c-3.91,19.06-6.86,39.31-3.84,61.11
							c0.39,2.81,0.6,5.9,0.64,9.23c0.59,38.54-16.63,108.38-16.63,108.38s-4.68,2.02-12.51,1.63c-4.04-0.2-10.23-2.8-10.23-2.8
							s-1.63-43.3-1.73-101.53c-0.07-42.21-8.36-97.79-10.03-130.45c-1.01-19.76,1.19-46.09,1.19-46.09s34.32-27.6,46.65-13.48
							C1280.73,1225.88,1289.6,1250.38,1282.25,1291.64z"/>
					</g>
					<path class="st12" d="M1271.21,1387.04c0.39,2.81,0.6,5.9,0.64,9.23c-25.71-37.24-31.39-118.46-31.39-118.46l28.23,13.7
						c0,0,3.1,15.23,6.36,34.41C1271.14,1344.99,1268.19,1365.23,1271.21,1387.04z"/>
					<path class="st10" d="M1329.42,1542.08c-0.19,2.05-1.33,3.37-3.14,4.15c0,0-0.02,0.01-0.03,0.01c-1.12,0.49-2.5,0.78-4.06,0.91
						c-1.55,0.14-3.29,0.12-5.14,0c-1.84-0.11-3.8-0.33-5.81-0.6c-0.78-0.1-1.47-0.19-2.1-0.24c-0.16-0.01-0.33-0.03-0.49-0.04
						c-0.13-0.01-0.26-0.01-0.38-0.03c-3.85-0.25-5.05,0.41-8.42,0.91h-15.45c-7.97-1.21-10.94-4.35-11.42-5.86
						c-0.51-1.59,5.24-2.83,11.68-4.25c0.31-0.07,0.62-0.14,0.94-0.21c0.85-0.19,1.72-0.39,2.57-0.58
						c7.67-1.79,15.27-4.05,17.78-11.38c2.67-7.77-1.14-30.49-1.14-30.49l21.57-1.79c0,0-1.34,25.89-0.7,33.24
						c0.35,3.92,2.35,6.08,3.08,9.48c0.05,0.24,0.1,0.48,0.14,0.71C1329.27,1538,1329.62,1540.04,1329.42,1542.08z"/>
					<path class="st11" d="M1326.38,1506.62c0,0-5.54,2.62-9.54,3.42c-3.99,0.8-12.28-0.76-12.28-0.76
						c-1.5-16.77-4.97-42.99-11.72-72.58c-7.69-33.69-19.13-73.5-35.09-111.19c-3.41-8.05-17.46-46.16-19.84-55.78
						c-7.21-29.06,0.03-25.93,0.03-25.93l63.02-7.4c0,0,7.76,3.99,11.34,45.02c1.07,12.29,1.2,65.35,2.81,75.4
						c1.53,9.53,3.32,17.44,5.41,22.59C1332.24,1408.16,1326.38,1506.62,1326.38,1506.62z"/>
					<path class="st41" d="M1329.42,1542.25c-0.19,2.06-1.33,3.38-3.14,4.16c0,0-0.02,0.01-0.03,0.01
						c-1.77,0.63-4.04,0.88-6.61,0.88c-2.56,0-5.42-0.25-8.39-0.6c-0.78-0.09-1.48-0.16-2.11-0.21c-0.16-0.01-0.33-0.03-0.49-0.04
						c-0.13-0.01-0.26-0.01-0.38-0.03c-3.77-0.25-5,0.38-8.2,0.88h-15.9c-7.79-1.24-10.71-4.34-11.19-5.85
						c-0.51-1.6,5.24-2.84,11.68-4.26c1.69,0.83,9.8,4.49,19.86,3.51c8.85-0.84,17.89-4.38,24.24-5.27c0.05,0.24,0.1,0.48,0.14,0.71
						C1329.27,1538.15,1329.62,1540.19,1329.42,1542.25z"/>
					<path class="st41" d="M1255.16,1542.24c-0.19,2.05-1.33,3.38-3.14,4.16c0,0-0.02,0.01-0.03,0.01
						c-1.77,0.63-4.04,0.88-6.61,0.88c-2.56,0-5.42-0.25-8.39-0.6c-0.78-0.09-1.47-0.16-2.11-0.21c-0.16-0.01-0.33-0.03-0.49-0.04
						c-0.13-0.01-0.26-0.01-0.37-0.03c-3.77-0.25-5,0.38-8.2,0.88h-15.89c-7.8-1.24-10.71-4.34-11.19-5.84
						c-0.51-1.6,5.25-2.84,11.68-4.26c1.69,0.83,9.79,4.49,19.86,3.51c8.85-0.84,17.89-4.38,24.24-5.27
						c0.05,0.24,0.1,0.48,0.15,0.72C1255.01,1538.14,1255.35,1540.19,1255.16,1542.24z"/>
					<path class="st36" d="M1229.95,1047.69c-2.13-17.38,3.3-45.2,38-40.76c34.7,4.44,45.63,38.55,38.64,53.71
						c-7,15.16,10.07,18.82,15.43,35.12c4.6,14.01,6.21,31.4,13.66,39.2c24.02,25.16-23.06,63.86-51.44,55.7
						c-51.7-14.86-58.36-17.08-56.52-57.7c0.94-20.81,17.13-28.88,6.85-34.9C1209.73,1083.53,1234.77,1087.03,1229.95,1047.69z"/>
					<path class="st10" d="M1280.95,1093.2l-9.56,24.7l-20.63,1.01l-10.29-15.37c6.5-4.94,9.24-12.35,10.25-18.98
						c0.82-5.31,0.59-10.11,0.37-12.72c-0.14-1.33-0.28-2.1-0.28-2.1l25.71-7.82l0.09-0.05c0.32,6.82,0.69,12.17,1.1,16.33
						C1279.17,1092.88,1280.95,1093.2,1280.95,1093.2z"/>
					<path class="st10" d="M1240.38,1092.33c1.33,0,23.86-4.59,61.92,5.15c0,0-20.84,95.49-13.76,113.48
						c7.08,18,9.77,33.97,9.77,33.97l-76.81,0.95c0,0,1.07-61.77-2.47-83.64S1240.38,1092.33,1240.38,1092.33z"/>
					<path class="st15" d="M1300.72,1168.61c1.11-3.51,2.39-7,3.74-10.57c1.56-4.17,8.61-47.62,3.46-53.49
						c-5.43-6.19-23.95-10.87-23.95-10.87c-3.79,5.94-16.79,20.71-32.91,18.05c-8.69-1.43-10.46-17.06-10.66-19.17l0.06-0.24
						c0,0-0.03,0-0.08,0.01c0-0.01,0-0.01,0-0.01c-0.06,0.01-0.12,0.03-0.18,0.04c-2.54,0.38-22.75,3.66-28.75,13.99
						c-8.85,15.24-18.5,60.97-27.97,60.29c-4.35-0.31-48.11-16.76-48.11-16.76s-7.29,6.83-5.89,15.21c0,0,21.61,14.47,39.88,23.7
						c2.53,1.28,5,2.46,7.34,3.48c6.59,2.89,12.14,4.57,15.17,3.85c0.87-0.2,1.79-0.6,2.75-1.15c3.96-2.29,8.59-7.32,13.03-13.05
						c2.95-3.81,5.81-7.93,8.34-11.77c0.05-0.08,0.1-0.16,0.16-0.24c1.08,14.54,2.17,30.36,1.05,42.76
						c-0.86,9.43-1.48,29.86,0.14,35.14c3.37,11,28.17,13.91,51.31,12.76c10.91-0.54,18.62-1.16,24.23-2.46
						c8.14-1.87,11.86-5.14,14.53-11.6c2.55-6.15-9.25-35.03-10.38-47.67C1295.97,1187.26,1297.77,1177.86,1300.72,1168.61z"/>
					<path class="st15" d="M1283.97,1093.68c0,0,18.27,0.72,26.74,8.61c9.58,8.91,23.84,63.42,27.68,89.96
						c0,0,19.33,36.85,25.49,51.47c0,0-1.15,2-3.46,3.5c-2.24,1.46-5.06,2.04-5.06,2.04s-34.88-38.93-37.17-45.08
						C1315.91,1198.02,1281.63,1145.04,1283.97,1093.68z"/>
					<path class="st27" d="M1307.38,1246.51c-2.68,6.46-6.4,9.73-14.53,11.6c-10.88-2.09-18.05-22.11-21.75-31.96
						c-4.26-11.35,17.92-69.72,24.04-69.19c4.55,0.39,5.42,7.84,5.57,11.64c-2.94,9.26-4.74,18.65-3.71,30.23
						C1298.13,1211.48,1309.94,1240.36,1307.38,1246.51z"/>
					<path class="st27" d="M1215.97,1170.16c-2.53,3.84-5.39,7.96-8.34,11.77c-4.23,5.21-8.9,10.24-13.03,13.05
						c-0.96,0.56-1.88,0.95-2.75,1.15c-3.03,0.72-8.58-0.96-15.17-3.85c3.92,0.29,7.77,0.15,11.56-0.17
						c6.63-0.56,8.56-7.74,19.04-18.51C1213.55,1167.17,1215.45,1168.16,1215.97,1170.16z"/>
					<path class="st16" d="M1276.52,1061.91c-3.89,6.36-13.27,19.44-25.8,22.64c0.82-5.31,0.59-10.11,0.37-12.72
						c-0.14-1.33-0.28-2.1-0.28-2.1L1276.52,1061.91z"/>
					<path class="st10" d="M1244.06,1071.48c0,0,30.91,6.21,34.48-13.1c3.57-19.31,9.96-31.51-9.62-36.29
						c-19.58-4.78-24.79,1.88-27.55,8.03C1238.61,1036.28,1236.11,1069.37,1244.06,1071.48z"/>
					<path class="st36" d="M1284.52,1023.37c-5.23-5.88-12.78-7.03-18.28-6.93c3.32-4.02-10.02-12.83-25.27,2.2
						c-6.57,6.47-5.58,19.2-2.06,26.58c0,0,5.4-15.82,15.24-19.27c2.19-0.77,4.27-2.05,6.18-3.57c1.2,3.01,3.61,7.26,8.45,12.56
						c10.16,11.11,8.18,33.58,8.18,33.58S1293.66,1033.65,1284.52,1023.37z"/>
					<path class="st17" d="M1253.69,1061.98c0,0-0.83,2.29-6.64,1.25c0,0-4.89-0.87-4.44-3.44
						C1242.61,1059.79,1247.59,1058.5,1253.69,1061.98z"/>
				</g>
			</g>
			<path class="st42" d="M1853.44,1549.86H381.12c-0.71,0-1.29-0.58-1.29-1.29l0,0c0-0.71,0.58-1.29,1.29-1.29h1472.32
				c0.71,0,1.29,0.58,1.29,1.29l0,0C1854.73,1549.28,1854.15,1549.86,1853.44,1549.86z"/>
		</g>
	</g>
</g>
</svg>
