<?xml version="1.0" encoding="utf-8"?>
<!-- Generator: Adobe Illustrator 25.0.0, SVG Export Plug-In . SVG Version: 6.00 Build 0)  -->
<svg version="1.1" xmlns="http://www.w3.org/2000/svg" xmlns:xlink="http://www.w3.org/1999/xlink" x="0px" y="0px"
	 viewBox="0 0 1615.26 1475.34" style="enable-background:new 0 0 1615.26 1475.34;" xml:space="preserve">
<style type="text/css">
	.st0{clip-path:url(#SVGID_2_);fill:#EAFDE8;}
	.st1{clip-path:url(#SVGID_2_);fill:#EBFDE8;}
	.st2{clip-path:url(#SVGID_2_);fill:#ECFDE8;}
	.st3{clip-path:url(#SVGID_2_);fill:#EDFDE8;}
	.st4{clip-path:url(#SVGID_2_);fill:#EEFDE8;}
	.st5{clip-path:url(#SVGID_2_);fill:#EFFEE7;}
	.st6{clip-path:url(#SVGID_2_);fill:#F0FEE7;}
	.st7{clip-path:url(#SVGID_2_);fill:#F1FEE7;}
	.st8{clip-path:url(#SVGID_2_);fill:#F2FEE7;}
	.st9{clip-path:url(#SVGID_2_);fill:#F3FEE7;}
	.st10{clip-path:url(#SVGID_2_);fill:#F4FEE6;}
	.st11{clip-path:url(#SVGID_2_);fill:#F5FEE6;}
	.st12{clip-path:url(#SVGID_2_);fill:#F6FEE6;}
	.st13{clip-path:url(#SVGID_2_);fill:#F7FEE6;}
	.st14{clip-path:url(#SVGID_2_);fill:#F8FEE5;}
	.st15{clip-path:url(#SVGID_2_);fill:#F9FEE5;}
	.st16{clip-path:url(#SVGID_2_);fill:#FAFEE5;}
	.st17{clip-path:url(#SVGID_4_);fill:#93F9FB;}
	.st18{clip-path:url(#SVGID_4_);fill:#94F9FB;}
	.st19{clip-path:url(#SVGID_4_);fill:#95F9FB;}
	.st20{clip-path:url(#SVGID_4_);fill:#96FAFB;}
	.st21{clip-path:url(#SVGID_4_);fill:#97FAFA;}
	.st22{clip-path:url(#SVGID_4_);fill:#98FAFA;}
	.st23{clip-path:url(#SVGID_4_);fill:#99FAFA;}
	.st24{clip-path:url(#SVGID_4_);fill:#9AFAFA;}
	.st25{clip-path:url(#SVGID_4_);fill:#9BFAFA;}
	.st26{clip-path:url(#SVGID_4_);fill:#9CFAF9;}
	.st27{clip-path:url(#SVGID_4_);fill:#9DFAF9;}
	.st28{clip-path:url(#SVGID_4_);fill:#9EFAF9;}
	.st29{clip-path:url(#SVGID_4_);fill:#9FFAF9;}
	.st30{clip-path:url(#SVGID_4_);fill:#A0FAF8;}
	.st31{clip-path:url(#SVGID_4_);fill:#A1FAF8;}
	.st32{clip-path:url(#SVGID_4_);fill:#A2FAF8;}
	.st33{clip-path:url(#SVGID_4_);fill:#A3FAF8;}
	.st34{clip-path:url(#SVGID_4_);fill:#A4FAF8;}
	.st35{clip-path:url(#SVGID_4_);fill:#A5FAF7;}
	.st36{clip-path:url(#SVGID_4_);fill:#A6FAF7;}
	.st37{clip-path:url(#SVGID_4_);fill:#A7FAF7;}
	.st38{clip-path:url(#SVGID_4_);fill:#A8FAF7;}
	.st39{clip-path:url(#SVGID_4_);fill:#A9FAF6;}
	.st40{clip-path:url(#SVGID_4_);fill:#AAFAF6;}
	.st41{clip-path:url(#SVGID_4_);fill:#ABFAF6;}
	.st42{clip-path:url(#SVGID_4_);fill:#ACFBF6;}
	.st43{clip-path:url(#SVGID_4_);fill:#ADFBF6;}
	.st44{clip-path:url(#SVGID_4_);fill:#AEFBF5;}
	.st45{clip-path:url(#SVGID_4_);fill:#AFFBF5;}
	.st46{clip-path:url(#SVGID_4_);fill:#B0FBF5;}
	.st47{clip-path:url(#SVGID_4_);fill:#B1FBF5;}
	.st48{clip-path:url(#SVGID_4_);fill:#B2FBF4;}
	.st49{clip-path:url(#SVGID_4_);fill:#B3FBF4;}
	.st50{clip-path:url(#SVGID_4_);fill:#B4FBF4;}
	.st51{clip-path:url(#SVGID_4_);fill:#B5FBF4;}
	.st52{clip-path:url(#SVGID_4_);fill:#B6FBF4;}
	.st53{clip-path:url(#SVGID_4_);fill:#B7FBF3;}
	.st54{clip-path:url(#SVGID_4_);fill:#B8FBF3;}
	.st55{clip-path:url(#SVGID_4_);fill:#B9FBF3;}
	.st56{clip-path:url(#SVGID_4_);fill:#BAFBF3;}
	.st57{clip-path:url(#SVGID_4_);fill:#BBFBF3;}
	.st58{clip-path:url(#SVGID_4_);fill:#BCFBF2;}
	.st59{clip-path:url(#SVGID_4_);fill:#BDFBF2;}
	.st60{clip-path:url(#SVGID_4_);fill:#BEFBF2;}
	.st61{clip-path:url(#SVGID_4_);fill:#BFFBF2;}
	.st62{clip-path:url(#SVGID_4_);fill:#C0FBF1;}
	.st63{clip-path:url(#SVGID_4_);fill:#C1FBF1;}
	.st64{clip-path:url(#SVGID_4_);fill:#C3FCF1;}
	.st65{clip-path:url(#SVGID_4_);fill:#C4FCF1;}
	.st66{clip-path:url(#SVGID_4_);fill:#C5FCF1;}
	.st67{clip-path:url(#SVGID_4_);fill:#C6FCF0;}
	.st68{clip-path:url(#SVGID_4_);fill:#C7FCF0;}
	.st69{clip-path:url(#SVGID_4_);fill:#C8FCF0;}
	.st70{clip-path:url(#SVGID_4_);fill:#C9FCF0;}
	.st71{clip-path:url(#SVGID_4_);fill:#CAFCEF;}
	.st72{clip-path:url(#SVGID_4_);fill:#CBFCEF;}
	.st73{clip-path:url(#SVGID_4_);fill:#CCFCEF;}
	.st74{clip-path:url(#SVGID_4_);fill:#CDFCEF;}
	.st75{clip-path:url(#SVGID_4_);fill:#CEFCEF;}
	.st76{clip-path:url(#SVGID_4_);fill:#CFFCEE;}
	.st77{clip-path:url(#SVGID_4_);fill:#D0FCEE;}
	.st78{clip-path:url(#SVGID_4_);fill:#D1FCEE;}
	.st79{clip-path:url(#SVGID_4_);fill:#D2FCEE;}
	.st80{clip-path:url(#SVGID_4_);fill:#D3FCEE;}
	.st81{clip-path:url(#SVGID_4_);fill:#D4FCED;}
	.st82{clip-path:url(#SVGID_4_);fill:#D5FCED;}
	.st83{clip-path:url(#SVGID_4_);fill:#D6FCED;}
	.st84{clip-path:url(#SVGID_4_);fill:#D7FCED;}
	.st85{clip-path:url(#SVGID_4_);fill:#D8FCEC;}
	.st86{clip-path:url(#SVGID_4_);fill:#D9FDEC;}
	.st87{clip-path:url(#SVGID_4_);fill:#DAFDEC;}
	.st88{clip-path:url(#SVGID_4_);fill:#DBFDEC;}
	.st89{clip-path:url(#SVGID_4_);fill:#DCFDEC;}
	.st90{clip-path:url(#SVGID_4_);fill:#DDFDEB;}
	.st91{clip-path:url(#SVGID_4_);fill:#DEFDEB;}
	.st92{clip-path:url(#SVGID_4_);fill:#DFFDEB;}
	.st93{clip-path:url(#SVGID_4_);fill:#E0FDEB;}
	.st94{clip-path:url(#SVGID_4_);fill:#E1FDEA;}
	.st95{clip-path:url(#SVGID_4_);fill:#E2FDEA;}
	.st96{clip-path:url(#SVGID_4_);fill:#E3FDEA;}
	.st97{clip-path:url(#SVGID_4_);fill:#E4FDEA;}
	.st98{clip-path:url(#SVGID_4_);fill:#E5FDEA;}
	.st99{clip-path:url(#SVGID_4_);fill:#E6FDE9;}
	.st100{clip-path:url(#SVGID_4_);fill:#E7FDE9;}
	.st101{clip-path:url(#SVGID_4_);fill:#E8FDE9;}
	.st102{clip-path:url(#SVGID_4_);fill:#E9FDE9;}
	.st103{clip-path:url(#SVGID_4_);fill:#EAFDE8;}
	.st104{clip-path:url(#SVGID_4_);fill:#EBFDE8;}
	.st105{clip-path:url(#SVGID_4_);fill:#ECFDE8;}
	.st106{clip-path:url(#SVGID_6_);fill:#A1FAF8;}
	.st107{clip-path:url(#SVGID_6_);fill:#A2FAF8;}
	.st108{clip-path:url(#SVGID_6_);fill:#A3FAF8;}
	.st109{clip-path:url(#SVGID_6_);fill:#A4FAF8;}
	.st110{clip-path:url(#SVGID_6_);fill:#A5FAF7;}
	.st111{clip-path:url(#SVGID_6_);fill:#A6FAF7;}
	.st112{clip-path:url(#SVGID_6_);fill:#A7FAF7;}
	.st113{clip-path:url(#SVGID_6_);fill:#A8FAF7;}
	.st114{clip-path:url(#SVGID_6_);fill:#A9FAF6;}
	.st115{clip-path:url(#SVGID_6_);fill:#AAFAF6;}
	.st116{clip-path:url(#SVGID_6_);fill:#ABFAF6;}
	.st117{clip-path:url(#SVGID_6_);fill:#ACFBF6;}
	.st118{clip-path:url(#SVGID_6_);fill:#ADFBF6;}
	.st119{clip-path:url(#SVGID_6_);fill:#AEFBF5;}
	.st120{clip-path:url(#SVGID_6_);fill:#AFFBF5;}
	.st121{clip-path:url(#SVGID_6_);fill:#B0FBF5;}
	.st122{clip-path:url(#SVGID_6_);fill:#B1FBF5;}
	.st123{clip-path:url(#SVGID_6_);fill:#B2FBF4;}
	.st124{clip-path:url(#SVGID_6_);fill:#B3FBF4;}
	.st125{clip-path:url(#SVGID_6_);fill:#B4FBF4;}
	.st126{clip-path:url(#SVGID_6_);fill:#B5FBF4;}
	.st127{clip-path:url(#SVGID_6_);fill:#B6FBF4;}
	.st128{clip-path:url(#SVGID_6_);fill:#B7FBF3;}
	.st129{clip-path:url(#SVGID_6_);fill:#B8FBF3;}
	.st130{clip-path:url(#SVGID_6_);fill:#B9FBF3;}
	.st131{clip-path:url(#SVGID_6_);fill:#BAFBF3;}
	.st132{clip-path:url(#SVGID_6_);fill:#BBFBF3;}
	.st133{clip-path:url(#SVGID_6_);fill:#BCFBF2;}
	.st134{clip-path:url(#SVGID_6_);fill:#BDFBF2;}
	.st135{clip-path:url(#SVGID_6_);fill:#BEFBF2;}
	.st136{clip-path:url(#SVGID_6_);fill:#BFFBF2;}
	.st137{clip-path:url(#SVGID_6_);fill:#C0FBF1;}
	.st138{clip-path:url(#SVGID_6_);fill:#C1FBF1;}
	.st139{clip-path:url(#SVGID_6_);fill:#C3FCF1;}
	.st140{clip-path:url(#SVGID_6_);fill:#C4FCF1;}
	.st141{clip-path:url(#SVGID_6_);fill:#C5FCF1;}
	.st142{clip-path:url(#SVGID_6_);fill:#C6FCF0;}
	.st143{clip-path:url(#SVGID_6_);fill:#C7FCF0;}
	.st144{clip-path:url(#SVGID_6_);fill:#C8FCF0;}
	.st145{clip-path:url(#SVGID_6_);fill:#C9FCF0;}
	.st146{clip-path:url(#SVGID_6_);fill:#CAFCEF;}
	.st147{clip-path:url(#SVGID_6_);fill:#CBFCEF;}
	.st148{clip-path:url(#SVGID_6_);fill:#CCFCEF;}
	.st149{clip-path:url(#SVGID_6_);fill:#CDFCEF;}
	.st150{clip-path:url(#SVGID_6_);fill:#CEFCEF;}
	.st151{clip-path:url(#SVGID_6_);fill:#CFFCEE;}
	.st152{clip-path:url(#SVGID_6_);fill:#D0FCEE;}
	.st153{clip-path:url(#SVGID_6_);fill:#D1FCEE;}
	.st154{clip-path:url(#SVGID_6_);fill:#D2FCEE;}
	.st155{clip-path:url(#SVGID_6_);fill:#D3FCEE;}
	.st156{clip-path:url(#SVGID_6_);fill:#D4FCED;}
	.st157{clip-path:url(#SVGID_6_);fill:#D5FCED;}
	.st158{clip-path:url(#SVGID_6_);fill:#D6FCED;}
	.st159{clip-path:url(#SVGID_6_);fill:#D7FCED;}
	.st160{clip-path:url(#SVGID_6_);fill:#D8FCEC;}
	.st161{clip-path:url(#SVGID_6_);fill:#D9FDEC;}
	.st162{clip-path:url(#SVGID_6_);fill:#DAFDEC;}
	.st163{clip-path:url(#SVGID_6_);fill:#DBFDEC;}
	.st164{clip-path:url(#SVGID_6_);fill:#DCFDEC;}
	.st165{clip-path:url(#SVGID_6_);fill:#DDFDEB;}
	.st166{clip-path:url(#SVGID_6_);fill:#DEFDEB;}
	.st167{clip-path:url(#SVGID_6_);fill:#DFFDEB;}
	.st168{clip-path:url(#SVGID_6_);fill:#E0FDEB;}
	.st169{clip-path:url(#SVGID_6_);fill:#E1FDEA;}
	.st170{clip-path:url(#SVGID_6_);fill:#E2FDEA;}
	.st171{clip-path:url(#SVGID_6_);fill:#E3FDEA;}
	.st172{clip-path:url(#SVGID_6_);fill:#E4FDEA;}
	.st173{clip-path:url(#SVGID_6_);fill:#E5FDEA;}
	.st174{clip-path:url(#SVGID_6_);fill:#E6FDE9;}
	.st175{clip-path:url(#SVGID_6_);fill:#E7FDE9;}
	.st176{clip-path:url(#SVGID_6_);fill:#E8FDE9;}
	.st177{clip-path:url(#SVGID_6_);fill:#E9FDE9;}
	.st178{clip-path:url(#SVGID_6_);fill:#EAFDE8;}
	.st179{clip-path:url(#SVGID_6_);fill:#EBFDE8;}
	.st180{clip-path:url(#SVGID_6_);fill:#ECFDE8;}
	.st181{clip-path:url(#SVGID_6_);fill:#EDFDE8;}
	.st182{clip-path:url(#SVGID_6_);fill:#EEFDE8;}
	.st183{clip-path:url(#SVGID_6_);fill:#EFFEE7;}
	.st184{clip-path:url(#SVGID_6_);fill:#F0FEE7;}
	.st185{clip-path:url(#SVGID_6_);fill:#F1FEE7;}
	.st186{clip-path:url(#SVGID_6_);fill:#F2FEE7;}
	.st187{clip-path:url(#SVGID_6_);fill:#F3FEE7;}
	.st188{clip-path:url(#SVGID_6_);fill:#F4FEE6;}
	.st189{clip-path:url(#SVGID_6_);fill:#F5FEE6;}
	.st190{clip-path:url(#SVGID_6_);fill:#F6FEE6;}
	.st191{clip-path:url(#SVGID_6_);fill:#F7FEE6;}
	.st192{clip-path:url(#SVGID_6_);fill:#F8FEE5;}
	.st193{clip-path:url(#SVGID_6_);fill:#F9FEE5;}
	.st194{clip-path:url(#SVGID_6_);fill:#FAFEE5;}
	.st195{fill:#2BA14C;}
	.st196{fill:#352E73;}
	.st197{fill:#7271B3;}
	.st198{fill:#FC008B;}
	.st199{fill:#FF7A03;}
	.st200{fill:#FCC13F;}
	.st201{fill:#8CD334;}
	.st202{fill:#FEE2BF;}
	.st203{fill:#FAE0B2;}
	.st204{opacity:0.68;}
	.st205{fill:#F3FFFF;}
	.st206{fill:#D6007E;}
	.st207{fill:#FFA42F;}
	.st208{fill:#7F1CA0;}
	.st209{fill:#ADEFF7;}
	.st210{fill:#2D2861;}
	.st211{fill:#F7A491;}
	.st212{opacity:0.5;}
	.st213{fill:#F47458;}
	.st214{fill:#F48C7F;}
	.st215{fill:#F79C8D;}
</style>
<g id="Слой_2">
</g>
<g id="Layer_1">
	<g>
		<g>
			<g>
				<defs>
					<path id="SVGID_1_" d="M909.95,893.99H421.48c-38.62,0-69.94-31.31-69.94-69.94l0,0c0-38.62,31.31-69.94,69.94-69.94h488.46
						c38.62,0,69.94,31.31,69.94,69.94l0,0C979.88,862.68,948.57,893.99,909.95,893.99z"/>
				</defs>
				<clipPath id="SVGID_2_">
					<use xlink:href="#SVGID_1_"  style="overflow:visible;"/>
				</clipPath>
				<polygon class="st0" points="979.88,759.1 430.36,754.11 979.88,754.11 				"/>
				<polygon class="st1" points="979.88,764.51 351.55,758.81 351.55,754.11 430.36,754.11 979.88,759.1 				"/>
				<polygon class="st2" points="979.88,769.92 351.55,764.23 351.55,758.81 979.88,764.51 				"/>
				<polygon class="st3" points="979.88,775.34 351.55,769.64 351.55,764.23 979.88,769.92 				"/>
				<polygon class="st4" points="979.88,780.75 351.55,775.06 351.55,769.64 979.88,775.34 				"/>
				<polygon class="st5" points="979.88,786.17 351.55,780.47 351.55,775.06 979.88,780.75 				"/>
				<polygon class="st6" points="979.88,791.58 351.55,785.89 351.55,780.47 979.88,786.17 				"/>
				<polygon class="st7" points="979.88,797 351.55,791.3 351.55,785.89 979.88,791.58 				"/>
				<polygon class="st8" points="979.88,802.41 351.55,796.72 351.55,791.3 979.88,797 				"/>
				<polygon class="st9" points="979.88,807.83 351.55,802.13 351.55,796.72 979.88,802.41 				"/>
				<polygon class="st10" points="979.88,813.24 351.55,807.55 351.55,802.13 979.88,807.83 				"/>
				<polygon class="st11" points="979.88,818.66 351.55,812.96 351.55,807.55 979.88,813.24 				"/>
				<polygon class="st12" points="979.88,824.07 351.55,818.37 351.55,812.96 979.88,818.66 				"/>
				<polygon class="st13" points="979.88,829.48 351.55,823.79 351.55,818.37 979.88,824.07 				"/>
				<polygon class="st14" points="979.88,834.9 351.55,829.2 351.55,823.79 979.88,829.48 				"/>
				<polygon class="st15" points="979.88,840.31 351.55,834.62 351.55,829.2 979.88,834.9 				"/>
				<polygon class="st16" points="979.88,845.73 351.55,840.03 351.55,834.62 979.88,840.31 				"/>
				<polygon class="st16" points="351.55,840.03 979.88,845.73 979.88,893.99 351.55,893.99 				"/>
			</g>
		</g>
		<g>
			<g>
				<defs>
					<path id="SVGID_3_" d="M788.42,437.32L788.42,437.32c39.33,0,71.2-32.9,71.2-73.48l0,0c0-40.58-31.88-73.48-71.2-73.48H288.57
						c-35.33,0-63.97,29.56-63.97,66.02l0,0c0,43.69-34.32,79.11-76.66,79.11h-12.88c-43.4,0-78.59,36.31-78.59,81.1v0
						c0,44.79,35.18,81.1,78.59,81.1h0c42.34,0,76.66,35.42,76.66,79.11v15.08c0,36.46,28.64,66.02,63.97,66.02h522.83
						c43.4,0,78.59-36.31,78.59-81.1v-0.08c0-44.75-35.15-81.02-78.51-81.02l0,0C756.22,595.7,751.66,437.32,788.42,437.32z"/>
				</defs>
				<clipPath id="SVGID_4_">
					<use xlink:href="#SVGID_3_"  style="overflow:visible;"/>
				</clipPath>
				<polygon class="st17" points="877.11,292.51 639.27,290.36 877.11,290.36 				"/>
				<polygon class="st18" points="877.11,297.93 56.47,290.49 56.47,290.36 639.27,290.36 877.11,292.51 				"/>
				<polygon class="st19" points="877.11,303.34 56.47,295.9 56.47,290.49 877.11,297.93 				"/>
				<polygon class="st20" points="877.11,308.76 56.47,301.32 56.47,295.9 877.11,303.34 				"/>
				<polygon class="st21" points="877.11,314.17 56.47,306.73 56.47,301.32 877.11,308.76 				"/>
				<polygon class="st22" points="877.11,319.59 56.47,312.15 56.47,306.73 877.11,314.17 				"/>
				<polygon class="st23" points="877.11,325 56.47,317.56 56.47,312.15 877.11,319.59 				"/>
				<polygon class="st24" points="877.11,330.41 56.47,322.98 56.47,317.56 877.11,325 				"/>
				<polygon class="st25" points="877.11,335.83 56.47,328.39 56.47,322.98 877.11,330.41 				"/>
				<polygon class="st26" points="877.11,341.24 56.47,333.81 56.47,328.39 877.11,335.83 				"/>
				<polygon class="st27" points="877.11,346.66 56.47,339.22 56.47,333.81 877.11,341.24 				"/>
				<polygon class="st28" points="877.11,352.07 56.47,344.63 56.47,339.22 877.11,346.66 				"/>
				<polygon class="st29" points="877.11,357.49 56.47,350.05 56.47,344.63 877.11,352.07 				"/>
				<polygon class="st30" points="877.11,362.9 56.47,355.46 56.47,350.05 877.11,357.49 				"/>
				<polygon class="st31" points="877.11,368.32 56.47,360.88 56.47,355.46 877.11,362.9 				"/>
				<polygon class="st32" points="877.11,373.73 56.47,366.29 56.47,360.88 877.11,368.32 				"/>
				<polygon class="st33" points="877.11,379.15 56.47,371.71 56.47,366.29 877.11,373.73 				"/>
				<polygon class="st34" points="877.11,384.56 56.47,377.12 56.47,371.71 877.11,379.15 				"/>
				<polygon class="st35" points="877.11,389.97 56.47,382.54 56.47,377.12 877.11,384.56 				"/>
				<polygon class="st36" points="877.11,395.39 56.47,387.95 56.47,382.54 877.11,389.97 				"/>
				<polygon class="st37" points="877.11,400.8 56.47,393.37 56.47,387.95 877.11,395.39 				"/>
				<polygon class="st38" points="877.11,406.22 56.47,398.78 56.47,393.37 877.11,400.8 				"/>
				<polygon class="st39" points="877.11,411.63 56.47,404.19 56.47,398.78 877.11,406.22 				"/>
				<polygon class="st40" points="877.11,417.05 56.47,409.61 56.47,404.19 877.11,411.63 				"/>
				<polygon class="st41" points="877.11,422.46 56.47,415.02 56.47,409.61 877.11,417.05 				"/>
				<polygon class="st42" points="877.11,427.88 56.47,420.44 56.47,415.02 877.11,422.46 				"/>
				<polygon class="st43" points="877.11,433.29 56.47,425.85 56.47,420.44 877.11,427.88 				"/>
				<polygon class="st44" points="877.11,438.71 56.47,431.27 56.47,425.85 877.11,433.29 				"/>
				<polygon class="st45" points="877.11,444.12 56.47,436.68 56.47,431.27 877.11,438.71 				"/>
				<polygon class="st46" points="877.11,449.53 56.47,442.1 56.47,436.68 877.11,444.12 				"/>
				<polygon class="st47" points="877.11,454.95 56.47,447.51 56.47,442.1 877.11,449.53 				"/>
				<polygon class="st48" points="877.11,460.36 56.47,452.93 56.47,447.51 877.11,454.95 				"/>
				<polygon class="st49" points="877.11,465.78 56.47,458.34 56.47,452.93 877.11,460.36 				"/>
				<polygon class="st50" points="877.11,471.19 56.47,463.75 56.47,458.34 877.11,465.78 				"/>
				<polygon class="st51" points="877.11,476.61 56.47,469.17 56.47,463.75 877.11,471.19 				"/>
				<polygon class="st52" points="877.11,482.02 56.47,474.58 56.47,469.17 877.11,476.61 				"/>
				<polygon class="st53" points="877.11,487.44 56.47,480 56.47,474.58 877.11,482.02 				"/>
				<polygon class="st54" points="877.11,492.85 56.47,485.41 56.47,480 877.11,487.44 				"/>
				<polygon class="st55" points="877.11,498.27 56.47,490.83 56.47,485.41 877.11,492.85 				"/>
				<polygon class="st56" points="877.11,503.68 56.47,496.24 56.47,490.83 877.11,498.27 				"/>
				<polygon class="st57" points="877.11,509.09 56.47,501.66 56.47,496.24 877.11,503.68 				"/>
				<polygon class="st58" points="877.11,514.51 56.47,507.07 56.47,501.66 877.11,509.09 				"/>
				<polygon class="st59" points="877.11,519.92 56.47,512.49 56.47,507.07 877.11,514.51 				"/>
				<polygon class="st60" points="877.11,525.34 56.47,517.9 56.47,512.49 877.11,519.92 				"/>
				<polygon class="st61" points="877.11,530.75 56.47,523.31 56.47,517.9 877.11,525.34 				"/>
				<polygon class="st62" points="877.11,536.17 56.47,528.73 56.47,523.31 877.11,530.75 				"/>
				<polygon class="st63" points="877.11,541.58 56.47,534.14 56.47,528.73 877.11,536.17 				"/>
				<polygon class="st64" points="877.11,547 56.47,539.56 56.47,534.14 877.11,541.58 				"/>
				<polygon class="st65" points="877.11,552.41 56.47,544.97 56.47,539.56 877.11,547 				"/>
				<polygon class="st66" points="877.11,557.83 56.47,550.39 56.47,544.97 877.11,552.41 				"/>
				<polygon class="st67" points="877.11,563.24 56.47,555.8 56.47,550.39 877.11,557.83 				"/>
				<polygon class="st68" points="877.11,568.65 56.47,561.22 56.47,555.8 877.11,563.24 				"/>
				<polygon class="st69" points="877.11,574.07 56.47,566.63 56.47,561.22 877.11,568.65 				"/>
				<polygon class="st70" points="877.11,579.48 56.47,572.05 56.47,566.63 877.11,574.07 				"/>
				<polygon class="st71" points="877.11,584.9 56.47,577.46 56.47,572.05 877.11,579.48 				"/>
				<polygon class="st72" points="877.11,590.31 56.47,582.87 56.47,577.46 877.11,584.9 				"/>
				<polygon class="st73" points="877.11,595.73 56.47,588.29 56.47,582.87 877.11,590.31 				"/>
				<polygon class="st74" points="877.11,601.14 56.47,593.7 56.47,588.29 877.11,595.73 				"/>
				<polygon class="st75" points="877.11,606.56 56.47,599.12 56.47,593.7 877.11,601.14 				"/>
				<polygon class="st76" points="877.11,611.97 56.47,604.53 56.47,599.12 877.11,606.56 				"/>
				<polygon class="st77" points="877.11,617.39 56.47,609.95 56.47,604.53 877.11,611.97 				"/>
				<polygon class="st78" points="877.11,622.8 56.47,615.36 56.47,609.95 877.11,617.39 				"/>
				<polygon class="st79" points="877.11,628.21 56.47,620.78 56.47,615.36 877.11,622.8 				"/>
				<polygon class="st80" points="877.11,633.63 56.47,626.19 56.47,620.78 877.11,628.21 				"/>
				<polygon class="st81" points="877.11,639.04 56.47,631.61 56.47,626.19 877.11,633.63 				"/>
				<polygon class="st82" points="877.11,644.46 56.47,637.02 56.47,631.61 877.11,639.04 				"/>
				<polygon class="st83" points="877.11,649.87 56.47,642.43 56.47,637.02 877.11,644.46 				"/>
				<polygon class="st84" points="877.11,655.29 56.47,647.85 56.47,642.43 877.11,649.87 				"/>
				<polygon class="st85" points="877.11,660.7 56.47,653.26 56.47,647.85 877.11,655.29 				"/>
				<polygon class="st86" points="877.11,666.12 56.47,658.68 56.47,653.26 877.11,660.7 				"/>
				<polygon class="st87" points="877.11,671.53 56.47,664.09 56.47,658.68 877.11,666.12 				"/>
				<polygon class="st88" points="877.11,676.95 56.47,669.51 56.47,664.09 877.11,671.53 				"/>
				<polygon class="st89" points="877.11,682.36 56.47,674.92 56.47,669.51 877.11,676.95 				"/>
				<polygon class="st90" points="877.11,687.77 56.47,680.34 56.47,674.92 877.11,682.36 				"/>
				<polygon class="st91" points="877.11,693.19 56.47,685.75 56.47,680.34 877.11,687.77 				"/>
				<polygon class="st92" points="877.11,698.6 56.47,691.17 56.47,685.75 877.11,693.19 				"/>
				<polygon class="st93" points="877.11,704.02 56.47,696.58 56.47,691.17 877.11,698.6 				"/>
				<polygon class="st94" points="877.11,709.43 56.47,701.99 56.47,696.58 877.11,704.02 				"/>
				<polygon class="st95" points="877.11,714.85 56.47,707.41 56.47,701.99 877.11,709.43 				"/>
				<polygon class="st96" points="877.11,720.26 56.47,712.82 56.47,707.41 877.11,714.85 				"/>
				<polygon class="st97" points="877.11,725.68 56.47,718.24 56.47,712.82 877.11,720.26 				"/>
				<polygon class="st98" points="877.11,731.09 56.47,723.65 56.47,718.24 877.11,725.68 				"/>
				<polygon class="st99" points="877.11,736.51 56.47,729.07 56.47,723.65 877.11,731.09 				"/>
				<polygon class="st100" points="877.11,741.92 56.47,734.48 56.47,729.07 877.11,736.51 				"/>
				<polygon class="st101" points="877.11,747.33 56.47,739.9 56.47,734.48 877.11,741.92 				"/>
				<polygon class="st102" points="877.11,752.75 56.47,745.31 56.47,739.9 877.11,747.33 				"/>
				<polygon class="st103" points="848.4,757.9 56.47,750.73 56.47,745.31 877.11,752.75 877.11,757.9 				"/>
				<polygon class="st104" points="251.01,757.9 56.47,756.14 56.47,750.73 848.4,757.9 				"/>
				<polygon class="st105" points="56.47,756.14 251.01,757.9 56.47,757.9 				"/>
			</g>
		</g>
		<g>
			<g>
				<defs>
					<path id="SVGID_5_" d="M880.63,604.81v-10.95c0-39.55-28.75-71.61-64.22-71.61l0,0c-37.94,0-68.7-34.3-68.7-76.61l0,0
						c0-42.31,30.76-76.61,68.7-76.61h482.27c34.09,0,61.72,30.81,61.72,68.83l0,0c0,45.55,33.11,82.48,73.96,82.48h12.42
						c41.88,0,75.82,37.85,75.82,84.55v0c0,46.7-33.95,84.55-75.82,84.55l0,0c-40.85,0-73.97,36.93-73.97,82.48v15.73
						c0,38.01-27.63,68.82-61.72,68.82H806.66c-41.88,0-75.82-37.85-75.82-84.55v-0.08c0-46.65,33.91-84.47,75.75-84.47l0,0
						C847.48,687.38,880.63,650.41,880.63,604.81z"/>
				</defs>
				<clipPath id="SVGID_6_">
					<use xlink:href="#SVGID_5_"  style="overflow:visible;"/>
				</clipPath>
				<polygon class="st106" points="1522.62,374.17 957.13,369.04 1522.62,369.04 				"/>
				<polygon class="st107" points="1522.62,379.58 732.04,372.42 732.07,369.04 957.13,369.04 1522.62,374.17 				"/>
				<polygon class="st108" points="1522.62,385 731.99,377.83 732.04,372.42 1522.62,379.58 				"/>
				<polygon class="st109" points="1522.62,390.41 731.94,383.24 731.99,377.83 1522.62,385 				"/>
				<polygon class="st110" points="1522.62,395.82 731.89,388.66 731.94,383.24 1522.62,390.41 				"/>
				<polygon class="st111" points="1522.62,401.24 731.84,394.07 731.89,388.66 1522.62,395.82 				"/>
				<polygon class="st112" points="1522.62,406.65 731.79,399.49 731.84,394.07 1522.62,401.24 				"/>
				<polygon class="st113" points="1522.62,412.07 731.74,404.9 731.79,399.49 1522.62,406.65 				"/>
				<polygon class="st114" points="1522.62,417.48 731.7,410.31 731.74,404.9 1522.62,412.07 				"/>
				<polygon class="st115" points="1522.62,422.9 731.65,415.73 731.7,410.31 1522.62,417.48 				"/>
				<polygon class="st116" points="1522.62,428.31 731.6,421.14 731.65,415.73 1522.62,422.9 				"/>
				<polygon class="st117" points="1522.62,433.73 731.55,426.56 731.6,421.14 1522.62,428.31 				"/>
				<polygon class="st118" points="1522.62,439.14 731.5,431.97 731.55,426.56 1522.62,433.73 				"/>
				<polygon class="st119" points="1522.62,444.56 731.45,437.38 731.5,431.97 1522.62,439.14 				"/>
				<polygon class="st120" points="1522.62,449.97 731.4,442.8 731.45,437.38 1522.62,444.56 				"/>
				<polygon class="st121" points="1522.62,455.38 731.35,448.21 731.4,442.8 1522.62,449.97 				"/>
				<polygon class="st122" points="1522.62,460.8 731.3,453.63 731.35,448.21 1522.62,455.38 				"/>
				<polygon class="st123" points="1522.62,466.21 731.25,459.04 731.3,453.63 1522.62,460.8 				"/>
				<polygon class="st124" points="1522.62,471.63 731.2,464.46 731.25,459.04 1522.62,466.21 				"/>
				<polygon class="st125" points="1522.62,477.04 731.16,469.87 731.2,464.46 1522.62,471.63 				"/>
				<polygon class="st126" points="1522.62,482.46 731.11,475.28 731.16,469.87 1522.62,477.04 				"/>
				<polygon class="st127" points="1522.62,487.87 731.06,480.7 731.11,475.28 1522.62,482.46 				"/>
				<polygon class="st128" points="1522.62,493.29 731.01,486.11 731.06,480.7 1522.62,487.87 				"/>
				<polygon class="st129" points="1522.62,498.7 730.96,491.53 731.01,486.11 1522.62,493.29 				"/>
				<polygon class="st130" points="1522.62,504.12 730.91,496.94 730.96,491.53 1522.62,498.7 				"/>
				<polygon class="st131" points="1522.62,509.53 730.86,502.35 730.91,496.94 1522.62,504.12 				"/>
				<polygon class="st132" points="1522.62,514.94 730.84,507.77 730.84,504.52 730.86,502.35 1522.62,509.53 				"/>
				<polygon class="st133" points="1522.62,520.36 730.84,513.18 730.84,507.77 1522.62,514.94 				"/>
				<polygon class="st134" points="1522.62,525.77 730.84,518.6 730.84,513.18 1522.62,520.36 				"/>
				<polygon class="st135" points="1522.62,531.19 730.84,524.01 730.84,518.6 1522.62,525.77 				"/>
				<polygon class="st136" points="1522.62,536.6 730.84,529.43 730.84,524.01 1522.62,531.19 				"/>
				<polygon class="st137" points="1522.62,542.02 730.84,534.84 730.84,529.43 1522.62,536.6 				"/>
				<polygon class="st138" points="1522.62,547.43 730.84,540.26 730.84,534.84 1522.62,542.02 				"/>
				<polygon class="st139" points="1522.62,552.85 730.84,545.67 730.84,540.26 1522.62,547.43 				"/>
				<polygon class="st140" points="1522.62,558.26 730.84,551.08 730.84,545.67 1522.62,552.85 				"/>
				<polygon class="st141" points="1522.62,563.68 730.84,556.5 730.84,551.08 1522.62,558.26 				"/>
				<polygon class="st142" points="1522.62,569.09 730.84,561.91 730.84,556.5 1522.62,563.68 				"/>
				<polygon class="st143" points="1522.62,574.5 730.84,567.33 730.84,561.91 1522.62,569.09 				"/>
				<polygon class="st144" points="1522.62,579.92 730.84,572.74 730.84,567.33 1522.62,574.5 				"/>
				<polygon class="st145" points="1522.62,585.33 730.84,578.16 730.84,572.74 1522.62,579.92 				"/>
				<polygon class="st146" points="1522.62,590.75 730.84,583.57 730.84,578.16 1522.62,585.33 				"/>
				<polygon class="st147" points="1522.62,596.16 730.84,588.99 730.84,583.57 1522.62,590.75 				"/>
				<polygon class="st148" points="1522.62,601.58 730.84,594.4 730.84,588.99 1522.62,596.16 				"/>
				<polygon class="st149" points="1522.62,606.99 730.84,599.82 730.84,594.4 1522.62,601.58 				"/>
				<polygon class="st150" points="1522.62,612.41 730.84,605.23 730.84,599.82 1522.62,606.99 				"/>
				<polygon class="st151" points="1522.62,617.82 730.84,610.64 730.84,605.23 1522.62,612.41 				"/>
				<polygon class="st152" points="1522.62,623.24 730.84,616.06 730.84,610.64 1522.62,617.82 				"/>
				<polygon class="st153" points="1522.62,628.65 730.84,621.47 730.84,616.06 1522.62,623.24 				"/>
				<polygon class="st154" points="1522.62,634.06 730.84,626.89 730.84,621.47 1522.62,628.65 				"/>
				<polygon class="st155" points="1522.62,639.48 730.84,632.3 730.84,626.89 1522.62,634.06 				"/>
				<polygon class="st156" points="1522.62,644.89 730.84,637.72 730.84,632.3 1522.62,639.48 				"/>
				<polygon class="st157" points="1522.62,650.31 730.84,643.13 730.84,637.72 1522.62,644.89 				"/>
				<polygon class="st158" points="1522.62,655.72 730.84,648.55 730.84,643.13 1522.62,650.31 				"/>
				<polygon class="st159" points="1522.62,661.14 730.84,653.96 730.84,648.55 1522.62,655.72 				"/>
				<polygon class="st160" points="1522.62,666.55 730.84,659.38 730.84,653.96 1522.62,661.14 				"/>
				<polygon class="st161" points="1522.62,671.97 730.84,664.79 730.84,659.38 1522.62,666.55 				"/>
				<polygon class="st162" points="1522.62,677.38 730.84,670.2 730.84,664.79 1522.62,671.97 				"/>
				<polygon class="st163" points="1522.62,682.8 730.84,675.62 730.84,670.2 1522.62,677.38 				"/>
				<polygon class="st164" points="1522.62,688.21 730.84,681.03 730.84,675.62 1522.62,682.8 				"/>
				<polygon class="st165" points="1522.62,693.62 730.84,686.45 730.84,681.03 1522.62,688.21 				"/>
				<polygon class="st166" points="1522.62,699.04 730.84,691.86 730.84,686.45 1522.62,693.62 				"/>
				<polygon class="st167" points="1522.62,704.45 730.84,697.28 730.84,691.86 1522.62,699.04 				"/>
				<polygon class="st168" points="1522.62,709.87 730.84,702.69 730.84,697.28 1522.62,704.45 				"/>
				<polygon class="st169" points="1522.62,715.28 730.84,708.11 730.84,702.69 1522.62,709.87 				"/>
				<polygon class="st170" points="1522.62,720.7 730.84,713.52 730.84,708.11 1522.62,715.28 				"/>
				<polygon class="st171" points="1522.62,726.11 730.84,718.94 730.84,713.52 1522.62,720.7 				"/>
				<polygon class="st172" points="1522.62,731.53 730.84,724.35 730.84,718.94 1522.62,726.11 				"/>
				<polygon class="st173" points="1522.62,736.94 730.84,729.76 730.84,724.35 1522.62,731.53 				"/>
				<polygon class="st174" points="1522.62,742.36 730.84,735.18 730.84,729.76 1522.62,736.94 				"/>
				<polygon class="st175" points="1522.62,747.77 730.84,740.59 730.84,735.18 1522.62,742.36 				"/>
				<polygon class="st176" points="1522.62,753.18 730.84,746.01 730.84,740.59 1522.62,747.77 				"/>
				<polygon class="st177" points="1522.62,758.6 730.84,751.42 730.84,746.01 1522.62,753.18 				"/>
				<polygon class="st178" points="1522.62,764.01 730.84,756.84 730.84,751.42 1522.62,758.6 				"/>
				<polygon class="st179" points="1522.62,769.43 730.84,762.25 730.84,756.84 1522.62,764.01 				"/>
				<polygon class="st180" points="1522.62,774.84 730.84,767.67 730.84,762.25 1522.62,769.43 				"/>
				<polygon class="st181" points="1522.62,780.26 730.84,773.08 730.84,767.67 1522.62,774.84 				"/>
				<polygon class="st182" points="1522.62,785.67 730.84,778.5 730.84,773.08 1522.62,780.26 				"/>
				<polygon class="st183" points="1522.62,791.09 730.84,783.91 730.84,778.5 1522.62,785.67 				"/>
				<polygon class="st184" points="1522.62,796.5 730.84,789.32 730.84,783.91 1522.62,791.09 				"/>
				<polygon class="st185" points="1522.62,801.92 730.84,794.74 730.84,789.32 1522.62,796.5 				"/>
				<polygon class="st186" points="1522.62,807.33 730.84,800.15 730.84,794.74 1522.62,801.92 				"/>
				<polygon class="st187" points="1522.62,812.74 730.84,805.57 730.84,800.15 1522.62,807.33 				"/>
				<polygon class="st188" points="1522.62,818.16 730.84,810.98 730.84,805.57 1522.62,812.74 				"/>
				<polygon class="st189" points="1522.62,823.57 730.84,816.4 730.84,810.98 1522.62,818.16 				"/>
				<polygon class="st190" points="1522.62,828.99 730.84,821.81 730.84,816.4 1522.62,823.57 				"/>
				<polygon class="st191" points="1522.62,834.4 730.84,827.23 730.84,821.81 1522.62,828.99 				"/>
				<polygon class="st192" points="1522.62,839.82 730.84,832.64 730.84,827.23 1522.62,834.4 				"/>
				<polygon class="st193" points="1522.62,845.23 730.84,838.06 730.84,832.64 1522.62,839.82 				"/>
				<polygon class="st194" points="1522.62,850.65 730.84,843.47 730.84,838.06 1522.62,845.23 				"/>
				<polygon class="st194" points="730.84,843.47 1522.62,850.65 1522.62,856.47 730.84,856.47 				"/>
			</g>
		</g>
		<g>
			<g>
				<path class="st195" d="M163.91,407.77c-13.47-14.18-35.98-13.76-36.14-13.81c-8.78,0.01-17.48,2.51-25.19,8.21
					c-2.2,1.66-4.15,3.47-5.82,5.59l5.14,3.43c0.67-2.05,4.96-7.07,10.36-9.81c4.57-2.46,10.1-3.9,16.05-3.91
					c10.42-0.17,23.5,4.04,31.15,11.99C161.11,409.09,162.64,408.5,163.91,407.77z"/>
			</g>
			<g>
				<path class="st196" d="M32.86,575.98c26.55,11.82,57.9-0.67,70.02-27.89c8.82-19.8,5.02-41.94-7.91-57.09
					c15.89-41.66,15.5-79.46-1.92-87.22c-8.13-3.62-16.69,0.23-22.46,3.68c-10.67,6.38-18.85,15.55-25.93,24.83
					c-8.81,11.55-16.61,23.73-23.56,36.35c-6.67,12.11-13.23,24.6-17.51,37.78c-3.41,10.52-4.79,21.84-2.4,33.46
					c1.98,9.66,7.2,19.15,16.01,26.53C21.85,570.3,27.22,573.47,32.86,575.98z"/>
			</g>
			<g>
				<path class="st197" d="M94.35,430.29c0,0-19.11,58.63-19.11,65.06c0,6.43,16.2,12.03,12.27,35.35
					c-3.93,23.32-18.38,32.11-33.4,28.46c-15.02-3.66-19.76-23.55-7.99-24.79c11.76-1.23,23.18,1.96,26.63-11.05
					c3.46-13.02-5.65-28.12-5.65-28.12L94.35,430.29z"/>
			</g>
			<g>
				<path class="st195" d="M95.08,434.86l-0.77-4.82c-0.1-0.65-0.92-1.11-1.58-0.9l-4.4,1.4c-0.73,0.23-1.61-0.36-1.59-1.05
					l0.13-4.27c0.02-0.75-0.98-1.34-1.71-1.01l-6.52,3.03l-0.26,0.13l-1.63-7.95c-0.13-0.64-0.96-1.08-1.6-0.86l-5.75,2.02
					c-0.68,0.24-1.55-0.27-1.62-0.94l-0.66-6.6c-0.04-0.43-0.43-0.83-0.92-0.96l-3.82-1.01c-0.74-0.2-1.16-0.94-0.8-1.45
					c11.46-16.03,30.34-12.32,31.56-12.06c0.04,0.01,0.08,0.02,0.12,0.03c2.57,0.78,4.83,1.72,6.81,2.8
					c18.54,10.05,12.66,31.62,9.76,39.45c-0.31,0.85-1.82,0.59-2.08-0.36l-0.3-1.1c-0.21-0.78-1.36-1.15-1.91-0.62l0,0
					c-0.51,0.5-1.58,0.21-1.87-0.51l-1.05-2.59c-0.24-0.59-1.02-0.92-1.6-0.68l-4.28,1.76C96.08,436.01,95.19,435.54,95.08,434.86z"
					/>
			</g>
		</g>
		<g>
			<g>
				<path class="st198" d="M341.64,345.87l-116.88-96.18c-26.56,32.28-21.92,79.97,10.35,106.53
					C267.38,382.78,315.08,378.14,341.64,345.87z"/>
			</g>
			<g>
				<g>
					<path class="st199" d="M284.92,356.77l-8.01-48.36l-29.78,36.19C258,352.98,271.21,357.22,284.92,356.77z"/>
				</g>
				<g>
					<path class="st199" d="M285.51,309.11l7.75,46.79c11.51-2,22.12-7.31,30.53-15.29L285.51,309.11z"/>
				</g>
				<g>
					<path class="st199" d="M271.33,302.02c-16.96,0.27-31.82,0.69-46.78,2.04c1.39,13.28,7.09,25.43,16.37,34.92L271.33,302.02z"/>
				</g>
				<g>
					<path class="st199" d="M224.26,295.68c13.76-1.22,27.38-1.68,42.55-1.96l-33.47-27.54
						C227.77,274.99,224.63,285.21,224.26,295.68z"/>
				</g>
			</g>
			<g>
				<path class="st200" d="M296.05,330.01c1.71-0.51,2.61-2.53,2.02-4.52c-0.59-1.98-4.39-6.65-6.05-6.02
					c-1.67,0.64-0.72,5.88-0.13,7.86C292.48,329.32,294.35,330.52,296.05,330.01z"/>
			</g>
			<g>
				<path class="st200" d="M313.52,341.82c1.31-1.2,1.25-3.42-0.15-4.94c-1.4-1.53-6.85-4.08-8.07-2.78
					c-1.22,1.3,1.91,5.61,3.31,7.14C310.01,342.76,312.21,343.03,313.52,341.82z"/>
			</g>
			<g>
				<path class="st200" d="M271.7,355.26c1.78,0.06,3.28-1.58,3.34-3.65c0.06-2.07-2.06-7.7-3.84-7.62
					c-1.78,0.08-2.54,5.35-2.61,7.42C268.53,353.48,269.92,355.2,271.7,355.26z"/>
			</g>
			<g>
				<path class="st200" d="M263.91,339.75c1.32,1.19,3.52,0.92,4.91-0.62c1.39-1.54,3.41-7.2,2-8.3c-1.41-1.09-5.4,2.43-6.79,3.97
					C262.64,336.34,262.59,338.56,263.91,339.75z"/>
			</g>
			<g>
				<path class="st200" d="M241.86,326.79c1.32,1.19,3.52,0.92,4.91-0.62c1.39-1.54,3.41-7.2,2-8.3c-1.41-1.09-5.4,2.43-6.79,3.97
					C240.59,323.38,240.54,325.6,241.86,326.79z"/>
			</g>
			<g>
				<path class="st200" d="M251.15,312.54c0.41,1.73,2.37,2.76,4.39,2.28c2.02-0.47,6.9-3.98,6.37-5.68
					c-0.54-1.7-5.83-1.07-7.84-0.6C252.04,309.02,250.74,310.81,251.15,312.54z"/>
			</g>
			<g>
				<path class="st200" d="M231.54,288.43c-0.28,1.76,1.14,3.45,3.19,3.78c2.04,0.33,7.9-1.05,8.05-2.83
					c0.15-1.78-4.98-3.21-7.02-3.54C233.71,285.51,231.83,286.67,231.54,288.43z"/>
			</g>
			<g>
				<path class="st200" d="M243.43,283.71c-1.06,1.43-0.57,3.59,1.1,4.82c1.67,1.23,7.5,2.68,8.45,1.17
					c0.95-1.51-2.96-5.14-4.62-6.37C246.7,282.11,244.49,282.28,243.43,283.71z"/>
			</g>
		</g>
		<g>
			<g>
				<path class="st195" d="M374.11,727.13c8.07,2.58,11.74,12.3,8.2,21.72c-3.54,9.42-12.95,14.96-21.01,12.38
					c-8.07-2.58-11.74-12.31-8.2-21.72C356.64,730.09,366.05,724.55,374.11,727.13z"/>
			</g>
			<g>
				<path class="st201" d="M372.3,728.72c2.44,0.11,4.34,2.01,4.24,4.24c-0.1,2.23-2.17,3.95-4.61,3.83
					c-2.44-0.11-4.34-2.01-4.24-4.24C367.79,730.32,369.86,728.6,372.3,728.72z"/>
			</g>
		</g>
		<g>
			<g>
				<path class="st195" d="M357.88,205.07l0.79-0.42c1.68-0.94,3.81-0.86,5.44,0.21c0,0,0.02,0.04,0.06,0.02
					c1.4,0.97,3.16,1.24,4.76,0.67l0.84-0.26c1.6-0.57,2.81-1.86,3.36-3.45c-0.02-0.04,0.02-0.06,0-0.09
					c0.59-1.85,2.25-3.19,4.18-3.47l0.89-0.15c1.92-0.32,3.89,0.43,5.03,2.05l0.02,0.04c1,1.37,2.58,2.24,4.27,2.27l0.88,0
					c1.69,0.03,3.31-0.74,4.32-2.07c0.02-0.05,0.02-0.05,0.05-0.07c1.21-1.57,3.2-2.26,5.12-1.88l0.88,0.18
					c1.91,0.37,3.49,1.76,4.03,3.65c0.02,0.04,0.02,0.04,0.04,0.07c0.44,1.62,1.61,2.94,3.2,3.58l0.81,0.31
					c1.57,0.6,3.36,0.39,4.78-0.5c0.04-0.02,0.04-0.02,0.07-0.04c1.64-1.01,3.78-0.99,5.44,0.03l0.74,0.44
					c1.69,1,2.73,2.86,2.55,4.81c0.02,0.04,0.02,0.04,0,0.09c-0.12,1.69,0.52,3.34,1.79,4.42l0.69,0.61
					c1.27,1.08,2.98,1.52,4.64,1.15c0.05,0.02,0.05,0.02,0.09,0c1.91-0.41,3.89,0.34,5.12,1.87l0.55,0.68
					c1.23,1.53,1.55,3.62,0.74,5.4l-0.02,0.06c-0.71,1.54-0.65,3.31,0.14,4.79l0.46,0.78c0.84,1.5,2.29,2.49,3.98,2.7l0.06,0.02
					c1.95,0.26,3.56,1.63,4.19,3.52l0.29,0.82c0.61,1.85,0.19,3.93-1.15,5.34c-0.04,0.02-0.04,0.02-0.07,0.04
					c-1.16,1.22-1.74,2.92-1.46,4.58l0.13,0.86c0.26,1.71,1.32,3.1,2.82,3.92l0.06,0.02c1.74,0.93,2.76,2.75,2.73,4.71l-0.03,0.9
					c-0.02,1.96-1.12,3.74-2.89,4.59c-0.04,0.02-0.04,0.02-0.07,0.04c-1.5,0.75-2.62,2.13-2.95,3.79l-0.18,0.88
					c-0.33,1.66,0.17,3.38,1.34,4.62l0.02,0.04c1.34,1.47,1.66,3.57,0.96,5.38l-0.31,0.81c-0.69,1.85-2.36,3.15-4.33,3.37
					l-0.04,0.02c-1.68,0.15-3.23,1.07-4.07,2.54l-0.48,0.76c-0.86,1.43-0.98,3.21-0.34,4.77c0.02,0.04,0.04,0.07,0.04,0.07
					c0.74,1.83,0.32,3.91-0.95,5.37l-0.57,0.67c-1.3,1.48-3.3,2.17-5.23,1.67c0,0,0,0-0.05-0.02c-1.6-0.4-3.37-0.06-4.7,1.01
					l-0.68,0.55c-1.33,1.08-2.04,2.7-1.98,4.39c0.02,0.04,0.02,0.04,0.04,0.07c0.07,1.96-1.04,3.8-2.72,4.74l-0.79,0.42
					c-0.87,0.46-1.85,0.71-2.8,0.66l-4.68-8.82l-43.6-81.8l-7.03-13.23C357.36,205.39,357.63,205.2,357.88,205.07z"/>
			</g>
			<g>
				<path class="st201" d="M364.17,218.83c20.89-11.1,47.06-2.74,58.45,18.7c11.35,21.37,3.68,47.66-17.14,58.81L364.17,218.83z"/>
			</g>
			<g>
				<path class="st202" d="M413.66,279.71c1.63,1.74,1.55,4.47-0.19,6.1c-1.74,1.63-4.47,1.55-6.1-0.19
					c-1.63-1.74-5.71-9.57-3.98-11.2C405.12,272.79,412.02,277.97,413.66,279.71z"/>
			</g>
			<g>
				<path class="st202" d="M416.75,259.58c2.38-0.19,4.46,1.58,4.65,3.96c0.19,2.38-1.58,4.46-3.96,4.65
					c-2.38,0.19-11.04-1.51-11.23-3.89C406.02,261.92,414.37,259.77,416.75,259.58z"/>
			</g>
			<g>
				<path class="st202" d="M409.58,239.71c1.8-1.57,4.53-1.38,6.09,0.42c1.57,1.8,1.38,4.53-0.42,6.09
					c-1.8,1.57-9.78,5.35-11.34,3.55C402.34,247.98,407.78,241.28,409.58,239.71z"/>
			</g>
			<g>
				<path class="st202" d="M392.44,228c1.01-2.16,3.58-3.1,5.74-2.09c2.16,1.01,3.1,3.58,2.09,5.74c-1.01,2.16-6.77,8.86-8.93,7.85
					C389.18,238.48,391.43,230.16,392.44,228z"/>
			</g>
			<g>
				<path class="st202" d="M373.3,225.49c-0.2-2.38,1.56-4.47,3.93-4.67c2.38-0.2,4.47,1.56,4.67,3.93
					c0.2,2.38-1.46,11.05-3.83,11.25C375.7,236.21,373.51,227.87,373.3,225.49z"/>
			</g>
		</g>
		<g>
			<g>
				<path class="st198" d="M1391.93,254.62c-24.89-24.34-64.58-23.68-88.65,1.49c-24.07,25.16-23.42,65.3,1.47,89.64
					c24.89,24.34,64.58,23.68,88.65-1.49C1417.48,319.1,1416.82,278.97,1391.93,254.62z M1331.61,317.68
					c-9.56-9.35-9.81-24.76-0.56-34.42c9.24-9.66,24.48-9.92,34.04-0.57c9.56,9.35,9.81,24.76,0.57,34.42
					C1356.4,326.77,1341.16,327.03,1331.61,317.68z"/>
			</g>
			<g>
				<path class="st203" d="M1342.66,261.5L1342.66,261.5c-1.26-1.23-1.29-3.27-0.07-4.54l4.41-4.61c1.22-1.27,3.23-1.31,4.49-0.08
					l0,0c1.26,1.23,1.29,3.26,0.07,4.54l-4.41,4.61C1345.93,262.7,1343.92,262.74,1342.66,261.5z"/>
			</g>
			<g>
				<path class="st203" d="M1383.64,324.9L1383.64,324.9c-1.42,1.04-3.4,0.73-4.43-0.7l-3.74-5.19c-1.03-1.43-0.72-3.44,0.7-4.48
					l0,0c1.42-1.04,3.4-0.73,4.43,0.7l3.74,5.19C1385.37,321.84,1385.06,323.85,1383.64,324.9z"/>
			</g>
			<g>
				<path class="st203" d="M1326.16,270.51l-0.11,0.56c-0.31,1.58-1.83,2.61-3.4,2.3l-4.48-0.9c-1.57-0.31-2.58-1.85-2.27-3.43
					l0.11-0.56c0.31-1.58,1.83-2.61,3.4-2.3l4.48,0.9C1325.45,267.39,1326.47,268.93,1326.16,270.51z"/>
			</g>
			<g>
				<path class="st203" d="M1359.37,341.46l-0.11,0.56c-0.31,1.58-1.83,2.61-3.4,2.3l-4.48-0.9c-1.57-0.31-2.58-1.85-2.27-3.43
					l0.11-0.56c0.31-1.58,1.83-2.61,3.4-2.3l4.48,0.9C1358.66,338.34,1359.68,339.87,1359.37,341.46z"/>
			</g>
			<g>
				<path class="st203" d="M1374.38,271.34l-0.44,0.36c-1.25,1.01-3.07,0.8-4.06-0.46l-2.84-3.61c-1-1.26-0.79-3.1,0.46-4.11
					l0.45-0.36c1.25-1.01,3.07-0.8,4.06,0.46l2.85,3.61C1375.84,268.49,1375.63,270.33,1374.38,271.34z"/>
			</g>
			<g>
				<path class="st203" d="M1337.69,343.24L1337.69,343.24c-1.37,1.11-3.37,0.88-4.46-0.51l-2.49-3.16
					c-1.09-1.39-0.87-3.41,0.5-4.51l0,0c1.37-1.1,3.37-0.88,4.46,0.51l2.49,3.16C1339.29,340.11,1339.06,342.13,1337.69,343.24z"/>
			</g>
			<g>
				<path class="st203" d="M1393.91,292.84l0.03,0.57c0.09,1.61-1.13,2.99-2.72,3.08l-4.56,0.26c-1.59,0.09-2.96-1.14-3.05-2.75
					l-0.03-0.57c-0.09-1.61,1.13-2.99,2.72-3.08l4.56-0.26C1392.45,289.99,1393.82,291.23,1393.91,292.84z"/>
			</g>
			<g>
				<path class="st203" d="M1316.61,320.84l0.03,0.57c0.09,1.61-1.13,2.99-2.72,3.08l-4.56,0.26c-1.59,0.09-2.96-1.14-3.05-2.75
					l-0.03-0.57c-0.09-1.61,1.13-2.99,2.72-3.08l4.56-0.26C1315.16,318,1316.52,319.23,1316.61,320.84z"/>
			</g>
			<g>
				<path class="st203" d="M1312.05,298.31L1312.05,298.31c-1.45,1-3.42,0.62-4.41-0.85l-3.57-5.31c-0.99-1.46-0.61-3.46,0.84-4.46
					l0,0c1.45-1,3.42-0.62,4.41,0.85l3.57,5.31C1313.87,295.32,1313.49,297.31,1312.05,298.31z"/>
			</g>
		</g>
		<g>
			<g>
				<g>
					<polygon class="st200" points="1395.53,528.41 1277.53,610.96 1274.59,603.23 1243.55,522.03 1325.47,464.71 					"/>
				</g>
				<g class="st204">
					<polygon class="st199" points="1325.47,577.43 1290.22,602.09 1255.68,513.54 1269.6,503.8 					"/>
				</g>
				<g class="st204">
					<polygon class="st199" points="1371.08,545.51 1344.16,564.34 1287.58,491.22 1301.72,481.33 					"/>
				</g>
			</g>
			<g>
				<path class="st205" d="M1289.09,482.42c0,0-15.91,8.76-26.91,13.37c-10.99,4.61-29.35,13.96-28.79,24.24
					c0.55,10.28,10.64,18.15,15.54,15.67c4.9-2.48,7.41-6.13,9.44-11.35c2.04-5.22,0.76-8.48,0.11-11.66c0,0-0.43-3.36,4.41,0.84
					c4.83,4.2,9.28,26.7,16.09,34.74c6.81,8.04,16.09-0.14,12.2-7.52c-3.04-5.76-27.22-24.34-25.9-30.24
					c1.32-5.9,6.37-7.61,9.9-3.92c3.53,3.69,5.96,17.55,11.12,22.33c5.39,5,11.74-2.53,8-8.21c-3.74-5.68-18.08-14.54-16.26-17.71
					c1.82-3.17,10.73,1.67,20.36,0.86c9.62-0.81,11.86-14.22,11.51-20.14c-0.35-5.92,5.13-18.76,17.09-11.48
					c11.96,7.27,21.93,38.46,28.32,44.89c6.39,6.43,20.09-0.07,14.78-11.05c-4.49-9.28-27.45-25.83-36.5-34.28
					c-1.77-1.65-3.32-4.09-2.62-6.41c1.13-3.7-0.33-7.62-4.25-10.61c-7.13-5.44-19.22-3.04-26.54,6.82
					C1292.89,471.46,1289.09,482.42,1289.09,482.42z"/>
			</g>
			<g>
				<path class="st205" d="M1304.03,471.25c0,0-10.82,5.2-11.46,5.64c-0.64,0.45-16.93,4.26-24.17,10.51
					c-7.24,6.25-16.04,17.39-16.04,17.39s38.84-16.98,39.32-17.32C1292.16,487.14,1304.03,471.25,1304.03,471.25z"/>
			</g>
			<g>
				<g>
					<path class="st199" d="M1274.03,437.3c5.6,0.78,11.69,3.75,14.22,8.81c4.14,8.08-0.88,18.23-3.61,23.34
						c-0.57,1.06-1.46,1.7-1.68,2.29c2.82-6.36,6.52-13.27,5.62-20.23c-0.9-7.37-7.5-11.38-14.85-12.15L1274.03,437.3z"/>
				</g>
				<g>
					<path class="st198" d="M1295.77,475.33c1.16,5.55-3.71,11.26-10.87,12.75c-7.16,1.49-13.9-1.8-15.06-7.35
						c-1.16-5.55,3.71-11.26,10.87-12.75C1287.87,466.49,1294.62,469.78,1295.77,475.33z"/>
				</g>
				<g>
					<path class="st206" d="M1286.53,467.81c7.08,5.49,2.74,15.69-7.57,17.84c-2.01,0.42-3.99,0.45-5.82,0.17
						c2.89,2.24,7.24,3.21,11.76,2.26c7.16-1.49,12.03-7.2,10.87-12.75C1294.94,471.34,1291.22,468.53,1286.53,467.81z"/>
				</g>
			</g>
		</g>
		<g>
			<g>
				<path class="st195" d="M1382.46,387.32c0.13,0.28,0.26,0.57,0.39,0.85c0.81,1.77,1.62,3.54,2.43,5.31
					c0.22,0.49,0.44,0.97,0.67,1.46l53.85-13.31l30.91-22.67l-3.19-8.89l-2.91,0.92l-1.52,3.05l-3.41,0.1l-1.6,3.01l-3.41,0.02
					l-1.66,2.98l-3.41-0.05l-1.73,2.94l-3.41-0.12l-1.79,2.9l-3.4-0.2l-1.86,2.86l-3.4-0.28l-1.92,2.82l-3.39-0.36l-2,2.76
					l-3.38-0.45l-2.07,2.71l-3.36-0.55l-2.16,2.64l-3.35-0.66l-2.25,2.56l-3.32-0.79l-2.34,2.48l-3.28-0.92l-2.45,2.37l-3.24-1.08
					l-2.57,2.24l-3.17-1.25l-2.7,2.09l-3.09-1.45l-2.87,1.03C1381.56,385.35,1382.01,386.34,1382.46,387.32z"/>
			</g>
			<g>
				<path class="st201" d="M1385.73,394.2c-0.71,0.08,17.24,32.95,19.88,42.53c2.64,9.58,14.51,42.54,14.51,42.54l87-34.02
					c0,0-22.94-43.94-28.15-58.46c-5.21-14.53-7.54-27.91-8.26-27.83C1469.99,359.03,1409.18,391.64,1385.73,394.2z"/>
			</g>
			<g>
				<path class="st199" d="M1455.08,475.46c0,0,11.07,17.21,39.11,10.53c25.82-6.16,23.34-34.05,9.68-35.08
					c-13.66-1.03-28.01,1.73-36.09-0.9C1452.93,445.18,1447.15,467.38,1455.08,475.46z"/>
			</g>
			<g>
				<path class="st200" d="M1487.97,440.23c-1.05,2.68-1.19,6.08-0.93,8.49c0.75,6.81,4.71,12.54,10.58,16
					c14.68,8.65,47.04,0.21,40.37-16.64c-6.68-16.84-21.38-2.21-30.36-6.46c-4.03-1.9-6.64-5.71-11.09-6.43
					C1492.97,434.62,1489.06,437.46,1487.97,440.23z"/>
			</g>
			<g>
				<path class="st200" d="M1509.25,381.73c1.77,2.27,4.62,4.12,6.83,5.13c6.24,2.83,13.19,2.35,19.16-0.94
					c14.93-8.22,24.17-40.36,6.28-43.21c-17.89-2.85-12.81,17.26-21.04,22.82c-3.69,2.49-8.3,2.8-11.19,6.26
					C1506.97,374.57,1507.42,379.38,1509.25,381.73z"/>
			</g>
			<g>
				<path class="st200" d="M1453.2,459.58c-5.65,2.98-12.15,3.95-18.38,2.5c-4.59-1.07-15.13-1.65-20.94,3.92
					c-10.54,10.11-5.41,25.37,9.71,31.37c13.25,5.25,50.9,1.8,50.82-25.48C1474.36,452.8,1462.85,454.49,1453.2,459.58z"/>
			</g>
			<g>
				<path class="st202" d="M1481.51,406.47c3.83,10.74-8.82,25.07-28.25,31.99c-19.43,6.93-38.29,3.83-42.12-6.91
					c-3.83-10.74,8.82-25.07,28.25-31.99C1458.83,392.63,1477.68,395.73,1481.51,406.47z"/>
			</g>
			<g>
				<g>
					<path class="st199" d="M1419.16,487.15c2.45-1.85,3.8-5.24,5.18-7.9c1.55-3,2.9-6.29,3.53-9.62c0.18-0.92-1.04-1.13-1.46-0.44
						c-1.71,2.85-3.11,5.95-4.57,8.94c-1.29,2.65-3.39,5.34-3.94,8.25C1417.76,487.07,1418.61,487.56,1419.16,487.15L1419.16,487.15
						z"/>
				</g>
			</g>
			<g>
				<g>
					<path class="st199" d="M1428.23,489.87c4.55-1.86,8.12-13.44,9.19-18.3c0.26-1.18-1.69-1.79-2.06-0.61
						c-1.03,3.34-2.38,6.48-3.95,9.61c-1.3,2.6-3.96,5.63-4.16,8.53C1427.23,489.62,1427.69,490.09,1428.23,489.87L1428.23,489.87z"
						/>
				</g>
			</g>
			<g>
				<g>
					<path class="st199" d="M1441.81,487.64c0.99-1.85,1.08-3.87,1.4-5.91c0.35-2.23,0.98-4.41,1.32-6.63c0.32-2.1-2.59-2.82-3.35-1
						c-1.53,3.69-2.99,9.7-1.32,13.5C1440.24,488.46,1441.38,488.44,1441.81,487.64L1441.81,487.64z"/>
				</g>
			</g>
			<g>
				<g>
					<path class="st199" d="M1451.58,485.07c0.45-2.66,0.72-6.32-0.75-8.73c-1.05-1.72-3.75,2.24-0.89,8.9
						C1450.27,486.02,1451.43,485.91,1451.58,485.07L1451.58,485.07z"/>
				</g>
			</g>
			<g>
				<g>
					<path class="st199" d="M1454.69,476.35c1.29,6.19,4.41,4.5,4.13,2.98c-0.27-1.47-1.41-2.89-2.47-3.89
						C1455.73,474.86,1454.51,475.49,1454.69,476.35L1454.69,476.35z"/>
				</g>
			</g>
			<g>
				<g>
					<path class="st199" d="M1497.18,443.78c-1.29,1.86-2.03,3.62-2.61,5.81c-0.5,1.89-1.28,4.05-0.15,5.82
						c0.27,0.43,1.05,0.57,1.43,0.21c1.36-1.28,1.35-3.07,1.71-4.82c0.44-2.11,0.97-4.14,1.28-6.28
						C1498.96,443.64,1497.73,442.98,1497.18,443.78L1497.18,443.78z"/>
				</g>
			</g>
			<g>
				<g>
					<path class="st199" d="M1502.34,446.56c-0.96,2.52-2.69,9.76-1.87,12.47c0.29,0.96,1.66,0.85,2.05,0.04
						c0.83-1.75,0.69-3.79,0.89-5.69c0.23-2.1,0.58-4.18,0.72-6.29C1504.19,446.11,1502.75,445.49,1502.34,446.56L1502.34,446.56z"
						/>
				</g>
			</g>
			<g>
				<g>
					<path class="st199" d="M1509.4,447.32c-0.21,2.26-0.72,9.98,0.08,12.34c0.27,0.8,1.67,0.92,1.94,0.04
						c1.13-3.68,0.23-8.57-0.22-12.33C1511.08,446.37,1509.49,446.26,1509.4,447.32L1509.4,447.32z"/>
				</g>
			</g>
			<g>
				<g>
					<path class="st199" d="M1515.9,448.21c-0.32,1.5-0.12,2.91,0.02,4.42c0.32,3.46,0.34,5.34,1.79,5.45
						c1.17,0.09,1.79-0.6,1.8-1.71c0-1.13-0.74-6.68-1.59-8.38C1517.46,447.06,1516.13,447.16,1515.9,448.21L1515.9,448.21z"/>
				</g>
			</g>
			<g>
				<g>
					<path class="st199" d="M1523.15,448.44c-1.12,2.39-0.84,5.92,0.96,6.11c0.73,0.08,1.27-0.08,1.62-0.76
						c0.76-1.46-1.01-2.6-0.79-4.82C1525.04,447.94,1523.61,447.45,1523.15,448.44L1523.15,448.44z"/>
				</g>
			</g>
			<g>
				<g>
					<path class="st199" d="M1518.6,375.83c1.25,2.44,2.79,2.35,4.11,7.44c0.41,1.59,3.04,0.91,2.8-0.69
						c-0.46-3-2.68-7.41-6.07-7.79C1518.91,374.73,1518.31,375.28,1518.6,375.83L1518.6,375.83z"/>
				</g>
			</g>
			<g>
				<g>
					<path class="st199" d="M1522.49,372.5c7.25,6.45,6.17,8.73,8.81,9.99c0.59,0.28,1.23-0.14,1.35-0.73
						c0.47-2.26-1.83-4.72-3.22-6.26c-1.78-1.96-3.66-3.31-6.08-4.4C1522.47,370.7,1521.8,371.88,1522.49,372.5L1522.49,372.5z"/>
				</g>
			</g>
			<g>
				<g>
					<path class="st199" d="M1527.58,366.57c8.2,5.66,8.42,9.12,10.94,8.85c0.29-0.03,0.64-0.24,0.73-0.53
						c0.72-2.19-2.21-4.22-3.66-5.49c-2.14-1.88-4.48-3.21-7.1-4.32C1527.6,364.7,1526.72,365.98,1527.58,366.57L1527.58,366.57z"/>
				</g>
			</g>
			<g>
				<g>
					<path class="st199" d="M1532,359.67c2.9,2.06,6.08,3.68,8.84,5.96c1.78,1.47,4.05-1.36,2.25-2.8
						c-3.06-2.43-6.36-4.53-10.33-4.87C1531.87,357.89,1531.15,359.07,1532,359.67L1532,359.67z"/>
				</g>
			</g>
			<g>
				<g>
					<path class="st199" d="M1541.02,355.18c0.4,0.43,1.1,0.8,1.7,0.49c-0.01,0-0.02,0-0.03,0c0.29-0.04,0.62-0.22,0.71-0.52
						c-0.03,0.03-0.06,0.05-0.08,0.08c0.44-0.69,0.42-1.47-0.22-2.04c-1.67-1.49-3.87-2.06-6.07-1.63
						c-0.88,0.17-1.07,1.62-0.04,1.69C1537.04,353.26,1539.28,353.31,1541.02,355.18z"/>
				</g>
			</g>
			<g>
				<g>
					<path class="st200" d="M1530.52,407.61c0.91,3.81,3.73,7.76,6.25,10.31c7.09,7.19,17.74,10.84,29.02,10.54
						c28.23-0.77,65.97-33.72,41.67-48.02c-24.3-14.31-31.87,12.92-48.19,14.58c-7.33,0.75-14.36-1.69-21.22,0.7
						C1532.52,397.64,1529.58,403.69,1530.52,407.61z"/>
				</g>
				<g>
					<g>
						<path class="st199" d="M1549.73,402.42c-1.26,1.48-0.15,3.86-0.06,5.51c0.11,1.98-0.9,4.55,0.26,6.35
							c0.24,0.37,0.88,0.57,1.31,0.25c2.05-1.53,1.6-4.45,1.4-6.51c-0.17-1.76-0.27-4.86-2.63-5.67
							C1549.91,402.32,1549.78,402.35,1549.73,402.42L1549.73,402.42z"/>
					</g>
				</g>
				<g>
					<g>
						<path class="st199" d="M1558.41,401.19c0.02,2.79,0.84,5.44,1.21,8.21c0.35,2.69-0.2,5.67,1.04,8.2
							c0.32,0.66,1.42,0.52,1.74-0.05c1.38-2.4,0.68-5.52,0.31-8.07c-0.43-2.98-0.93-5.88-2.78-8.5
							C1559.59,400.48,1558.4,400.47,1558.41,401.19L1558.41,401.19z"/>
					</g>
				</g>
				<g>
					<g>
						<path class="st199" d="M1568.85,398.78c3.66,12.36,2.36,15.29,4.77,18.02c1.42,1.61,5.9,0.01-3.25-18.4
							C1570.04,397.72,1568.63,398.05,1568.85,398.78L1568.85,398.78z"/>
					</g>
				</g>
				<g>
					<g>
						<path class="st199" d="M1577.13,395.05c-0.48,2.67,2.19,6.11,3.5,8.51c1.59,2.91,3.22,6.18,5.53,8.76
							c0.77,0.86,2.61,0.18,2.33-0.85c-0.83-3.11-2.76-6.29-4.37-9.18c-1.34-2.41-2.71-6.29-5.49-7.78
							C1578.01,394.17,1577.24,394.46,1577.13,395.05L1577.13,395.05z"/>
					</g>
				</g>
				<g>
					<g>
						<path class="st199" d="M1585.43,389.28c3.49,4.56,6.44,9.47,10.11,13.92c1.62,1.96,4.92-0.08,4.06-2.03
							c-2.29-5.25-7.51-9.75-13.02-12.88C1585.74,387.81,1584.94,388.65,1585.43,389.28L1585.43,389.28z"/>
					</g>
				</g>
				<g>
					<g>
						<path class="st199" d="M1594.48,385.78c1.39,1.98,4.26,6.49,7.11,6.42c1.01-0.02,1.96-0.48,2.05-1.39
							c0.26-2.45-5.22-5.08-7.4-6.21C1595.35,384.15,1593.85,384.88,1594.48,385.78L1594.48,385.78z"/>
					</g>
				</g>
			</g>
		</g>
		<g>
			<g>
				<g>
					<path class="st207" d="M1176.42,368.89c-8.37,3.51-17.27,5.7-26.27,6.34c-18.74,1.33-35.97-6.86-47.28-22.47
						c-10.85-14.98-14.43-34.12-8.91-47.63c6.48-15.85,24.53-24.2,39.02-24.27c5.1-0.02,9.8,0.9,13.9,2.66
						c3.6-8.1,10.07-14.81,17.74-18.03c10.2-4.28,24.33-2.72,36.01,3.96c12.47,7.13,20.41,19.03,22.37,33.49
						c1.84,13.67-2.99,28.4-13.62,41.47C1200.71,355.11,1189.19,363.53,1176.42,368.89z M1122.74,301.61
						c-5.11,2.15-9.67,5.77-11.62,10.54c-2.59,6.32-1.1,18.89,6.76,29.74c4.39,6.06,14.24,16.04,30.95,14.85
						c17.45-1.24,35.14-10.44,46.17-24.01c7.37-9.06,10.79-18.76,9.64-27.3c-1.49-11.05-8-16.91-13.2-19.89
						c-7.33-4.2-15.59-4.66-19.64-2.96c-4.3,1.8-8.05,6.77-9.14,12.07c-0.58,2.84-0.26,5.4,0.83,6.52c3.56,3.67,3.47,9.54-0.2,13.1
						c-1.08,1.05-2.35,1.78-3.7,2.2c-0.64,1.32-1.39,2.66-2.24,4.02c-2.72,4.34-8.44,5.64-12.77,2.92
						c-4.33-2.72-5.64-8.44-2.92-12.77c2.31-3.69,2.39-5.59,2.23-5.96c-1.95-4.65-7.61-5.32-10.81-5.3
						C1129.79,299.42,1126.14,300.19,1122.74,301.61z"/>
				</g>
			</g>
			<g>
				<g>
					<path class="st199" d="M1214.53,298.29c-0.12,0.09-4.13,3-10.07,6.07c0.06,0.36,0.13,0.71,0.18,1.08
						c1.15,8.53-2.26,18.22-9.61,27.27c4.64-1.06,9.04-2.56,13-4.23c5.54-2.32,10.23-4.94,13.57-7c1.72-6.22,2.22-12.47,1.4-18.52
						c-0.28-2.04-0.69-4.03-1.2-5.97C1219.29,296.31,1216.67,296.68,1214.53,298.29z"/>
				</g>
			</g>
			<g>
				<g>
					<path class="st199" d="M1133.67,354.5c-7.8-3.12-12.94-8.68-15.79-12.61c-0.62-0.86-1.19-1.72-1.73-2.6
						c-5.51,4.72-10.83,8.75-14.66,11.47c0.45,0.67,0.9,1.34,1.38,2c4.31,5.95,9.49,10.83,15.28,14.5
						C1122.41,364.07,1127.97,359.66,1133.67,354.5z"/>
				</g>
			</g>
			<g>
				<g>
					<path class="st207" d="M1205.29,318.8c-16.03,6.73-39.13,11.75-55.1-4.71c-3.56-3.67-3.47-9.54,0.2-13.1
						c3.67-3.56,9.54-3.47,13.1,0.2c15.14,15.61,49.31-7.23,49.65-7.46c4.22-2.91,9.98-1.85,12.89,2.37
						c2.91,4.21,1.85,9.98-2.37,12.89C1222.91,309.5,1215.54,314.5,1205.29,318.8z"/>
				</g>
			</g>
			<g>
				<g>
					<path class="st207" d="M1110.31,361.43c-4.12,1.73-9.01,0.26-11.44-3.66c-2.7-4.34-1.37-10.06,2.97-12.76l0,0
						c8.34-5.19,31.75-21.48,39.82-34.35c2.72-4.34,8.44-5.64,12.77-2.92c4.34,2.72,5.64,8.44,2.92,12.77
						c-12,19.13-44.36,39.38-45.73,40.23C1111.19,361.01,1110.75,361.24,1110.31,361.43z"/>
				</g>
			</g>
		</g>
		<g>
			<g>
				<path class="st201" d="M339.96,428.81c0,0-2.71,9.41,5.27,15c7.98,5.59,27.94-8.94,34.65-11.97c6.71-3.03,9.26-0.64,9.26-0.64
					s-15.17-30.81-38.64-26.02C336.5,408.03,335.81,418.12,339.96,428.81z"/>
			</g>
			<g>
				<path class="st195" d="M371.79,430.73c-2.34-0.38-8.09-1.62-10.3-3.32c7.48,0.01,15.21,0.64,22.06,1.4
					c-3.65-0.84-8.34-1.72-13.39-2.41c0.4-3.11,6.46-4.19,6.53-4.2c0.42-0.07,0.31-0.7-0.11-0.63c-0.28,0.05-6.59,1.18-7.05,4.74
					c-2.29-0.3-4.64-0.56-7-0.75c0.75-5.55,9.22-8.35,9.3-8.38c0.17-0.05,0.26-0.23,0.21-0.4c-0.05-0.17-0.23-0.26-0.4-0.21
					c-0.38,0.12-8.99,2.97-9.75,8.93c-2.49-0.19-4.98-0.31-7.39-0.33c0-7.09,9.82-12.22,9.93-12.28c0.38-0.19,0.08-0.76-0.29-0.57
					c-0.44,0.23-10.3,5.38-10.28,12.84c-3.01,0-5.89,0.16-8.5,0.54c-1.04-7.13,6.49-13.85,6.57-13.92c0.13-0.12,0.15-0.32,0.03-0.45
					c-0.12-0.13-0.32-0.15-0.45-0.03c-0.34,0.3-7.9,7.04-6.79,14.5c-1.11,0.18-2.17,0.4-3.16,0.66c-11,3.05-13.51-4.76-14.17-5.53
					c-0.27-0.57-0.92-0.87-1.54-0.68c-2.65,0.83,1.34,6.36,4.31,8.28c5.07,3.1,9.04,1.66,14.34,0.42c3.33,7.77,10.59,9.19,10.67,9.2
					c0.02,0,0.04,0,0.06,0c0.15,0,0.29-0.11,0.31-0.26c0.03-0.17-0.08-0.34-0.26-0.37c-0.07-0.01-6.94-1.36-10.15-8.72
					c2.25-0.51,3.78-0.74,6.36-0.98c2.47,4.65,11.47,6.01,11.89,6.07c0.02,0,0.03,0,0.05,0c0.16,0,0.29-0.11,0.32-0.27
					c0.03-0.17-0.1-0.34-0.27-0.36c-0.1-0.01-8.76-1.32-11.28-5.5c2.7-0.23,5.5-0.34,8.35-0.36c2.28,2.49,10.75,3.88,11.13,3.94
					c0.16,0.03,0.34-0.08,0.37-0.26C372.08,430.92,371.96,430.75,371.79,430.73z"/>
			</g>
		</g>
		<g>
			<g>
				<path class="st205" d="M234.76,418.82c0,0-40.02-8.94-53.65,28.53c-13.62,37.47-6.39,71.53,18.31,77.06
					c24.69,5.53,29.8-13.62,56.2-15.75c26.4-2.13,45.13-50.66,23.84-71.95C258.18,415.42,234.76,418.82,234.76,418.82z"/>
			</g>
			<g>
				<path class="st200" d="M251.36,471.65c0,15.28-12.39,27.67-27.67,27.67c-15.28,0-27.67-12.39-27.67-27.67
					c0-15.28,12.39-27.67,27.67-27.67C238.97,443.97,251.36,456.36,251.36,471.65z"/>
			</g>
			<g>
				<path class="st207" d="M223.69,443.97c-1.23,0-2.44,0.08-3.62,0.23c13.57,1.77,24.05,13.38,24.05,27.44
					c0,14.06-10.48,25.67-24.05,27.44c1.18,0.16,2.39,0.24,3.62,0.24c15.28,0,27.67-12.39,27.67-27.67
					C251.36,456.36,238.97,443.97,223.69,443.97z"/>
			</g>
		</g>
		<g>
			<g>
				<path class="st207" d="M262.68,591.09c-2.77-5.11-3.27-10.49,0.63-15.92c8.67-12.09,28.17-17.4,45.42-19.9
					c58.82-8.52,129.02,24.27,133.53,61.31c4.5,37.04-36.21,68.55-68.85,68.55c-32.64,0-62.64-43.43-68.02-53.22
					c-5.02-9.12-14.98-14.98-23.86-21.9C274.65,604.66,266.5,598.14,262.68,591.09z"/>
			</g>
			<g>
				<path class="st199" d="M442.25,616.58c-4.5-37.04-74.7-69.82-133.53-61.31c-17.25,2.5-36.75,7.8-45.42,19.9
					c-0.07,0.1-0.13,0.19-0.2,0.28c8.52-3.56,18.4-5.7,27.64-7.04c58.82-8.52,129.02,24.27,133.53,61.31
					c2.16,17.75-6.07,34.23-18.82,46.58C427.46,664.4,445.32,641.77,442.25,616.58z"/>
			</g>
			<g>
				<path class="st202" d="M391.59,638.94c0,9.64-10.69,17.46-23.88,17.46c-13.19,0-23.89-7.82-23.89-17.46
					c0-9.64,10.69-17.46,23.89-17.46C380.89,621.48,391.59,629.29,391.59,638.94z"/>
			</g>
			<g>
				<path class="st199" d="M382.26,638.94c0,5.88-6.52,10.64-14.55,10.64c-8.04,0-14.55-4.76-14.55-10.64
					c0-5.88,6.52-10.64,14.55-10.64C375.74,628.3,382.26,633.06,382.26,638.94z"/>
			</g>
			<g>
				<path class="st202" d="M389.68,654.21c0,2.56-2.49,4.63-5.57,4.63c-3.08,0-5.57-2.07-5.57-4.63c0-2.56,2.49-4.63,5.57-4.63
					C387.19,649.58,389.68,651.65,389.68,654.21z"/>
			</g>
			<g>
				<path class="st202" d="M337.85,581.88c0,0-37.86,7.88-41.93,28.52C295.91,610.41,316.59,587.63,337.85,581.88z"/>
			</g>
			<g>
				<path class="st202" d="M359.81,589.55c0,0-52.04,14.38-47,37.25C312.8,626.8,332.26,599.76,359.81,589.55z"/>
			</g>
		</g>
		<g>
			<path class="st207" d="M158.85,644.24c0,0,22.31-22.27-5.54-32.6c-27.85-10.32-34.55,16.41-34.55,16.41s-44.12-25.95-50.89,13.82
				c-6.76,39.76,25.44,29.72,25.44,29.72s-19.8,36.81,11.6,36.81s29.27-25.1,29.27-25.1s30.81,27.61,43.99-3.35
				C191.35,649,158.85,644.24,158.85,644.24z M167.23,675.68c-10.51,24.69-35.08,2.67-35.08,2.67s1.7,20.02-23.34,20.02
				c-25.04,0-9.25-29.36-9.25-29.36s-25.68,8.01-20.29-23.7c5.39-31.71,40.58-11.02,40.58-11.02s5.34-21.32,27.55-13.09
				c22.21,8.23,4.42,25.99,4.42,25.99S177.74,650.99,167.23,675.68z"/>
		</g>
		<g>
			<g>
				<path class="st195" d="M454.23,437.64c0,0-7.57-35.07-27.5-31.79c-19.93,3.28-14.63,18.67-8.33,18.67
					c6.31,0,4.63-11.2,15.06-7.74c10.42,3.45,16.48,20.86,16.48,20.86H454.23z"/>
			</g>
			<g>
				<path class="st198" d="M431.78,451.52c0,0-16.4-5.05-25.99,9.84c-9.59,14.88,2.02,48.69,27.75,69.63
					c25.73,20.94,42.64,30.53,49.7,27.25c7.06-3.28,5.8-7.82,5.8-7.82s24.72,10.85,26.49-12.87c0,0,18.42,11.1,21.19-14.13
					c2.78-25.23-14.38-111.01-47.18-106.46c0,0-16.17-0.25-19.82,16.65C469.73,433.61,437.07,415.44,431.78,451.52z"/>
			</g>
			<g>
				<path class="st200" d="M427.24,459.59c-4.2-2.83-16.47-3.53-14.54,14.13c1.93,17.66,55.41,77.96,64.49,75.43
					C486.27,546.63,448.49,473.92,427.24,459.59z"/>
			</g>
			<g>
				<path class="st200" d="M462.98,442.18c-3.4-3.58-15.81-9.08-19.34,4.04c-3.53,13.12,49.7,107.22,57.52,96.88
					C508.98,532.75,481.55,461.74,462.98,442.18z"/>
			</g>
			<g>
				<path class="st200" d="M497.87,430.07c-2.59-3.22-11.5-7.79-16.4-2.02c-10.6,12.49,33.3,114.03,39.61,102.93
					C527.39,519.89,514.11,450.24,497.87,430.07z"/>
			</g>
		</g>
		<g>
			<g>
				<path class="st195" d="M280.75,689.93c0,0-2.98,8.09-40.45,21.29c-41.78,14.72-61.31,17.46-73.65,57.48
					c0,0,19.23-4.69,40.45-6.39C247,759.12,276.59,725.38,280.75,689.93z"/>
			</g>
			<g>
				<path class="st195" d="M280.75,689.4c0,0,3.75,5.53,9.15,39.91c8.73,55.56-31.29,77.7-60.67,67.06c0,0,31.72-16.39,36.64-42.15
					C270.28,731.11,280.75,689.4,280.75,689.4z"/>
			</g>
			<g>
				<path class="st202" d="M241.15,734.21c0,7.17-5.81,12.99-12.99,12.99c-7.17,0-12.99-5.81-12.99-12.99
					c0-7.17,5.81-12.98,12.99-12.98C235.34,721.23,241.15,727.04,241.15,734.21z"/>
			</g>
			<g>
				<path class="st202" d="M216.46,743.79c0,4.94-4,8.94-8.94,8.94s-8.94-4-8.94-8.94c0-4.94,4-8.94,8.94-8.94
					S216.46,738.85,216.46,743.79z"/>
			</g>
			<g>
				<path class="st202" d="M198.31,751.45c0,4.94-4,8.94-8.94,8.94c-4.94,0-8.94-4-8.94-8.94c0-4.94,4-8.94,8.94-8.94
					C194.31,742.51,198.31,746.52,198.31,751.45z"/>
			</g>
			<g>
				<circle class="st202" cx="250.09" cy="722.72" r="8.94"/>
			</g>
			<g>
				<path class="st201" d="M232,722.72c18.14-2.66,37.71-21.2,45.39-29.16c-4.41,3.59-14.46,9.7-37.09,17.67
					c-41.78,14.72-61.31,17.46-73.65,57.48C166.64,768.7,208.79,726.12,232,722.72z"/>
			</g>
			<g>
				<path class="st201" d="M280.49,691.87c-4.18,17.03-59.08,54.06-78.54,58.92c-20.23,5.05-35.31,17.91-35.31,17.91
					s19.23-4.69,40.45-6.39C246.28,759.18,275.51,726.6,280.49,691.87z"/>
			</g>
			<g>
				<g>
					<path class="st197" d="M280.68,689.18c0,0-14.8-0.43-11.81,4.15c2.98,4.58,9.09-0.26,9.09-0.26s-4.74,2.71-4.04,6.59
						c0.69,3.88,5.09,2.08,6.08,0c1-2.08,0.68-4.11,0.68-4.11s0.07,5.86,2.86,6.39c2.79,0.53,0-7.02,0-7.02s2.31,3.25,3.74,1.81
						C288.71,695.31,280.68,689.18,280.68,689.18z"/>
				</g>
				<g>
					<path class="st197" d="M280,692.27c1.28-3.01,1.56-6.33,1.59-9.58c0.06-8.74-2.17-10.71,0.11-11.15
						c0.7-0.13,1.37,0.32,1.5,1.02C283.49,674.09,283.71,685.98,280,692.27z"/>
				</g>
			</g>
			<g>
				<g>
					<path class="st201" d="M270.1,775.3c0.66,3.77,0.1,8.05-2.08,11.2c-3.77,5.24-13.83,5.76-17.93,2.96
						c2.24,0.88,4.97,0.93,7.35,0.67c7.62-1.09,9.85-3.56,11.33-7.51C269.62,780.32,270.01,777.82,270.1,775.3z"/>
				</g>
				<g>
					<path class="st201" d="M279.04,748.9c10.56,8.44,5.66,25.99-8.94,26.4C283.81,772.4,287.46,758.56,279.04,748.9z"/>
				</g>
				<g>
					<path class="st201" d="M280.75,724.31c8.62,5.01,7.57,13.98,7.59,14.04c0,0-0.01,0.55-0.35,2c-0.16,0.38-1.47,6.25-8.95,8.55
						C290.25,742.69,288.85,731.62,280.75,724.31z"/>
				</g>
			</g>
		</g>
		<g>
			<g>
				<path class="st197" d="M1141.77,390.14c-5.5-2.36-12.68,2.07-16.05,9.9c-3.37,7.83-1.65,16.1,3.85,18.46
					c5.5,2.36,12.68-2.07,16.05-9.9C1148.99,400.78,1147.27,392.51,1141.77,390.14z M1140.05,394.15c2.95,1.27,4.71,3.77,3.93,5.58
					c-0.78,1.81-3.8,2.25-6.75,0.99c-2.95-1.27-4.71-3.77-3.93-5.58C1134.08,393.33,1137.1,392.88,1140.05,394.15z M1131.86,413.19
					c-4.16-1.79-6.56-5.51-5.36-8.31c1.2-2.8,5.55-3.61,9.71-1.82c4.16,1.79,6.56,5.51,5.36,8.31
					C1140.37,414.16,1136.02,414.98,1131.86,413.19z"/>
			</g>
			<g>
				<path class="st208" d="M1105.76,411.83c-4.02,3.62-7.21,8.06-9.35,13.02l-44.67,103.83c-2.7,6.27,0.25,13.56,6.59,16.29
					l59.37,25.54c6.33,2.73,13.66-0.15,16.35-6.42l44.66-103.83c2.14-4.96,3.16-10.33,3.03-15.74L1105.76,411.83z"/>
			</g>
			<g>
				<path class="st208" d="M1105.76,411.83c-4.02,3.62-7.21,8.06-9.35,13.02l-44.67,103.83c-2.7,6.27,0.25,13.56,6.59,16.29
					l59.37,25.54c6.33,2.73,13.66-0.15,16.35-6.42l44.66-103.83c2.14-4.96,3.16-10.33,3.03-15.74L1105.76,411.83z"/>
			</g>
			<g>
				<path class="st198" d="M1178.74,460.26l-44.67,103.84c-2.69,6.26-10.02,9.14-16.35,6.42l-59.37-25.54
					c-6.34-2.73-9.28-10.02-6.59-16.29l44.67-103.84c2.13-4.96,5.32-9.39,9.34-13.01l75.98,32.68
					C1181.88,449.93,1180.87,455.3,1178.74,460.26z"/>
			</g>
			<g>
				<path class="st200" d="M1067.49,535.45l44.66-103.83c2.14-4.96,5.33-9.4,9.35-13.02l-15.74-6.77
					c-4.02,3.62-7.21,8.06-9.35,13.02l-44.67,103.83c-2.7,6.27,0.25,13.56,6.59,16.29l15.74,6.77
					C1067.75,549.01,1064.8,541.72,1067.49,535.45z"/>
			</g>
			<g>
				<path class="st206" d="M1178.74,460.26l-44.67,103.84c-2.69,6.26-10.02,9.14-16.35,6.42l-24.28-10.44
					c6.4,2.75,13.78-0.1,16.47-6.37l44.67-103.84c2.13-4.96,3.13-10.33,2.98-15.75l24.18,10.4
					C1181.88,449.93,1180.87,455.3,1178.74,460.26z"/>
			</g>
			<g>
				<path class="st196" d="M1181.75,444.52l-76-32.69l0,0c1.43-3.32,5.3-4.84,8.66-3.4l63.85,27.47
					C1181.62,437.34,1183.18,441.2,1181.75,444.52L1181.75,444.52z"/>
			</g>
			<g>
				
					<rect x="1091.93" y="487.54" transform="matrix(0.3952 -0.9186 0.9186 0.3952 175.6867 1331.5022)" class="st196" width="14.05" height="89.6"/>
			</g>
		</g>
		<g>
			<g>
				
					<rect x="1107.02" y="657.44" transform="matrix(0.7921 -0.6104 0.6104 0.7921 -198.7416 837.8104)" class="st209" width="46.84" height="106.39"/>
			</g>
			<g>
				<polygon class="st196" points="1109.97,637.31 1106.3,637.53 1105.93,639.55 1103.49,639.7 1103.12,641.72 1100.68,641.87 
					1100.31,643.88 1097.86,644.03 1097.5,646.05 1095.05,646.2 1094.68,648.22 1092.24,648.37 1091.87,650.39 1089.43,650.53 
					1089.06,652.55 1086.61,652.7 1086.25,654.72 1083.8,654.87 1083.44,656.89 1080.99,657.04 1080.62,659.06 1078.18,659.2 
					1077.81,661.22 1075.37,661.37 1075,663.39 1072.55,663.54 1072.19,665.56 1069.74,665.71 1069.37,667.72 1066.93,667.87 
					1066.56,669.89 1064.12,670.04 1063.52,673.31 1063.38,673.41 1063.5,673.45 1063.48,673.54 1063.78,673.52 1074.53,676.45 
					1079.42,682.8 1116.52,654.21 1111.63,647.86 1110.07,637.43 1109.93,637.54 				"/>
			</g>
			<g>
				<polygon class="st196" points="1195.98,748.9 1186.04,744.41 1181.46,738.47 1144.36,767.06 1148.94,773.01 1149.28,784.46 
					1149.19,784.75 1149.29,784.76 1149.29,784.88 1149.43,784.77 1152.8,785.11 1153.53,782.73 1155.61,782.94 1156.34,780.57 
					1158.42,780.78 1159.15,778.4 1161.24,778.61 1161.96,776.23 1164.05,776.44 1164.78,774.07 1166.86,774.27 1167.59,771.9 
					1169.67,772.11 1170.4,769.73 1172.48,769.94 1173.21,767.56 1175.3,767.77 1176.03,765.4 1178.11,765.61 1178.84,763.23 
					1180.92,763.44 1181.65,761.06 1183.73,761.27 1184.46,758.89 1186.54,759.1 1187.27,756.73 1189.36,756.94 1190.09,754.56 
					1192.17,754.77 1192.9,752.39 1194.98,752.6 1196.08,749.03 1195.84,749.01 				"/>
			</g>
			<g>
				
					<rect x="1116.83" y="669.24" transform="matrix(0.7921 -0.6105 0.6105 0.7921 -198.6966 837.7782)" class="st202" width="27.05" height="82.6"/>
			</g>
			<g>
				<polygon class="st197" points="1079.42,682.8 1094.43,686.08 1115.85,669.57 1116.52,654.21 				"/>
			</g>
			<g>
				<polygon class="st197" points="1144.36,767.06 1144.85,751.51 1166.28,735 1181.46,738.47 				"/>
			</g>
		</g>
		<g>
			<g>
				<path class="st198" d="M963.16,154.02c2.34-9.21,5.08-18.36,14.75-22.32c8.37-3.43,18.32,0.14,23.83,7.01
					c15.95,19.92-16.19,56.54-35.75,73.17c-5.53,4.7-13.39,8.43-16.22,15.29c0.59-1.01,1.17-2.02,1.76-3.03
					c-0.85,0.97-1.69,1.95-2.55,2.92c-3.64,4.14-0.21,11.41,5.63,9.67c7.53-2.24,7.87-1.49,20.6-11.92
					c5.94-4.87,11.55-10.14,16.77-15.77c10.59-11.41,20.51-24.32,26.3-38.88c14.61-36.72-17.73-63.28-44.41-53.67
					c-14.16,5.1-28.22,21.66-23.46,37.54C952.26,160.11,961.52,160.49,963.16,154.02L963.16,154.02z"/>
			</g>
		</g>
		<g>
			<g>
				<path class="st198" d="M953.52,280.77c10.22,0,10.23-15.88,0-15.88C943.3,264.89,943.28,280.77,953.52,280.77L953.52,280.77z"/>
			</g>
		</g>
		<g>
			<g>
				<path class="st198" d="M853.14,68.14c-6-16.16-1.61-36.78,13.21-46.81c14.41-9.76,35.11-6.69,47.11,5.58
					c15.54,15.89,12.91,44.43,6.6,63.8c-3.45,10.6-8.9,20.78-16.05,29.35c-7.82,9.37-17.31,17.12-26.28,25.33
					c-18.54,16.99-39.65,44.06-26.99,70.35c3.22,6.69,12.58,1.72,11.33-4.77c-7.69-39.93,38.77-58.13,60.36-90.6
					c7.02-10.55,12.14-22.6,14.95-34.96c5.49-24.11,4.26-55.12-16.01-72.32c-16.83-14.28-42.9-17.97-61.87-5.58
					c-21.04,13.74-30.1,43.08-18.22,65.63C844.64,79.53,855.73,75.12,853.14,68.14L853.14,68.14z"/>
			</g>
		</g>
		<g>
			<path class="st198" d="M884.26,256.14c0,7.83-6.35,14.18-14.18,14.18c-7.83,0-14.18-6.35-14.18-14.18
				c0-7.83,6.35-14.18,14.18-14.18C877.91,241.96,884.26,248.31,884.26,256.14z"/>
		</g>
		<g>
			<path class="st198" d="M1268.23,767.13c-5.02,7.42-12.34,11.24-16.36,8.53c-4.01-2.71-3.2-10.93,1.82-18.36
				c5.02-7.43,12.34-11.24,16.36-8.53C1274.06,751.49,1273.25,759.71,1268.23,767.13z"/>
		</g>
		<g>
			<path class="st200" d="M1351.56,788.79c0,7.59-6.15,13.75-13.75,13.75c-7.59,0-13.74-6.16-13.74-13.75s6.15-13.75,13.74-13.75
				C1345.41,775.04,1351.56,781.2,1351.56,788.79z"/>
		</g>
		<g>
			<path class="st201" d="M1424.13,770.74c0,7.59-6.15,13.75-13.75,13.75c-7.59,0-13.75-6.15-13.75-13.75
				c0-7.59,6.15-13.75,13.75-13.75C1417.98,757,1424.13,763.15,1424.13,770.74z"/>
		</g>
		<g>
			<path class="st197" d="M1290.18,808.28c-2.43,3.59-9.85,2.81-16.59-1.74c-6.74-4.55-10.23-11.15-7.8-14.74
				c2.43-3.59,9.85-2.81,16.59,1.74C1289.11,798.09,1292.61,804.69,1290.18,808.28z"/>
		</g>
		<g>
			<path class="st201" d="M1318.25,749.66c0,5.8-4.7,10.5-10.51,10.5c-5.8,0-10.51-4.7-10.51-10.5c0-5.8,4.7-10.51,10.51-10.51
				C1313.54,739.16,1318.25,743.86,1318.25,749.66z"/>
		</g>
		<g>
			<path class="st198" d="M1257.26,643.4c0,3.37-6.26,6.1-13.99,6.1c-7.73,0-13.99-2.73-13.99-6.1c0-3.37,6.26-6.09,13.99-6.09
				C1250.99,637.3,1257.26,640.03,1257.26,643.4z"/>
		</g>
		<g>
			<ellipse class="st200" cx="1189.43" cy="588.4" rx="14.9" ry="6.83"/>
		</g>
		<g>
			<g>
				<path class="st210" d="M965.87,361.2c-18.67-30.03-51.57-52.53-88.08-52.61c-65.83-0.13-104.94,31.27-126.58,66.73
					c-0.7,1.14-1.4,2.29-2.1,3.45C699.2,460.93,671.84,519.06,584,555.05c-206.06,84.43-159.23,311.44-31.09,394.29
					c203.31,131.46,332.34,1.8,402.43-154.23C1063.94,553.4,979.09,382.48,965.87,361.2z"/>
			</g>
			<g>
				<path class="st198" d="M740.13,1105.65c0,0-49.04,83.1-68.2,157.72c-13.24,51.56-19.91,206.97-19.91,206.97h417.77
					c0,0-46.62-310.8-134.21-350.59C847.99,1079.97,740.13,1105.65,740.13,1105.65z"/>
			</g>
			<g>
				<path class="st200" d="M985.53,676.81c-60.66-5.69-224.96,9.18-299.48,21.22c-10.65,1.72,51.66,371.41,34.62,436.4l-34.69,71.04
					c0,0,208.91,44.87,313.92-11.89l-58.7-89.55C951.67,1056.12,1032.06,681.18,985.53,676.81z"/>
			</g>
			<g>
				<path class="st211" d="M787.63,580.87c0,0-9.06,220.63,43.35,225.16c52.41,4.53,53.65-129.93,54.32-146.43l3.65-89.87
					L787.63,580.87z"/>
			</g>
			<g class="st212">
				<path class="st213" d="M787.08,627.78c33.45,39.15,81.98,33.07,99.21,7.51l2.66-65.57l-101.32,11.15
					C787.63,580.87,786.83,600.31,787.08,627.78z"/>
			</g>
			<g>
				<path class="st211" d="M989.69,1156.73c25.89-8.36,121.13-449.38-10.99-480.37c0,0,3.05,9.71-1.52,90.96
					c-5.32,94.73-33.29,303.45-33.29,303.45s-119.18-29.69-213.06-19.16l-78.82,45.87L640,1148.74c0,0,28.53,28.53,34.49,28.53
					c5.96,0-9.8-25.12-9.8-25.12s14.69,14.69,18.31,11.07c3.62-3.62-6.62-23.42-6.62-23.42l56.86-30.23
					C733.24,1109.57,963.8,1165.1,989.69,1156.73z"/>
			</g>
			<g>
				<path class="st207" d="M978.54,676.27c0,0-3.89,0.89-4.86,91.06c-0.52,48.5-8.15,126.72-15.76,191.59
					c29.29-1.74,70.63-0.08,99.07,3.97C1078.75,827.47,1066.66,679.21,978.54,676.27z"/>
			</g>
			<g>
				<path class="st214" d="M619.56,791.99c-1.12,92,10.22,232,68.97,311.34c15.35,20.73,44.71-38.68,44.71-38.68
					s-22.72-370.45-47.29-366.6C663.44,701.57,620.48,716.27,619.56,791.99z"/>
			</g>
			<g>
				<path class="st207" d="M727.38,980.98c-8.32-109.02-24.43-285.59-41.43-282.93c-22.51,3.52-73.77,18.22-74.69,93.95
					c-0.74,60.8,4.04,145.73,24.27,217.1c18.32-10.52,45.49-23.44,67.06-24.91C710.97,983.74,719.2,982.46,727.38,980.98z"/>
			</g>
			<g>
				<g>
					<path class="st214" d="M791.72,602.92c0,0-2.77,8.09-4.68,18.95c-1.92,10.86,2.34,21.5-5.96,32.14
						c-8.3,10.64,22.11,74.31,22.11,74.31s6.42-23.43,3.65-43.66c-2.77-20.22,0.75-70.14,4.9-74.29
						C815.88,606.22,791.72,602.92,791.72,602.92z"/>
				</g>
				<g>
					<path class="st215" d="M762.55,557.3l-22.41,24.27l-15.91,21.93c0,0,3.83,39.81,1.7,46.83s-1.06,11.92,1.49,21.07
						s19.16,54.28,20.22,71.53c0,0-30.55,94.62-37.57,111.23c-7.02,16.6-37.47,131.85-43.75,162.53
						c-4.2,20.51,13.59,89.07,33.27,97.57c19.18,8.29,41.94,11.07,60.61-97.57c4.72-27.48,36.4-242.04,36.4-250.98
						c0-8.94,8.9-18.74,9.58-37.38c0.8-21.99-21.07-46.92-21.07-46.92l14.37-23.31l12.77-1.6c0,0,13.89,13.89,17.88,9.9
						s-7.34-16.92-7.34-16.92s4.47,5.32,8.2,1.6c3.73-3.73-17.14-27.46-17.14-27.46l-31.61-14.69l-6.39,0.96l-27.29,25.54
						l-1.44-30.02l11.5-21.39C758.62,584.02,779.9,561.56,762.55,557.3z"/>
				</g>
				<g>
					<path class="st213" d="M820.24,648.2c-1.01-0.43-2-0.89-2.98-1.36c-0.99-0.46-1.96-0.95-2.93-1.43
						c-0.98-0.47-1.93-0.99-2.9-1.49c-0.97-0.49-1.92-1.01-2.87-1.53l0.62,0.17c-1.95,0.11-3.9,0.21-5.85,0.27
						c-1.95,0.06-3.9,0.1-5.85,0.13l0.99-0.35c-4.11,3.38-8.31,6.66-12.6,9.83c-2.16,1.56-4.32,3.12-6.53,4.62
						c-2.21,1.5-4.44,2.98-6.76,4.34c1.83-1.98,3.75-3.83,5.69-5.67c1.94-1.84,3.93-3.61,5.92-5.38c4.01-3.51,8.12-6.9,12.31-10.19
						l0.45-0.35l0.54,0.01c1.95,0.02,3.9,0.07,5.85,0.13c1.95,0.06,3.9,0.16,5.85,0.27l0.39,0.02l0.22,0.15
						c0.9,0.61,1.78,1.23,2.66,1.88c0.88,0.64,1.77,1.26,2.64,1.92c0.87,0.66,1.75,1.29,2.6,1.97
						C818.55,646.82,819.41,647.49,820.24,648.2z"/>
				</g>
				<g>
					<path class="st213" d="M820.24,644.58c-0.98-1.12-1.91-2.26-2.84-3.41l-2.74-3.48l-2.68-3.52l-2.61-3.56l0.69,0.52
						c-1.78-0.47-3.55-0.99-5.32-1.49c-1.77-0.49-3.54-1.02-5.3-1.55c-3.52-1.08-7.03-2.18-10.52-3.34l1.34-0.21l-5.31,3.53
						l-5.38,3.44c-1.82,1.11-3.62,2.24-5.47,3.31c-1.83,1.09-3.69,2.14-5.58,3.15c1.59-1.44,3.2-2.84,4.85-4.19
						c1.63-1.38,3.31-2.69,4.96-4.03l5.05-3.9l5.12-3.81l0.58-0.43l0.76,0.22c3.53,1.04,7.05,2.14,10.55,3.26
						c1.75,0.57,3.5,1.14,5.24,1.75c1.74,0.61,3.49,1.18,5.22,1.81l0.49,0.18l0.21,0.34l2.28,3.78l2.22,3.82l2.15,3.87
						C818.89,641.95,819.59,643.25,820.24,644.58z"/>
				</g>
			</g>
			<g>
				<path class="st211" d="M768.43,392.16c0,0-13.8,31.06-13.8,95.76s15.53,101.79,45.72,123.36c30.19,21.57,65.01,11.96,81.95,0
					c30.59-21.6,60.39-101.79,51.76-158.73C925.44,395.61,899.56,283.46,768.43,392.16z"/>
			</g>
			<g>
				<path class="st210" d="M814.15,327.03c-3.02,0-42.7,15.53-61.68,56.07c-18.98,40.55,0,95.76,0,95.76s14.43-36.23,26.62-39.25
					c12.2-3.02,58.78,12.08,77.33-6.47c18.55-18.55,41.41-56.94,41.41-56.94s-4.53,48.96-18.55,62.97
					c-14.02,14.02,42.26,22,55.85,4.75c13.59-17.25,20.06,53.92,20.06,53.92s6.9-91.44-36.66-138.46
					C874.97,312.36,814.15,327.03,814.15,327.03z"/>
			</g>
		</g>
		<g>
			<g>
				<path class="st195" d="M622.1,219.11c0,0,36.66,32.21,16.12,74.34c-20.54,42.14-89.73,80.36-102.18,79.28
					c-10.2-0.89-17.06-6.82-23.75-13.99c-5.8-6.21-0.66-4.54,10.26-32.96c10.92-28.42,19.94-25.17,26.13-56.52
					C554.86,237.92,596.58,198.26,622.1,219.11z"/>
			</g>
			<g>
				<path class="st201" d="M535.07,358.01c-5.56,3.25-12.17,4.05-18.4,2.41c-0.03-0.01-0.06-0.02-0.09-0.02
					c-8.22-2.1-15.07-9.32-4.15-37.73c10.92-28.42,17.6-30.25,23.78-61.59c6.19-31.34,60.15-63.52,85.67-42.68
					c0,0,1.86,1.63,3.31,3.79c6.01,15.32,7.99,35.07-3.6,57.23C605.63,309.93,566.75,339.48,535.07,358.01z"/>
			</g>
			<g>
				<path class="st202" d="M623.9,233.43c-1.87-8.13-8.3-14.45-16.48-15.91c-24.87-4.45-61.98,20.51-66.71,44.44
					c-4,20.26-8.21,28.59-13.53,39.14c-5.33,10.55-28.58,51.77-7.23,56.71c11.53,2.67,25.06-11.12,33.76-17.04
					c8.51-5.8,16.79-11.97,24.68-18.59c7.85-6.58,18.19-14.26,23.73-23C606.06,292.96,631.98,268.6,623.9,233.43z"/>
			</g>
			<g>
				<path class="st199" d="M555.48,262.26c-10.88,17.71-9.84,38.17,2.34,45.7c12.17,7.53,30.86-0.73,41.75-18.44
					c10.88-17.71,9.84-38.17-2.34-45.7C585.06,236.29,566.37,244.55,555.48,262.26z"/>
			</g>
		</g>
		<g>
			<g>
				<path class="st195" d="M587.13,446.67c-3.46,12.81-18.41,19.25-33.41,14.39c-14.99-4.86-24.34-19.19-20.88-32
					c3.46-12.81,18.41-19.25,33.41-14.39C581.24,419.54,590.59,433.86,587.13,446.67z"/>
			</g>
			<g>
				<path class="st201" d="M584.53,443.95c0,3.83-2.84,6.94-6.33,6.94c-3.5,0-6.33-3.11-6.33-6.94c0-3.83,2.83-6.94,6.33-6.94
					C581.69,437.01,584.53,440.12,584.53,443.95z"/>
			</g>
		</g>
		<g>
			<g>
				<path class="st201" d="M642.14,382.5c0,0,6.32,12.23,19.73,10.46c13.41-1.77,19.51-35.49,23.34-44.92
					c3.83-9.43,8.7-9.37,8.7-9.37s-44.9-17.4-63.9,9.61C618.67,364.4,627.68,375.42,642.14,382.5z"/>
			</g>
			<g>
				<path class="st195" d="M676,354.52c-2.72,1.82-9.7,5.95-13.55,6.29c7.53-7.03,15.91-13.66,23.54-19.33
					c-4.47,2.57-10.04,6.08-15.78,10.13c-2.58-3.57,2.47-10.39,2.53-10.46c0.35-0.46-0.36-1.01-0.71-0.55
					c-0.23,0.31-5.5,7.41-2.53,11.51c-2.59,1.84-5.2,3.79-7.76,5.81c-4.58-6.42,1.24-17.26,1.3-17.37c0.12-0.21,0.04-0.49-0.18-0.61
					c-0.21-0.12-0.49-0.05-0.6,0.17c-0.27,0.49-6.19,11.51-1.21,18.36c-2.69,2.15-5.3,4.37-7.75,6.62
					c-6.82-7.29-1.88-21.81-1.82-21.97c0.19-0.55-0.65-0.86-0.84-0.31c-0.23,0.65-5.19,15.23,2.01,22.87
					c-3.03,2.84-5.77,5.72-8.04,8.55c-7.9-6.35-6.79-20.35-6.77-20.5c0.02-0.24-0.16-0.46-0.4-0.49c-0.25-0.03-0.46,0.15-0.48,0.39
					c-0.05,0.63-1.18,14.68,7.12,21.29c-0.95,1.23-1.8,2.45-2.54,3.65c-8.13,13.48-18.17,7.83-19.58,7.65
					c-0.82-0.34-1.76-0.03-2.2,0.75c-1.87,3.35,7.46,5.27,12.31,4.46c8.08-1.59,10.69-6.8,14.83-13.07
					c10.82,4.86,19.49-0.52,19.58-0.58c0.02-0.02,0.04-0.03,0.06-0.05c0.15-0.14,0.18-0.38,0.06-0.57
					c-0.13-0.21-0.41-0.27-0.62-0.14c-0.09,0.06-8.29,5.14-18.59,0.59c1.77-2.63,3.09-4.32,5.45-6.99
					c6.96,2.45,17.32-4.62,17.8-4.95c0.02-0.01,0.03-0.03,0.05-0.04c0.16-0.15,0.19-0.39,0.06-0.58c-0.14-0.2-0.42-0.26-0.62-0.12
					c-0.11,0.08-10.08,6.88-16.64,4.96c2.49-2.78,5.2-5.53,8.05-8.23c4.69,0.41,14.55-6.13,14.99-6.42c0.19-0.12,0.26-0.4,0.12-0.62
					C676.48,354.44,676.2,354.39,676,354.52z"/>
			</g>
		</g>
		<g>
			<g>
				<path class="st207" d="M1451.63,574.53c-11.12,9.45-18.4,22.49-28.03,33.3c-2.53,2.84-5.25,5.51-8.24,7.86
					c-12.7,9.96-33.73,17.83-40.83,30.4c0,0-13.72,20,17.63,33.43c31.35,13.42,112.71-60.39,101.9-99.28
					c-1.47-5.29-4.1-10.8-9.09-13.58c-11.35-6.33-24.35,0.26-33.26,7.81C1451.69,574.48,1451.66,574.51,1451.63,574.53z"/>
			</g>
			<g>
				<g>
					<path class="st198" d="M1393.96,698.87c-3.07,0.85-6.44,0.78-9.67-0.43c-8.07-3.01-12.14-12.08-9.13-20.15
						c0.53-1.42,13.44-34.89,56.93-53.55c31.53-13.53,45.9-44.49,47.61-56.54c1.21-8.53,9.11-14.46,17.64-13.25
						c8.53,1.21,14.46,9.11,13.25,17.63c-3.07,21.58-23.75,62.6-66.19,80.82c-30.67,13.16-39.69,35.02-40.06,35.94
						C1402.51,694.2,1398.57,697.59,1393.96,698.87z"/>
				</g>
			</g>
			<g>
				<g>
					<path class="st202" d="M1386.75,677.47c-0.53-3.82-2.35-14.99,1.96-17.29c2.84-1.52,3.49,4.45,6.06,5.95
						c5.62,3.28,10.19-2.91,11.08-7.66c0.78-4.18-0.65-10.45,1.66-14.05c5.97-9.35,7.98-0.44,13.4,0.65c7.4,1.5,8.42-6.6,9.68-11.7
						c2.56-10.33,7.65-4.72,9.41-4.11c2.57,0.89,5.3,0.84,7.64-0.71c3.77-2.49,3.2-6.14,4.61-9.86c3.99-10.49,19.08-2.39,21.77-20.5
						c0.9-6.1-0.75-3.32,3.35-4.96c2.86-1.14,5.19-0.79,7.3-3.57c1.94-2.56,0.4-11.11,2.12-12.22c4.43-2.86,0.45-9.46-4.2-7.01
						c-3.06,1.61-5.41,4.27-5.75,7.84c-0.35,3.7,2.34,4.42-1.24,7.07c-2.04,1.51-6.21-1.46-8.99,7.89
						c-1.36,4.56-1.46,8.33-6.05,10.56c-2.42,1.17-5.34,1.28-7.82,2.41c-10.56,4.8-6.67,12.93-8.89,14.75
						c-2.54,2.08-2.89,0-5.19-0.47c-7.14-1.47-11.2,0.42-14.1,7.89c-0.72,1.85-0.78,4.27-1.67,6.03c-2.21,4.38-4.07,2-7.38,1.47
						c-2.61-0.42-4-1.58-6.75-0.08c-7.97,4.34-5.72,22.98-9.65,24.1c-3.18,0.9-4.96-5.44-7.68-6.42
						c-8.79-3.16-16.88,12.05-12.2,25.04C1380.59,682.25,1387.38,682.03,1386.75,677.47L1386.75,677.47z"/>
				</g>
			</g>
			<g>
				<path class="st200" d="M1483.45,591.31c-12.44,10.75-20.53,25.64-31.29,37.95c-2.82,3.23-5.86,6.28-9.21,8.95
					c-14.21,11.33-37.79,20.2-45.68,34.55c0,0-15.29,22.82,20.03,38.4c35.32,15.58,126.28-68.44,113.87-113.05
					c-1.69-6.06-4.68-12.39-10.3-15.61c-12.8-7.33-27.36,0.14-37.33,8.73C1483.51,591.25,1483.48,591.28,1483.45,591.31z"/>
			</g>
		</g>
		<g>
			<path class="st202" d="M1385.71,1475.34H351.55c-2.76,0-5-2.24-5-5c0-2.76,2.24-5,5-5h1034.16c2.76,0,5,2.24,5,5
				C1390.71,1473.11,1388.47,1475.34,1385.71,1475.34z"/>
		</g>
	</g>
</g>
</svg>
