<svg xmlns="http://www.w3.org/2000/svg" width="19.759" height="17.444" viewBox="0 0 19.759 17.444">
  <g id="heart" transform="translate(0 -30)">
    <g id="Gruppe_151" data-name="Gruppe 151" transform="translate(0 30)">
      <path id="Pfad_91" data-name="Pfad 91" d="M14.511,30a4.678,4.678,0,0,0-2.922,1.01A6.655,6.655,0,0,0,9.88,33.066,6.655,6.655,0,0,0,8.17,31.01,4.678,4.678,0,0,0,5.249,30C2.256,30,0,32.447,0,35.693,0,39.2,2.815,41.6,7.077,45.23c.724.617,1.544,1.316,2.4,2.061a.618.618,0,0,0,.813,0c.853-.746,1.673-1.445,2.4-2.062,4.261-3.631,7.076-6.03,7.076-9.536C19.759,32.447,17.5,30,14.511,30Z" transform="translate(0 -30)" fill="#31006f"/>
    </g>
  </g>
</svg>
