<?xml version="1.0" encoding="utf-8"?>
<!-- Generator: Adobe Illustrator 24.2.0, SVG Export Plug-In . SVG Version: 6.00 Build 0)  -->
<svg version="1.1" id="Layer_1" xmlns="http://www.w3.org/2000/svg" xmlns:xlink="http://www.w3.org/1999/xlink" x="0px" y="0px"
	 viewBox="0 0 107.7 31.6" style="enable-background:new 0 0 107.7 31.6;" xml:space="preserve">
<style type="text/css">
	.st0{fill:none;}
	.st1{fill:#FCA298;}
</style>
<g>
	<path class="st0" d="M74.9,8.6c-1.5,0-2.5,0.5-3.2,1.5c-0.7,1-1,2.5-1,4.6s0.3,3.6,1,4.6c0.7,1,1.8,1.5,3.2,1.5
		c1.4,0,2.5-0.5,3.1-1.5c0.7-1,1-2.5,1-4.6s-0.3-3.6-1-4.6C77.4,9.1,76.4,8.6,74.9,8.6z"/>
	<path class="st0" d="M52.7,8.6c-1.5,0-2.5,0.5-3.2,1.5c-0.7,1-1,2.5-1,4.6s0.3,3.6,1,4.6c0.7,1,1.8,1.5,3.2,1.5
		c1.4,0,2.5-0.5,3.1-1.5c0.7-1,1-2.5,1-4.6s-0.3-3.6-1-4.6C55.2,9.1,54.2,8.6,52.7,8.6z"/>
	<path class="st1" d="M19.2,13.9c-0.6-0.5-1.3-1-2-1.4c-0.8-0.4-1.5-0.7-2.3-1c-0.8-0.3-1.6-0.5-2.3-0.8c-0.8-0.2-1.4-0.5-2-0.7
		C10,9.8,9.5,9.5,9.1,9.2C8.8,8.9,8.6,8.4,8.6,7.9c0-0.7,0.3-1.2,0.8-1.6s1.3-0.6,2.4-0.6c0.7,0,1.4,0.1,1.9,0.2s1.1,0.3,1.5,0.5
		c0.4,0.2,0.9,0.4,1.2,0.5c0.4,0.2,0.8,0.2,1.2,0.2c0.4,0,0.7-0.1,0.9-0.2c0.2-0.1,0.5-0.4,0.7-0.7L21,3.5c-0.5-0.5-1.1-1-1.8-1.4
		c-0.7-0.4-1.4-0.8-2.2-1.1s-1.7-0.6-2.6-0.7C13.6,0.1,12.6,0,11.6,0C9.8,0,8.3,0.2,6.9,0.7C5.6,1.2,4.5,1.8,3.6,2.6
		C2.7,3.4,2,4.3,1.6,5.3c-0.4,1-0.7,2.1-0.7,3.3c0,1.2,0.2,2.3,0.5,3.2c0.4,0.9,0.8,1.6,1.4,2.2c0.6,0.6,1.3,1.1,2,1.5
		s1.5,0.7,2.3,1C8,16.8,8.8,17,9.5,17.2c0.8,0.2,1.4,0.5,2,0.7c0.6,0.3,1.1,0.6,1.4,0.9c0.4,0.3,0.5,0.8,0.5,1.3
		c0,0.3-0.1,0.6-0.2,0.9c-0.1,0.3-0.3,0.5-0.6,0.8c-0.3,0.2-0.6,0.4-1,0.5c-0.4,0.1-1,0.2-1.6,0.2c-0.9,0-1.6-0.1-2.2-0.3
		c-0.6-0.2-1.1-0.4-1.5-0.7s-0.8-0.5-1.2-0.7c-0.4-0.2-0.8-0.3-1.3-0.3c-0.5,0-0.9,0.1-1.2,0.3c-0.3,0.2-0.6,0.5-0.8,0.8l-1.9,3
		c0.5,0.5,1.2,0.9,1.9,1.3c0.7,0.4,1.5,0.8,2.4,1.1C5.1,27.3,6,27.6,7,27.7C7.9,27.9,8.8,28,9.7,28c1.9,0,3.5-0.2,4.9-0.7
		s2.6-1.1,3.6-1.9c1-0.8,1.7-1.8,2.2-2.9c0.5-1.1,0.7-2.4,0.7-3.7c0-1.1-0.2-2-0.5-2.8C20.3,15.1,19.8,14.5,19.2,13.9z"/>
	<path class="st1" d="M37.9,19c-0.4,0-0.7,0.1-0.9,0.3c-0.2,0.2-0.5,0.4-0.8,0.6c-0.3,0.2-0.6,0.4-1.1,0.6c-0.4,0.2-1,0.3-1.7,0.3
		c-1.3,0-2.4-0.5-3.2-1.6s-1.1-2.6-1.1-4.6c0-0.9,0.1-1.8,0.3-2.5c0.2-0.8,0.4-1.4,0.8-1.9c0.4-0.5,0.8-0.9,1.4-1.2
		c0.6-0.3,1.2-0.4,2-0.4c0.6,0,1.1,0.1,1.5,0.2c0.4,0.1,0.8,0.3,1.1,0.5s0.6,0.3,0.8,0.5c0.2,0.1,0.5,0.2,0.8,0.2
		c0.3,0,0.6-0.1,0.7-0.2c0.2-0.1,0.4-0.3,0.5-0.5L40.7,7c-1-1-2.1-1.8-3.3-2.3C36.1,4.2,34.7,4,33.1,4c-1.7,0-3.2,0.3-4.5,0.8
		c-1.3,0.5-2.4,1.3-3.2,2.2c-0.9,1-1.5,2.1-2,3.4c-0.4,1.3-0.7,2.7-0.7,4.2c0,1.7,0.3,3.2,0.8,4.6c0.5,1.3,1.2,2.5,2.1,3.4
		c0.9,0.9,1.9,1.6,3,2.1c1.2,0.5,2.4,0.7,3.6,0.7c0.7,0,1.4-0.1,2.2-0.2c0.7-0.1,1.5-0.3,2.2-0.5c0.7-0.3,1.5-0.6,2.2-1.1
		c0.7-0.5,1.4-1.1,2-1.8L39,19.6C38.8,19.2,38.4,19,37.9,19z"/>
	<path class="st1" d="M60.4,6.8c-0.9-0.9-2-1.6-3.3-2.1C55.7,4.2,54.3,4,52.7,4c-1.6,0-3,0.2-4.3,0.7c-1.3,0.5-2.4,1.2-3.4,2.1
		c-0.9,0.9-1.7,2-2.2,3.4c-0.5,1.3-0.8,2.8-0.8,4.4c0,1.7,0.3,3.1,0.8,4.5c0.5,1.3,1.2,2.5,2.2,3.4c0.9,0.9,2.1,1.6,3.4,2.1
		c1.3,0.5,2.7,0.8,4.3,0.8c1.6,0,3-0.2,4.3-0.8c1.3-0.5,2.4-1.2,3.3-2.1c0.9-0.9,1.6-2.1,2.2-3.4c0.5-1.3,0.8-2.8,0.8-4.5
		c0-1.6-0.3-3.1-0.8-4.4C62,8.9,61.3,7.7,60.4,6.8z M55.9,19.2c-0.7,1-1.7,1.5-3.1,1.5c-1.5,0-2.5-0.5-3.2-1.5c-0.7-1-1-2.5-1-4.6
		s0.3-3.6,1-4.6c0.7-1,1.8-1.5,3.2-1.5c1.4,0,2.5,0.5,3.1,1.5c0.7,1,1,2.5,1,4.6S56.6,18.2,55.9,19.2z"/>
	<path class="st1" d="M82.6,6.8c-0.9-0.9-2-1.6-3.3-2.1C77.9,4.2,76.5,4,74.9,4c-1.6,0-3,0.2-4.3,0.7c-1.3,0.5-2.4,1.2-3.4,2.1
		c-0.9,0.9-1.7,2-2.2,3.4c-0.5,1.3-0.8,2.8-0.8,4.4c0,1.7,0.3,3.1,0.8,4.5c0.5,1.3,1.2,2.5,2.2,3.4c0.9,0.9,2.1,1.6,3.4,2.1
		c1.3,0.5,2.7,0.8,4.3,0.8c1.6,0,3-0.2,4.3-0.8c1.3-0.5,2.4-1.2,3.3-2.1c0.9-0.9,1.6-2.1,2.2-3.4c0.5-1.3,0.8-2.8,0.8-4.5
		c0-1.6-0.3-3.1-0.8-4.4C84.2,8.9,83.5,7.7,82.6,6.8z M78.1,19.2c-0.7,1-1.7,1.5-3.1,1.5c-1.5,0-2.5-0.5-3.2-1.5c-0.7-1-1-2.5-1-4.6
		s0.3-3.6,1-4.6c0.7-1,1.8-1.5,3.2-1.5c1.4,0,2.5,0.5,3.1,1.5c0.7,1,1,2.5,1,4.6S78.8,18.2,78.1,19.2z"/>
	<path class="st1" d="M107.1,10c-0.4-1.3-0.9-2.4-1.6-3.3c-0.7-0.9-1.5-1.6-2.4-2.1c-0.9-0.5-1.9-0.7-3-0.7c-0.7,0-1.4,0.1-2,0.2
		c-0.6,0.1-1.2,0.3-1.7,0.6C96,5,95.5,5.3,95,5.6c-0.5,0.4-0.9,0.8-1.3,1.2l-0.5-1.5C93.2,5,93,4.7,92.7,4.5c-0.3-0.2-0.6-0.3-1-0.3
		h-3.8v27.3h6.2v-8c0.6,0.5,1.3,0.9,2,1.2c0.7,0.3,1.6,0.5,2.7,0.5c1.3,0,2.5-0.3,3.6-0.8c1.1-0.5,2-1.3,2.8-2.3
		c0.8-1,1.4-2.1,1.8-3.4c0.4-1.3,0.7-2.8,0.7-4.3C107.7,12.8,107.5,11.3,107.1,10z M98.5,20c-2.2,0-4-2.5-4-5.5c0-3,1.8-5.5,4-5.5
		s4,2.5,4,5.5C102.5,17.5,100.7,20,98.5,20z"/>
</g>
</svg>
