<svg xmlns="http://www.w3.org/2000/svg" width="16.292" height="15.281" viewBox="0 0 16.292 15.281">
  <path id="star" d="M15.224,5.881a.806.806,0,0,0-.7-.544l-4.406-.39L8.378.972a.82.82,0,0,0-1.492,0L5.144,4.947l-4.406.39a.807.807,0,0,0-.7.544.777.777,0,0,0,.237.84l3.33,2.847-.982,4.217a.781.781,0,0,0,.315.817.823.823,0,0,0,.891.038l3.8-2.214,3.8,2.214a.825.825,0,0,0,.892-.038.781.781,0,0,0,.315-.817l-.982-4.217,3.33-2.847A.779.779,0,0,0,15.224,5.881Zm0,0" transform="translate(0.514 0.008)" fill="none" stroke="#ffb031" stroke-width="1"/>
</svg>
