<svg xmlns="http://www.w3.org/2000/svg" width="25.684" height="25.78" viewBox="0 0 25.684 25.78">
  <g id="search" transform="translate(0 0)">
    <g id="Gruppe_69" data-name="Gruppe 69" transform="translate(0 0)">
      <path id="Pfad_58" data-name="Pfad 58" d="M25.776,20.315l-4.243-4.243a11.706,11.706,0,0,0,1.286-5.143A10.929,10.929,0,1,0,11.889,21.858a11.706,11.706,0,0,0,5.143-1.286l4.243,4.243a3.107,3.107,0,0,0,4.5,0A3.351,3.351,0,0,0,25.776,20.315ZM11.889,19.287a8.358,8.358,0,1,1,8.358-8.358A8.341,8.341,0,0,1,11.889,19.287Z" transform="translate(-0.96 0)" fill="#380080"/>
    </g>
  </g>
</svg>
